<svg width="260" height="280" viewBox="0 0 260 280" fill="none" xmlns="http://www.w3.org/2000/svg">
<path d="M114.994 103.923C114.521 107.566 113.764 111.167 112.73 114.693C119.27 115.003 125.821 114.946 132.354 114.522C131.245 110.919 130.52 107.21 130.191 103.455L114.994 103.923Z" fill="#EE9E7B"/>
<path d="M99.8683 66.954C99.7544 73.7515 99.7895 80.546 99.9734 87.3376C100.017 89.0881 100.083 90.8997 100.692 92.5583C101.493 94.7463 103.17 96.4967 104.799 98.1684L111.255 104.785C111.824 105.442 112.504 105.995 113.265 106.417C114.36 106.947 115.634 106.907 116.851 106.855L127.051 106.448C128.365 106.395 129.709 106.334 130.909 105.791C132.109 105.249 133.029 104.295 133.931 103.354L143.325 93.5823C144.06 92.8121 144.818 92.0069 145.124 90.9916C145.327 90.1038 145.351 89.1844 145.195 88.2872L143.005 68.4068C142.993 67.8285 142.843 67.2614 142.567 66.7527C142.213 66.2898 141.749 65.9215 141.218 65.6806C131.091 60.2264 119.326 58.631 108.11 61.1907C104.736 61.9959 101.795 64.0551 99.8858 66.9496L99.8683 66.954Z" fill="#EE9E7B"/>
<path d="M100.297 81.5921C99.8564 81.344 99.3521 81.2311 98.8474 81.2677C98.3427 81.3043 97.86 81.4887 97.4595 81.7978C96.6686 82.4372 96.1277 83.334 95.9311 84.3315C95.7268 85.125 95.6994 85.9537 95.8507 86.759C96.0021 87.5643 96.3285 88.3266 96.807 88.992C97.3057 89.649 97.9869 90.1446 98.7658 90.417C99.5446 90.6894 100.387 90.7265 101.186 90.5236" fill="#EE9E7B"/>
<path d="M136.957 63.4838C138.131 60.7487 141.976 58.2632 144.945 58.0706C147.914 57.8781 151.44 58.7839 152.053 62.1535C152.203 63.0484 152.117 63.967 151.803 64.8185C150.927 67.2953 148.895 68.9057 146.916 70.4592C148.065 70.1913 149.255 70.1526 150.419 70.3454C151.116 70.4601 151.757 70.7991 152.244 71.3109C152.731 71.8227 153.037 72.4794 153.117 73.1811C153.209 74.844 152.18 76.3187 149.964 76.8789C152.28 76.7914 154.234 80.336 151.006 81.9464C150.366 82.209 149.649 82.209 149.009 81.9464C148.716 81.8501 149.657 83.4123 148.641 84.6332C147.879 85.5522 147.327 84.7427 146.999 84.8871C145.895 85.3684 144.787 82.7778 143.679 83.2592C142.871 79.6183 142.198 75.9482 141.66 72.249C141.157 68.8724 139.491 65.777 136.948 63.4969L136.957 63.4838Z" fill="#632B25"/>
<path d="M142.112 79.1371C142.957 78.5901 144.739 78.7432 145.562 79.3428C146.355 79.981 146.896 80.8783 147.091 81.8765C147.296 82.6699 147.325 83.4989 147.173 84.3043C147.022 85.1098 146.695 85.8721 146.215 86.537C145.718 87.1904 145.041 87.6837 144.266 87.956C143.492 88.2282 142.654 88.2674 141.858 88.0686" fill="#EE9E7B"/>
<path d="M137.272 63.7376C137.088 58.6745 131.483 52.6618 126.613 51.244C121.743 49.8261 116.54 50.6313 111.596 51.8479C105.417 53.3708 99.1325 55.6988 94.8451 60.4031C90.5577 65.1073 88.9549 72.7392 92.6554 77.9073C93.0934 78.5243 93.6276 79.1282 93.7984 79.8721C94.0787 81.0756 93.3123 82.3315 92.2788 83.0098C91.2452 83.688 89.9796 83.9156 88.7753 84.1257C91.2584 86.6244 97.3019 86.0205 99.0887 82.9879C99.9646 81.5088 100.127 79.7408 100.275 78.0298C100.613 74.1483 99.7237 70.2623 100.061 66.3764L137.272 63.7376Z" fill="#632B25"/>
<path d="M96.3516 83.2287C93.47 78.1175 92.4846 71.4133 95.6903 66.5122C97.5559 63.6458 100.582 61.7466 103.687 60.3157C112.607 56.2404 122.66 55.3611 132.153 57.8257C133.69 58.2283 135.328 58.8103 136.178 60.1537C137.119 61.6372 136.76 63.694 135.674 65.0812C134.588 66.4684 132.924 67.2692 131.242 67.7943C124.038 69.9824 116.295 67.3305 108.78 67.7943C106.564 67.9256 104.112 68.4858 102.89 70.3412C101.668 72.1967 102.106 74.5597 101.786 76.7171C101.318 79.8547 100.657 84.082 95.2174 85.4692L96.3516 83.2287Z" fill="#632B25"/>
<path d="M110.83 92.1951C110.629 92.198 110.432 92.1388 110.267 92.0256C110.101 91.9124 109.974 91.7507 109.904 91.5628C109.834 91.3748 109.824 91.1698 109.875 90.9759C109.927 90.7819 110.037 90.6086 110.19 90.4797C111.567 89.2132 113.191 88.2448 114.959 87.6352C116.479 87.2399 118.045 87.0529 119.615 87.0795C123.685 86.9715 127.754 86.9555 131.824 87.0313C132.484 87.0303 133.124 87.2558 133.637 87.6702C134.395 88.3223 134.645 89.2018 134.982 90.204C135.042 90.3825 135.06 90.5728 135.033 90.7594C135.007 90.946 134.936 91.1237 134.828 91.278C134.719 91.4323 134.576 91.5589 134.41 91.6475C134.243 91.7362 134.058 91.7843 133.87 91.7881L110.83 92.1951Z" fill="#632B25"/>
<path d="M104.484 83.5874C104.506 83.7156 104.566 83.8343 104.655 83.9283C104.745 84.0224 104.861 84.0875 104.988 84.1152C105.115 84.143 105.248 84.1321 105.369 84.0841C105.49 84.036 105.593 83.953 105.667 83.8456C107.856 80.7036 111.325 78.0429 114.653 76.4063C114.971 76.2835 115.248 76.0725 115.45 75.798C115.545 75.5623 115.569 75.3041 115.521 75.0548C115.472 74.8054 115.351 74.5756 115.174 74.3933C114.579 73.6756 112.949 73.3255 112.034 73.5181C111.455 73.6796 110.909 73.9434 110.423 74.297C108.807 75.321 107.173 76.3669 105.881 77.7979C104.589 79.2288 104.278 81.058 104.379 82.966L104.484 83.5874Z" fill="#632B25"/>
<path d="M140.697 82.1171C140.696 82.2184 140.665 82.317 140.606 82.4C140.548 82.4829 140.466 82.5462 140.371 82.5813C140.276 82.6165 140.172 82.6219 140.074 82.5968C139.976 82.5717 139.888 82.5173 139.821 82.4409C137.513 79.7846 133.9 77.5791 130.568 77.1284C129.814 77.0277 128.991 76.9665 128.816 75.6011C128.783 75.1506 128.864 74.699 129.052 74.2883C129.15 73.8719 129.355 73.4886 129.648 73.1768C130.06 72.8661 130.642 73.0017 131.132 73.1768C133.734 74.0489 136.173 75.3457 138.35 77.0146C139.567 77.9423 140.377 78.2574 140.71 80.7342L140.697 82.1171Z" fill="#632B25"/>
<path d="M127.743 91.985C127.528 92.7596 127.336 93.5385 127.108 94.3087C127.016 94.6194 126.933 94.8032 126.591 94.8557C126.191 94.8966 125.789 94.9112 125.387 94.8995C123.653 94.9491 121.917 94.9491 120.18 94.8995C119.404 94.8995 119.404 96.0941 120.18 96.1072C122.185 96.1466 124.187 96.1379 126.188 96.0679C127.064 96.0372 127.795 95.8272 128.15 94.9651C128.455 94.088 128.708 93.1938 128.908 92.287C128.944 92.1346 128.92 91.9742 128.84 91.8395C128.76 91.7049 128.631 91.6064 128.48 91.565C128.329 91.5236 128.167 91.5424 128.03 91.6175C127.892 91.6926 127.79 91.8181 127.743 91.9675V91.985Z" fill="#301629"/>
<path d="M119.383 85.9286C119.312 86.1494 119.295 86.3836 119.332 86.6122C119.37 86.8408 119.461 87.0573 119.598 87.2442C119.735 87.431 119.914 87.5828 120.121 87.6873C120.328 87.7918 120.557 87.846 120.788 87.8454H125.347C126.122 87.8454 126.994 87.7972 127.537 87.2327C128.492 86.2 127.537 84.5808 126.587 83.5437L124.909 81.3207C124.639 80.9634 124.276 80.6871 123.86 80.5221C123.443 80.3572 122.989 80.3098 122.548 80.3853C122.106 80.4607 121.693 80.656 121.355 80.9499C121.017 81.2437 120.767 81.6248 120.631 82.0514L119.383 85.9286Z" fill="#C05929"/>
<path d="M120.464 99.013H125.422C125.582 99.013 125.736 98.9493 125.849 98.8361C125.963 98.7228 126.026 98.5692 126.026 98.4091C126.026 98.2489 125.963 98.0953 125.849 97.9821C125.736 97.8688 125.582 97.8052 125.422 97.8052H120.464C120.304 97.8052 120.15 97.8688 120.037 97.9821C119.924 98.0953 119.86 98.2489 119.86 98.4091C119.86 98.5692 119.924 98.7228 120.037 98.8361C120.15 98.9493 120.304 99.013 120.464 99.013Z" fill="#301629"/>
<path d="M106.429 84.7735C106.631 83.1168 107.145 81.5132 107.944 80.0474C108.141 79.6168 108.453 79.2489 108.846 78.984C109.206 78.8114 109.599 78.7203 109.998 78.717C113.011 78.4677 116.037 78.3931 119.059 78.4939C119.61 78.4939 120.245 78.5858 120.534 79.0496C120.679 79.3347 120.74 79.6548 120.71 79.973V83.22C120.742 83.3871 120.734 83.5595 120.686 83.7229C120.638 83.8863 120.552 84.0359 120.435 84.1592C120.317 84.2826 120.172 84.376 120.011 84.4319C119.85 84.4878 119.678 84.5044 119.51 84.4803C115.218 85.0648 110.891 85.3573 106.56 85.3555" fill="#301629"/>
<path d="M140.066 84.7735C139.842 83.1216 139.329 81.5219 138.551 80.0474C138.355 79.6158 138.043 79.2475 137.649 78.984C137.291 78.8119 136.899 78.7208 136.502 78.717C133.487 78.4677 130.46 78.3931 127.436 78.4939C126.889 78.4939 126.254 78.5858 125.96 79.0496C125.82 79.3361 125.761 79.6554 125.79 79.973V83.22C125.763 83.4952 125.817 83.7723 125.947 84.0165C126.08 84.1601 126.24 84.2753 126.419 84.355C126.597 84.4348 126.79 84.4774 126.985 84.4803C131.278 85.0648 135.606 85.3573 139.939 85.3555C139.939 85.3555 140.167 85.4255 140.066 84.7735Z" fill="#301629"/>
<path d="M120.552 82.4934C120.885 82.066 121.306 81.7151 121.787 81.4645C122.267 81.2138 122.796 81.0692 123.337 81.0406C123.799 81.0342 124.253 81.1634 124.642 81.4124C125.032 81.6613 125.339 82.0189 125.527 82.4409C125.608 82.5789 125.741 82.6793 125.896 82.7203C126.051 82.7612 126.216 82.7395 126.355 82.6597C126.49 82.5761 126.589 82.4437 126.629 82.2898C126.67 82.1359 126.65 81.9723 126.574 81.8326C126.288 81.2411 125.842 80.741 125.288 80.3885C124.733 80.036 124.091 79.8451 123.434 79.8372C122.712 79.845 122.001 80.0123 121.351 80.327C120.701 80.6417 120.129 81.0961 119.676 81.6576C119.618 81.7149 119.573 81.7831 119.541 81.8582C119.51 81.9333 119.494 82.0139 119.494 82.0952C119.494 82.1765 119.51 82.2571 119.541 82.3322C119.573 82.4073 119.618 82.4755 119.676 82.5328C119.733 82.591 119.801 82.6373 119.877 82.6688C119.952 82.7004 120.033 82.7167 120.114 82.7167C120.196 82.7167 120.276 82.7004 120.352 82.6688C120.427 82.6373 120.495 82.591 120.552 82.5328V82.4934Z" fill="#301629"/>
<path d="M134.014 62.1887C132.516 64.7268 129.503 65.497 126.74 65.5757C123.876 65.6545 120.609 65.5757 118.086 64.0704C117.416 63.6678 116.444 63.449 118.108 65.02C120.521 67.2999 123.578 67.3787 126.81 67.1817C129.81 67.0023 132.941 65.5276 134.561 62.8057C135.437 61.3353 134.408 61.4929 134.014 62.1799V62.1887Z" fill="#804342"/>
<path d="M132.915 58.832C128.281 51.5634 120.184 51.6509 116.58 52.1717C109.538 53.1957 102.369 56.4558 97.902 61.5364C97.1487 62.4116 94.4598 67.466 95.7692 71.5664C96.0057 72.3015 97.0173 73.9207 96.7764 73.1767C94.4992 66.0482 99.934 59.5235 105.829 56.2677C111.566 53.0994 122.089 54.0315 124.66 54.9549C125.974 55.4187 130.913 58.5651 133.029 61.4533C133.467 62.0791 133.935 60.4512 133.467 59.8254L132.915 58.832Z" fill="#804342"/>
<path d="M112.77 59.8867C117.964 59.0115 124.594 58.5739 128.185 63.2913C128.654 63.8996 129.705 63.2913 129.232 62.6787C125.251 57.458 118.283 57.7293 112.446 58.7183C111.679 58.8496 112.008 60.0312 112.77 59.8867Z" fill="#804342"/>
<path d="M142.19 62.6392C142.488 62.4598 142.76 62.276 142.834 62.2322C143.903 61.5758 145.234 61.5014 146.456 61.5539H146.754C147.035 61.5569 147.312 61.6243 147.564 61.7509C148.142 62.0878 148.054 62.8843 147.879 63.4269C147.616 64.2627 146.933 64.766 146.268 65.2649C145.496 65.8224 144.822 66.5024 144.271 67.2778C143.806 67.9561 144.174 68.1531 144.862 67.5185C145.3 67.0809 145.633 66.8446 146.071 66.3676C146.907 65.4574 147.91 64.6172 148.593 63.5319C148.843 63.1381 149.346 62.381 149.298 61.8822C149.241 61.2695 148.3 60.8494 147.844 60.5387C146.035 59.2915 145.282 60.4862 142.116 61.9959C141.744 62.1754 141.008 62.6261 141.192 62.9937C141.271 63.1556 141.761 62.8974 142.19 62.6392Z" fill="#804342"/>
<path d="M149.631 78.6687L149.596 79.3995L149.894 78.8787C149.429 79.08 149.548 79.4214 149.184 79.1457C148.746 78.8175 147.756 78.5593 147.432 78.1392C146.719 77.264 145.479 76.0124 144.292 75.903C144.468 76.2093 145.076 76.1262 145.251 76.4325C146.092 74.739 146.705 73.1811 148.54 72.6998C149.07 72.5597 151.256 72.6254 150.857 73.575C150.699 73.9524 150.418 74.2653 150.059 74.4631C149.701 74.6609 149.286 74.7319 148.882 74.6646C148.554 74.6296 147.529 74.6383 147.787 74.7915C148.152 75.0044 148.565 75.1232 148.987 75.1372C149.829 75.2425 150.683 75.1201 151.461 74.7828C151.899 74.5508 152.136 72.7304 151.842 72.3059C151.194 71.3607 149.889 71.5795 148.935 71.8683C147.979 72.1629 147.087 72.635 146.307 73.2599C145.434 73.9533 144.723 74.8284 144.222 75.8243C144.008 76.2619 144.257 76.2619 144.726 76.3231C145.808 76.4194 146.478 78.1173 147.143 78.835C148.019 79.7889 150.038 80.1259 150.542 79.929C150.634 79.8763 150.71 79.7997 150.763 79.7073C150.815 79.6149 150.842 79.5101 150.84 79.4039L150.875 78.6731C150.914 77.8941 149.705 77.8985 149.666 78.6731L149.631 78.6687Z" fill="#804342"/>
<path d="M144.104 63.5583C143.193 63.7421 142.545 64.4904 142.068 65.2737C141.739 65.8207 141.669 67.4311 141.954 68.4814C142.212 69.4529 142.882 70.2099 143.587 70.9538C144.551 71.9647 145.243 70.9539 146.127 70.4769C146.815 70.1136 146.451 69.7198 145.764 70.083C145.23 70.3631 144.56 70.6125 144.104 70.2581C143.552 69.8205 143.259 68.7221 143.092 68.07C142.786 66.8491 143.044 64.1797 144.551 63.8734C145.313 63.7202 144.862 63.4095 144.113 63.5671L144.104 63.5583Z" fill="#804342"/>
<path d="M125.89 57.1823C122.321 56.1037 118.638 55.4414 114.916 55.2087C111.898 55.0381 109.963 56.4559 106.433 58.4864C105.858 58.8713 105.438 59.4478 105.249 60.113C105.06 60.7782 105.113 61.4889 105.399 62.1185C106.043 63.3788 106.529 64.9761 107.804 65.0899C111.399 65.4006 115.888 62.3548 119.431 62.1404C122.772 61.9391 126.359 63.2694 128.098 66.2627C128.183 66.3919 128.314 66.4837 128.465 66.519C128.615 66.5543 128.774 66.5306 128.907 66.4526C129.041 66.3746 129.14 66.2483 129.183 66.0998C129.226 65.9513 129.211 65.7919 129.14 65.6544C127.827 63.494 125.713 61.9399 123.258 61.3308C120.416 60.5607 117.64 61.077 114.837 61.7684C113.248 62.2249 111.613 62.5052 109.963 62.6043C108.754 62.6305 105.859 62.4949 106.459 60.5957C106.897 59.1866 109.564 58.4076 110.839 57.7994C112.214 57.1342 112.722 56.5959 114.237 56.4865C118.108 56.1583 124.248 57.4186 127.918 58.5039C128.667 58.7227 126.639 57.4274 125.895 57.1911L125.89 57.1823Z" fill="#804342"/>
<path d="M93.0716 65.7068C91.8673 67.2866 91.679 69.4002 92.13 71.2863C92.6337 73.4131 94.3197 75.1241 95.7693 76.7039C97.3852 78.4543 96.7327 76.9796 96.2685 76.3538C94.2234 73.6144 92.5198 70.1398 94.1183 66.3195C95.432 63.2081 93.5358 65.0942 93.0716 65.7068Z" fill="#804342"/>
<path d="M96.1107 83.443C98.4274 80.9224 100.162 76.2006 100.052 74.3889C99.8157 70.713 99.4041 65.7156 101.962 62.6655C102.461 62.0747 102.045 62.1141 101.375 62.5123C99.623 63.5451 99.0318 68.9276 98.9442 72.3759C98.8435 76.2137 98.0684 76.4588 96.8071 80.9967C96.1195 83.443 95.5896 84.0162 96.1195 83.443H96.1107Z" fill="#804342"/>
<path d="M231.7 183.344C200.361 188.32 184.123 190.372 136.602 194.061C132.661 194.367 116.755 194.788 112.862 195.492C112.862 195.492 71.6565 209.933 59.9154 210.905C62.8583 222.72 72.1469 237.24 76.9029 248.434L65.1225 252.188C52.4844 240.532 40.9458 227.74 30.6525 213.972C28.1256 210.589 25.5506 206.734 25.9447 202.524C26.4571 197.046 31.6729 193.378 36.4552 190.643C55.1506 179.935 82.237 169.039 104.265 162.269L138.656 165.332L239.981 170.724L231.7 183.344Z" fill="#153A23"/>
<path d="M100.928 140.445C92.5186 135.48 86.0143 127.846 82.4515 118.758C85.6353 117.883 89.1958 110.203 91.1271 107.52C98.7997 111.739 113.992 111.992 124.274 112.084" fill="#FAC7B7"/>
<path d="M91.6482 166.575C91.6482 166.575 95.2568 165.061 96.0276 159.328H143.163C143.163 159.328 142.974 165.056 147.187 165.783L91.6482 166.575Z" fill="#153A23"/>
<path d="M84.6412 76.7477C85.057 69.3186 86.8992 62.0388 90.0673 55.3051C94.4734 45.9525 100.442 37.4182 107.716 30.0684C110.19 27.539 112.932 25.0097 116.619 24.874C117.495 24.839 118.371 24.8127 119.19 24.7734C121.607 24.6596 123.727 23.3993 125.72 22.1477C130.695 19.0101 137.193 17.0103 141.082 12.4373C143.539 9.54908 144.927 3.60202 138.989 5.8732C133.051 8.14437 126.985 10.4681 121.187 13.1199C101.712 22.0121 85.25 35.9454 77.0168 55.6027C72.6374 66.0395 70.3952 78.2269 71.9499 89.4689C73.4991 100.77 77.4372 111.611 83.5026 121.274L91.1139 107.542C91.1139 107.542 83.7654 96.5581 84.6412 76.7477Z" fill="#EE9E7B"/>
<path d="M158.004 131.286L192.155 168.194L177.917 167.437L152.28 144.48L158.004 131.286Z" fill="#EE9E7B"/>
<path d="M124.253 112.084C132.052 112.806 138.442 113.502 143.417 116.631C148.392 119.76 155.591 126.906 160.014 133.457C158.105 137.859 154.185 140.082 152.28 144.48L142.133 138.769L124.253 112.084Z" fill="#FAC7B7"/>
<path d="M230.601 183.431C234.153 183.467 237.695 183.05 241.142 182.193C242.355 181.891 243.603 181.506 244.505 180.644C245.486 179.707 245.915 176.95 246.292 175.651C248.293 168.729 249.874 161.692 251.026 154.58C251.267 153.088 251.464 151.547 251.105 150.09C250.746 148.633 249.572 147.263 248.074 147.097C245.626 146.821 244.037 149.539 243.121 151.823L238.891 162.383C237.713 165.319 236.395 168.435 233.771 170.207L230.601 183.431Z" fill="#EE9E7B"/>
<path d="M206.992 50.7452C216.985 63.0244 222.788 71.6758 228.109 86.5282C233.018 100.243 235.961 108.509 239.977 129.182C241.291 136.017 242.539 142.48 242.732 137.15C243.826 106.982 235.672 72.8661 218.579 47.7695C209.971 35.1735 197.916 25.3189 183.856 19.382C174.221 15.2992 163.522 10.6299 153.042 9.75469C151.667 9.64092 149.193 9.40461 147.787 9.84221C147.635 9.88744 147.502 9.98045 147.407 10.1074C147.313 10.2343 147.262 10.3884 147.262 10.5468C147.262 10.7051 147.313 10.8592 147.407 10.9861C147.502 11.1131 147.635 11.2061 147.787 11.2513C153.905 12.9536 184.053 22.5328 206.992 50.7452Z" fill="#227B3D"/>
<path d="M172.355 10.2974C184.618 14.0826 195.842 20.0822 205.639 28.935C216.985 39.2099 225.713 52.1281 232.129 65.9476C238.668 80.0473 242.916 95.1884 245.171 110.548C246.38 118.736 247.001 127.001 247.028 135.277C247.028 142.594 249.336 126.328 249.655 123.151C251.105 109.586 249.813 108.864 248.994 98.3129C246.463 65.7419 233.171 35.6303 205.923 16.7608C192.741 7.63234 176.516 6.59521 161.118 4.71351C159.366 4.49909 157.422 4.02647 155.762 4.80979C153.537 5.85566 159.454 7.15973 160.141 7.28663C164.267 8.05675 168.345 9.06196 172.355 10.2974Z" fill="#F4BA24"/>
<path d="M167.03 2.67853C179.629 2.76167 197.734 7.64535 203.681 10.5554C210.609 13.9469 218.671 19.4957 225.924 27.11C239.789 41.6648 244.794 54.8936 249.349 74.297C252.147 86.2261 253.216 107.914 254.035 120.123C254.394 125.418 256.851 117.423 257.192 112.084C258.734 88.1472 262.448 67.5973 252.813 46.9379C244.199 28.4316 236.281 18.0253 217.686 9.41327C196.801 -0.257807 180.856 1.02 169.513 0.582396C160.465 0.227935 159.318 1.24318 164.543 2.33281L167.03 2.67853Z" fill="#F1673C"/>
<path d="M76.5614 247.724L84.8515 262.196C85.1392 262.53 85.2999 262.955 85.3055 263.396C85.3111 263.837 85.1613 264.266 84.8822 264.607C82.8809 267.986 79.4518 271.727 76.9599 274.76C76.3156 275.649 75.4921 276.395 74.5425 276.948C73.4958 277.468 72.2871 277.525 71.1222 277.56C65.1969 277.731 52.3479 277.56 46.4401 277.123C45.2008 277.026 43.76 276.786 43.1731 275.692C42.9981 275.285 42.9218 274.842 42.9507 274.401C42.9797 273.959 43.1129 273.53 43.3395 273.149C44.5 270.913 47.1758 269.885 49.6896 269.648C52.2033 269.412 54.7478 269.784 57.244 269.43C59.7402 269.075 69.2654 267.758 70.0887 265.377C70.9646 262.909 69.6507 260.266 68.3632 257.982L65.07 252.07L76.5614 247.724Z" fill="#EE9E7B"/>
<path d="M101.09 132.892C93.9534 128.868 88.0406 122.987 83.9798 115.874C83.1959 114.399 80.9581 115.708 81.742 117.187C86.0323 124.68 92.2655 130.878 99.785 135.129C101.261 135.903 102.57 133.667 101.099 132.892H101.09Z" fill="white"/>
<path d="M102.281 126.341C95.6027 124.35 90.9781 118.355 86.4673 113.423C85.3374 112.189 83.5068 114.023 84.6323 115.253C89.4891 120.565 94.4158 126.7 101.594 128.84C103.197 129.317 103.88 126.818 102.281 126.341Z" fill="white"/>
<path d="M105.286 119.331C103.534 119.611 101.822 118.705 100.324 117.961C98.6304 117.115 96.956 116.24 95.3006 115.336C92.4803 113.76 89.7082 112.08 87.5141 109.673C86.3886 108.435 84.558 110.273 85.6791 111.502C88.1622 114.233 91.3724 116.132 94.5737 117.896C96.3648 118.88 98.1735 119.848 100.026 120.71C101.878 121.572 103.849 122.197 105.973 121.852C106.302 121.757 106.581 121.537 106.751 121.24C106.92 120.942 106.966 120.59 106.88 120.259C106.785 119.93 106.565 119.651 106.267 119.482C105.969 119.313 105.617 119.267 105.286 119.353V119.331Z" fill="white"/>
<path d="M87.6761 108.881C90.9838 111.77 94.8371 113.967 99.0086 115.343C103.18 116.719 107.585 117.247 111.964 116.894C113.615 116.754 113.628 114.159 111.964 114.303C107.926 114.654 103.858 114.192 100.001 112.945C96.1441 111.697 92.5771 109.689 89.511 107.039C88.2585 105.945 86.4192 107.77 87.6761 108.868V108.881Z" fill="white"/>
<path d="M138.455 132.485C143.184 135.986 147.745 139.697 152.136 143.618C153.38 144.725 155.202 142.896 153.971 141.785C149.413 137.724 144.678 133.879 139.764 130.249C139.204 129.812 138.319 130.157 138.012 130.713C137.85 131.009 137.808 131.355 137.894 131.681C137.981 132.007 138.189 132.287 138.477 132.464L138.455 132.485Z" fill="white"/>
<path d="M137.653 125.418C144.636 130.057 151.108 135.42 156.962 141.417C158.131 142.612 159.962 140.778 158.797 139.584C152.774 133.432 146.12 127.93 138.945 123.169C137.553 122.246 136.252 124.482 137.631 125.41L137.653 125.418Z" fill="white"/>
<path d="M131.833 117.139C143.688 118.579 151.978 128.486 159.099 137.085C160.168 138.367 161.989 136.525 160.934 135.251C153.244 125.987 144.525 116.089 131.833 114.548C131.137 114.465 130.519 115.205 130.519 115.861C130.519 116.209 130.658 116.543 130.904 116.789C131.151 117.035 131.485 117.174 131.833 117.174V117.139Z" fill="white"/>
<path d="M143.136 159.823C143.263 145.749 143.136 143.36 140.539 129.558C138.941 121.007 137.272 118.421 137.272 118.421C123.508 104.164 104.427 118.421 104.427 118.421C102.347 121.046 101.042 127.803 100.403 131.133C98.0289 143.509 96.7852 147.43 95.9181 160.015" fill="#FAC7B7"/>
<path d="M190.622 189.212C190.122 189.274 188.379 186.149 188.112 185.65C186.763 183.23 186.549 180.351 187.898 181.025C189.882 182.023 189.882 179.029 192.654 181.427C193.906 182.508 195.08 183.685 196.306 184.806C196.827 185.278 199.306 188.188 199.866 188.123L190.622 189.212Z" fill="#EE9E7B"/>
<path d="M92.708 155.49C106.1 155.782 119.496 155.782 132.897 155.49C136.675 155.411 140.453 155.306 144.231 155.175C146.451 155.101 146.46 151.648 144.231 151.722C130.839 152.175 117.443 152.341 104.042 152.221C100.264 152.186 96.4859 152.129 92.708 152.051C90.4789 152.002 90.4789 155.46 92.708 155.503V155.49Z" fill="white"/>
<path d="M95.6948 146.091C108.049 147.72 120.523 148.256 132.972 147.692C136.475 147.529 139.979 147.281 143.482 146.948C143.937 146.936 144.369 146.75 144.69 146.428C145.011 146.107 145.197 145.674 145.208 145.22C145.208 144.345 144.415 143.404 143.482 143.496C131.077 144.681 118.591 144.769 106.17 143.758C102.667 143.466 99.1778 143.093 95.7035 142.638C94.7751 142.515 93.9518 143.513 93.9518 144.366C93.9518 145.399 94.7488 145.968 95.7035 146.091H95.6948Z" fill="white"/>
<path d="M97.8669 137.745C109.181 139.045 120.593 139.281 131.951 138.45C135.163 138.214 138.374 137.891 141.586 137.483C142.51 137.365 143.311 136.769 143.311 135.754C143.311 134.91 142.519 133.908 141.586 134.026C130.287 135.462 118.879 135.836 107.51 135.142C104.299 134.943 101.087 134.66 97.8756 134.293C96.9472 134.188 96.1239 135.168 96.1239 136.043C96.1239 137.063 96.9209 137.662 97.8756 137.767L97.8669 137.745Z" fill="white"/>
<path d="M101.002 128.565C114 129.826 127.115 129.062 139.878 126.302C142.068 125.834 141.131 122.504 138.958 122.972C126.493 125.644 113.689 126.366 101.002 125.112C100.07 125.02 99.2726 125.987 99.2726 126.84C99.2794 127.296 99.464 127.732 99.787 128.054C100.11 128.376 100.546 128.559 101.002 128.565Z" fill="white"/>
<path d="M101.642 120.604C113.361 120.075 127.13 121.09 138.678 118.465C140.846 117.97 138.153 115.108 135.985 115.598C130.427 116.863 124.673 117.029 118.993 117.06C113.208 117.095 107.423 116.889 101.642 117.152C99.4259 117.252 99.4128 120.705 101.642 120.604Z" fill="white"/>
<path d="M227.36 169.104C229.318 169.402 234.919 168.772 236.316 167.354C236.938 166.626 237.387 165.768 237.63 164.842C238.943 161.057 240.231 158.099 241.532 154.313C242.561 151.324 243.656 148.222 245.911 145.977C246.956 144.944 248.204 144.139 249.575 143.611C250.947 143.084 252.413 142.847 253.881 142.914C251.569 155.771 248.628 168.492 245.057 181.077C244.928 181.731 244.638 182.341 244.212 182.854C243.66 183.418 242.841 183.602 242.066 183.729C238.085 184.46 230.706 184.718 226.668 184.508L227.36 169.104Z" fill="#301629"/>
<path d="M233.027 174.023C232.612 174.115 232.215 174.276 231.853 174.5C228.578 176.491 230.176 181.979 234.148 182.022C234.802 182.032 235.449 181.882 236.031 181.585C236.614 181.287 237.115 180.851 237.49 180.316C239.276 177.598 236.311 173.301 233.027 174.023Z" fill="white"/>
<path d="M246.196 183.41C246.726 181.782 247.072 180.079 247.457 178.416C248.118 175.572 248.771 172.728 249.371 169.866C250.54 164.527 251.67 159.184 252.835 153.845C253.566 150.48 254.508 147.167 255.138 143.78C255.335 142.717 254.845 141.496 253.689 141.233C252.673 141.001 251.35 141.539 251.14 142.677C250.544 145.885 249.655 149.018 248.95 152.204C248.482 154.339 248.026 156.479 247.566 158.619C246.292 164.553 245.026 170.487 243.669 176.404C243.231 178.373 242.824 180.39 242.193 182.316C242.051 182.845 242.123 183.408 242.394 183.885C242.664 184.361 243.111 184.712 243.638 184.862C244.169 184.995 244.729 184.918 245.205 184.648C245.68 184.379 246.033 183.937 246.191 183.414L246.196 183.41Z" fill="white"/>
<path d="M244.435 184.534C245 182.81 245.346 180.994 245.749 179.226C246.428 176.233 247.063 173.231 247.707 170.225C248.871 164.741 249.988 159.249 251.166 153.766C252.042 149.648 253.592 145.697 254.368 141.553C254.49 140.901 253.492 140.62 253.369 141.277C252.625 145.263 251.136 149.053 250.273 153.009C249.809 155.123 249.397 157.245 248.933 159.359C247.619 165.59 246.345 171.822 244.956 178.031C244.518 180.101 244.08 182.237 243.441 184.259C243.235 184.893 244.234 185.164 244.44 184.534H244.435Z" fill="#301629"/>
<path d="M236.268 166.518C237.292 166.518 238.383 166.636 239.36 166.251C239.58 166.183 239.782 166.067 239.951 165.91C240.12 165.754 240.252 165.561 240.336 165.346C240.42 165.132 240.455 164.901 240.438 164.671C240.42 164.442 240.351 164.219 240.235 164.019C240.016 163.622 239.757 163.247 239.465 162.899C239.272 162.645 238.83 162.199 238.838 161.849C238.838 161.599 239.403 161.468 239.653 161.411C240.209 161.275 240.757 161.11 241.295 160.917C242.215 160.558 243.135 159.937 243.047 158.825C242.977 158.085 242.517 157.512 242.136 156.913C241.878 156.501 241.492 155.792 242.075 155.495C243.003 155.018 244.483 155.228 244.799 153.924C245.057 152.843 243.853 152.3 243.209 151.688C243.095 151.573 242.988 151.452 242.889 151.324C242.951 151.324 242.797 151.648 242.771 151.626C242.745 151.605 242.81 151.626 242.828 151.626C242.982 151.644 243.138 151.644 243.292 151.626C243.897 151.679 244.575 151.81 245.145 151.521C245.424 151.381 245.637 151.138 245.739 150.843C245.842 150.548 245.825 150.224 245.692 149.942C245.514 149.646 245.279 149.389 245 149.186C244.721 148.983 244.404 148.838 244.067 148.76C243.432 148.554 243.161 149.557 243.791 149.758C244.01 149.828 245 150.195 244.733 150.563C244.523 150.839 243.625 150.624 243.34 150.598C243.124 150.55 242.9 150.548 242.682 150.593C242.465 150.637 242.259 150.727 242.079 150.856C241.953 150.995 241.877 151.172 241.866 151.36C241.855 151.547 241.909 151.732 242.018 151.885C242.258 152.23 242.554 152.533 242.894 152.782C243.191 153.022 243.643 153.25 243.77 153.53C243.949 154.007 243.012 154.169 242.697 154.243C242.243 154.311 241.806 154.459 241.405 154.681C240.249 155.451 240.879 156.869 241.492 157.775C241.746 158.147 242.193 158.737 241.992 159.219C241.851 159.565 241.413 159.753 241.116 159.884C240.214 160.26 238.926 160.273 238.217 160.978C237.56 161.621 237.932 162.479 238.387 163.114C238.668 163.512 239.841 164.619 239.338 165.118C238.996 165.459 238.3 165.463 237.853 165.485C237.341 165.507 236.828 165.485 236.311 165.485C236.174 165.485 236.043 165.54 235.946 165.637C235.849 165.733 235.795 165.865 235.795 166.002C235.795 166.139 235.849 166.27 235.946 166.367C236.043 166.464 236.174 166.518 236.311 166.518H236.268Z" fill="white"/>
<path d="M232.585 175.598C232.337 176.4 232.159 177.221 232.05 178.053C231.945 178.837 231.805 179.703 232.169 180.438C232.209 180.506 232.264 180.564 232.33 180.608C232.397 180.651 232.472 180.679 232.55 180.689C232.629 180.699 232.709 180.691 232.784 180.666C232.859 180.641 232.927 180.599 232.983 180.543C233.547 179.898 234.106 179.248 234.66 178.592L235.471 177.62C235.637 177.468 235.767 177.279 235.85 177.069C235.933 176.859 235.966 176.633 235.948 176.408C235.919 176.298 235.854 176.201 235.763 176.132C235.673 176.063 235.562 176.026 235.449 176.027C234.678 176.15 233.916 176.321 233.167 176.539C232.773 176.64 232.374 176.745 231.972 176.837C231.788 176.881 231.604 176.916 231.42 176.951L231.192 176.986C231.126 176.986 231.267 176.986 231.166 176.986H231.034C230.935 176.991 230.84 177.024 230.759 177.081C230.678 177.138 230.615 177.217 230.577 177.309C230.539 177.4 230.527 177.501 230.544 177.598C230.561 177.696 230.605 177.787 230.671 177.861C231.244 178.384 231.917 178.784 232.65 179.038C233.368 179.297 234.056 179.63 234.704 180.031C234.803 180.089 234.918 180.111 235.032 180.096C235.145 180.081 235.25 180.029 235.33 179.948C235.409 179.866 235.459 179.761 235.473 179.648C235.487 179.536 235.465 179.421 235.409 179.322L233.767 175.94L233.531 175.45C233.452 175.355 233.341 175.291 233.22 175.271C233.098 175.25 232.973 175.273 232.867 175.337C232.762 175.4 232.682 175.499 232.643 175.616C232.604 175.733 232.608 175.861 232.655 175.975L234.297 179.353L234.533 179.843L235.243 179.134C234.613 178.746 233.945 178.422 233.25 178.167C232.874 178.005 232.501 177.834 232.142 177.642C231.992 177.558 231.845 177.466 231.704 177.366L231.612 177.301C231.56 177.266 231.669 177.353 231.612 177.301C231.556 177.248 231.499 177.2 231.446 177.143L231.078 178.018C231.852 177.927 232.617 177.768 233.364 177.546C233.763 177.445 234.157 177.336 234.56 177.239L235.111 177.112L235.335 177.069L235.492 177.042L234.993 176.662C234.993 176.53 234.993 176.622 234.923 176.688C234.888 176.738 234.85 176.786 234.809 176.832C234.691 176.977 234.568 177.121 234.45 177.27L233.75 178.106C233.268 178.669 232.782 179.23 232.291 179.791L233.106 179.896C233.008 179.624 232.98 179.332 233.027 179.047C233.027 178.697 233.084 178.351 233.136 178.005C233.245 177.276 233.409 176.556 233.627 175.852C233.78 175.235 232.777 174.964 232.585 175.598Z" fill="#301629"/>
<path d="M112.52 91.4207C114.164 89.7188 116.315 88.5949 118.651 88.2174L118.244 87.6835C117.672 88.7666 116.945 89.7602 116.085 90.633C115.805 90.9174 116.177 91.4513 116.523 91.2019C117.874 90.2436 119.347 89.4695 120.902 88.9001L120.464 88.6506C120.602 89.2432 120.626 89.8565 120.534 90.4579C120.478 90.8255 121.021 91.1493 121.196 90.738C121.618 89.7371 122.243 88.8342 123.031 88.0861L122.461 88.0117C123.125 89.1626 123.634 90.3955 123.977 91.6788C123.997 91.7467 124.036 91.8073 124.09 91.8531C124.144 91.8989 124.21 91.9281 124.28 91.9369C124.35 91.9457 124.422 91.9339 124.485 91.9028C124.549 91.8717 124.602 91.8228 124.638 91.762C125.26 90.6855 125.842 89.574 126.39 88.4712L125.82 88.5456C126.734 89.2983 127.638 90.0612 128.531 90.8343C128.594 90.894 128.676 90.9292 128.763 90.9338C128.849 90.9383 128.935 90.9118 129.003 90.8589C129.072 90.8061 129.12 90.7305 129.137 90.6458C129.155 90.561 129.142 90.4727 129.101 90.3967C128.678 89.4702 128.108 88.6177 127.414 87.8717L127.16 88.4931C129.144 88.4931 130.857 89.5871 132.464 90.6286C132.753 90.8124 133.186 90.4229 132.963 90.1297C131.987 88.8509 130.654 87.8899 129.131 87.3684C128.693 87.2153 128.501 87.9154 128.938 88.0686C130.285 88.5273 131.467 89.372 132.337 90.4973L132.832 90.0028C131.111 88.8869 129.276 87.771 127.139 87.7667C127.068 87.7689 127 87.7913 126.942 87.8313C126.883 87.8713 126.838 87.9272 126.811 87.9922C126.784 88.0572 126.776 88.1287 126.788 88.1981C126.8 88.2675 126.832 88.3319 126.88 88.3837C127.53 89.0867 128.061 89.8907 128.452 90.7643L129.022 90.3267C128.146 89.5521 127.226 88.7863 126.311 88.038C126.272 87.9988 126.224 87.9691 126.172 87.9511C126.12 87.9331 126.064 87.9272 126.009 87.934C125.954 87.9407 125.902 87.9599 125.855 87.9901C125.809 88.0202 125.77 88.0606 125.742 88.108C125.19 89.2239 124.607 90.3223 123.99 91.4032L124.651 91.4907C124.294 90.146 123.761 88.8541 123.066 87.6485C123.037 87.6014 122.998 87.5614 122.952 87.5313C122.906 87.5012 122.854 87.4819 122.799 87.4747C122.744 87.4676 122.689 87.4728 122.636 87.49C122.584 87.5072 122.536 87.536 122.496 87.5741C121.661 88.3657 120.998 89.3205 120.548 90.3792L121.209 90.6549C121.329 89.9281 121.307 89.185 121.143 88.4668C121.119 88.3753 121.059 88.2973 120.977 88.2497C120.895 88.2021 120.797 88.189 120.705 88.213C119.096 88.7988 117.571 89.5964 116.173 90.5848L116.611 91.1537C117.513 90.2371 118.279 89.1951 118.883 88.0599C118.916 87.997 118.93 87.9262 118.924 87.8557C118.917 87.7853 118.891 87.7181 118.848 87.662C118.804 87.606 118.746 87.5634 118.68 87.5393C118.613 87.5152 118.541 87.5106 118.472 87.526C116.014 87.9378 113.753 89.1265 112.021 90.9174C111.697 91.2544 112.209 91.7664 112.533 91.4294L112.52 91.4207Z" fill="#804342"/>
<path d="M130.8 108.076C124.949 108.899 119.553 110.802 113.79 110.636L114.548 106.886C119.365 107.244 125.531 107.345 130.471 105.971L130.8 108.076Z" fill="#B26D55"/>
<path d="M64.0582 251.79C68.4113 249.672 73.6621 248.009 78.0152 245.886L84.8733 260.59C85.3593 261.45 85.6578 262.403 85.7491 263.386C85.7491 264.699 85.0441 265.924 84.339 267.053L79.8239 274.291C79.2458 275.215 78.6371 276.178 77.7087 276.746C76.7146 277.359 75.4971 277.438 74.3322 277.499C64.0713 278.059 53.6441 278.606 43.6417 276.256C43.1775 276.147 42.6476 275.981 42.4636 275.539C42.3761 275.279 42.367 274.999 42.4374 274.733C43.0811 271.311 46.3044 268.865 49.6765 267.968C53.0486 267.071 56.5958 267.399 60.0774 267.53C61.8291 267.596 63.6816 267.583 65.1925 266.695C67.4172 265.382 68.258 262.459 67.8595 259.907C67.461 257.356 66.0815 255.094 64.7283 252.879" fill="#301629"/>
<path d="M42.4242 277.814L63.594 278.725L74.2314 279.162C75.1082 279.232 75.9902 279.198 76.8591 279.061C77.8148 278.84 78.6762 278.322 79.3202 277.582C80.4061 276.321 81.3929 274.978 82.2719 273.565C84.2855 270.469 85.9649 267.169 87.2819 263.719C87.6761 262.708 86.844 261.404 85.8367 261.172C85.3071 261.041 84.7471 261.117 84.2722 261.386C83.7973 261.655 83.4434 262.095 83.2836 262.616C83.1522 262.962 83.0164 263.308 82.8763 263.649C82.8763 263.693 82.6135 264.257 82.7975 263.833C82.723 264.003 82.653 264.174 82.5785 264.34C82.2544 265.076 81.9128 265.798 81.5537 266.528C80.8618 267.903 80.1071 269.245 79.2896 270.554C78.5057 271.806 77.6605 273.014 76.7759 274.204C76.4124 274.69 77.0343 273.911 76.6664 274.344C76.5569 274.475 76.4518 274.607 76.3336 274.729C76.2196 274.855 76.0966 274.972 75.9656 275.079C76.4036 274.716 75.6066 275.18 76.1628 274.97C76.0067 275.036 75.8412 275.078 75.6723 275.092C76.2022 275.092 75.6372 275.092 75.5452 275.092C75.1073 275.092 74.6694 275.066 74.2314 275.049L53.9901 274.173L42.4242 273.675C41.8755 273.679 41.3506 273.899 40.963 274.287C40.5754 274.676 40.3562 275.201 40.3528 275.749C40.364 276.294 40.5858 276.814 40.9719 277.2C41.358 277.586 41.8783 277.808 42.4242 277.819V277.814Z" fill="white"/>
<path d="M41.0579 276.261C48.4064 276.576 55.755 276.868 63.1035 277.136L74.0519 277.574C74.8835 277.655 75.721 277.655 76.5526 277.574C77.3378 277.435 78.0477 277.021 78.5539 276.405C79.5983 275.16 80.5345 273.827 81.3523 272.423C83.3723 269.128 85.086 265.655 86.4718 262.047C86.7127 261.426 85.7098 261.172 85.4689 261.772C84.2678 264.888 82.8194 267.904 81.1377 270.791C80.3367 272.187 79.4595 273.538 78.5101 274.839C78.0459 275.464 77.5423 276.23 76.7584 276.501C75.9745 276.773 75.0373 276.615 74.2227 276.58C67.1106 276.278 59.9986 276.003 52.8821 275.705C48.9378 275.547 44.9964 275.384 41.0579 275.215C40.3879 275.189 40.3922 276.226 41.0579 276.252V276.261Z" fill="#301629"/>
<path d="M54.5026 267.64C54.4631 268.686 55.0412 270.506 56.4513 269.88C57.0207 269.631 57.209 269.058 57.5155 268.568C58.0892 267.649 59.0614 268.362 59.6526 268.87C60.6161 269.697 62.1226 270.62 63.1868 269.364C63.4009 269.113 63.5161 268.793 63.5108 268.463C63.5 268.324 63.478 268.186 63.4451 268.051C63.4189 267.959 63.397 267.867 63.3707 267.776C63.3444 267.684 63.3182 267.601 63.4057 267.679C63.5108 267.622 63.9488 267.776 64.0758 267.802L64.7502 267.924L66.2873 268.209C66.3644 268.227 66.4446 268.228 66.5221 268.211C66.5996 268.195 66.6724 268.161 66.7353 268.113C66.7982 268.065 66.8496 268.003 66.8857 267.933C66.9218 267.862 66.9418 267.785 66.9442 267.706C67.0274 267.089 66.5895 266.616 66.2173 266.178C66.1253 266.069 65.8801 265.841 65.9195 265.679C65.9896 265.417 66.7559 265.364 66.9574 265.325C67.8858 265.137 68.8624 265.019 69.7733 264.752C70.4477 264.555 70.9382 263.929 70.5003 263.242C70.0623 262.555 69.1427 262.367 68.6741 261.732C68.5418 261.592 68.4635 261.41 68.4531 261.218C68.4426 261.025 68.5008 260.836 68.6172 260.682C68.8668 260.428 69.2959 260.345 69.5806 260.139C70.1324 259.741 70.4565 258.975 70.0185 258.389C69.7642 258.118 69.4375 257.925 69.077 257.833L67.6975 257.317L67.9252 258.192C68.3197 257.799 68.6283 257.328 68.8318 256.809C68.8657 256.676 68.8468 256.536 68.779 256.417C68.7112 256.297 68.5998 256.209 68.4682 256.17L65.7881 255.295C65.1531 255.085 64.8816 256.087 65.5166 256.293L68.1923 257.168L67.8333 256.529C67.6853 256.877 67.4678 257.191 67.1939 257.453C67.1294 257.517 67.083 257.598 67.0591 257.686C67.0352 257.774 67.0348 257.867 67.0578 257.955C67.0808 258.043 67.1264 258.124 67.1902 258.19C67.254 258.255 67.3338 258.303 67.4216 258.328L68.6303 258.765C68.7179 258.796 69.1777 258.905 69.2084 259.015C69.239 259.124 69.0201 259.273 68.9412 259.33C68.3588 259.767 67.6844 259.851 67.4698 260.643C67.4008 260.962 67.408 261.294 67.491 261.61C67.5739 261.926 67.7302 262.218 67.9471 262.463C68.2059 262.744 68.5004 262.99 68.823 263.194C69.0069 263.321 69.1996 263.435 69.3792 263.566C69.47 263.618 69.5526 263.682 69.6244 263.758C69.6857 263.693 69.6726 263.68 69.5938 263.723C69.1846 263.859 68.7616 263.949 68.3325 263.99L67.0187 264.257C66.3662 264.389 65.5516 264.454 65.1399 265.054C64.9996 265.273 64.9318 265.531 64.9459 265.791C64.9601 266.051 65.0555 266.299 65.2188 266.502C65.4509 266.848 66.0158 267.237 65.9545 267.697L66.6114 267.198L63.9181 266.703C63.3357 266.603 62.6043 266.559 62.3897 267.264C62.2364 267.762 62.7926 268.485 62.2978 268.808C61.6846 269.207 60.984 268.616 60.546 268.235C59.5388 267.36 57.9797 266.397 56.8805 267.723C56.6922 267.946 56.3331 268.957 56.0046 268.948C55.5667 268.948 55.5667 267.902 55.5667 267.636C55.593 266.966 54.5551 266.966 54.5332 267.636L54.5026 267.64Z" fill="white"/>
<path d="M71.9411 253.803C71.9411 253.886 71.9411 253.978 71.9411 254.065C72.055 257.781 76.2679 258.568 78.0197 255.378C78.7904 253.987 78.9393 251.847 77.2927 251.059C74.9716 249.961 71.9411 251.09 71.9411 253.803Z" fill="white"/>
<path d="M75.2212 255.755C75.2212 255.151 75.2212 254.542 75.2212 253.939C75.2212 253.628 75.2212 253.317 75.2212 253.006C75.2212 252.862 75.2212 252.713 75.2212 252.569C75.2212 252.503 75.2212 252.442 75.2212 252.376C75.2212 252.311 75.2212 252.293 75.2212 252.249C75.2212 252.206 75.2212 252.171 75.2212 252.219L75.0855 252.451L75.1205 252.411L74.8928 252.543H74.9497H74.6738C74.7551 252.592 74.8327 252.648 74.9059 252.709L75.2081 252.923C75.4008 253.063 75.5847 253.212 75.7643 253.361C76.1339 253.671 76.4674 254.022 76.7584 254.407L77.1963 253.623C75.7643 253.772 74.3278 253.89 72.887 253.969L73.1498 254.932C73.776 254.494 74.4154 254.057 75.0636 253.672C75.3876 253.475 75.7073 253.286 76.0358 253.098L76.5219 252.827C76.632 252.753 76.7555 252.701 76.8854 252.674L76.4475 251.895C75.8883 253.08 75.2428 254.222 74.5161 255.313C74.4472 255.431 74.4279 255.572 74.4623 255.705C74.4967 255.838 74.5822 255.951 74.7001 256.022C74.7612 256.06 74.8296 256.086 74.901 256.097C74.9725 256.108 75.0454 256.104 75.1153 256.085C75.1851 256.067 75.2505 256.034 75.3071 255.989C75.3638 255.944 75.4106 255.888 75.4446 255.825C76.1728 254.735 76.8184 253.593 77.3759 252.407C77.5248 252.092 77.354 251.58 76.9379 251.628C76.5361 251.693 76.1526 251.842 75.8124 252.066C75.4489 252.271 75.0898 252.477 74.7307 252.696C74.0344 253.133 73.3468 253.571 72.6812 254.039C72.5844 254.098 72.509 254.186 72.4657 254.291C72.4224 254.396 72.4135 254.511 72.4403 254.621C72.4708 254.73 72.536 254.826 72.6261 254.895C72.7162 254.964 72.8263 255.001 72.9396 255.002C74.3789 254.923 75.8154 254.809 77.2489 254.661C77.5948 254.626 77.9539 254.223 77.6868 253.882C77.2679 253.314 76.7744 252.804 76.2197 252.368C75.957 252.157 75.6854 251.956 75.4052 251.764C75.248 251.626 75.0522 251.541 74.8446 251.519C74.7124 251.52 74.5841 251.563 74.4779 251.641C74.3717 251.72 74.2931 251.83 74.2534 251.956C74.1941 252.26 74.1764 252.571 74.2008 252.88V253.838C74.2008 254.481 74.2008 255.124 74.2008 255.763C74.2008 255.9 74.2553 256.032 74.3522 256.128C74.4491 256.225 74.5805 256.28 74.7176 256.28C74.8546 256.28 74.9861 256.225 75.083 256.128C75.1799 256.032 75.2344 255.9 75.2344 255.763L75.2212 255.755Z" fill="#301629"/>
<path d="M189.444 184.057C189.882 184.932 190.32 185.808 190.806 186.683C191.292 187.558 191.848 188.346 192.395 189.16C192.768 189.711 193.665 189.195 193.271 188.639C192.719 187.825 192.163 187.015 191.682 186.162C191.2 185.309 190.766 184.412 190.315 183.536C190.009 182.946 189.115 183.466 189.439 184.062L189.444 184.057Z" fill="#B26D55"/>
<path d="M190.731 182.902C192.268 184.867 194.186 186.482 195.798 188.381C195.896 188.478 196.028 188.532 196.165 188.532C196.303 188.531 196.435 188.476 196.532 188.379C196.629 188.281 196.683 188.149 196.682 188.012C196.682 187.874 196.627 187.743 196.529 187.646C194.918 185.746 193.026 184.145 191.463 182.171C191.365 182.075 191.234 182.021 191.097 182.021C190.96 182.021 190.829 182.075 190.731 182.171C190.637 182.27 190.585 182.401 190.585 182.537C190.585 182.673 190.637 182.804 190.731 182.902Z" fill="#B26D55"/>
<path d="M108.754 160.956C108.833 162.983 109.157 164.993 109.717 166.943C109.773 167.198 109.883 167.439 110.042 167.647C110.252 167.86 110.517 168.011 110.808 168.085C111.958 168.419 113.149 168.593 114.346 168.601C119.142 168.801 123.942 168.336 128.61 167.218C129.013 167.146 129.397 166.997 129.744 166.781C130.098 166.499 130.381 166.14 130.572 165.73C131.428 164.153 131.935 162.41 132.057 160.619" fill="#C05929"/>
<path d="M143.535 162.151L95.1211 162.61L95.9619 159.328H143.141L143.535 162.151Z" fill="#C05929"/>
<path d="M115.533 162.798C115.544 163.48 115.659 164.156 115.875 164.803C116.435 165.945 117.732 166.01 118.94 165.954C120.74 165.87 122.575 165.923 124.362 165.691C126.149 165.459 125.855 163.941 125.798 162.693L115.533 162.798Z" fill="#F1673C"/>
<path d="M115.012 162.855C115.005 163.406 115.099 163.953 115.288 164.47C115.302 164.524 115.33 164.572 115.371 164.61C115.406 164.63 115.444 164.643 115.484 164.649C115.524 164.654 115.565 164.651 115.603 164.641C115.904 164.602 116.199 164.524 116.479 164.409C116.532 164.387 116.593 164.352 116.597 164.299C116.596 164.276 116.59 164.253 116.579 164.232C116.569 164.211 116.554 164.192 116.536 164.177L115.494 163.078" fill="white"/>
<path d="M113.252 163.184C117.986 163.087 122.72 163.048 127.454 163.039C127.55 163.039 127.643 163.001 127.711 162.933C127.779 162.865 127.817 162.772 127.817 162.676C127.817 162.58 127.779 162.487 127.711 162.419C127.643 162.351 127.55 162.313 127.454 162.313C122.721 162.313 117.987 162.361 113.252 162.457C113.155 162.457 113.063 162.495 112.994 162.564C112.926 162.632 112.888 162.724 112.888 162.82C112.888 162.917 112.926 163.009 112.994 163.077C113.063 163.145 113.155 163.184 113.252 163.184Z" fill="#FAA933"/>
<path d="M128.19 13.8725C133.007 11.3651 138.201 9.9691 143.246 8.06989C143.903 7.82483 143.618 6.75708 142.957 7.01089C137.815 8.9451 132.525 10.3717 127.629 12.9229C127.003 13.2511 127.555 14.1964 128.181 13.8725H128.19Z" fill="#B26D55"/>
<path d="M127.559 17.1284L142.992 11.0019C143.64 10.7437 143.355 9.68911 142.698 9.94292L127.27 16.0694C126.617 16.3276 126.902 17.3822 127.559 17.1284Z" fill="#B26D55"/>
<path d="M121.428 20.7604L129.254 18.7868C130.046 18.5899 131.15 18.5549 131.382 19.3338C131.579 19.9902 130.944 20.5635 130.335 20.918C127.782 22.4715 126.122 23.0316 123.272 23.9243C121.218 24.5632 117.075 25.0883 115.901 24.7032" fill="#EE9E7B"/>
<path d="M121.577 21.7539L128.882 20.0998C129.109 20.0516 131.198 19.7147 130.633 20.4717C130.353 20.8568 129.718 21.0756 129.32 21.2813C128.807 21.5351 128.29 21.7671 127.765 21.9815C123.797 23.6022 119.506 24.2808 115.231 23.9638C114.526 23.9069 114.53 25.0053 115.231 25.0622C119.268 25.3548 123.321 24.7865 127.121 23.3949C128.025 23.0712 128.911 22.6987 129.775 22.2791C130.489 21.929 131.413 21.5439 131.754 20.7693C132.429 19.2596 130.397 18.7082 129.311 18.8876C126.622 19.3252 123.95 20.0954 121.288 20.6949C120.6 20.8525 120.889 21.9115 121.581 21.7539H121.577Z" fill="#B26D55"/>
</svg>
