<svg width="211" height="329" viewBox="0 0 211 329" fill="none" xmlns="http://www.w3.org/2000/svg">
<path d="M41.2868 173.97C27.912 172.809 14.4416 174.421 1.71929 178.704C1.55796 178.756 1.40872 178.84 1.28057 178.95C1.15241 179.061 1.04797 179.197 0.97352 179.349C0.899072 179.501 0.856154 179.666 0.847343 179.835C0.838533 180.004 0.864012 180.173 0.92225 180.332C1.11195 180.786 1.43787 181.17 1.85505 181.431C2.67399 181.938 3.67686 182.004 4.64032 182.052C8.78611 182.256 12.9377 182.325 17.0952 182.258C19.2367 182.223 21.4439 182.135 23.3971 181.247C24.6671 180.669 25.7707 179.777 27.032 179.181C31.3807 177.138 36.5483 179.019 41.2999 178.306" fill="#B26D55"/>
<path d="M192.059 306.227C191.541 310.424 191.991 314.684 193.373 318.681C193.623 319.403 193.903 320.217 193.566 320.909C193.172 321.71 192.151 321.933 191.262 322.06C178.477 323.865 165.583 324.791 152.671 324.83C151.87 324.83 150.99 324.799 150.407 324.248C149.619 323.499 149.838 322.108 150.574 321.307C151.309 320.506 152.404 320.147 153.442 319.828C161.696 317.272 170.056 315.106 178.523 313.329C179.156 313.322 179.769 313.103 180.263 312.706C180.757 312.309 181.103 311.758 181.247 311.141L183.874 304.442" fill="#B26D55"/>
<path d="M188.784 62.8221C188.398 46.1877 189.318 29.5486 191.534 13.0577C191.705 11.793 192.488 10.117 193.697 10.5327C197.019 19.1073 199.625 27.9421 201.488 36.9465C201.856 38.7276 202.176 40.6618 201.37 42.2941C200.525 43.9964 198.598 45.0291 197.963 46.8233C197.481 48.1711 197.844 49.6546 198.208 51.0374L200.971 61.54" fill="#B26D55"/>
<path d="M127.035 31.5465C126.667 26.8203 125.051 21.0045 124.149 16.3178C123.334 12.0861 121.924 7.49129 123.689 3.62724C123.782 3.43339 123.924 3.26672 124.1 3.14312C124.277 3.01953 124.482 2.94312 124.696 2.92118C124.91 2.89924 125.127 2.9325 125.324 3.0178C125.522 3.10309 125.695 3.23758 125.826 3.40843C126.401 4.24066 126.803 5.17959 127.008 6.16972C127.861 9.56554 128.713 12.9614 129.566 16.3572C129.337 12.04 129.677 7.71139 130.577 3.48283C130.731 2.76233 131.018 2.07673 131.423 1.46109C131.57 1.25572 131.775 1.09875 132.012 1.01013C132.248 0.921508 132.506 0.905251 132.752 0.963424C132.998 1.0216 133.221 1.15157 133.393 1.33682C133.565 1.52206 133.678 1.7542 133.717 2.00372C134.646 7.69259 135.128 10.3795 135.167 16.1515C135.167 15.7489 138.587 16.099 138.854 16.1515C141.158 16.646 141.351 18.1251 141.386 20.2869C141.46 24.5098 138.123 25.5819 136.376 28.8508C135.851 29.8796 135.53 30.9999 135.43 32.1503" fill="#B26D55"/>
<path d="M39.2986 183.404C39.3205 183.887 39.2432 184.369 39.0714 184.821C38.8997 185.272 38.6372 185.684 38.3001 186.03C37.9583 186.37 37.534 186.615 37.0687 186.742C36.6034 186.868 36.1132 186.872 35.6462 186.752C35.162 186.579 34.7246 186.296 34.3682 185.925C34.0118 185.555 33.7462 185.107 33.5923 184.617C33.2905 183.636 33.1427 182.614 33.1543 181.588C32.9923 177.055 32.8346 172.469 33.7718 168.023C33.8259 167.526 34.0484 167.063 34.4024 166.71C34.7942 166.461 35.2525 166.337 35.7163 166.355C36.4739 166.316 37.2884 166.29 37.9059 166.705C38.83 167.314 38.9964 168.574 39.0708 169.672L39.7409 179.431" fill="#39B55D"/>
<path d="M117.006 146.856L113.997 135.719C110.454 101.542 113.997 66.8307 120.79 33.1526L141.175 33.9053C152.067 59.1989 156.683 104.929 148.182 135.053L168.792 136.804C169.773 136.887 170.841 137.009 171.538 137.71C172.234 138.41 172.343 139.491 172.413 140.475C173.701 159.41 173.526 178.417 171.888 197.325C171.813 198.2 171.7 199.114 171.086 199.714C170.211 200.589 168.761 200.34 167.583 200.003C163.79 198.926 164.106 198.467 160.033 197.285C156.311 196.204 133.525 186.433 128.427 183.628C128.169 183.483 124.985 187.312 124.534 187.71C122.36 189.564 119.76 190.849 116.966 191.452C116.966 191.452 80.5214 198.222 33.8594 184.494C33.8594 184.494 33.474 173.48 33.7718 168.893C55.3182 161.428 88.9254 159.336 112.977 159.927" fill="#39B55D"/>
<path d="M167.408 196.445C167.974 233.426 170.276 270.33 174.314 307.159L199.951 308.966C205.916 266.558 211.88 223.366 204.926 181.107L167.408 196.445Z" fill="#153A23"/>
<path d="M122.892 36.0625C121.81 36.1544 120.667 36.1413 119.712 35.6249C118.758 35.1086 118.057 33.9445 118.398 32.8899C118.836 31.4152 120.733 31.1045 122.252 31.0607C128.383 30.9032 134.515 30.8244 140.606 31.3889C141.592 31.4808 142.708 31.6602 143.264 32.4917C143.821 33.3231 143.505 34.6797 142.743 35.4018C141.981 36.1238 140.922 36.4651 139.897 36.7146C135.416 37.8165 130.766 38.063 126.194 37.441" fill="#39B55D"/>
<path d="M113.051 159.384C110.757 157.45 110.603 153.8 111.208 151.17L112.425 145.849C112.736 144.211 113.22 142.611 113.87 141.075C113.95 140.841 114.087 140.63 114.269 140.463C114.451 140.296 114.672 140.177 114.913 140.117C115.246 140.085 115.582 140.149 115.88 140.3C118.543 141.469 119.086 144.213 118.876 146.589C118.591 149.862 117.422 153.07 116.248 156.255C115.933 157.131 115.583 158.037 114.75 158.693" fill="#39B55D"/>
<path d="M184.575 60.2447C174.634 86.3916 169.799 116.516 168.809 136.826L167.561 202.361C183.086 207.967 202.158 198.633 207.737 182.713C209.721 177.024 210.128 170.933 210.321 164.911C211.293 134.861 207.435 89.9581 203.586 60.1528L184.575 60.2447Z" fill="#153A23"/>
<path d="M126.43 127.155C129.307 127.496 132.202 128.069 135.11 128.078C136.936 128.078 142.8 128.419 143.194 125.816C143.545 123.527 140.479 122.201 138.815 121.479C134.65 119.702 130.796 117.575 126.794 115.497C121.194 112.579 115.508 109.833 109.736 107.257C99.7862 102.815 89.5911 98.8853 79.2646 95.4414C76.8866 94.6493 74.1626 94.006 71.8197 94.4568C71.4322 94.5286 71.0693 94.697 70.7644 94.9465C70.4596 95.196 70.2228 95.5184 70.076 95.8838C69.9292 96.2492 69.8772 96.6457 69.9248 97.0366C69.9724 97.4274 70.118 97.7999 70.3482 98.1195C76.4793 106.539 86.727 112.67 97.6228 115.401" fill="#153A23"/>
<path d="M112.416 141.714C116.511 154.063 125.554 152.382 129.64 152.452C132.268 152.496 135.123 151.984 136.949 150.085C139.726 147.201 133.407 135.206 132.526 131.29L129.982 119.973C129.777 118.827 129.42 117.713 128.922 116.661C128.154 115.378 127.15 114.252 125.962 113.344C116.793 105.626 105.398 101.036 93.4361 100.242C99.5029 110.359 104.224 121.222 107.481 132.559L112.416 141.714Z" fill="#FAC8B8"/>
<path d="M113.27 141.819C111.374 137.486 111.956 135.036 112.162 133.093C110.389 133.929 107.003 134.143 106.298 135.683C106.145 136.012 103.938 136.252 103.96 136.589C104.275 141.915 108.212 149.564 110.713 154.422" fill="#B26D56"/>
<path d="M93.4362 100.242C90.7297 107.699 89.3326 115.568 89.3064 123.5C89.2626 127.544 89.7444 131.815 91.934 135.206C93.0476 136.963 94.5892 138.409 96.4145 139.407C98.2398 140.406 100.289 140.926 102.37 140.917C106.368 140.812 110.143 138.523 112.443 135.062C115.946 129.78 115.898 122.634 115.718 115.995L93.4362 100.242Z" fill="#B26D55"/>
<path d="M93.4361 100.242C93.6901 104.762 95.9236 109.869 97.9337 113.948C99.8782 117.886 102.554 119.768 105.098 120.512C109.259 121.733 113.857 115.995 116.301 112.407L93.4361 100.242Z" fill="#FAC7B7"/>
<path d="M103.246 130.59C103.206 130.636 103.15 130.666 103.089 130.673C103.029 130.68 102.967 130.665 102.917 130.629C102.094 130.056 101.166 129.645 100.316 129.106C99.4665 128.568 98.5644 127.741 98.2447 126.708C97.6666 124.765 99.5585 123.207 101.337 124.28C101.829 124.604 102.272 125 102.65 125.452C102.659 125.462 102.671 125.468 102.684 125.471C102.697 125.473 102.711 125.471 102.722 125.465C102.734 125.459 102.744 125.45 102.75 125.438C102.756 125.426 102.758 125.413 102.755 125.4C102.7 125.122 102.7 124.837 102.757 124.559C102.813 124.282 102.924 124.019 103.084 123.785C103.623 122.967 104.866 122.183 105.891 122.253C107.336 122.354 107.485 124.004 107.205 125.098C106.881 126.441 105.685 127.723 104.814 128.747L103.246 130.59Z" fill="#F1673C"/>
<path d="M91.3341 117.978C91.5454 118.761 91.8253 119.524 92.1705 120.258C92.5515 121.133 93.3179 121.93 94.3602 121.606C95.3149 121.304 95.8536 120.293 96.2565 119.448C96.6138 118.569 96.8211 117.635 96.8696 116.687L96.1514 116.884C96.4767 117.453 96.9174 117.949 97.4453 118.338C97.9731 118.728 98.5765 119.003 99.2169 119.146C99.703 119.251 99.9132 118.508 99.4227 118.403C98.8749 118.287 98.3577 118.058 97.9048 117.729C97.452 117.4 97.0738 116.98 96.7951 116.495C96.7506 116.425 96.6849 116.371 96.6076 116.341C96.5303 116.311 96.4454 116.306 96.3653 116.328C96.2852 116.349 96.2141 116.395 96.1622 116.46C96.1103 116.525 96.0804 116.604 96.0769 116.687C96.0368 117.458 95.8819 118.219 95.6171 118.945C95.3237 119.602 94.9076 120.538 94.1938 120.836C93.353 121.186 92.9282 120.079 92.6785 119.492C92.4324 118.936 92.2318 118.361 92.0786 117.772C92.0513 117.674 91.9859 117.59 91.8968 117.539C91.8076 117.489 91.7021 117.476 91.6034 117.503C91.5047 117.531 91.4208 117.596 91.3703 117.685C91.3198 117.774 91.3068 117.879 91.3341 117.978Z" fill="#010101"/>
<path d="M96.0769 118.932C96.3152 119.205 96.5697 119.464 96.8389 119.707C97.1371 120.006 97.5337 120.188 97.9556 120.219C98.0575 120.215 98.1543 120.173 98.226 120.101C98.2977 120.028 98.3388 119.931 98.341 119.829C98.3399 119.727 98.2989 119.63 98.2269 119.558C98.1549 119.486 98.0575 119.445 97.9556 119.444H97.8549C97.9775 119.444 97.925 119.444 97.89 119.444H97.8374C97.798 119.444 97.6885 119.378 97.8067 119.444C97.7717 119.444 97.7323 119.413 97.6973 119.391C97.6223 119.352 97.5505 119.307 97.4827 119.256L97.4301 119.216C97.4564 119.238 97.5265 119.282 97.4301 119.216L97.325 119.129C97.0754 118.9 96.8386 118.657 96.6156 118.402C96.5426 118.331 96.4443 118.29 96.3418 118.29C96.2394 118.29 96.1411 118.331 96.0681 118.402C95.9982 118.476 95.9593 118.574 95.9593 118.676C95.9593 118.778 95.9982 118.876 96.0681 118.949L96.0769 118.932Z" fill="#010101"/>
<path d="M94.2901 112.762C94.1063 112.692 93.9526 112.56 93.8552 112.389C93.7577 112.218 93.7226 112.019 93.7559 111.825C93.8124 111.527 93.9319 111.243 94.1062 110.994C94.1447 110.926 94.1968 110.866 94.2593 110.818C94.3219 110.771 94.3935 110.737 94.4697 110.718C94.6082 110.715 94.7443 110.755 94.8595 110.832C95.957 111.375 96.9861 112.046 97.925 112.832C98.7154 113.514 99.307 114.397 99.6373 115.387C99.6495 115.429 99.6488 115.472 99.6353 115.513C99.6219 115.554 99.5962 115.589 99.5619 115.615C99.5276 115.641 99.4862 115.655 99.4433 115.657C99.4004 115.659 99.3581 115.647 99.322 115.624L97.544 114.451C96.5256 113.774 95.4377 113.208 94.2989 112.762H94.2901Z" fill="#FAC7B7"/>
<path d="M89.7005 116.403C88.9911 118.402 88.1415 121.12 87.432 123.12C87.2131 123.732 86.9941 124.411 87.2262 125.019C87.6904 126.257 89.4465 126.205 90.7297 125.921L89.7005 116.403Z" fill="#C63D32"/>
<path d="M115.442 125.99C112.088 125.815 110.778 130.625 110.511 133.132C109.776 139.946 112.368 148.632 119.489 151.026C120.33 151.31 122.655 151.463 123.137 150.702C123.384 150.206 123.451 149.64 123.325 149.1C122.485 142.014 120.622 135.086 117.794 128.533" fill="#FAC8B8"/>
<path d="M98.0082 100.728C99.2257 106.626 96.6681 110.027 106.368 117.357C108.335 118.844 105.957 116.42 105.519 116.044C100.172 111.563 98.9498 104.719 99.1162 101.27C99.1468 100.706 98.1878 98.5439 98.306 99.0822L98.0082 100.728Z" fill="white"/>
<path d="M113.235 116.389C111.899 114.889 110.393 113.55 108.746 112.398C107.363 111.358 105.846 110.509 104.236 109.874C103.71 109.659 102.353 109.528 102.874 109.742C104.59 110.442 106.776 112.053 108.278 113.142C109.78 114.232 110.905 116.166 112.088 117.58C112.088 117.58 112.561 117.142 113.113 116.521L113.235 116.389Z" fill="white"/>
<path d="M105.282 103.743C106.89 109.121 110.516 111.436 114.365 115.055C115.368 116 117.961 117.488 118.723 118.643C119.721 120.153 120.273 120.884 120.912 122.581C122.322 126.205 123.873 130.83 124.543 134.677C124.877 136.316 124.922 138.002 124.674 139.657C124.456 141.097 124.092 142.512 123.588 143.88C123.408 144.409 123.496 145.193 123.75 144.672C125.011 142.125 126.194 136.672 125.857 134.462C125.48 132.016 124.184 129.377 122.879 125.912C121.648 122.638 120.251 117.479 117.939 114.796C116.086 112.661 114.221 112.477 111.864 110.941C108.26 108.591 105.965 105.878 105.037 102.771C104.875 102.233 105.107 103.209 105.269 103.76L105.282 103.743Z" fill="white"/>
<path d="M118.688 148.317C120.514 148.72 121.477 149.289 123.33 149.529C125.108 149.757 128.261 149.967 130.043 149.56C132.938 148.899 133.074 145.061 132.631 142.414C132.325 140.563 131.02 139.569 130.332 137.841C129.606 135.941 129.047 133.982 128.659 131.986C127.906 128.319 127.503 124.577 126.566 120.945C125.629 117.313 124.118 113.672 121.482 110.88C121.401 110.795 121.291 110.746 121.174 110.743C121.058 110.739 120.944 110.782 120.86 110.863C120.775 110.943 120.725 111.053 120.722 111.17C120.719 111.286 120.762 111.399 120.842 111.484C125.458 116.381 125.581 123.798 126.68 130.13C127.293 133.631 128.051 135.902 130.542 139.464C132.101 141.687 132.504 146.204 129.811 148.217C128.221 149.407 125.87 148.952 124.048 148.737C122.038 148.499 120.041 148.161 118.066 147.722C117.518 147.604 116.292 147.722 116.844 147.831L118.688 148.317Z" fill="white"/>
<path d="M113.187 140.725C113.807 140.749 114.423 140.615 114.977 140.335C115.53 140.055 116.003 139.637 116.349 139.123C117.199 137.95 118.539 136.182 118.683 134.778C119.007 131.447 117.842 128.31 116.572 125.15C116.362 124.629 115.591 125.05 115.797 125.588C116.87 128.248 116.958 131.154 116.747 133.981C116.59 136.112 116.38 140.646 113.353 140.423C112.789 140.379 112.622 140.69 113.187 140.729V140.725Z" fill="white"/>
<path d="M115.854 144.12C118.046 143.807 120.041 142.688 121.451 140.983C123.233 138.825 121.512 135.81 120.864 133.228C120.728 132.681 119.892 130.139 119.787 130.695C119.664 131.351 121.249 138.375 120.133 140.65C119.016 142.926 116.594 143.355 114.374 143.713C113.813 143.805 113.568 144.466 114.124 144.374L115.854 144.12Z" fill="white"/>
<path d="M93.4361 100.242L128.922 116.661L126.294 92.6274L105.584 83.1926L93.4361 100.242Z" fill="#153A23"/>
<path d="M114.365 115.055C115.924 114.569 117.102 114.245 118.88 115.169C119.777 115.625 120.536 116.312 121.081 117.157C121.625 118.003 121.936 118.978 121.981 119.982C122.003 122.284 120.33 124.384 118.228 125.321C116.126 126.257 113.678 126.196 111.448 125.605" fill="#B26D56"/>
<path d="M115.552 123.05C116.426 123.082 117.288 122.849 118.026 122.38C118.764 121.911 119.341 121.229 119.682 120.424C119.907 119.941 119.951 119.392 119.804 118.879C119.67 118.514 119.478 118.173 119.235 117.869C118.837 117.295 118.303 116.829 117.68 116.512C116.76 116.111 115.73 116.032 114.759 116.289C114.273 116.398 114.479 117.142 114.965 117.037C115.828 116.798 116.749 116.899 117.54 117.317C118.127 117.683 118.607 118.198 118.928 118.809C119.441 119.733 118.74 120.805 118.053 121.435C117.369 122.036 116.479 122.349 115.569 122.31C115.07 122.284 115.07 123.059 115.569 123.085L115.552 123.05Z" fill="#010101"/>
<path d="M115.359 121.089C115.74 121.06 116.115 120.97 116.467 120.822C116.774 120.683 117.02 120.44 117.164 120.135C117.242 119.963 117.278 119.774 117.267 119.585C117.257 119.396 117.2 119.212 117.102 119.05C116.908 118.742 116.617 118.508 116.275 118.385C115.873 118.259 115.451 118.208 115.031 118.236C114.929 118.237 114.832 118.278 114.76 118.35C114.687 118.422 114.647 118.519 114.645 118.621C114.646 118.723 114.687 118.821 114.759 118.894C114.831 118.967 114.929 119.008 115.031 119.011C115.219 119.011 115.407 119.011 115.591 119.011C115.591 119.011 115.758 119.011 115.675 119.011L115.819 119.041C115.904 119.058 115.987 119.081 116.069 119.111C116.003 119.089 116.117 119.138 116.126 119.142L116.235 119.208C116.178 119.159 116.318 119.26 116.235 119.208C116.292 119.256 116.301 119.264 116.327 119.295C116.353 119.326 116.419 119.413 116.366 119.335C116.366 119.365 116.406 119.391 116.423 119.426C116.441 119.461 116.476 119.545 116.423 119.453C116.438 119.489 116.45 119.528 116.458 119.566C116.458 119.606 116.458 119.61 116.458 119.566V119.628C116.465 119.658 116.465 119.689 116.458 119.72C116.493 119.619 116.458 119.741 116.458 119.763C116.458 119.785 116.458 119.798 116.458 119.763L116.432 119.816L116.366 119.917C116.366 119.917 116.406 119.864 116.366 119.917L116.279 120.004C116.244 120.03 116.248 120.03 116.279 120.004L116.231 120.039C116.167 120.081 116.1 120.118 116.029 120.148C116.104 120.118 115.968 120.148 115.955 120.17C115.91 120.188 115.863 120.201 115.815 120.21C115.733 120.232 115.649 120.25 115.565 120.262L115.425 120.284H115.355C115.253 120.286 115.155 120.328 115.083 120.401C115.011 120.474 114.971 120.571 114.969 120.674C114.969 120.857 115.14 121.085 115.355 121.059L115.359 121.089Z" fill="#010101"/>
<path d="M160.042 197.298L168.542 201.149L173.596 136.878C170.762 136.55 168.555 136.843 165.713 136.515L160.042 197.298Z" fill="#153A23"/>
<path d="M205.837 187.032C205.837 187.032 198.711 201.035 176.837 203.989C176.837 203.989 194.398 204.689 207.102 198.436L205.837 187.032Z" fill="#122D1C"/>
<path d="M35.0155 169.318C36.0628 169.303 37.1097 169.369 38.1468 169.515C38.286 169.548 38.4325 169.527 38.5569 169.456C38.6812 169.386 38.7741 169.27 38.8168 169.134C38.8532 168.995 38.8336 168.848 38.7624 168.724C38.6911 168.599 38.5739 168.508 38.4358 168.469C37.3037 168.3 36.1601 168.221 35.0155 168.232C34.8715 168.232 34.7334 168.29 34.6316 168.391C34.5297 168.493 34.4725 168.631 34.4725 168.775C34.4725 168.919 34.5297 169.057 34.6316 169.159C34.7334 169.261 34.8715 169.318 35.0155 169.318Z" fill="#153A23"/>
<path d="M33.4565 172.403C35.0873 172.229 36.7355 172.314 38.3395 172.657C38.4772 172.692 38.6231 172.671 38.7459 172.6C38.8687 172.528 38.9587 172.412 38.9965 172.275C39.0343 172.138 39.0169 171.992 38.9481 171.868C38.8794 171.744 38.7646 171.651 38.6285 171.611C36.9306 171.242 35.1852 171.143 33.4565 171.318C33.3135 171.321 33.1773 171.379 33.0762 171.48C32.9751 171.581 32.9168 171.717 32.9135 171.86C32.9146 172.004 32.9722 172.141 33.0738 172.243C33.1754 172.344 33.3128 172.402 33.4565 172.403Z" fill="#153A23"/>
<path d="M33.9032 175.672C34.3771 175.619 34.8543 175.602 35.3309 175.619C35.563 175.619 35.7951 175.65 36.0272 175.676H36.106L36.2724 175.698L36.6578 175.773C36.797 175.807 36.9441 175.786 37.0687 175.716C37.1933 175.645 37.2861 175.529 37.3278 175.392C37.3642 175.253 37.3447 175.106 37.2734 174.981C37.2022 174.857 37.0849 174.766 36.9468 174.727C35.9463 174.518 34.9195 174.467 33.9032 174.574C33.7602 174.577 33.624 174.635 33.5229 174.736C33.4218 174.837 33.3635 174.973 33.3601 175.116C33.3624 175.259 33.4203 175.396 33.5217 175.497C33.623 175.599 33.7599 175.657 33.9032 175.659V175.672Z" fill="#153A23"/>
<path d="M33.5397 178.897H37.0432C37.1872 178.897 37.3253 178.84 37.4272 178.738C37.529 178.636 37.5862 178.498 37.5862 178.354C37.5862 178.21 37.529 178.072 37.4272 177.971C37.3253 177.869 37.1872 177.812 37.0432 177.812L33.5397 177.834C33.396 177.835 33.2586 177.892 33.157 177.994C33.0554 178.095 32.9978 178.233 32.9967 178.376C33 178.519 33.0583 178.655 33.1594 178.756C33.2605 178.857 33.3967 178.916 33.5397 178.919V178.897Z" fill="#153A23"/>
<path d="M33.5835 185.089L37.087 185.063C37.1621 185.07 37.2378 185.061 37.3093 185.037C37.3807 185.012 37.4464 184.974 37.5021 184.923C37.5577 184.872 37.6022 184.81 37.6326 184.741C37.663 184.672 37.6787 184.598 37.6787 184.522C37.6787 184.447 37.663 184.372 37.6326 184.304C37.6022 184.235 37.5577 184.173 37.5021 184.122C37.4464 184.071 37.3807 184.032 37.3093 184.008C37.2378 183.984 37.1621 183.975 37.087 183.982L33.5835 184.004C33.4395 184.004 33.3014 184.061 33.1995 184.163C33.0977 184.264 33.0405 184.403 33.0405 184.546C33.0405 184.69 33.0977 184.828 33.1995 184.93C33.3014 185.032 33.4395 185.089 33.5835 185.089Z" fill="#153A23"/>
<path d="M32.9441 182.17H36.649C36.792 182.167 36.9282 182.109 37.0293 182.008C37.1305 181.907 37.1887 181.77 37.1921 181.628C37.1909 181.484 37.1334 181.347 37.0318 181.245C36.9302 181.144 36.7927 181.086 36.649 181.085H32.9441C32.869 181.078 32.7933 181.087 32.7218 181.111C32.6504 181.135 32.5847 181.174 32.529 181.225C32.4734 181.276 32.4289 181.338 32.3985 181.407C32.368 181.475 32.3523 181.55 32.3523 181.625C32.3523 181.701 32.368 181.775 32.3985 181.844C32.4289 181.913 32.4734 181.975 32.529 182.026C32.5847 182.077 32.6504 182.115 32.7218 182.14C32.7933 182.164 32.869 182.173 32.9441 182.166V182.17Z" fill="#153A23"/>
<path d="M121.411 34.7541C121.341 34.2859 121.284 33.752 121.249 33.2313C121.214 32.7105 121.197 32.1591 121.201 31.6253C121.208 31.5502 121.199 31.4745 121.175 31.4031C121.151 31.3317 121.112 31.2661 121.061 31.2105C121.01 31.1549 120.948 31.1104 120.879 31.08C120.81 31.0496 120.736 31.0339 120.66 31.0339C120.585 31.0339 120.51 31.0496 120.441 31.08C120.372 31.1104 120.31 31.1549 120.26 31.2105C120.209 31.2661 120.17 31.3317 120.146 31.4031C120.122 31.4745 120.113 31.5502 120.12 31.6253C120.111 32.7693 120.194 33.9123 120.369 35.043C120.408 35.1807 120.5 35.2976 120.624 35.3681C120.749 35.4386 120.897 35.457 121.035 35.4193C121.171 35.3776 121.286 35.2854 121.356 35.1617C121.426 35.0379 121.446 34.8921 121.411 34.7541Z" fill="#153A23"/>
<path d="M124.6 35.2662C124.214 33.6733 124.083 32.0296 124.21 30.3957C124.21 30.2525 124.153 30.1151 124.052 30.0135C123.952 29.9119 123.815 29.8542 123.671 29.853C123.528 29.8553 123.391 29.9132 123.29 30.0145C123.188 30.1157 123.13 30.2524 123.128 30.3957C122.999 32.1278 123.147 33.8693 123.566 35.555C123.728 36.2333 124.775 35.9445 124.613 35.2662H124.6Z" fill="#153A23"/>
<path d="M127.884 34.3777C127.82 34.1183 127.772 33.8552 127.74 33.59C127.74 33.6732 127.74 33.59 127.74 33.555V33.45C127.74 33.38 127.74 33.31 127.718 33.24C127.718 33.0737 127.687 32.9118 127.674 32.7498C127.638 32.1669 127.638 31.5824 127.674 30.9994C127.673 30.8559 127.615 30.7185 127.514 30.617C127.412 30.5155 127.275 30.4579 127.131 30.4568C126.988 30.4602 126.853 30.5186 126.752 30.6197C126.652 30.7209 126.594 30.857 126.592 30.9994C126.551 31.5953 126.551 32.1933 126.592 32.7892C126.625 33.4154 126.712 34.0376 126.851 34.649C126.866 34.7209 126.897 34.7889 126.939 34.8487C126.982 34.9086 127.037 34.9592 127.1 34.9973C127.163 35.0355 127.233 35.0604 127.306 35.0707C127.378 35.081 127.453 35.0763 127.524 35.057C127.595 35.0377 127.661 35.0041 127.719 34.9584C127.776 34.9126 127.824 34.8557 127.859 34.7909C127.894 34.7261 127.916 34.6549 127.922 34.5817C127.929 34.5084 127.92 34.4345 127.897 34.3646L127.884 34.3777Z" fill="#153A23"/>
<path d="M130.923 34.8549L130.77 31.9667C130.767 31.8238 130.709 31.6877 130.607 31.5867C130.506 31.4856 130.37 31.4274 130.227 31.4241C130.083 31.4252 129.946 31.4828 129.844 31.5843C129.743 31.6858 129.685 31.8231 129.684 31.9667L129.837 34.8549C129.841 34.9973 129.899 35.133 130 35.2333C130.102 35.3336 130.238 35.3909 130.38 35.3932C130.524 35.3932 130.661 35.3366 130.763 35.2358C130.865 35.135 130.922 34.9981 130.923 34.8549Z" fill="#153A23"/>
<path d="M136.998 34.041L136.498 30.5664C136.459 30.4275 136.367 30.3096 136.242 30.2382C136.116 30.1669 135.968 30.1481 135.828 30.1857C135.693 30.2292 135.578 30.3224 135.509 30.4466C135.439 30.5708 135.418 30.7167 135.452 30.8552L135.951 34.3298C135.99 34.4676 136.082 34.5845 136.206 34.655C136.331 34.7254 136.478 34.7439 136.617 34.7062C136.753 34.6654 136.869 34.5735 136.94 34.4497C137.011 34.3259 137.032 34.1796 136.998 34.041Z" fill="#153A23"/>
<path d="M133.748 34.6143C133.726 33.3802 133.713 32.1462 133.687 30.9121C133.694 30.8371 133.685 30.7614 133.661 30.69C133.636 30.6186 133.598 30.553 133.547 30.4973C133.496 30.4417 133.434 30.3973 133.365 30.3669C133.296 30.3365 133.221 30.3208 133.146 30.3208C133.071 30.3208 132.996 30.3365 132.927 30.3669C132.858 30.3973 132.796 30.4417 132.745 30.4973C132.694 30.553 132.655 30.6186 132.631 30.69C132.607 30.7614 132.598 30.8371 132.605 30.9121C132.627 32.1462 132.64 33.3802 132.662 34.6143C132.662 34.7582 132.719 34.8962 132.821 34.9979C132.923 35.0997 133.061 35.1569 133.205 35.1569C133.349 35.1569 133.487 35.0997 133.589 34.9979C133.691 34.8962 133.748 34.7582 133.748 34.6143Z" fill="#153A23"/>
<path d="M139.708 34.6974V30.8771C139.708 30.7332 139.651 30.5952 139.549 30.4934C139.448 30.3916 139.309 30.3345 139.165 30.3345C139.021 30.3345 138.883 30.3916 138.781 30.4934C138.68 30.5952 138.622 30.7332 138.622 30.8771V34.6974C138.622 34.8413 138.68 34.9793 138.781 35.0811C138.883 35.1829 139.021 35.24 139.165 35.24C139.309 35.24 139.448 35.1829 139.549 35.0811C139.651 34.9793 139.708 34.8413 139.708 34.6974Z" fill="#153A23"/>
<path d="M142.494 35.0125V32.3256C142.493 32.182 142.435 32.0447 142.333 31.9432C142.232 31.8416 142.094 31.7841 141.951 31.783C141.808 31.7863 141.672 31.8445 141.57 31.9456C141.469 32.0466 141.411 32.1827 141.408 32.3256V35.0125C141.408 35.1564 141.465 35.2944 141.567 35.3962C141.669 35.4979 141.807 35.5551 141.951 35.5551C142.095 35.5551 142.233 35.4979 142.335 35.3962C142.437 35.2944 142.494 35.1564 142.494 35.0125Z" fill="#153A23"/>
<path d="M128.436 183.641C129.776 179.435 130.525 176.171 130.468 170.552L133.258 185.955L128.436 183.641Z" fill="#153A23"/>
<path d="M113.406 159.625C115.133 156.54 116.658 153.346 117.969 150.063C118.232 149.415 117.181 149.131 116.923 149.774C115.645 152.97 114.157 156.078 112.469 159.078C112.402 159.202 112.387 159.346 112.425 159.481C112.463 159.617 112.552 159.732 112.674 159.803C112.795 159.873 112.939 159.894 113.076 159.861C113.212 159.828 113.331 159.743 113.406 159.625Z" fill="#153A23"/>
<path d="M109.797 156.351H109.767H109.846L110.003 156.378L110.336 156.435C110.594 156.483 110.848 156.54 111.102 156.605C111.356 156.671 111.589 156.741 111.825 156.824L111.987 156.89C111.886 156.842 112.053 156.89 111.987 156.89L112.053 156.916L112.342 157.073C112.466 157.145 112.613 157.165 112.752 157.129C112.89 157.093 113.009 157.004 113.082 156.881C113.151 156.756 113.169 156.609 113.133 156.471C113.098 156.332 113.01 156.213 112.889 156.137C112.425 155.872 111.923 155.679 111.4 155.564C110.876 155.432 110.343 155.332 109.806 155.266C109.663 155.267 109.526 155.325 109.425 155.427C109.324 155.528 109.268 155.666 109.268 155.809C109.271 155.949 109.327 156.084 109.426 156.184C109.524 156.285 109.657 156.345 109.797 156.351Z" fill="#153A23"/>
<path d="M111.155 152.592C110.949 152.623 111.155 152.592 111.199 152.592H111.396C111.54 152.592 111.685 152.592 111.834 152.592C112.202 152.592 112.57 152.649 112.933 152.693L113.205 152.724C113.078 152.724 113.24 152.724 113.253 152.724L113.393 152.746L113.905 152.824C114.168 152.868 114.428 152.925 114.685 152.995C114.754 153.016 114.827 153.022 114.899 153.015C114.97 153.007 115.04 152.985 115.103 152.95C115.166 152.915 115.222 152.868 115.267 152.811C115.312 152.754 115.345 152.689 115.364 152.62C115.383 152.55 115.388 152.477 115.379 152.406C115.37 152.334 115.346 152.265 115.31 152.202C115.273 152.14 115.225 152.085 115.167 152.042C115.11 151.998 115.044 151.967 114.974 151.949C114.304 151.778 113.622 151.661 112.933 151.599C112.254 151.487 111.564 151.462 110.879 151.525C110.74 151.564 110.622 151.656 110.551 151.781C110.479 151.906 110.46 152.055 110.498 152.194C110.54 152.33 110.632 152.445 110.756 152.515C110.88 152.585 111.026 152.605 111.164 152.571L111.155 152.592Z" fill="#153A23"/>
<path d="M111.015 150.133C111.291 150.11 111.569 150.121 111.843 150.164H111.9H112.031L112.329 150.212L112.968 150.334C113.768 150.487 114.553 150.706 115.315 150.991C115.384 151.01 115.455 151.015 115.526 151.006C115.596 150.998 115.664 150.975 115.726 150.94C115.788 150.905 115.842 150.859 115.886 150.803C115.93 150.747 115.962 150.683 115.981 150.614C116 150.546 116.005 150.474 115.997 150.404C115.988 150.334 115.966 150.266 115.931 150.204C115.896 150.142 115.849 150.088 115.793 150.044C115.737 150 115.673 149.968 115.604 149.949C114.823 149.656 114.017 149.432 113.196 149.28C112.758 149.188 112.32 149.118 111.882 149.061C111.593 149.012 111.298 149 111.006 149.026C110.864 149.028 110.727 149.085 110.626 149.186C110.525 149.286 110.466 149.422 110.463 149.564C110.463 149.708 110.52 149.846 110.622 149.948C110.724 150.05 110.862 150.107 111.006 150.107L111.015 150.133Z" fill="#153A23"/>
<path d="M110.122 154.513C110.704 154.548 111.291 154.549 111.873 154.592C112.446 154.624 113.01 154.743 113.546 154.947C113.686 154.984 113.834 154.965 113.96 154.894C114.085 154.823 114.177 154.705 114.216 154.566C114.25 154.427 114.23 154.281 114.159 154.157C114.088 154.033 113.972 153.942 113.835 153.901C112.653 153.437 111.361 153.507 110.117 153.428C109.973 153.429 109.836 153.487 109.734 153.588C109.633 153.69 109.575 153.827 109.574 153.971C109.577 154.114 109.636 154.25 109.737 154.351C109.838 154.452 109.974 154.51 110.117 154.513H110.122Z" fill="#153A23"/>
<path d="M111.606 148.037C112.491 148.043 113.372 148.147 114.234 148.348C115.11 148.51 115.985 148.702 116.901 148.86C117.039 148.894 117.185 148.874 117.309 148.804C117.432 148.734 117.525 148.619 117.566 148.483C117.604 148.345 117.586 148.198 117.515 148.073C117.445 147.949 117.328 147.857 117.19 147.818C116.27 147.656 115.364 147.455 114.448 147.289C113.521 147.076 112.574 146.963 111.624 146.952C110.927 146.982 110.923 148.068 111.624 148.037H111.606Z" fill="#153A23"/>
<path d="M207.212 114.98C207.328 115.219 207.364 115.488 207.315 115.748C207.265 116.009 207.132 116.246 206.936 116.425C206.778 116.553 206.596 116.648 206.4 116.704C206.205 116.759 206 116.774 205.798 116.747C205.596 116.72 205.403 116.651 205.228 116.546C205.054 116.441 204.904 116.301 204.786 116.136C204.691 115.959 204.64 115.762 204.637 115.561C204.634 115.361 204.678 115.162 204.767 114.983C204.855 114.803 204.985 114.646 205.146 114.526C205.307 114.407 205.494 114.327 205.692 114.293C205.692 114.293 206.783 114.057 207.212 114.98Z" fill="#FAC7B7"/>
<path d="M207.212 101.975C207.329 102.212 207.365 102.481 207.315 102.741C207.266 103 207.132 103.237 206.936 103.414C206.779 103.543 206.597 103.639 206.401 103.694C206.206 103.75 206.001 103.765 205.799 103.738C205.597 103.712 205.403 103.644 205.229 103.539C205.055 103.435 204.904 103.295 204.786 103.13C204.348 102.425 204.873 101.331 205.692 101.288C205.692 101.288 206.783 101.047 207.212 101.975Z" fill="#FAC7B7"/>
<path d="M207.212 88.9605C207.328 89.1986 207.364 89.4681 207.315 89.7284C207.265 89.9888 207.132 90.2261 206.936 90.4045C206.778 90.5333 206.596 90.6283 206.4 90.6837C206.205 90.7391 206 90.7537 205.798 90.7267C205.596 90.6996 205.403 90.6314 205.228 90.5263C205.054 90.4212 204.904 90.2814 204.786 90.1157C204.691 89.9388 204.64 89.7419 204.637 89.5414C204.634 89.3409 204.678 89.1425 204.767 88.9625C204.855 88.7825 204.985 88.6262 205.146 88.5064C205.307 88.3866 205.494 88.3067 205.692 88.2734C205.692 88.2734 206.783 88.0415 207.212 88.9605Z" fill="#FAC7B7"/>
<path d="M207.212 75.959C207.329 76.1963 207.365 76.4653 207.315 76.7251C207.266 76.9849 207.132 77.2214 206.936 77.3987C206.779 77.5277 206.597 77.623 206.401 77.6788C206.206 77.7345 206.001 77.7495 205.799 77.7229C205.597 77.6962 205.403 77.6284 205.229 77.5237C205.055 77.419 204.904 77.2797 204.786 77.1143C204.348 76.4098 204.873 75.3157 205.692 75.272C205.692 75.272 206.783 75.0313 207.212 75.959Z" fill="#FAC7B7"/>
<path d="M207.212 62.9492C207.328 63.1873 207.364 63.4568 207.315 63.7172C207.265 63.9776 207.132 64.2148 206.936 64.3933C206.779 64.522 206.596 64.6171 206.401 64.6725C206.205 64.7279 206 64.7425 205.798 64.7154C205.596 64.6883 205.403 64.6201 205.228 64.515C205.054 64.4099 204.904 64.2702 204.786 64.1045C204.691 63.9279 204.64 63.7313 204.637 63.531C204.633 63.3307 204.678 63.1325 204.766 62.9528C204.855 62.7732 204.985 62.6172 205.146 62.4978C205.307 62.3785 205.494 62.2992 205.692 62.2665C205.692 62.2665 206.783 62.0259 207.212 62.9492Z" fill="#FAC7B7"/>
<path d="M207.212 179.4C207.329 179.638 207.365 179.906 207.315 180.166C207.265 180.426 207.132 180.663 206.936 180.84C206.779 180.969 206.597 181.064 206.401 181.12C206.206 181.176 206.001 181.191 205.799 181.164C205.597 181.137 205.403 181.07 205.229 180.965C205.055 180.86 204.904 180.721 204.786 180.555C204.691 180.379 204.64 180.182 204.637 179.981C204.634 179.781 204.678 179.582 204.767 179.402C204.855 179.222 204.985 179.066 205.146 178.946C205.307 178.826 205.494 178.746 205.692 178.713C205.692 178.713 206.783 178.472 207.212 179.4Z" fill="#FAC7B7"/>
<path d="M207.212 166.417C207.329 166.654 207.365 166.923 207.315 167.183C207.266 167.442 207.132 167.679 206.936 167.856C206.779 167.985 206.596 168.079 206.401 168.135C206.206 168.19 206.001 168.205 205.799 168.178C205.598 168.152 205.404 168.084 205.23 167.98C205.055 167.876 204.904 167.737 204.786 167.572C204.348 166.867 204.873 165.773 205.692 165.73C205.692 165.708 206.783 165.467 207.212 166.417Z" fill="#FAC7B7"/>
<path d="M207.212 153.385C207.328 153.623 207.364 153.892 207.315 154.153C207.265 154.413 207.132 154.65 206.936 154.829C206.778 154.957 206.596 155.052 206.4 155.108C206.205 155.163 206 155.178 205.798 155.151C205.596 155.124 205.403 155.055 205.228 154.95C205.054 154.845 204.904 154.706 204.786 154.54C204.691 154.363 204.64 154.166 204.637 153.966C204.634 153.765 204.678 153.567 204.767 153.387C204.855 153.207 204.985 153.05 205.146 152.93C205.307 152.811 205.494 152.731 205.692 152.698C205.692 152.698 206.783 152.457 207.212 153.385Z" fill="#FAC7B7"/>
<path d="M207.212 140.379C207.329 140.616 207.365 140.885 207.315 141.145C207.266 141.405 207.132 141.641 206.936 141.819C206.779 141.947 206.596 142.042 206.401 142.097C206.206 142.153 206.001 142.167 205.799 142.141C205.598 142.114 205.404 142.047 205.23 141.942C205.055 141.838 204.904 141.699 204.786 141.534C204.348 140.83 204.873 139.736 205.692 139.692C205.692 139.692 206.783 139.451 207.212 140.379Z" fill="#FAC7B7"/>
<path d="M207.212 127.369C207.328 127.607 207.364 127.877 207.315 128.137C207.265 128.397 207.132 128.635 206.936 128.813C206.778 128.942 206.596 129.037 206.4 129.092C206.205 129.148 206 129.162 205.798 129.135C205.596 129.108 205.403 129.04 205.228 128.935C205.054 128.83 204.904 128.69 204.786 128.524C204.691 128.347 204.64 128.15 204.637 127.95C204.634 127.749 204.678 127.551 204.767 127.371C204.855 127.191 204.985 127.035 205.146 126.915C205.307 126.795 205.494 126.715 205.692 126.682C205.692 126.682 206.783 126.446 207.212 127.369Z" fill="#FAC7B7"/>
<path d="M178.076 114.98C178.192 115.219 178.229 115.488 178.179 115.748C178.129 116.009 177.996 116.246 177.8 116.425C177.643 116.553 177.46 116.648 177.265 116.704C177.069 116.759 176.864 116.774 176.662 116.747C176.461 116.72 176.267 116.651 176.093 116.546C175.918 116.441 175.768 116.301 175.65 116.136C175.555 115.959 175.504 115.761 175.501 115.561C175.498 115.36 175.543 115.161 175.632 114.981C175.721 114.801 175.852 114.645 176.013 114.525C176.175 114.406 176.362 114.326 176.561 114.293C176.561 114.293 177.647 114.057 178.076 114.98Z" fill="#FAC7B7"/>
<path d="M178.076 101.975C178.191 102.21 178.227 102.475 178.179 102.732C178.131 102.989 178.001 103.224 177.809 103.401C177.652 103.53 177.47 103.626 177.274 103.681C177.079 103.737 176.874 103.752 176.672 103.726C176.47 103.699 176.276 103.631 176.102 103.526C175.928 103.422 175.777 103.282 175.659 103.117C175.563 102.94 175.511 102.743 175.508 102.541C175.504 102.34 175.549 102.141 175.638 101.961C175.727 101.781 175.858 101.624 176.02 101.505C176.182 101.385 176.371 101.306 176.569 101.275C176.569 101.275 177.647 101.047 178.076 101.975Z" fill="#FAC7B7"/>
<path d="M178.076 88.9605C178.192 89.1986 178.229 89.4681 178.179 89.7284C178.129 89.9888 177.996 90.2261 177.8 90.4045C177.643 90.5333 177.46 90.6283 177.265 90.6837C177.069 90.7391 176.864 90.7537 176.662 90.7267C176.461 90.6996 176.267 90.6314 176.093 90.5263C175.918 90.4212 175.768 90.2814 175.65 90.1157C175.555 89.9385 175.504 89.7413 175.501 89.5405C175.498 89.3397 175.543 89.1411 175.632 88.961C175.721 88.781 175.852 88.6247 176.013 88.5051C176.175 88.3856 176.362 88.3061 176.561 88.2734C176.561 88.2734 177.647 88.0415 178.076 88.9605Z" fill="#FAC7B7"/>
<path d="M178.076 75.959C178.193 76.1963 178.229 76.4653 178.179 76.7251C178.13 76.9849 177.996 77.2214 177.8 77.3987C177.643 77.5277 177.461 77.623 177.265 77.6788C177.07 77.7345 176.865 77.7495 176.663 77.7229C176.462 77.6962 176.268 77.6284 176.093 77.5237C175.919 77.419 175.768 77.2797 175.65 77.1143C175.554 76.9372 175.503 76.7399 175.499 76.5387C175.496 76.3376 175.54 76.1385 175.629 75.9582C175.719 75.7778 175.85 75.6214 176.012 75.5021C176.174 75.3827 176.362 75.3038 176.561 75.272C176.561 75.272 177.647 75.0313 178.076 75.959Z" fill="#FAC7B7"/>
<path d="M178.076 62.9492C178.193 63.1873 178.229 63.4568 178.179 63.7172C178.129 63.9776 177.996 64.2148 177.8 64.3933C177.643 64.522 177.46 64.6171 177.265 64.6725C177.069 64.7279 176.864 64.7425 176.662 64.7154C176.461 64.6883 176.267 64.6201 176.093 64.515C175.918 64.4099 175.768 64.2702 175.65 64.1045C175.555 63.9276 175.504 63.7306 175.501 63.5301C175.498 63.3295 175.543 63.1311 175.632 62.9513C175.721 62.7716 175.852 62.6157 176.013 62.4966C176.175 62.3775 176.363 62.2986 176.561 62.2665C176.561 62.2665 177.647 62.0259 178.076 62.9492Z" fill="#FAC7B7"/>
<path d="M178.076 179.4C178.198 179.639 178.238 179.911 178.19 180.174C178.142 180.438 178.008 180.678 177.809 180.858C177.652 180.986 177.47 181.082 177.274 181.138C177.079 181.193 176.874 181.208 176.672 181.182C176.47 181.155 176.276 181.087 176.102 180.982C175.928 180.878 175.777 180.738 175.659 180.573C175.564 180.396 175.513 180.199 175.51 179.998C175.507 179.797 175.552 179.598 175.641 179.418C175.73 179.238 175.861 179.082 176.022 178.962C176.184 178.843 176.371 178.763 176.57 178.731C176.57 178.731 177.647 178.473 178.076 179.4Z" fill="#FAC7B7"/>
<path d="M178.076 192.406C178.193 192.644 178.229 192.914 178.179 193.174C178.129 193.434 177.996 193.672 177.8 193.85C177.643 193.979 177.46 194.074 177.265 194.129C177.069 194.185 176.864 194.199 176.662 194.172C176.461 194.145 176.267 194.077 176.093 193.972C175.918 193.867 175.768 193.727 175.65 193.561C175.555 193.384 175.504 193.187 175.501 192.987C175.498 192.786 175.543 192.588 175.632 192.408C175.721 192.228 175.852 192.072 176.013 191.953C176.175 191.834 176.363 191.755 176.561 191.723C176.561 191.723 177.647 191.483 178.076 192.406Z" fill="#FAC7B7"/>
<path d="M178.076 166.417C178.193 166.654 178.229 166.923 178.179 167.183C178.13 167.442 177.996 167.679 177.8 167.856C177.643 167.985 177.461 168.079 177.265 168.135C177.07 168.19 176.865 168.205 176.663 168.178C176.462 168.152 176.268 168.084 176.094 167.98C175.92 167.876 175.768 167.737 175.65 167.572C175.554 167.395 175.503 167.197 175.499 166.996C175.496 166.795 175.54 166.596 175.629 166.416C175.719 166.235 175.85 166.079 176.012 165.96C176.174 165.84 176.362 165.761 176.561 165.73C176.561 165.73 177.647 165.467 178.076 166.417Z" fill="#FAC7B7"/>
<path d="M178.076 153.385C178.192 153.623 178.229 153.892 178.179 154.153C178.129 154.413 177.996 154.65 177.8 154.829C177.643 154.957 177.46 155.052 177.265 155.108C177.069 155.163 176.864 155.178 176.662 155.151C176.461 155.124 176.267 155.055 176.093 154.95C175.918 154.845 175.768 154.706 175.65 154.54C175.555 154.363 175.504 154.165 175.501 153.965C175.498 153.764 175.543 153.565 175.632 153.385C175.721 153.205 175.852 153.049 176.013 152.929C176.175 152.81 176.362 152.73 176.561 152.698C176.561 152.698 177.647 152.457 178.076 153.385Z" fill="#FAC7B7"/>
<path d="M178.076 140.379C178.193 140.616 178.229 140.885 178.179 141.145C178.13 141.405 177.996 141.641 177.8 141.819C177.643 141.947 177.461 142.042 177.265 142.097C177.07 142.153 176.865 142.167 176.663 142.141C176.462 142.114 176.268 142.047 176.094 141.942C175.92 141.838 175.768 141.699 175.65 141.534C175.554 141.357 175.503 141.16 175.499 140.959C175.496 140.758 175.54 140.558 175.629 140.378C175.719 140.198 175.85 140.041 176.012 139.922C176.174 139.803 176.362 139.724 176.561 139.692C176.561 139.692 177.647 139.451 178.076 140.379Z" fill="#FAC7B7"/>
<path d="M178.076 127.369C178.192 127.607 178.229 127.877 178.179 128.137C178.129 128.397 177.996 128.635 177.8 128.813C177.643 128.942 177.46 129.037 177.265 129.092C177.069 129.148 176.864 129.162 176.662 129.135C176.461 129.108 176.267 129.04 176.093 128.935C175.918 128.83 175.768 128.69 175.65 128.524C175.555 128.347 175.504 128.15 175.501 127.949C175.498 127.748 175.543 127.55 175.632 127.369C175.721 127.189 175.852 127.033 176.013 126.914C176.175 126.794 176.362 126.715 176.561 126.682C176.561 126.682 177.647 126.446 178.076 127.369Z" fill="#FAC7B7"/>
<path d="M192.953 107.55C193.07 107.787 193.106 108.056 193.056 108.316C193.006 108.576 192.873 108.812 192.677 108.99C192.52 109.119 192.338 109.214 192.142 109.27C191.946 109.325 191.741 109.34 191.54 109.314C191.338 109.287 191.144 109.219 190.97 109.115C190.796 109.01 190.645 108.871 190.526 108.705C190.089 108.001 190.614 106.907 191.437 106.863C191.437 106.863 192.528 106.622 192.953 107.55Z" fill="#FAC7B7"/>
<path d="M192.953 94.5398C193.069 94.778 193.105 95.0474 193.056 95.3078C193.006 95.5682 192.873 95.8054 192.677 95.9839C192.519 96.1126 192.337 96.2077 192.141 96.2631C191.946 96.3185 191.74 96.3331 191.539 96.306C191.337 96.2789 191.143 96.2107 190.969 96.1056C190.795 96.0005 190.644 95.8608 190.527 95.6951C190.432 95.5178 190.381 95.3207 190.378 95.1199C190.375 94.9191 190.42 94.7204 190.509 94.5404C190.598 94.3603 190.729 94.204 190.89 94.0845C191.051 93.9649 191.239 93.8855 191.437 93.8528C191.437 93.8528 192.528 93.6165 192.953 94.5398Z" fill="#FAC7B7"/>
<path d="M192.953 81.521C193.07 81.7584 193.106 82.0273 193.056 82.2871C193.006 82.5469 192.873 82.7834 192.677 82.9608C192.52 83.0897 192.338 83.185 192.142 83.2408C191.946 83.2965 191.741 83.3116 191.54 83.2849C191.338 83.2582 191.144 83.1904 190.97 83.0858C190.796 82.9811 190.645 82.8417 190.526 82.6763C190.089 81.9718 190.614 80.8777 191.437 80.834C191.437 80.8471 192.528 80.6064 192.953 81.521Z" fill="#FAC7B7"/>
<path d="M192.953 68.5242C193.069 68.7623 193.105 69.0318 193.056 69.2922C193.006 69.5525 192.873 69.7898 192.677 69.9683C192.519 70.097 192.337 70.192 192.141 70.2474C191.946 70.3029 191.74 70.3175 191.539 70.2904C191.337 70.2633 191.143 70.1951 190.969 70.09C190.795 69.9849 190.644 69.8452 190.527 69.6795C190.432 69.5022 190.381 69.305 190.378 69.1042C190.375 68.9034 190.42 68.7048 190.509 68.5247C190.598 68.3447 190.729 68.1884 190.89 68.0689C191.051 67.9493 191.239 67.8699 191.437 67.8371C191.437 67.8371 192.528 67.6008 192.953 68.5242Z" fill="#FAC7B7"/>
<path d="M192.953 55.5186C193.07 55.7559 193.106 56.0248 193.056 56.2846C193.006 56.5444 192.873 56.7809 192.677 56.9583C192.52 57.0873 192.338 57.1826 192.142 57.2383C191.946 57.2941 191.741 57.3091 191.54 57.2824C191.338 57.2558 191.144 57.188 190.97 57.0833C190.796 56.9786 190.645 56.8393 190.526 56.6739C190.089 55.9693 190.614 54.8753 191.437 54.8315C191.437 54.8272 192.528 54.5909 192.953 55.5186Z" fill="#FAC7B7"/>
<path d="M192.953 171.965C193.074 172.202 193.115 172.472 193.069 172.734C193.023 172.996 192.893 173.236 192.699 173.418C192.541 173.547 192.359 173.642 192.163 173.697C191.967 173.753 191.762 173.767 191.561 173.74C191.359 173.713 191.165 173.645 190.991 173.54C190.817 173.435 190.666 173.295 190.548 173.129C190.11 172.429 190.636 171.335 191.459 171.291C191.437 171.283 192.528 171.042 192.953 171.965Z" fill="#FAC7B7"/>
<path d="M192.953 184.975C193.07 185.213 193.106 185.482 193.056 185.741C193.006 186.001 192.873 186.238 192.677 186.415C192.52 186.544 192.338 186.639 192.142 186.695C191.946 186.751 191.741 186.766 191.54 186.739C191.338 186.713 191.144 186.645 190.97 186.54C190.796 186.435 190.645 186.296 190.526 186.131C190.089 185.426 190.614 184.332 191.437 184.288C191.437 184.288 192.528 184.048 192.953 184.975Z" fill="#FAC7B7"/>
<path d="M192.953 197.981C193.069 198.219 193.105 198.489 193.056 198.749C193.006 199.009 192.873 199.247 192.677 199.425C192.519 199.554 192.337 199.649 192.141 199.704C191.946 199.76 191.74 199.774 191.539 199.747C191.337 199.72 191.143 199.652 190.969 199.547C190.795 199.442 190.644 199.302 190.527 199.136C190.432 198.959 190.381 198.762 190.378 198.561C190.375 198.36 190.42 198.162 190.509 197.982C190.598 197.802 190.729 197.645 190.89 197.526C191.051 197.406 191.239 197.327 191.437 197.294C191.437 197.294 192.528 197.049 192.953 197.981Z" fill="#FAC7B7"/>
<path d="M192.953 158.977C193.07 159.215 193.106 159.484 193.056 159.743C193.006 160.003 192.873 160.24 192.677 160.417C192.52 160.546 192.338 160.641 192.142 160.697C191.946 160.753 191.741 160.768 191.54 160.741C191.338 160.714 191.144 160.647 190.97 160.542C190.796 160.437 190.645 160.298 190.527 160.133C190.432 159.955 190.381 159.758 190.378 159.557C190.375 159.357 190.42 159.158 190.509 158.978C190.598 158.798 190.729 158.642 190.89 158.522C191.051 158.402 191.239 158.323 191.437 158.29C191.437 158.29 192.528 158.032 192.953 158.977Z" fill="#FAC7B7"/>
<path d="M192.953 145.954C193.07 146.191 193.106 146.46 193.056 146.72C193.006 146.98 192.873 147.216 192.677 147.394C192.519 147.522 192.337 147.617 192.142 147.672C191.946 147.728 191.742 147.743 191.54 147.716C191.339 147.689 191.145 147.622 190.971 147.517C190.796 147.413 190.645 147.274 190.526 147.109C190.089 146.405 190.614 145.311 191.437 145.267C191.437 145.267 192.528 145.026 192.953 145.954Z" fill="#FAC7B7"/>
<path d="M192.953 132.944C193.069 133.182 193.105 133.452 193.056 133.712C193.006 133.973 192.873 134.21 192.677 134.388C192.519 134.517 192.337 134.612 192.141 134.667C191.946 134.723 191.74 134.737 191.539 134.71C191.337 134.683 191.143 134.615 190.969 134.51C190.795 134.405 190.644 134.265 190.527 134.099C190.432 133.922 190.381 133.725 190.378 133.524C190.375 133.323 190.42 133.125 190.509 132.945C190.598 132.765 190.729 132.608 190.89 132.489C191.051 132.369 191.239 132.29 191.437 132.257C191.437 132.257 192.528 132.016 192.953 132.944Z" fill="#FAC7B7"/>
<path d="M192.953 119.939C193.07 120.176 193.106 120.445 193.056 120.705C193.006 120.964 192.873 121.201 192.677 121.378C192.519 121.507 192.337 121.601 192.142 121.657C191.946 121.712 191.742 121.727 191.54 121.7C191.339 121.674 191.145 121.606 190.971 121.502C190.796 121.398 190.645 121.259 190.526 121.094C190.089 120.389 190.614 119.295 191.437 119.251C191.437 119.251 192.528 119.011 192.953 119.939Z" fill="#FAC7B7"/>
<path d="M163.199 107.55C163.316 107.787 163.353 108.056 163.303 108.316C163.253 108.576 163.12 108.812 162.923 108.99C162.766 109.119 162.584 109.214 162.389 109.27C162.193 109.325 161.988 109.34 161.787 109.314C161.585 109.287 161.391 109.219 161.217 109.115C161.042 109.01 160.891 108.871 160.773 108.705C160.678 108.528 160.626 108.331 160.622 108.13C160.619 107.928 160.664 107.729 160.753 107.549C160.842 107.369 160.973 107.212 161.135 107.093C161.297 106.973 161.485 106.895 161.684 106.863C161.684 106.863 162.77 106.622 163.199 107.55Z" fill="#FAC7B7"/>
<path d="M163.199 94.5398C163.316 94.778 163.352 95.0474 163.302 95.3078C163.252 95.5682 163.12 95.8054 162.923 95.9839C162.766 96.1126 162.584 96.2077 162.388 96.2631C162.192 96.3185 161.987 96.3331 161.786 96.306C161.584 96.2789 161.39 96.2107 161.216 96.1056C161.042 96.0005 160.891 95.8608 160.773 95.6951C160.679 95.5178 160.628 95.3207 160.625 95.1199C160.622 94.9191 160.666 94.7204 160.755 94.5404C160.844 94.3603 160.975 94.204 161.137 94.0845C161.298 93.9649 161.486 93.8855 161.684 93.8528C161.684 93.8528 162.77 93.6165 163.199 94.5398Z" fill="#FAC7B7"/>
<path d="M163.199 81.521C163.316 81.7583 163.353 82.0273 163.303 82.2871C163.253 82.5469 163.12 82.7834 162.923 82.9607C162.766 83.0897 162.584 83.185 162.389 83.2408C162.193 83.2965 161.988 83.3115 161.787 83.2849C161.585 83.2582 161.391 83.1904 161.217 83.0857C161.042 82.981 160.891 82.8417 160.773 82.6763C160.678 82.4992 160.626 82.3018 160.622 82.1007C160.619 81.8996 160.664 81.7005 160.753 81.5202C160.842 81.3398 160.973 81.1834 161.135 81.064C161.297 80.9447 161.485 80.8658 161.684 80.834C161.684 80.834 162.77 80.6064 163.199 81.521Z" fill="#FAC7B7"/>
<path d="M163.199 68.5242C163.316 68.7623 163.352 69.0318 163.302 69.2922C163.252 69.5525 163.12 69.7898 162.923 69.9683C162.766 70.097 162.584 70.192 162.388 70.2474C162.192 70.3029 161.987 70.3175 161.786 70.2904C161.584 70.2633 161.39 70.1951 161.216 70.09C161.042 69.9849 160.891 69.8452 160.773 69.6795C160.679 69.5022 160.628 69.305 160.625 69.1042C160.622 68.9034 160.666 68.7048 160.755 68.5247C160.844 68.3447 160.975 68.1884 161.137 68.0689C161.298 67.9493 161.486 67.8699 161.684 67.8371C161.684 67.8371 162.77 67.6008 163.199 68.5242Z" fill="#FAC7B7"/>
<path d="M163.199 55.5186C163.316 55.7559 163.353 56.0248 163.303 56.2846C163.253 56.5444 163.12 56.7809 162.923 56.9583C162.766 57.0873 162.584 57.1826 162.389 57.2383C162.193 57.2941 161.988 57.3091 161.787 57.2824C161.585 57.2558 161.391 57.188 161.217 57.0833C161.042 56.9786 160.891 56.8393 160.773 56.6739C160.678 56.4968 160.626 56.2994 160.622 56.0983C160.619 55.8972 160.664 55.6981 160.753 55.5178C160.842 55.3374 160.973 55.181 161.135 55.0616C161.297 54.9422 161.485 54.8634 161.684 54.8316C161.684 54.8316 162.77 54.5909 163.199 55.5186Z" fill="#FAC7B7"/>
<path d="M163.199 171.965C163.317 172.205 163.354 172.477 163.303 172.739C163.253 173.001 163.118 173.24 162.919 173.418C162.762 173.547 162.579 173.642 162.384 173.697C162.188 173.753 161.983 173.767 161.781 173.74C161.58 173.713 161.386 173.645 161.211 173.54C161.037 173.435 160.887 173.295 160.769 173.129C160.674 172.952 160.623 172.756 160.62 172.555C160.617 172.354 160.662 172.156 160.751 171.976C160.84 171.796 160.971 171.641 161.132 171.521C161.294 171.402 161.482 171.323 161.68 171.291C161.68 171.291 162.77 171.042 163.199 171.965Z" fill="#FAC7B7"/>
<path d="M163.199 184.975C163.316 185.213 163.353 185.482 163.303 185.741C163.253 186.001 163.12 186.238 162.923 186.415C162.766 186.544 162.584 186.639 162.389 186.695C162.193 186.751 161.988 186.766 161.787 186.739C161.585 186.713 161.391 186.645 161.217 186.54C161.042 186.435 160.891 186.296 160.773 186.131C160.678 185.954 160.626 185.756 160.622 185.555C160.619 185.354 160.664 185.155 160.753 184.975C160.842 184.794 160.973 184.638 161.135 184.518C161.297 184.399 161.485 184.32 161.684 184.288C161.684 184.288 162.77 184.048 163.199 184.975Z" fill="#FAC7B7"/>
<path d="M163.199 197.981C163.316 198.219 163.352 198.489 163.302 198.749C163.252 199.009 163.12 199.247 162.923 199.425C162.766 199.554 162.584 199.649 162.388 199.704C162.192 199.76 161.987 199.774 161.786 199.747C161.584 199.72 161.39 199.652 161.216 199.547C161.042 199.442 160.891 199.302 160.773 199.136C160.679 198.959 160.628 198.762 160.625 198.561C160.622 198.36 160.666 198.162 160.755 197.982C160.844 197.802 160.975 197.645 161.137 197.526C161.298 197.406 161.486 197.327 161.684 197.294C161.684 197.294 162.77 197.049 163.199 197.981Z" fill="#FAC7B7"/>
<path d="M163.199 158.977C163.316 159.215 163.353 159.484 163.303 159.743C163.253 160.003 163.12 160.24 162.923 160.417C162.766 160.546 162.584 160.641 162.389 160.697C162.193 160.753 161.988 160.768 161.786 160.741C161.585 160.714 161.391 160.647 161.217 160.542C161.042 160.437 160.891 160.298 160.773 160.133C160.679 159.955 160.628 159.758 160.625 159.557C160.622 159.357 160.666 159.158 160.755 158.978C160.845 158.798 160.975 158.642 161.137 158.522C161.298 158.402 161.486 158.323 161.684 158.29C161.684 158.29 162.77 158.032 163.199 158.977Z" fill="#FAC7B7"/>
<path d="M163.199 145.954C163.316 146.191 163.353 146.46 163.303 146.72C163.253 146.98 163.12 147.216 162.923 147.394C162.766 147.522 162.584 147.617 162.388 147.672C162.193 147.728 161.988 147.743 161.787 147.716C161.585 147.689 161.392 147.622 161.217 147.517C161.043 147.413 160.892 147.274 160.773 147.109C160.678 146.932 160.626 146.735 160.622 146.534C160.619 146.333 160.664 146.134 160.753 145.953C160.842 145.773 160.973 145.617 161.135 145.497C161.297 145.378 161.485 145.299 161.684 145.267C161.684 145.267 162.77 145.026 163.199 145.954Z" fill="#FAC7B7"/>
<path d="M163.199 132.944C163.316 133.182 163.352 133.452 163.302 133.712C163.252 133.973 163.12 134.21 162.923 134.388C162.766 134.517 162.584 134.612 162.388 134.667C162.192 134.723 161.987 134.737 161.786 134.71C161.584 134.683 161.39 134.615 161.216 134.51C161.042 134.405 160.891 134.265 160.773 134.099C160.679 133.922 160.628 133.725 160.625 133.524C160.622 133.323 160.666 133.125 160.755 132.945C160.844 132.765 160.975 132.608 161.137 132.489C161.298 132.369 161.486 132.29 161.684 132.257C161.684 132.257 162.77 132.016 163.199 132.944Z" fill="#FAC7B7"/>
<path d="M163.199 119.939C163.316 120.176 163.353 120.445 163.303 120.705C163.253 120.964 163.12 121.201 162.923 121.378C162.766 121.507 162.584 121.601 162.388 121.657C162.193 121.712 161.988 121.727 161.787 121.7C161.585 121.674 161.392 121.606 161.217 121.502C161.043 121.398 160.892 121.259 160.773 121.094C160.678 120.917 160.626 120.719 160.622 120.518C160.619 120.317 160.664 120.118 160.753 119.938C160.842 119.757 160.973 119.601 161.135 119.482C161.297 119.362 161.485 119.283 161.684 119.251C161.684 119.251 162.77 119.011 163.199 119.939Z" fill="#FAC7B7"/>
<path d="M60.6611 177.111C60.1881 176.214 60.9895 174.814 62.0625 174.989C63.1354 175.164 63.4945 176.503 62.9383 177.291C62.5924 177.799 63.3763 178.402 63.7923 177.947C64.5237 177.138 65.3338 176.197 66.4418 175.904C66.9251 175.763 67.4427 175.795 67.9045 175.996C68.3074 176.197 68.522 176.608 68.8943 176.871C69.7263 177.418 70.6241 176.845 71.5219 176.871C72.4196 176.897 73.3656 177.392 73.624 178.319C73.6673 178.452 73.7598 178.562 73.8823 178.628C74.0049 178.694 74.1482 178.711 74.2826 178.674C74.417 178.638 74.5322 178.551 74.6044 178.432C74.6766 178.313 74.7003 178.171 74.6706 178.035C74.5271 177.55 74.2649 177.109 73.9078 176.752C73.5507 176.394 73.1099 176.131 72.6255 175.987C72.1278 175.822 71.6022 175.758 71.0795 175.799C70.8094 175.824 70.5415 175.869 70.2781 175.934C70.08 176.004 69.865 176.009 69.6637 175.949C69.4625 175.889 69.2852 175.768 69.157 175.602C68.77 175.22 68.2873 174.949 67.7596 174.817C67.2319 174.686 66.6784 174.698 66.1572 174.853C64.8433 175.19 63.893 176.214 63.0303 177.177L63.8799 177.834C64.8828 176.368 63.8799 174.035 62.0449 173.895C60.1268 173.746 58.8568 176.035 59.7107 177.654C60.0392 178.271 60.972 177.724 60.6479 177.107L60.6611 177.111Z" fill="#153A23"/>
<path d="M114.746 184.516C113.864 184.184 113.079 183.638 112.46 182.927C112.137 182.556 111.862 182.146 111.641 181.706C111.532 181.492 111.094 180.678 111.269 180.468C111.352 180.367 111.777 180.416 111.882 180.416C112.158 180.416 112.429 180.416 112.701 180.451C113.221 180.505 113.734 180.61 114.234 180.766C115.264 181.077 116.22 181.597 117.041 182.293C117.118 182.366 117.214 182.415 117.319 182.434C117.423 182.453 117.531 182.442 117.628 182.401C117.726 182.36 117.81 182.292 117.87 182.204C117.93 182.117 117.963 182.014 117.965 181.908L118.079 180.311L117.536 180.858L119.962 180.836C120.106 180.836 120.244 180.778 120.346 180.677C120.448 180.575 120.505 180.437 120.505 180.293C120.505 180.149 120.448 180.011 120.346 179.909C120.244 179.808 120.106 179.75 119.962 179.75L117.536 179.772C117.393 179.776 117.257 179.834 117.155 179.935C117.054 180.036 116.996 180.172 116.993 180.315L116.879 181.912L117.803 181.531C116.749 180.628 115.503 179.976 114.159 179.623C113.487 179.448 112.796 179.353 112.101 179.339C111.492 179.339 110.7 179.304 110.349 179.895C109.999 180.486 110.24 181.142 110.463 181.702C110.823 182.59 111.365 183.392 112.055 184.058C112.744 184.723 113.566 185.237 114.466 185.566C115.118 185.811 115.403 184.765 114.755 184.52L114.746 184.516Z" fill="#153A23"/>
<path d="M95.3062 165.769L95.3675 169.589C95.3709 169.695 95.4047 169.798 95.465 169.885C95.5253 169.972 95.6095 170.04 95.7074 170.081C95.8054 170.121 95.913 170.133 96.0174 170.114C96.1217 170.095 96.2184 170.047 96.2959 169.974C96.9615 169.3 97.9294 168.373 98.8972 169.038C99.227 169.304 99.577 169.544 99.9439 169.755C100.294 169.923 100.659 170.057 101.034 170.158C102.247 170.491 104.1 170.473 104.709 171.799C104.993 172.438 105.93 171.887 105.646 171.252C104.884 169.545 102.76 169.532 101.21 169.064C100.802 168.956 100.415 168.783 100.062 168.552C99.5673 168.219 99.1863 167.817 98.56 167.716C97.3557 167.519 96.3134 168.395 95.5295 169.191L96.4535 169.572L96.3922 165.751C96.3922 165.607 96.335 165.469 96.2332 165.368C96.1313 165.266 95.9932 165.209 95.8492 165.209C95.7052 165.209 95.567 165.266 95.4652 165.368C95.3634 165.469 95.3062 165.607 95.3062 165.751V165.769Z" fill="#153A23"/>
<path d="M83.241 192.927C82.876 192.387 82.685 191.748 82.6936 191.096C82.7023 190.445 82.9101 189.812 83.2892 189.281C83.7055 188.767 84.2747 188.397 84.9145 188.227C85.5544 188.056 86.232 188.093 86.8496 188.332C87.1677 188.43 87.4574 188.604 87.6944 188.838C87.9314 189.071 88.1088 189.359 88.2116 189.675C88.3474 190.27 87.8306 190.59 87.2919 190.48C86.6263 190.345 86.3591 189.605 86.346 188.997C86.3328 188.321 86.577 187.666 87.0292 187.163C87.2458 186.894 87.5347 186.692 87.862 186.582C88.1894 186.471 88.5415 186.455 88.8772 186.538C89.2061 186.617 89.4985 186.805 89.7075 187.071C89.9164 187.337 90.0297 187.665 90.029 188.004C89.9984 188.704 91.0844 188.699 91.1151 188.004C91.1214 187.53 90.994 187.065 90.7477 186.661C90.5014 186.257 90.146 185.931 89.7225 185.719C89.2908 185.49 88.8058 185.379 88.3172 185.398C87.8286 185.417 87.3538 185.566 86.9416 185.829C85.3212 186.857 84.5067 189.645 86.1183 191.08C86.4705 191.394 86.92 191.577 87.3914 191.598C87.8627 191.62 88.3271 191.478 88.7065 191.198C89.556 190.524 89.4203 189.325 88.8335 188.524C87.6335 186.888 85.0891 186.643 83.4337 187.71C82.5263 188.335 81.8998 189.29 81.6886 190.37C81.4774 191.451 81.6982 192.571 82.3038 193.491C82.6936 194.064 83.6176 193.522 83.241 192.944V192.927Z" fill="#153A23"/>
<path d="M159.035 138.812C158.833 137.841 158.575 136.716 158.978 135.749C159.245 135.115 159.832 134.528 160.572 134.611C161.916 134.76 162.433 136.751 162.665 137.819C162.814 138.506 163.834 138.208 163.712 137.53C163.611 136.992 164.412 136.721 164.815 136.808C165.525 136.961 166.002 137.683 166.352 138.252C166.703 138.821 167.666 138.3 167.29 137.705C166.698 136.729 165.788 135.653 164.531 135.701C164.263 135.699 163.998 135.755 163.754 135.864C163.509 135.974 163.291 136.134 163.115 136.335C162.938 136.536 162.806 136.772 162.728 137.028C162.651 137.284 162.629 137.554 162.665 137.819L163.712 137.53C163.353 135.885 162.437 133.487 160.392 133.522C159.882 133.553 159.391 133.728 158.975 134.025C158.559 134.322 158.236 134.73 158.04 135.202C157.475 136.445 157.725 137.828 157.988 139.092C158.132 139.775 159.175 139.486 159.035 138.804V138.812Z" fill="#153A23"/>
<path d="M142.919 184.673C142.817 184.537 142.758 184.374 142.748 184.204C142.738 184.034 142.777 183.865 142.862 183.717C142.946 183.57 143.072 183.45 143.224 183.373C143.375 183.295 143.546 183.264 143.716 183.282C144.486 183.404 144.473 184.249 144.88 184.748C145.664 185.706 146.794 185.185 147.683 184.713C148.029 184.533 148.559 184.161 148.997 184.275C149.304 184.363 149.483 184.761 149.698 184.971C149.926 185.201 150.22 185.354 150.539 185.409C150.916 185.431 151.295 185.431 151.673 185.409C152.049 185.442 152.413 185.555 152.741 185.741C153.069 185.928 153.354 186.179 153.58 186.48C153.806 186.781 153.968 187.126 154.055 187.492C154.096 187.628 154.188 187.742 154.313 187.811C154.437 187.88 154.583 187.897 154.72 187.859C154.857 187.822 154.974 187.732 155.045 187.609C155.116 187.486 155.137 187.34 155.102 187.203C154.891 186.366 154.401 185.627 153.712 185.107C153.023 184.587 152.177 184.318 151.314 184.345C150.823 184.345 150.561 184.345 150.232 183.969C150.076 183.737 149.867 183.545 149.623 183.409C149.379 183.273 149.106 183.197 148.826 183.186C148.311 183.228 147.814 183.39 147.372 183.658C147.018 183.842 146.422 184.302 145.988 184.223C145.555 184.144 145.375 183.173 145.06 182.827C144.851 182.609 144.597 182.44 144.316 182.331C144.034 182.222 143.732 182.176 143.431 182.197C141.771 182.302 141.241 184.245 142.157 185.439C142.594 185.991 143.348 185.216 142.923 184.673H142.919Z" fill="#153A23"/>
<path d="M158.947 175.93C158.793 175.925 158.642 175.883 158.507 175.807C158.373 175.732 158.258 175.626 158.172 175.498C158.087 175.37 158.033 175.223 158.015 175.07C157.998 174.917 158.017 174.761 158.071 174.617L157.602 174.884L159.245 174.727C159.34 174.724 159.432 174.697 159.514 174.649C159.595 174.6 159.662 174.531 159.71 174.449C159.757 174.367 159.782 174.274 159.782 174.179C159.783 174.084 159.759 173.991 159.713 173.908C159.166 172.871 158.4 171.528 158.798 170.311C159.03 169.576 159.945 168.731 160.756 169.151C161.373 169.475 161.921 168.543 161.303 168.219C159.989 167.541 158.509 168.364 157.918 169.602C157.147 171.226 158.014 173.011 158.794 174.455L159.258 173.641L158.216 173.742C157.913 173.773 157.467 173.742 157.23 173.956C157.085 174.157 156.985 174.388 156.94 174.631C156.895 174.875 156.904 175.126 156.967 175.365C157.062 175.827 157.312 176.243 157.675 176.544C158.038 176.844 158.493 177.012 158.964 177.02C159.661 176.998 159.665 175.912 158.964 175.934L158.947 175.93Z" fill="#153A23"/>
<path d="M143.97 158.347C143.532 157.857 144.215 157.284 144.661 157.196C144.999 157.152 145.343 157.175 145.672 157.263C146.001 157.352 146.31 157.505 146.58 157.713C147.103 158.082 147.511 158.591 147.757 159.182C148.004 159.772 148.078 160.42 147.972 161.051L148.769 160.728C147.815 160.185 147.648 158.859 148.099 157.927C148.69 156.693 150.109 156.111 151.371 155.857C152.054 155.717 151.765 154.676 151.082 154.811C149.426 155.148 147.688 156.032 147.026 157.686C146.466 159.082 146.86 160.89 148.222 161.664C148.294 161.705 148.374 161.729 148.457 161.735C148.54 161.74 148.622 161.727 148.699 161.696C148.776 161.664 148.844 161.616 148.9 161.555C148.955 161.493 148.996 161.42 149.019 161.34C149.202 160.374 149.064 159.374 148.625 158.494C148.186 157.614 147.471 156.901 146.588 156.465C145.66 156.028 144.456 155.875 143.571 156.5C143.362 156.639 143.185 156.82 143.052 157.032C142.918 157.245 142.831 157.482 142.796 157.731C142.762 157.979 142.78 158.231 142.85 158.472C142.92 158.712 143.04 158.935 143.203 159.126C143.672 159.647 144.438 158.877 143.97 158.36V158.347Z" fill="#153A23"/>
<path d="M123.251 155.126C122.401 156.172 122.918 157.677 124.061 158.286C125.515 159.056 127.148 157.997 128.051 156.872L127.144 156.636C127.433 157.638 127.709 158.649 128.02 159.651C128.239 160.382 128.598 161.025 129.404 161.196C130.21 161.366 130.897 161.021 131.594 160.789C131.913 160.684 133.008 160.474 133.034 161.021C133.037 161.115 133.064 161.208 133.112 161.289C133.161 161.371 133.23 161.438 133.312 161.485C133.394 161.532 133.487 161.557 133.582 161.558C133.677 161.559 133.77 161.535 133.853 161.489L134.777 160.841C135.342 160.443 134.777 159.502 134.225 159.905L133.306 160.553L134.12 161.021C134.037 159.419 132.137 159.445 131.02 159.848C130.642 160.017 130.237 160.119 129.824 160.15C129.386 160.15 129.237 159.896 129.106 159.515C128.756 158.478 128.497 157.397 128.195 156.347C128.169 156.257 128.12 156.174 128.052 156.108C127.985 156.042 127.901 155.995 127.81 155.971C127.719 155.947 127.623 155.946 127.531 155.97C127.44 155.994 127.356 156.041 127.289 156.106C126.728 156.802 125.83 157.638 124.845 157.419C124.28 157.297 123.566 156.443 124.022 155.883C124.477 155.323 123.698 154.57 123.255 155.117L123.251 155.126Z" fill="#153A23"/>
<path d="M141.74 116.092C141.398 115.989 141.105 115.766 140.913 115.465C140.721 115.164 140.643 114.804 140.694 114.451C140.784 114.079 141.011 113.756 141.331 113.545C141.65 113.335 142.038 113.254 142.415 113.318C142.521 113.316 142.625 113.284 142.713 113.224C142.802 113.165 142.87 113.08 142.911 112.982C142.952 112.883 142.962 112.775 142.942 112.671C142.921 112.566 142.871 112.47 142.796 112.394L140.733 110.679V111.445C141.067 111.133 141.469 110.902 141.907 110.771C142.345 110.571 142.697 110.22 142.897 109.782C143.462 108.543 143.834 107.187 144.294 105.905C144.526 105.248 143.479 104.964 143.247 105.62C142.809 106.81 142.454 108.049 141.964 109.217C141.618 110.044 140.505 109.992 139.967 110.679C139.868 110.782 139.812 110.919 139.812 111.062C139.812 111.205 139.868 111.342 139.967 111.445L142.029 113.16L142.415 112.237C141.769 112.171 141.123 112.352 140.605 112.742C140.087 113.132 139.736 113.704 139.621 114.342C139.538 114.955 139.678 115.577 140.013 116.097C140.349 116.616 140.859 116.999 141.451 117.177C142.121 117.383 142.406 116.337 141.74 116.131V116.092Z" fill="#153A23"/>
<path d="M146.715 88.8248C146.563 88.5897 146.48 88.3169 146.475 88.0371C146.469 87.7573 146.542 87.4815 146.685 87.2407C146.833 86.9572 147.055 86.7187 147.327 86.5502C147.598 86.3816 147.911 86.2891 148.231 86.2823C148.99 86.2621 149.729 86.5312 150.298 87.035C150.619 87.2699 150.837 87.6194 150.906 88.0108C150.906 88.2778 150.705 88.5972 150.416 88.5053L150.81 89.0305C150.762 87.3676 152.43 85.8403 154.103 86.1598C154.782 86.2867 155.076 85.2452 154.388 85.1139C152.054 84.6763 149.654 86.6193 149.728 89.0305C149.73 89.1485 149.77 89.2627 149.842 89.3564C149.914 89.4502 150.013 89.5185 150.127 89.5512C150.428 89.6359 150.748 89.6192 151.039 89.5037C151.329 89.3882 151.574 89.1804 151.734 88.9123C151.893 88.6489 151.979 88.3485 151.984 88.0412C151.99 87.7339 151.914 87.4307 151.765 87.1619C151.447 86.6162 151.003 86.1549 150.469 85.8167C149.936 85.4786 149.329 85.2736 148.699 85.2189C148.133 85.1461 147.557 85.2388 147.042 85.4857C146.526 85.7327 146.094 86.1233 145.796 86.6105C145.515 87.0645 145.379 87.5934 145.406 88.1267C145.433 88.6599 145.623 89.1721 145.949 89.595C146.051 89.6963 146.189 89.7531 146.332 89.7531C146.476 89.7531 146.614 89.6963 146.715 89.595C146.814 89.4917 146.868 89.3546 146.868 89.2121C146.868 89.0695 146.814 88.9325 146.715 88.8292V88.8248Z" fill="#153A23"/>
<path d="M132.877 40.1323C133.119 39.7844 133.484 39.5416 133.899 39.4532C134.313 39.3649 134.746 39.4375 135.109 39.6565C135.472 39.8754 135.738 40.2243 135.853 40.6321C135.968 41.0399 135.923 41.4761 135.728 41.8521C135.509 42.2897 135.977 42.9067 136.468 42.5916C136.792 42.386 137.125 42.7098 137.374 42.9155C137.765 43.2778 138.192 43.5989 138.649 43.8738C139.218 44.1626 139.879 44.0357 140.44 44.3114C140.697 44.4408 140.91 44.6431 141.053 44.893C141.195 45.1428 141.261 45.4292 141.241 45.7161C141.211 46.4163 142.297 46.4119 142.327 45.7161C142.34 45.338 142.268 44.9618 142.116 44.6151C141.965 44.2684 141.737 43.9598 141.451 43.7119C141.17 43.4614 140.834 43.2788 140.47 43.178C140.026 43.1384 139.587 43.0593 139.157 42.9417C138.11 42.456 137.199 40.8237 135.881 41.6639L136.625 42.4035C136.952 41.78 137.027 41.0554 136.835 40.3784C136.643 39.7014 136.199 39.1234 135.595 38.7633C134.99 38.4031 134.27 38.288 133.583 38.4417C132.896 38.5954 132.294 39.0062 131.9 39.5897C131.488 40.1498 132.43 40.6924 132.837 40.1367L132.877 40.1323Z" fill="#153A23"/>
<path d="M131.112 68.3186C130.179 68.5593 129.075 67.3909 129.605 66.4938C129.724 66.3195 129.879 66.1739 130.061 66.0677C130.244 65.9616 130.447 65.8975 130.657 65.8803C130.867 65.8631 131.078 65.8932 131.275 65.9683C131.472 66.0434 131.65 66.1617 131.795 66.3144C132.158 66.752 132.833 66.2794 132.701 65.7849C132.522 65.1356 132.478 64.4566 132.57 63.7894L132.049 64.1876C132.698 64.2369 133.31 64.5108 133.779 64.9622C133.873 65.052 133.996 65.1051 134.126 65.1119C134.255 65.1187 134.383 65.0787 134.486 64.9993C134.589 64.9198 134.66 64.8061 134.686 64.6789C134.712 64.5516 134.692 64.4193 134.628 64.3058C134.296 63.6669 135.128 62.9055 135.745 63.133C136.363 63.3606 136.682 62.3322 136.034 62.0871C134.471 61.5051 132.947 63.435 133.691 64.8528L134.545 64.192C133.867 63.5465 132.983 63.1606 132.049 63.1024C131.93 63.1027 131.814 63.1417 131.719 63.2135C131.625 63.2854 131.556 63.3862 131.523 63.5006C131.389 64.3582 131.434 65.2342 131.655 66.0737L132.561 65.5442C131.528 64.3364 129.294 64.669 128.62 66.0825C127.788 67.811 129.618 69.8284 131.423 69.3645C131.559 69.3239 131.674 69.2316 131.742 69.1074C131.811 68.9832 131.828 68.837 131.791 68.7002C131.753 68.5633 131.663 68.4468 131.54 68.3754C131.417 68.3041 131.271 68.2837 131.134 68.3186H131.112Z" fill="#153A23"/>
<path d="M113.756 72.7209C113.344 73.5365 113.134 74.4391 113.143 75.3529C113.152 76.2667 113.38 77.1649 113.809 77.9721C114.203 78.6942 114.847 79.39 115.705 79.4862C116.08 79.5384 116.461 79.4609 116.785 79.2667C117.109 79.0724 117.357 78.7731 117.488 78.4185C117.524 78.2798 117.504 78.1325 117.433 78.0081C117.362 77.8837 117.245 77.7922 117.107 77.7533C116.435 77.5321 115.716 77.4973 115.026 77.6527C114.936 77.6758 114.853 77.7229 114.786 77.7891C114.72 77.8554 114.673 77.9382 114.65 78.029C114.212 80.4096 117.019 82.497 119.165 81.2979L118.346 80.8297C118.401 81.613 118.746 82.3478 119.314 82.8908C119.822 83.3678 120.593 82.602 120.085 82.1206C119.711 81.7883 119.478 81.327 119.432 80.8297C119.43 80.7351 119.404 80.6425 119.356 80.561C119.308 80.4795 119.24 80.4119 119.158 80.3647C119.076 80.3175 118.983 80.2924 118.888 80.2919C118.793 80.2913 118.7 80.3153 118.617 80.3615C117.352 81.0704 115.429 79.7794 115.692 78.3178L115.315 78.6985C115.817 78.5935 116.338 78.6284 116.822 78.7992L116.441 78.1297C116.266 78.6023 115.596 78.3966 115.32 78.1734C114.899 77.7815 114.595 77.2798 114.444 76.7249C114.071 75.5818 114.159 74.3385 114.689 73.2591C115 72.6377 114.067 72.0863 113.756 72.7121V72.7209Z" fill="#153A23"/>
<path d="M178.05 256.975C178.167 257.212 178.203 257.481 178.153 257.741C178.103 258 177.97 258.237 177.774 258.414C177.617 258.543 177.435 258.639 177.239 258.694C177.043 258.75 176.839 258.765 176.637 258.738C176.435 258.712 176.241 258.644 176.067 258.539C175.893 258.435 175.742 258.295 175.624 258.13C175.186 257.425 175.711 256.331 176.53 256.288C176.53 256.288 177.621 256.047 178.05 256.975Z" fill="#FAC7B7"/>
<path d="M178.05 243.965C178.166 244.203 178.202 244.472 178.153 244.733C178.103 244.993 177.97 245.23 177.774 245.409C177.616 245.537 177.434 245.632 177.238 245.688C177.043 245.743 176.838 245.758 176.636 245.731C176.434 245.704 176.24 245.636 176.066 245.53C175.892 245.425 175.741 245.286 175.624 245.12C175.529 244.943 175.478 244.746 175.475 244.546C175.471 244.345 175.516 244.147 175.604 243.967C175.693 243.787 175.823 243.63 175.984 243.511C176.145 243.391 176.332 243.311 176.53 243.278C176.53 243.278 177.621 243.041 178.05 243.965Z" fill="#FAC7B7"/>
<path d="M178.05 230.959C178.167 231.196 178.203 231.465 178.153 231.725C178.103 231.985 177.97 232.221 177.774 232.399C177.617 232.528 177.435 232.623 177.239 232.679C177.043 232.735 176.839 232.75 176.637 232.723C176.435 232.696 176.241 232.628 176.067 232.524C175.893 232.419 175.742 232.28 175.624 232.114C175.186 231.41 175.711 230.316 176.53 230.272C176.53 230.272 177.621 230.031 178.05 230.959Z" fill="#FAC7B7"/>
<path d="M178.05 217.949C178.166 218.187 178.202 218.457 178.153 218.717C178.103 218.977 177.97 219.215 177.774 219.393C177.616 219.522 177.434 219.617 177.238 219.672C177.043 219.728 176.838 219.742 176.636 219.715C176.434 219.688 176.24 219.62 176.066 219.515C175.892 219.41 175.741 219.27 175.624 219.104C175.529 218.928 175.478 218.731 175.475 218.531C175.471 218.33 175.516 218.132 175.604 217.953C175.693 217.773 175.823 217.617 175.984 217.498C176.145 217.378 176.332 217.299 176.53 217.266C176.53 217.266 177.62 217.026 178.05 217.949Z" fill="#FAC7B7"/>
<path d="M178.05 204.926C178.167 205.163 178.203 205.432 178.153 205.692C178.103 205.952 177.97 206.188 177.774 206.366C177.617 206.494 177.435 206.59 177.239 206.646C177.043 206.701 176.838 206.716 176.637 206.69C176.435 206.663 176.241 206.595 176.067 206.49C175.893 206.386 175.742 206.246 175.624 206.081C175.529 205.904 175.478 205.707 175.475 205.507C175.471 205.306 175.516 205.108 175.604 204.928C175.693 204.748 175.823 204.592 175.984 204.472C176.145 204.352 176.332 204.272 176.53 204.239C176.53 204.239 177.621 204.016 178.05 204.926Z" fill="#FAC7B7"/>
<path d="M178.05 321.394C178.167 321.632 178.203 321.901 178.153 322.161C178.103 322.42 177.97 322.657 177.774 322.834C177.616 322.963 177.434 323.057 177.239 323.113C177.043 323.168 176.839 323.183 176.637 323.156C176.436 323.13 176.242 323.062 176.068 322.958C175.893 322.853 175.742 322.715 175.624 322.55C175.186 321.845 175.711 320.751 176.53 320.707C176.53 320.707 177.621 320.454 178.05 321.394Z" fill="#FAC7B7"/>
<path d="M178.05 308.385C178.166 308.623 178.202 308.892 178.153 309.153C178.103 309.413 177.97 309.65 177.774 309.829C177.616 309.957 177.434 310.052 177.238 310.108C177.043 310.163 176.838 310.178 176.636 310.151C176.434 310.124 176.24 310.055 176.066 309.95C175.892 309.845 175.741 309.706 175.624 309.54C175.529 309.363 175.478 309.166 175.475 308.966C175.471 308.765 175.516 308.567 175.604 308.387C175.693 308.207 175.823 308.05 175.984 307.93C176.145 307.811 176.332 307.731 176.53 307.697C176.53 307.697 177.621 307.461 178.05 308.385Z" fill="#FAC7B7"/>
<path d="M178.05 295.379C178.167 295.616 178.203 295.885 178.153 296.145C178.103 296.405 177.97 296.641 177.774 296.818C177.616 296.947 177.434 297.042 177.239 297.097C177.043 297.152 176.839 297.167 176.637 297.141C176.436 297.114 176.242 297.046 176.068 296.942C175.893 296.838 175.742 296.699 175.624 296.534C175.186 295.829 175.711 294.735 176.53 294.692C176.53 294.692 177.621 294.451 178.05 295.379Z" fill="#FAC7B7"/>
<path d="M178.05 282.382C178.166 282.62 178.202 282.89 178.153 283.15C178.103 283.41 177.97 283.648 177.774 283.826C177.616 283.955 177.434 284.05 177.238 284.105C177.043 284.161 176.838 284.175 176.636 284.148C176.434 284.121 176.24 284.053 176.066 283.948C175.892 283.843 175.741 283.703 175.624 283.537C175.529 283.36 175.478 283.163 175.475 282.963C175.471 282.762 175.516 282.564 175.604 282.384C175.693 282.204 175.823 282.048 175.984 281.928C176.145 281.808 176.332 281.728 176.53 281.695C176.53 281.695 177.621 281.445 178.05 282.382Z" fill="#FAC7B7"/>
<path d="M178.05 269.363C178.167 269.6 178.203 269.869 178.153 270.129C178.103 270.389 177.97 270.625 177.774 270.803C177.617 270.932 177.435 271.027 177.239 271.083C177.043 271.139 176.839 271.154 176.637 271.127C176.435 271.1 176.241 271.032 176.067 270.928C175.893 270.823 175.742 270.684 175.624 270.518C175.186 269.814 175.711 268.72 176.53 268.676C176.53 268.676 177.621 268.435 178.05 269.363Z" fill="#FAC7B7"/>
<path d="M192.926 263.167C193.043 263.405 193.079 263.674 193.029 263.935C192.979 264.195 192.847 264.432 192.65 264.611C192.493 264.74 192.311 264.835 192.115 264.89C191.919 264.945 191.714 264.96 191.513 264.933C191.311 264.906 191.117 264.838 190.943 264.733C190.769 264.627 190.618 264.488 190.5 264.322C190.406 264.145 190.355 263.948 190.351 263.748C190.348 263.547 190.393 263.349 190.481 263.169C190.57 262.989 190.7 262.832 190.861 262.713C191.022 262.593 191.209 262.513 191.407 262.48C191.407 262.48 192.497 262.252 192.926 263.167Z" fill="#FAC7B7"/>
<path d="M192.926 250.161C193.043 250.398 193.08 250.667 193.03 250.927C192.98 251.187 192.847 251.423 192.65 251.601C192.493 251.728 192.312 251.822 192.117 251.876C191.922 251.931 191.718 251.945 191.517 251.918C191.317 251.891 191.124 251.823 190.95 251.719C190.777 251.615 190.627 251.476 190.509 251.312C190.071 250.607 190.597 249.513 191.416 249.47C191.407 249.474 192.497 249.233 192.926 250.161Z" fill="#FAC7B7"/>
<path d="M192.926 237.151C193.043 237.389 193.079 237.659 193.029 237.919C192.979 238.18 192.847 238.417 192.65 238.595C192.493 238.724 192.311 238.819 192.115 238.874C191.919 238.93 191.714 238.944 191.513 238.917C191.311 238.89 191.117 238.822 190.943 238.717C190.769 238.612 190.618 238.472 190.5 238.306C190.406 238.129 190.355 237.933 190.351 237.732C190.348 237.532 190.393 237.333 190.481 237.153C190.57 236.973 190.7 236.817 190.861 236.697C191.022 236.577 191.209 236.497 191.407 236.464C191.407 236.464 192.497 236.228 192.926 237.151Z" fill="#FAC7B7"/>
<path d="M192.926 224.145C193.043 224.383 193.08 224.652 193.03 224.911C192.98 225.171 192.847 225.408 192.65 225.585C192.493 225.714 192.311 225.809 192.116 225.865C191.92 225.921 191.715 225.936 191.514 225.909C191.312 225.882 191.118 225.815 190.944 225.71C190.769 225.605 190.618 225.466 190.5 225.301C190.062 224.596 190.588 223.502 191.407 223.458C191.407 223.458 192.497 223.218 192.926 224.145Z" fill="#FAC7B7"/>
<path d="M192.926 211.135C193.043 211.374 193.079 211.643 193.029 211.903C192.98 212.164 192.847 212.401 192.651 212.58C192.493 212.708 192.311 212.803 192.115 212.859C191.919 212.914 191.714 212.929 191.513 212.902C191.311 212.875 191.117 212.806 190.943 212.701C190.769 212.596 190.618 212.456 190.5 212.291C190.406 212.114 190.355 211.918 190.351 211.717C190.348 211.517 190.392 211.319 190.481 211.139C190.57 210.959 190.7 210.803 190.861 210.684C191.022 210.565 191.209 210.485 191.407 210.453C191.407 210.453 192.497 210.212 192.926 211.135Z" fill="#FAC7B7"/>
<path d="M192.926 327.586C193.043 327.824 193.08 328.093 193.03 328.353C192.98 328.612 192.847 328.849 192.65 329.026C192.493 329.155 192.311 329.25 192.116 329.306C191.92 329.362 191.715 329.377 191.514 329.35C191.312 329.324 191.118 329.256 190.944 329.151C190.769 329.046 190.618 328.907 190.5 328.742C190.406 328.565 190.355 328.368 190.351 328.167C190.348 327.967 190.393 327.768 190.481 327.589C190.57 327.409 190.7 327.252 190.861 327.132C191.022 327.013 191.209 326.933 191.407 326.899C191.407 326.899 192.497 326.659 192.926 327.586Z" fill="#FAC7B7"/>
<path d="M192.926 314.581C193.043 314.818 193.08 315.087 193.03 315.347C192.98 315.607 192.847 315.843 192.65 316.021C192.493 316.149 192.311 316.244 192.116 316.299C191.92 316.354 191.715 316.369 191.514 316.343C191.312 316.316 191.119 316.248 190.944 316.144C190.77 316.04 190.619 315.901 190.5 315.736C190.062 315.032 190.588 313.938 191.407 313.894C191.407 313.889 192.497 313.653 192.926 314.581Z" fill="#FAC7B7"/>
<path d="M192.926 301.571C193.043 301.809 193.079 302.078 193.029 302.339C192.979 302.599 192.847 302.836 192.65 303.015C192.493 303.144 192.311 303.239 192.115 303.294C191.919 303.35 191.714 303.364 191.513 303.337C191.311 303.31 191.117 303.242 190.943 303.137C190.769 303.032 190.618 302.892 190.5 302.726C190.406 302.549 190.355 302.352 190.351 302.152C190.348 301.951 190.393 301.753 190.481 301.573C190.57 301.393 190.7 301.237 190.861 301.117C191.022 300.997 191.209 300.917 191.407 300.884C191.407 300.884 192.497 300.643 192.926 301.571Z" fill="#FAC7B7"/>
<path d="M192.926 288.565C193.043 288.803 193.08 289.072 193.03 289.331C192.98 289.591 192.847 289.828 192.65 290.005C192.493 290.133 192.311 290.228 192.116 290.284C191.92 290.339 191.715 290.354 191.514 290.327C191.312 290.3 191.119 290.233 190.944 290.129C190.77 290.024 190.619 289.885 190.5 289.721C190.062 289.016 190.588 287.922 191.407 287.878C191.407 287.878 192.497 287.633 192.926 288.565Z" fill="#FAC7B7"/>
<path d="M192.926 275.555C193.043 275.793 193.079 276.063 193.029 276.323C192.98 276.584 192.847 276.821 192.65 276.999C192.492 277.126 192.31 277.218 192.114 277.272C191.918 277.325 191.714 277.338 191.513 277.309C191.313 277.28 191.12 277.211 190.947 277.105C190.775 276.999 190.625 276.859 190.509 276.693C190.414 276.516 190.364 276.319 190.36 276.119C190.357 275.918 190.401 275.72 190.49 275.54C190.578 275.36 190.709 275.204 190.869 275.084C191.03 274.964 191.218 274.884 191.415 274.851C191.415 274.851 192.497 274.632 192.926 275.555Z" fill="#FAC7B7"/>
<path d="M205.942 256.975C206.059 257.212 206.095 257.481 206.045 257.741C205.995 258 205.862 258.237 205.666 258.414C205.509 258.543 205.327 258.638 205.132 258.694C204.937 258.75 204.732 258.765 204.531 258.738C204.33 258.711 204.136 258.644 203.962 258.539C203.788 258.434 203.638 258.295 203.52 258.13C203.082 257.425 203.603 256.331 204.427 256.288C204.427 256.288 205.517 256.047 205.942 256.975Z" fill="#FAC7B7"/>
<path d="M205.942 243.965C206.058 244.203 206.094 244.472 206.045 244.733C205.995 244.993 205.862 245.23 205.666 245.409C205.509 245.537 205.327 245.632 205.131 245.688C204.936 245.743 204.731 245.758 204.53 245.73C204.329 245.703 204.135 245.635 203.962 245.53C203.788 245.425 203.637 245.285 203.52 245.12C203.425 244.943 203.373 244.746 203.369 244.545C203.365 244.344 203.409 244.146 203.498 243.965C203.587 243.785 203.717 243.629 203.879 243.509C204.04 243.389 204.228 243.31 204.427 243.278C204.427 243.278 205.517 243.041 205.942 243.965Z" fill="#FAC7B7"/>
<path d="M205.942 230.959C206.059 231.196 206.095 231.465 206.045 231.725C205.995 231.985 205.862 232.221 205.666 232.399C205.509 232.528 205.327 232.623 205.132 232.679C204.937 232.734 204.732 232.749 204.531 232.723C204.33 232.696 204.136 232.628 203.962 232.523C203.788 232.419 203.638 232.28 203.52 232.114C203.082 231.41 203.603 230.316 204.427 230.272C204.427 230.272 205.517 230.031 205.942 230.959Z" fill="#FAC7B7"/>
<path d="M205.942 217.949C206.058 218.187 206.094 218.457 206.045 218.717C205.995 218.977 205.862 219.215 205.666 219.393C205.509 219.522 205.327 219.617 205.132 219.672C204.936 219.727 204.731 219.742 204.53 219.715C204.329 219.688 204.135 219.62 203.962 219.515C203.788 219.409 203.637 219.27 203.52 219.104C203.424 218.928 203.373 218.731 203.369 218.53C203.365 218.33 203.409 218.131 203.498 217.951C203.587 217.771 203.717 217.615 203.879 217.496C204.04 217.377 204.228 217.298 204.427 217.266C204.427 217.266 205.517 217.026 205.942 217.949Z" fill="#FAC7B7"/>
<path d="M205.942 204.926C206.059 205.163 206.095 205.432 206.045 205.692C205.995 205.952 205.862 206.188 205.666 206.366C205.509 206.494 205.327 206.59 205.132 206.645C204.937 206.701 204.732 206.716 204.531 206.689C204.33 206.663 204.136 206.595 203.962 206.49C203.788 206.386 203.638 206.246 203.52 206.081C203.425 205.904 203.373 205.707 203.369 205.506C203.365 205.306 203.409 205.107 203.498 204.926C203.587 204.746 203.717 204.59 203.879 204.47C204.04 204.35 204.228 204.271 204.427 204.239C204.427 204.239 205.517 204.016 205.942 204.926Z" fill="#FAC7B7"/>
<path d="M205.942 321.394C206.059 321.632 206.095 321.901 206.045 322.16C205.995 322.42 205.862 322.657 205.666 322.834C205.509 322.962 205.327 323.057 205.132 323.112C204.937 323.168 204.732 323.183 204.531 323.156C204.33 323.129 204.137 323.062 203.963 322.958C203.789 322.853 203.638 322.714 203.52 322.55C203.082 321.845 203.603 320.751 204.427 320.707C204.427 320.707 205.517 320.454 205.942 321.394Z" fill="#FAC7B7"/>
<path d="M205.942 308.385C206.058 308.623 206.094 308.892 206.045 309.153C205.995 309.413 205.862 309.65 205.666 309.829C205.509 309.957 205.327 310.052 205.131 310.108C204.936 310.163 204.731 310.178 204.53 310.15C204.329 310.123 204.135 310.055 203.962 309.95C203.788 309.845 203.637 309.705 203.52 309.54C203.425 309.363 203.373 309.166 203.369 308.965C203.365 308.764 203.409 308.565 203.498 308.385C203.587 308.205 203.717 308.048 203.879 307.929C204.04 307.809 204.228 307.73 204.427 307.697C204.427 307.697 205.517 307.461 205.942 308.385Z" fill="#FAC7B7"/>
<path d="M205.942 295.379C206.059 295.616 206.095 295.885 206.045 296.145C205.995 296.405 205.862 296.641 205.666 296.818C205.509 296.947 205.327 297.041 205.132 297.097C204.937 297.152 204.732 297.167 204.531 297.14C204.33 297.114 204.137 297.046 203.963 296.942C203.789 296.838 203.638 296.699 203.52 296.534C203.082 295.829 203.603 294.735 204.427 294.692C204.427 294.692 205.517 294.451 205.942 295.379Z" fill="#FAC7B7"/>
<path d="M205.942 282.382C206.058 282.62 206.094 282.89 206.045 283.15C205.995 283.41 205.862 283.648 205.666 283.826C205.509 283.955 205.327 284.05 205.131 284.105C204.936 284.16 204.731 284.175 204.53 284.148C204.329 284.121 204.135 284.053 203.962 283.947C203.788 283.842 203.637 283.703 203.52 283.537C203.425 283.36 203.373 283.163 203.369 282.963C203.365 282.762 203.409 282.563 203.498 282.383C203.587 282.202 203.717 282.046 203.879 281.926C204.04 281.807 204.228 281.727 204.427 281.695C204.427 281.695 205.517 281.445 205.942 282.382Z" fill="#FAC7B7"/>
<path d="M205.942 269.363C206.059 269.6 206.095 269.869 206.045 270.129C205.995 270.389 205.862 270.625 205.666 270.803C205.509 270.932 205.327 271.027 205.132 271.083C204.937 271.138 204.732 271.153 204.531 271.127C204.33 271.1 204.136 271.032 203.962 270.928C203.788 270.823 203.638 270.684 203.52 270.518C203.082 269.814 203.603 268.72 204.427 268.676C204.427 268.676 205.517 268.435 205.942 269.363Z" fill="#FAC7B7"/>
<path d="M137.379 16.1953C137.379 16.9874 137.379 17.7795 137.304 18.5672C137.223 19.316 137.047 20.0513 136.779 20.7552C136.76 20.8236 136.754 20.895 136.763 20.9655C136.772 21.0359 136.794 21.104 136.829 21.1657C136.864 21.2275 136.911 21.2818 136.967 21.3255C137.023 21.3691 137.087 21.4014 137.155 21.4204C137.224 21.4393 137.295 21.4446 137.366 21.436C137.436 21.4273 137.504 21.4049 137.566 21.3699C137.628 21.335 137.682 21.2882 137.726 21.2323C137.77 21.1764 137.802 21.1124 137.821 21.044C138.408 19.4774 138.46 17.8495 138.46 16.191C138.448 16.056 138.386 15.9305 138.286 15.8391C138.186 15.7477 138.055 15.697 137.919 15.697C137.784 15.697 137.653 15.7477 137.553 15.8391C137.453 15.9305 137.391 16.056 137.379 16.191V16.1953Z" fill="#7F4341"/>
<path d="M178.22 309.557C178.242 311.968 175.207 312.992 172.821 313.386C165.086 314.664 157.485 316.651 150.114 319.32C149.606 319.457 149.143 319.725 148.774 320.099C147.731 321.359 147.42 324.738 147.53 326.711C162.321 327.793 177.187 327.13 191.823 324.738C193.347 324.48 195.002 324.125 195.97 322.917C195.094 320.191 193.982 315.684 192.65 313.15C192.356 312.478 191.906 311.885 191.337 311.421L178.22 309.557Z" fill="#FAC7B7"/>
<path d="M147.35 326.418L166.808 325.289C173.171 324.921 179.508 324.628 185.731 323.07C189.147 322.195 192.488 321.101 195.804 319.928C196.736 319.6 196.333 318.104 195.388 318.436C189.506 320.51 183.541 322.344 177.314 323.009C170.981 323.692 164.574 323.884 158.216 324.239L147.342 324.869C146.348 324.926 146.343 326.475 147.342 326.418H147.35Z" fill="white"/>
<path d="M188.565 41.0338C188.932 31.5202 189.064 22.0505 191.415 12.8214C193.093 6.22665 199.149 8.14773 200.779 13.4384C201.915 16.9216 202.872 20.4606 203.647 24.0416C204.58 28.7239 204.882 36.6008 205.184 41.3663C205.266 42.0041 205.217 42.6519 205.04 43.2699C204.759 43.8834 204.348 44.4285 203.835 44.8672C201.746 46.9371 199.754 46.6833 197.564 47.9786L188.565 41.0338Z" fill="#FAC8B8"/>
<path d="M203.993 45.4886C203.63 39.1696 203.117 32.8418 202.167 26.5797C201.427 21.8054 200.415 16.9918 198.497 12.5369C197.698 10.6276 196.618 8.84864 195.291 7.25941C194.639 6.49798 193.54 7.60075 194.192 8.35343C196.701 11.2766 198.02 15.1188 199.009 18.7816C200.384 23.9322 201.098 29.2535 201.637 34.5354C202 38.1762 202.259 41.8259 202.469 45.4755C202.53 46.4645 204.076 46.4732 204.019 45.4755L203.993 45.4886Z" fill="white"/>
<path d="M19.6177 178.179C17.9536 178.083 16.2894 178 14.6209 178C12.7159 178 10.6444 178 8.80948 178.578C8.17337 178.724 7.61179 179.096 7.22853 179.624C7.08403 179.878 7.02518 180.171 7.06067 180.461C7.09616 180.751 7.22411 181.022 7.4256 181.234C7.98413 181.702 8.67103 181.99 9.39631 182.061C10.4255 182.234 11.4665 182.326 12.51 182.337C14.7479 182.389 16.977 182.236 19.2148 182.153C19.9068 182.127 19.9111 181.041 19.2148 181.068C17.4631 181.133 15.7639 181.243 14.034 181.26C12.3042 181.278 10.2897 181.4 8.66934 180.753C8.47258 180.685 8.2952 180.571 8.15257 180.42C8.14106 180.352 8.14106 180.282 8.15257 180.214C8.29709 179.89 8.86641 179.685 9.28683 179.567C10.9554 179.107 12.7684 179.107 14.4939 179.107C16.2193 179.107 17.9098 179.186 19.6177 179.282C20.314 179.326 20.3097 178.241 19.6177 178.201V178.179Z" fill="#7F4341"/>
</svg>
