<svg width="105" height="176" viewBox="0 0 105 176" fill="none" xmlns="http://www.w3.org/2000/svg">
<path d="M86.3896 133.274C88.6756 135.808 90.6594 139.874 90.7251 143.282C90.747 144.556 90.5893 145.882 89.7397 146.901C89.4559 147.244 89.0941 147.515 88.6844 147.689C87.0202 148.367 85.6188 147.111 84.8699 145.746C83.3284 142.884 83.6525 139.221 81.8044 136.556C82.0445 137.745 81.9867 138.974 81.6359 140.135C81.2852 141.295 80.6525 142.351 79.7943 143.208C79.7014 143.302 79.5817 143.364 79.4517 143.387C79.3217 143.41 79.1878 143.393 79.0683 143.337C78.9488 143.28 78.8496 143.189 78.7844 143.074C78.7191 142.959 78.691 142.827 78.7038 142.696C78.9344 140.2 78.9725 137.689 78.8177 135.187L86.3896 133.274Z" fill="#FFC9A0"/>
<path d="M87.4975 134.657L78.8658 136.443L78.8395 135.834L86.775 133.721L87.4975 134.657Z" fill="#EFB086"/>
<path d="M87.1297 138.889C87.7311 140.179 88.2091 141.522 88.5574 142.902C88.875 144.291 89.1163 145.696 89.28 147.111C89.2832 147.254 89.3409 147.389 89.4411 147.49C89.5413 147.591 89.6764 147.65 89.8186 147.654C90.0857 147.654 90.401 147.4 90.3616 147.111C90.189 145.606 89.9332 144.112 89.5953 142.635C89.2149 141.167 88.7004 139.737 88.0581 138.364C87.7735 137.729 86.8363 138.281 87.1209 138.911L87.1297 138.889Z" fill="#EFB086"/>
<path d="M84.8568 139.734C85.4556 141.024 85.9335 142.368 86.2844 143.746C86.6021 145.135 86.8418 146.541 87.0026 147.956C87.008 148.098 87.067 148.233 87.1677 148.334C87.2684 148.434 87.4034 148.493 87.5457 148.499C87.6171 148.499 87.688 148.486 87.7542 148.459C87.8203 148.432 87.8804 148.392 87.931 148.341C87.9815 148.291 88.0215 148.231 88.0486 148.164C88.0757 148.098 88.0893 148.028 88.0887 147.956C87.9194 146.444 87.6665 144.942 87.3311 143.458C86.9508 141.99 86.4362 140.56 85.794 139.186C85.5093 138.552 84.5722 139.103 84.8568 139.734Z" fill="#EFB086"/>
<path d="M11.6428 130.115C9.16404 132.456 6.86046 136.351 6.52763 139.742C6.40501 141.007 6.4576 142.342 7.22399 143.427C7.48 143.793 7.8192 144.093 8.21373 144.302C9.81658 145.107 11.3231 143.97 12.1552 142.661C13.9069 139.935 13.4689 137.309 15.5185 134.784C15.4133 135.821 15.5294 136.869 15.8593 137.858C16.1892 138.847 16.7253 139.755 17.4323 140.521C17.5184 140.622 17.6339 140.694 17.7626 140.726C17.8913 140.759 18.0269 140.75 18.1507 140.702C18.2744 140.654 18.3801 140.569 18.453 140.458C18.526 140.347 18.5626 140.216 18.5578 140.084C18.5255 137.576 18.6866 135.07 19.0395 132.587L11.6428 130.115Z" fill="#FFC9A0"/>
<path d="M9.64136 132.395L18.7985 134.579L18.9606 133.261L11.2223 130.526L9.64136 132.395Z" fill="#EFB086"/>
<path d="M9.54064 135.069C8.80734 136.366 8.19178 137.727 7.70129 139.134C7.25433 140.558 6.88734 142.006 6.60204 143.471C6.45752 144.153 7.50421 144.442 7.64873 143.76C7.92699 142.332 8.28227 140.921 8.71297 139.532C9.17207 138.168 9.75858 136.849 10.4647 135.594C10.802 134.981 9.86476 134.434 9.52754 135.047L9.54064 135.069Z" fill="#EFB086"/>
<path d="M11.739 136.093C11.0029 137.395 10.3873 138.762 9.89972 140.176C9.4493 141.599 9.08083 143.047 8.79613 144.512C8.65161 145.195 9.69827 145.484 9.84279 144.801C10.1231 143.374 10.4783 141.963 10.9069 140.574C11.3652 139.209 11.9517 137.89 12.6587 136.635C12.9959 136.023 12.0587 135.476 11.7215 136.088L11.739 136.093Z" fill="#EFB086"/>
<path d="M81.13 169.81C80.9549 169.605 80.5914 169.648 80.4206 169.438C79.5184 168.309 79.2732 166.165 78.6688 165.395C78.1147 164.739 77.4296 164.205 76.6574 163.828C75.8853 163.452 75.043 163.24 74.1844 163.207C66.8446 162.962 59.9033 164.025 53.3781 160.656L53.273 168.799C53.2228 170.345 53.3299 171.892 53.5927 173.416C53.6671 173.919 53.7853 174.488 54.2277 174.729C54.502 174.852 54.8047 174.899 55.1035 174.865L59.7544 174.808C59.965 174.803 60.1669 174.722 60.3229 174.581C60.479 174.439 60.5788 174.247 60.604 174.037C60.6649 173.579 60.6427 173.114 60.5383 172.663C63.1659 174.751 62.5178 174.878 64.5191 175.105C65.3162 175.193 66.9584 175.223 68.8985 175.223C69.029 174.939 69.1905 174.671 69.3802 174.423C69.4174 174.364 69.4728 174.32 69.5378 174.296C69.643 174.274 69.7393 174.361 69.8094 174.444L70.4926 175.215C72.2137 175.215 74.0355 175.162 75.6471 175.123C75.8062 174.821 76.0457 174.57 76.339 174.396C76.5536 174.615 76.7769 174.834 76.9477 175.088C78.2615 175.053 79.317 175.018 79.9126 174.991C80.2278 175.016 80.5407 174.921 80.7884 174.725C80.9496 174.515 81.0386 174.258 81.0424 173.994C81.2209 172.868 81.3102 171.729 81.3095 170.589C81.3436 170.316 81.28 170.041 81.13 169.81Z" fill="#32142A"/>
<path d="M53.286 169.456C54.8232 169.618 56.8946 169.701 58.4361 169.744C62.506 169.87 66.5774 169.879 70.6502 169.771C72.5289 169.718 74.412 169.648 76.2864 169.495C77.4697 169.453 78.6447 169.279 79.7899 168.979C80.4555 168.769 80.7402 169.814 80.0789 170.025C78.7228 170.374 77.3316 170.569 75.9317 170.607C71.8589 170.913 67.7554 170.944 63.6695 170.922C60.3894 170.922 56.5662 170.961 53.3035 170.615L53.286 169.456Z" fill="#7F4341"/>
<path d="M24.2509 169.81C24.4261 169.605 24.7895 169.648 24.956 169.438C25.8625 168.309 26.1077 166.165 26.7077 165.395C27.2627 164.738 27.9485 164.205 28.7214 163.828C29.4943 163.451 30.3373 163.24 31.1966 163.207C38.5364 162.962 45.8236 164.594 52.3489 161.224L52.2745 167.64C52.2711 169.575 52.1085 171.507 51.7884 173.416C51.7139 173.919 51.5956 174.488 51.1533 174.729C50.8787 174.852 50.5763 174.898 50.2774 174.865L45.6309 174.808C45.4203 174.803 45.2184 174.722 45.0624 174.581C44.9064 174.439 44.8066 174.246 44.7814 174.037C44.7183 173.579 44.7405 173.113 44.847 172.663C42.2194 174.751 42.8676 174.878 40.8662 175.105C40.0648 175.193 38.4269 175.223 36.4868 175.223C36.3579 174.94 36.1978 174.671 36.0095 174.423C35.9723 174.364 35.9169 174.319 35.8518 174.296C35.7467 174.274 35.6504 174.361 35.5803 174.444L34.8971 175.215C33.176 175.215 31.3498 175.162 29.7382 175.123C29.5815 174.82 29.3415 174.568 29.0463 174.396C28.8317 174.615 28.6346 174.834 28.4375 175.088C27.1237 175.053 26.0727 175.018 25.4771 174.991C25.3335 175.023 25.1846 175.02 25.0422 174.984C24.8999 174.947 24.7683 174.877 24.6582 174.78C24.548 174.682 24.4625 174.561 24.4084 174.424C24.3544 174.287 24.3334 174.14 24.3472 173.994C24.1724 172.867 24.0845 171.729 24.0845 170.589C24.0442 170.318 24.1033 170.041 24.2509 169.81Z" fill="#32142A"/>
<path d="M52.2044 169.451C48.968 169.797 45.0441 169.819 41.799 169.836C37.7787 169.858 33.7497 169.836 29.7382 169.543C28.3386 169.516 26.9469 169.326 25.5909 168.979C24.9253 168.769 24.6362 169.814 25.3019 170.025C26.473 170.333 27.6742 170.513 28.8842 170.563C30.7411 170.72 32.6023 170.795 34.4592 170.847C38.6196 170.964 42.78 170.964 46.9404 170.847C48.4863 170.799 50.5971 170.738 52.1343 170.576" fill="#7F4341"/>
<path d="M66.5248 125.568L41.0851 125.345C41.6063 138.661 43.1128 151.96 44.4091 165.224L52.2569 165.18C52.4277 155.461 52.7561 145.729 52.616 136.014C52.616 135.87 52.6732 135.732 52.7751 135.63C52.8769 135.528 53.015 135.471 53.159 135.471C53.3031 135.471 53.4411 135.528 53.543 135.63C53.6448 135.732 53.7021 135.87 53.7021 136.014C53.7327 138.324 53.7021 140.639 53.7021 142.954C53.6276 150.358 53.4393 157.767 53.3298 165.171L59.4609 165.141C62.3469 152.398 64.3132 138.412 66.5248 125.568Z" fill="#32142A"/>
<path d="M17.9622 101.373C15.155 93.1941 15.19 84.3545 15.2513 75.7074C15.3346 64.4522 15.4178 53.1926 16.0309 41.9549C16.2717 37.5789 16.5958 33.1678 17.7826 28.9449C20.1431 20.556 25.9019 13.3005 33.1673 8.47376C40.4326 3.64697 49.1169 1.16575 57.8274 0.675629C64.7205 0.28616 71.7713 1.11323 78.0994 3.90078C84.4276 6.68832 89.9938 11.4451 92.9892 17.6547C95.2753 22.3633 96.0285 27.654 96.4927 32.8659C98.6284 58.0948 94.314 83.4523 83.9546 106.559" fill="#32142A"/>
<path d="M77.8717 14.9459C79.0717 18.6174 80.5431 21.3787 83.7225 23.5799C84.0641 23.8206 86.9545 24.4551 87.1516 24.105C87.3487 23.7549 85.759 22.8972 85.3999 22.6609C82.5664 20.7004 79.7067 17.6722 78.2921 14.5434C77.2761 12.3291 77.5476 13.992 77.8542 14.9459H77.8717Z" fill="#7F4341"/>
<path d="M76.0456 8.72761C85.8203 12.3729 92.0696 27.2689 92.2929 29.3301C93.7951 43.0315 87.191 64.7411 83.7225 77.7511C81.7474 85.1597 80.4337 88.5337 81.3358 96.2093C81.4497 97.1851 83.0044 97.1983 82.8861 96.2093C81.2088 81.9608 88.553 67.0867 92.2097 53.6303C94.0228 46.9699 94.0666 40.2177 93.7075 33.2816C93.4316 27.9735 93.5892 26.8182 90.9879 22.1665C88.1413 17.0815 82.146 10.0054 76.6368 7.94867C75.704 7.59859 75.2967 9.0952 76.2251 9.44091L76.0456 8.72761Z" fill="#7F4341"/>
<path d="M81.0993 60.9339C79.9256 52.1249 87.2304 46.5979 87.1516 42.8564C87.1516 41.8718 86.1312 38.1697 85.9954 39.1543C84.813 47.7795 78.9491 51.7048 80.5694 66.2858C80.6789 67.2617 81.327 65.4106 81.1956 64.4391L81.0993 60.9339Z" fill="#7F4341"/>
<path d="M23.5152 87.6715C22.9634 69.5416 23.2962 68.5044 26.1077 56.7635C26.3398 55.7964 27.8244 49.9456 25.9895 55.013C21.8116 66.4783 21.089 79.2126 21.3562 91.4131C21.3562 92.4064 22.9283 92.4108 22.9064 91.4131L23.5152 87.6715Z" fill="#7F4341"/>
<path d="M36.4211 73.3487C36.4211 66.2376 35.8168 58.7415 35.1818 51.6566C34.8752 48.2783 34.1614 50.7814 34.2665 51.766C35.1178 58.8517 35.1178 66.0136 34.2665 73.0993C34.1439 74.0883 35.8167 74.097 35.8167 73.0993L36.4211 73.3487Z" fill="#7F4341"/>
<path d="M85.3122 92.2577L80.5431 76.8453C79.1198 72.2504 76.7418 66.8241 71.9552 66.3427C72.3085 62.0396 72.6662 57.7394 73.0282 53.4421C66.7351 54.3786 51.5693 56.5054 45.2631 57.4287L44.4616 66.7235C43.7346 67.4149 42.7405 67.7256 41.7946 68.0625C35.008 70.5163 29.3518 75.3622 25.8888 81.6896L3.55408 128.006C11.5902 130.855 20.1956 133.695 28.258 136.543C28.6959 135.668 29.1339 134.793 29.5718 133.944L30.7674 131.275C32.0812 127.962 32.795 124.623 33.5877 121.275C33.6709 120.908 34.6825 121.013 34.6387 121.376C34.3322 123.958 34.4285 124.684 34.0212 126.286C33.8504 126.964 33.6709 127.638 33.4738 128.312L69.2619 128.111C69.1699 127.428 69.0999 126.57 68.951 125.148C68.7802 123.511 69.8882 123.665 70.1159 124.711C70.3217 125.669 70.3655 125.586 70.5976 126.54C71.6311 130.846 72.1392 132.859 74.2194 137.099L95.5775 131.45C93.3134 118.098 89.3062 105.154 85.3122 92.2577Z" fill="#E48929"/>
<path d="M1.46066 122.19L38.6458 122.649L75.8309 123.087L96.9044 123.345C97.9029 123.345 97.9029 121.809 96.9044 121.796L59.7193 121.358L22.5298 120.921L1.46066 120.663C0.462168 120.663 0.462168 122.199 1.46066 122.212V122.19Z" fill="#FAC7B7"/>
<path d="M1.46066 133.445L38.6458 133.883L75.8309 134.342L96.9044 134.6C97.9029 134.6 97.9029 133.064 96.9044 133.051L59.7193 132.614L22.5298 132.132L1.46066 131.874C0.462168 131.874 0.462168 133.41 1.46066 133.423V133.445Z" fill="#FAC7B7"/>
<path d="M4.07083 113.153C17.0658 112.978 30.0579 113.063 43.0471 113.407C56.0362 113.751 69.0196 114.36 81.9971 115.232C89.2755 115.722 96.5482 116.292 103.815 116.943C104.809 117.035 104.8 115.486 103.815 115.398C90.8696 114.231 77.9038 113.328 64.9176 112.69C51.9313 112.051 38.9393 111.673 25.9413 111.556C18.6424 111.492 11.3435 111.509 4.04458 111.609C3.04609 111.609 3.04171 113.171 4.04458 113.153H4.07083Z" fill="#FAC7B7"/>
<path d="M7.9947 104.449H96.8956C97.1012 104.449 97.2984 104.368 97.4438 104.223C97.5891 104.077 97.6707 103.88 97.6707 103.675C97.6707 103.47 97.5891 103.273 97.4438 103.127C97.2984 102.982 97.1012 102.9 96.8956 102.9H7.9947C7.78912 102.9 7.59195 102.982 7.44658 103.127C7.30122 103.273 7.21954 103.47 7.21954 103.675C7.21954 103.88 7.30122 104.077 7.44658 104.223C7.59195 104.368 7.78912 104.449 7.9947 104.449Z" fill="#FAC7B7"/>
<path d="M13.2237 93.146L72.3449 93.4961L89.0609 93.5924C90.0594 93.5924 90.0594 92.0521 89.0609 92.0477L29.9397 91.6976L13.2237 91.6013C12.2252 91.6013 12.2252 93.1417 13.2237 93.146Z" fill="#FAC7B7"/>
<path d="M19.3242 75.5718H91.6755C91.8811 75.5718 92.0782 75.4902 92.2236 75.345C92.369 75.1997 92.4507 75.0027 92.4507 74.7973C92.4507 74.5918 92.369 74.3948 92.2236 74.2496C92.0782 74.1043 91.8811 74.0227 91.6755 74.0227H19.3242C19.1186 74.0227 18.9214 74.1043 18.7761 74.2496C18.6307 74.3948 18.549 74.5918 18.549 74.7973C18.549 75.0027 18.6307 75.1997 18.7761 75.345C18.9214 75.4902 19.1186 75.5718 19.3242 75.5718Z" fill="#FAC7B7"/>
<path d="M19.3242 84.4334H91.6755C91.8811 84.4334 92.0782 84.3518 92.2236 84.2065C92.369 84.0613 92.4507 83.8642 92.4507 83.6588C92.4507 83.4534 92.369 83.2564 92.2236 83.1111C92.0782 82.9659 91.8811 82.8843 91.6755 82.8843H19.3242C19.1186 82.8843 18.9214 82.9659 18.7761 83.1111C18.6307 83.2564 18.549 83.4534 18.549 83.6588C18.549 83.8642 18.6307 84.0613 18.7761 84.2065C18.9214 84.3518 19.1186 84.4334 19.3242 84.4334Z" fill="#FAC7B7"/>
<path d="M16.3461 138.696C18.311 121.347 20.7488 104.059 23.6596 86.8315C24.4741 82.0091 25.3267 77.1954 26.2171 72.3905C26.3967 71.4146 24.9033 70.9989 24.7238 71.9792C21.5444 89.1916 18.8351 106.476 16.5958 123.831C15.9593 128.791 15.3593 133.75 14.7958 138.71C14.6863 139.699 16.2366 139.69 16.3461 138.71V138.696Z" fill="#FAC7B7"/>
<path d="M26.9005 141.952L35.2913 84.5689L37.6562 68.3775C37.7963 67.4016 36.303 66.9815 36.1584 67.9662L27.7763 125.345L25.4158 141.536C25.2713 142.512 26.7647 142.932 26.9092 141.948L26.9005 141.952Z" fill="#FAC7B7"/>
<path d="M36.9685 141.952L45.3638 84.5689L47.7287 68.3775C47.8732 67.4016 46.3798 66.9815 46.2353 67.9662L37.8531 125.345L35.4883 141.536C35.3481 142.512 36.8415 142.932 36.9817 141.948L36.9685 141.952Z" fill="#FAC7B7"/>
<path d="M54.0262 133.064C53.4087 116.177 54.7225 99.2857 56.8159 82.5342C57.4144 77.7089 58.0757 72.8952 58.7997 68.0932C58.9399 67.1174 57.4465 66.6973 57.302 67.6556C54.8057 84.6041 52.7737 101.662 52.3839 118.803C52.2788 123.555 52.3007 128.312 52.4759 133.06C52.5109 134.053 54.0612 134.058 54.0262 133.06V133.064Z" fill="#FAC7B7"/>
<path d="M66.6081 134.373C66.0382 116.8 66.613 99.2093 68.3291 81.7114C68.8138 76.7723 69.3977 71.8434 70.0809 66.9247C70.2166 65.9489 68.7233 65.5244 68.5875 66.4871C66.1838 84.0379 64.9359 101.728 64.852 119.442C64.8257 124.428 64.8943 129.41 65.0578 134.39C65.0884 135.384 66.6387 135.388 66.6081 134.39V134.373Z" fill="#FAC7B7"/>
<path d="M77.863 133.134C77.3017 115.928 77.8767 98.7026 79.5841 81.5714C80.0687 76.679 80.6526 71.7967 81.3358 66.9247C81.4716 65.9489 79.9782 65.5244 79.8424 66.4871C77.4703 83.6596 76.2283 100.969 76.1244 118.304C76.0981 123.24 76.1667 128.176 76.3302 133.112C76.3608 134.106 77.9111 134.11 77.8805 133.112L77.863 133.134Z" fill="#FAC7B7"/>
<path d="M87.8436 140.009C87.0319 123.172 87.1576 106.302 88.2202 89.479C88.5122 84.6858 88.8902 79.9013 89.3545 75.1255C89.4508 74.1322 87.9005 74.1409 87.8042 75.1255C86.212 91.9064 85.5512 108.763 85.8247 125.616C85.9035 130.413 86.0597 135.21 86.2933 140.009C86.3414 140.998 87.8874 141.007 87.8436 140.009Z" fill="#FAC7B7"/>
<path d="M35.3657 38.279C33.8636 41.5436 36.0313 45.5477 39.1538 47.3287C42.2763 49.1098 46.0426 49.2411 49.6336 49.3242L59.8376 49.5693C63.6257 49.6612 67.4664 49.7443 71.1494 48.8647C74.8325 47.9851 78.4148 46.0203 80.438 42.817C82.0715 40.222 82.5489 37.0931 82.9912 34.0649C83.8058 28.4767 84.4583 22.2014 81.0205 17.7247C78.4235 14.3376 73.9303 12.806 69.6604 12.9111C65.3906 13.0161 61.2827 14.5171 57.3982 16.2631C53.4901 18.0179 49.7012 20.0264 46.0557 22.2758L35.3657 38.279Z" fill="#FFC9A0"/>
<path d="M38.9744 44.1342C36.4869 44.5281 33.8111 44.353 31.6477 43.0621C29.4842 41.7711 27.9909 39.1805 28.512 36.7124C28.6026 36.1753 28.8458 35.6755 29.2127 35.2727C29.9747 34.52 31.1791 34.5156 32.252 34.5594L41.9523 34.962" fill="#FFC9A0"/>
<path d="M73.1815 13.0424C74.7791 17.4737 77.499 21.4155 81.0757 24.4833C84.6524 27.5511 88.9638 29.6401 93.5893 30.5466C95.779 25.0415 92.9674 18.4993 88.3341 14.8278C83.7007 11.1563 77.6134 9.82162 71.7188 9.1871C69.0123 8.89536 66.2986 8.72908 63.5775 8.68823" fill="#32142A"/>
<path d="M35.0197 41.2329C34.0607 41.1753 33.1437 40.8201 32.3963 40.2169C31.649 39.6136 31.1086 38.7924 30.8506 37.8677C30.8099 37.7317 30.7175 37.6171 30.5932 37.5483C30.4689 37.4796 30.3226 37.4623 30.1857 37.5C30.0488 37.5378 29.9322 37.6277 29.8608 37.7504C29.7894 37.8732 29.769 38.019 29.8039 38.1565C30.1243 39.3105 30.8009 40.334 31.7374 41.0812C32.674 41.8285 33.8226 42.2613 35.0197 42.3182C35.716 42.3444 35.716 41.2592 35.0197 41.2329Z" fill="#B26D55"/>
<path d="M35.2563 38.7562C35.1916 38.7749 35.1257 38.7895 35.0592 38.7999L35.2037 38.7781C35.0788 38.7956 34.952 38.7956 34.827 38.7781H34.9716C34.8916 38.7684 34.8125 38.7523 34.7351 38.7299L34.6256 38.6905C34.5468 38.6643 34.7351 38.7431 34.6738 38.7124L34.63 38.6905C34.5571 38.6564 34.4868 38.6169 34.4198 38.5724L34.3672 38.533C34.3147 38.5024 34.4636 38.6118 34.4154 38.5724L34.3191 38.4893C34.2621 38.4367 34.214 38.3798 34.1614 38.323C34.1089 38.2661 34.2402 38.4324 34.1921 38.3623L34.1658 38.323C34.1407 38.2885 34.1187 38.2519 34.1001 38.2136C34.1001 38.1785 34.0651 38.1435 34.0476 38.1129C34.03 38.0823 34.0957 38.2442 34.0476 38.161C34.0457 38.145 34.0457 38.1289 34.0476 38.1129C34.0198 38.0335 34.0007 37.9513 33.9906 37.8678V38.0123V37.986C33.9854 37.843 33.9295 37.7066 33.833 37.6009C33.7288 37.502 33.5913 37.4458 33.4476 37.4434C33.3768 37.4433 33.3068 37.4572 33.2414 37.4843C33.176 37.5113 33.1166 37.5509 33.0666 37.6009C33.015 37.6507 32.9744 37.7106 32.9472 37.7769C32.9201 37.8432 32.907 37.9144 32.9089 37.986C32.9381 38.2977 33.0417 38.5978 33.2111 38.8612C33.3822 39.1138 33.6008 39.3308 33.8548 39.5001C34.098 39.6624 34.373 39.771 34.6615 39.8185C34.95 39.8661 35.2454 39.8515 35.5278 39.7758C35.5978 39.7581 35.6636 39.7265 35.7213 39.683C35.779 39.6395 35.8274 39.5849 35.8637 39.5225C35.9 39.4601 35.9235 39.391 35.9328 39.3194C35.942 39.2478 35.9369 39.175 35.9177 39.1054C35.8984 39.0358 35.8655 38.9707 35.8207 38.914C35.776 38.8573 35.7204 38.81 35.6571 38.7751C35.5939 38.7401 35.5244 38.7181 35.4525 38.7104C35.3807 38.7026 35.308 38.7093 35.2387 38.7299L35.2563 38.7562Z" fill="#B26D55"/>
<path d="M18.6935 37.3777C29.3966 39.1631 43.0383 38.9137 53.1152 34.8921C63.1921 30.8705 71.9202 22.7223 75.012 12.3291C75.2222 11.6246 75.3974 7.26604 75.012 6.64027C74.6259 6.13685 74.0761 5.78396 73.4574 5.64253C69.5422 4.2947 60.6959 3.60328 56.5705 3.52889C40.656 3.24007 26.169 16.2588 19.4467 30.6604L18.6935 37.3777Z" fill="#32142A"/>
<path d="M69.6035 29.2688C70.3076 29.3916 71.0038 29.5568 71.6881 29.7633C72.0297 29.8683 72.3713 29.9821 72.7041 30.1046C72.8749 30.1659 73.0369 30.2359 73.2033 30.2971C73.3697 30.3584 73.3697 30.3671 73.2033 30.2971L73.3873 30.3803C74.0211 30.6613 74.6369 30.9813 75.231 31.3386C75.5375 31.5181 75.8397 31.7106 76.1331 31.9163L76.5711 32.2226L76.7857 32.3845C76.6499 32.2751 76.6499 32.2795 76.7857 32.3845C77.0864 32.6566 77.4749 32.8119 77.8805 32.8221C78.2897 32.8235 78.6836 32.6667 78.9797 32.3845C79.4921 31.8244 79.6585 30.726 78.9797 30.1965C76.4928 28.2062 73.5514 26.8622 70.418 26.2843C70.0217 26.1847 69.6023 26.2414 69.2468 26.4427C68.8912 26.644 68.6269 26.9743 68.5086 27.3652C68.3378 28.1179 68.7407 29.1156 69.5947 29.2688H69.6035Z" fill="#32142A"/>
<path d="M60.1923 35.649L62.382 38.7123C62.9864 39.5568 63.5951 40.6727 62.9557 41.4954C62.6271 41.8468 62.207 42.0999 61.7426 42.2262C60.2595 42.7398 58.689 42.954 57.1224 42.8564C56.6673 42.8609 56.2204 42.7349 55.8349 42.4932C55.1123 41.9418 55.3575 40.9047 55.6641 40.0951L57.21 36.021C57.21 36.021 58.0158 32.6033 60.1923 35.649Z" fill="#C05929"/>
<path d="M22.1532 38.9444C21.8904 36.0343 24.067 33.6931 26.5325 32.4591C29.6352 30.9716 33.0799 30.3415 36.5087 30.6342C44.339 31.2556 48.4293 28.1224 52.9182 24.3415C55.5148 22.1926 57.4907 19.3904 58.642 16.2239C60.8316 9.81736 57.9194 15.3924 57.4114 16.2458C54.3458 21.4227 49.4935 24.7178 43.958 27.0765C41.0976 28.2682 38.0686 29.0064 34.9803 29.2645C31.7265 29.5796 27.6843 28.9582 24.7633 30.5774C22.0349 32.0915 21.343 35.391 21.343 38.6818C21.343 42.1564 22.324 42.1564 22.1576 38.9575L22.1532 38.9444Z" fill="#7F4341"/>
<path d="M47.7549 32.3234C56.2245 29.1595 63.8403 22.4685 67.462 14.1934C68.4868 11.8522 68.0532 9.53292 68.2153 5.92706C68.2591 4.93807 67.7773 5.48945 67.589 6.48719C66.7969 10.7126 65.1765 14.7398 62.8211 18.3372C60.4656 21.9345 57.4216 25.031 53.8641 27.4485C51.7993 28.7769 49.6147 29.9094 47.3388 30.8312C41.0282 33.5574 42.9857 33.7631 47.7505 32.3234H47.7549Z" fill="#7F4341"/>
<path d="M61.5324 4.07155C49.314 2.89876 36.8109 7.76494 28.2493 16.4952C25.8056 18.9895 23.1999 21.5758 21.9999 24.8491C19.2453 32.3759 22.8013 26.4726 23.34 25.6324C32.6461 11.0732 39.8108 8.00563 51.4861 5.98389C54.7969 5.41063 60.1835 5.26621 63.5381 5.26621C66.2533 5.26621 62.5002 4.16344 61.5148 4.07155H61.5324Z" fill="#7F4341"/>
<path d="M39.1538 20.2934C43.4938 13.4449 49.8483 11.1868 57.9588 11.0206C58.9573 11.0206 58.2129 10.2504 57.2144 10.2679C48.5476 10.4429 40.2049 13.9963 34.8796 24.105C34.4154 24.9802 36.4386 24.0525 36.9729 23.2298L39.1538 20.2934Z" fill="#7F4341"/>
<path d="M22.3546 46.9131C25.6877 44.5319 28.3634 41.3464 30.1324 37.6534C29.8389 37.7759 29.5499 38.5286 29.2565 38.6293C37.7743 40.0602 46.6075 38.231 54.4334 34.577C61.7776 31.1462 67.9744 26.1225 72.2311 19.2609C74.596 15.4362 76.536 10.9157 76.6105 6.42151C76.6543 3.5377 76.1287 4.86801 75.8966 5.83949C74.0958 13.3475 70.2167 20.1975 64.703 25.6061C58.9091 31.295 53.6495 35.019 45.6703 36.4456C40.3714 37.2637 34.9806 37.2947 29.6726 36.5375C29.5078 36.4941 29.3334 36.5052 29.1756 36.5691C29.0177 36.633 28.8847 36.7462 28.7967 36.892C27.15 40.349 25.8406 42.3358 22.4641 45.8585C21.7809 46.5718 17.7957 49.6394 22.359 46.9306L22.3546 46.9131Z" fill="#7F4341"/>
<path d="M79.1987 41.933C81.8263 42.4319 85.286 42.0906 87.3924 40.467C89.4989 38.8435 89.9807 35.7847 88.8377 33.3866C87.3706 30.3015 83.3722 29.6057 79.9694 29.3081" fill="#FFC9A0"/>
<path d="M83.5868 32.6121C84.3725 32.9233 85.1098 33.3447 85.7765 33.8637C86.1804 34.1995 86.4583 34.6623 86.5648 35.1765C86.7538 35.8208 86.7354 36.5081 86.5122 37.1413C86.2336 37.6612 85.7618 38.0509 85.1984 38.2266C84.3633 38.5078 83.5064 38.72 82.6365 38.8611C81.9533 39.0012 82.2424 40.047 82.9255 39.907C84.4583 39.5963 86.4553 39.3512 87.3443 37.8809C87.7638 37.0651 87.8817 36.1275 87.6772 35.2334C87.5761 34.5378 87.2714 33.8877 86.8013 33.3648C86.0875 32.5815 85.0495 32.1089 84.0992 31.68C83.9746 31.6115 83.8284 31.5932 83.6908 31.629C83.5531 31.6648 83.4344 31.752 83.3591 31.8726C83.3229 31.9337 83.2991 32.0014 83.2892 32.0717C83.2793 32.1421 83.2834 32.2137 83.3013 32.2824C83.3192 32.3512 83.3506 32.4157 83.3936 32.4723C83.4366 32.5289 83.4903 32.5764 83.5518 32.6121H83.5868Z" fill="#B26D55"/>
<path d="M68.5393 53.5035L50.7328 55.9891C50.7851 53.1641 51.1881 50.3566 51.9328 47.6308C51.9774 47.3569 52.1077 47.1041 52.305 46.9088C52.5921 46.73 52.9362 46.6659 53.2685 46.7294C58.3934 47.0386 63.5369 46.7537 68.5962 45.8804C68.8208 45.8173 69.0593 45.825 69.2794 45.9023C69.7173 46.1124 69.7173 46.7294 69.6166 47.2151L68.5218 53.5123" fill="#FFC9A0"/>
<path d="M82.9649 34.9839C83.1532 35.0714 83.3415 35.159 83.5211 35.264C83.5951 35.3036 83.6667 35.3474 83.7356 35.3953L83.8189 35.4522C83.8671 35.4828 83.7707 35.4171 83.7707 35.4171C83.7856 35.4316 83.8018 35.4447 83.8189 35.4565C83.8671 35.5003 83.9108 35.5441 83.9546 35.5922C83.9984 35.6403 83.9546 35.6184 83.9809 35.6228C84.0072 35.6272 83.9108 35.5222 83.9371 35.5659C83.9634 35.6097 83.9721 35.6185 83.9852 35.6447L84.0247 35.7147C84.0641 35.7847 83.9809 35.5878 84.0247 35.6928L84.0772 35.8635C84.0772 35.8985 84.0772 35.9335 84.0772 35.9642C84.0772 35.9948 84.0772 36.0954 84.0772 35.9992C84.0772 35.9029 84.0772 36.0342 84.0772 36.0604C84.0772 36.0867 84.0772 36.1567 84.0772 36.2048C84.0772 36.253 84.0772 36.3011 84.0772 36.3405C84.0772 36.3799 84.0772 36.2924 84.0772 36.288C84.0751 36.3054 84.0751 36.3231 84.0772 36.3405L84.0509 36.4368V36.4849C84.0509 36.5593 84.0509 36.4499 84.0509 36.4411C84.0509 36.4324 84.0115 36.5155 83.9984 36.533C83.9853 36.5506 83.9721 36.5681 83.9984 36.5724C84.0247 36.5768 84.0729 36.4849 84.0378 36.5199L83.9765 36.5856C83.9765 36.5856 83.8582 36.6906 83.9327 36.6293C84.0071 36.5681 83.9327 36.6293 83.9021 36.6512L83.8189 36.695L83.7356 36.7387C83.6262 36.7956 83.8363 36.7037 83.7137 36.7387C83.3646 36.8538 83.0075 36.9431 82.6452 37.0057C82.5073 37.0445 82.3903 37.1362 82.3198 37.2607C82.2492 37.3853 82.2308 37.5327 82.2686 37.6708C82.3085 37.8081 82.4002 37.9246 82.5244 37.9956C82.6486 38.0667 82.7955 38.0867 82.9342 38.0515C83.67 37.8984 84.5415 37.7583 84.9663 37.0582C85.1818 36.6451 85.2424 36.1686 85.137 35.7147C85.0824 35.3727 84.9304 35.0537 84.6991 34.7958C84.3578 34.4659 83.9524 34.2098 83.5079 34.0431C83.3835 33.9734 83.237 33.9546 83.099 33.9904C82.9611 34.0263 82.8424 34.1142 82.7678 34.2356C82.6958 34.3594 82.6756 34.5065 82.7117 34.645C82.7478 34.7836 82.8372 34.9022 82.9605 34.9752L82.9649 34.9839Z" fill="#B26D55"/>
<path d="M52.4408 109.709C47.5775 104.484 43.9682 98.2214 41.8865 91.3955C41.3829 89.737 40.9712 87.9997 41.234 86.2887C41.4967 84.5777 42.5872 82.8929 44.247 82.3896C45.9067 81.8864 47.8162 82.7091 49.0161 84.0088C50.2161 85.3085 50.8949 86.9976 51.543 88.643L54.0787 95.0889C54.7093 90.3847 55.3925 85.4616 58.0945 81.5669C59.1105 80.0835 60.5776 78.6962 62.3732 78.6262C63.0175 78.6365 63.6534 78.7749 64.2437 79.0333C64.8339 79.2918 65.3667 79.6651 65.811 80.1316C68.3466 82.5953 68.7364 86.6519 67.6897 90.0302C66.6431 93.4085 64.414 96.2661 62.2243 99.0405L53.794 109.744" fill="white"/>
<path d="M70.9699 33.3647C69.7699 33.7367 68.8634 35.2989 68.8721 36.5242C68.8644 36.7535 68.9169 36.9808 69.0245 37.1835C69.1321 37.3862 69.2909 37.5572 69.4852 37.6795C70.7684 38.3709 72.3713 35.6709 72.7129 34.7738C73.1158 33.7104 72.4589 33.1765 71.4341 33.2728C71.2769 33.2891 71.1214 33.3198 70.9699 33.3647Z" fill="#32142A"/>
<path d="M44.212 58.4176C53.8816 56.1727 63.7527 55.0831 73.6106 54.0416C74.2982 53.9716 74.3026 52.8863 73.6106 52.9607C63.6563 54.0022 53.6846 55.1006 43.9274 57.3674C43.2442 57.5249 43.5332 58.5708 44.212 58.4132V58.4176Z" fill="#FAC7B7"/>
<path d="M43.612 67.7781C53.0482 68.2078 62.5039 67.7507 71.8545 66.4128C72.542 66.3122 72.2486 65.2663 71.5654 65.3669C62.3096 66.6808 52.9504 67.1204 43.612 66.6797C42.9113 66.6447 42.9157 67.73 43.612 67.765V67.7781Z" fill="#FAC7B7"/>
<path d="M45.4032 66.5966C45.4032 63.8178 45.9857 61.074 45.9944 58.2821C45.9944 58.1382 45.9372 58.0002 45.8354 57.8984C45.7335 57.7967 45.5954 57.7395 45.4514 57.7395C45.3074 57.7395 45.1693 57.7967 45.0674 57.8984C44.9656 58.0002 44.9083 58.1382 44.9083 58.2821C44.9083 61.0609 44.3303 63.8047 44.3171 66.5966C44.3171 66.7405 44.3743 66.8786 44.4762 66.9803C44.578 67.0821 44.7162 67.1392 44.8602 67.1392C45.0042 67.1392 45.1423 67.0821 45.2442 66.9803C45.346 66.8786 45.4032 66.7405 45.4032 66.5966Z" fill="#FAC7B7"/>
<path d="M51.4117 65.7608V58.4747C51.3995 58.3397 51.3373 58.2142 51.2372 58.1228C51.1371 58.0314 51.0064 57.9807 50.8708 57.9807C50.7352 57.9807 50.6045 58.0314 50.5044 58.1228C50.4044 58.2142 50.3421 58.3397 50.33 58.4747V65.7608C50.3421 65.8957 50.4044 66.0212 50.5044 66.1126C50.6045 66.204 50.7352 66.2547 50.8708 66.2547C51.0064 66.2547 51.1371 66.204 51.2372 66.1126C51.3373 66.0212 51.3995 65.8957 51.4117 65.7608Z" fill="#FAC7B7"/>
<path d="M48.4512 65.1788V57.8796C48.4512 57.7356 48.394 57.5976 48.2921 57.4958C48.1903 57.3941 48.0522 57.3369 47.9082 57.3369C47.7642 57.3369 47.626 57.3941 47.5242 57.4958C47.4224 57.5976 47.3651 57.7356 47.3651 57.8796V65.1788C47.3651 65.3228 47.4224 65.4608 47.5242 65.5625C47.626 65.6643 47.7642 65.7215 47.9082 65.7215C48.0522 65.7215 48.1903 65.6643 48.2921 65.5625C48.394 65.4608 48.4512 65.3228 48.4512 65.1788Z" fill="#FAC7B7"/>
<path d="M54.3765 64.5793V57.3019C54.3765 57.158 54.3193 57.02 54.2175 56.9182C54.1156 56.8164 53.9775 56.7593 53.8335 56.7593C53.6894 56.7593 53.5513 56.8164 53.4494 56.9182C53.3476 57.02 53.2904 57.158 53.2904 57.3019V64.5924C53.2904 64.7364 53.3476 64.8744 53.4494 64.9761C53.5513 65.0779 53.6894 65.1351 53.8335 65.1351C53.9775 65.1351 54.1156 65.0779 54.2175 64.9761C54.3193 64.8744 54.3765 64.7364 54.3765 64.5924V64.5793Z" fill="#FAC7B7"/>
<path d="M60.2974 62.8025V55.512C60.2852 55.3771 60.223 55.2516 60.1229 55.1602C60.0228 55.0688 59.8921 55.0181 59.7565 55.0181C59.621 55.0181 59.4903 55.0688 59.3902 55.1602C59.2901 55.2516 59.2279 55.3771 59.2157 55.512V62.8025C59.2279 62.9375 59.2901 63.063 59.3902 63.1544C59.4903 63.2458 59.621 63.2965 59.7565 63.2965C59.8921 63.2965 60.0228 63.2458 60.1229 63.1544C60.223 63.063 60.2852 62.9375 60.2974 62.8025Z" fill="#FAC7B7"/>
<path d="M66.8226 62.2117V54.9212C66.8105 54.7863 66.7482 54.6607 66.6481 54.5693C66.548 54.4779 66.4174 54.4272 66.2818 54.4272C66.1462 54.4272 66.0155 54.4779 65.9154 54.5693C65.8153 54.6607 65.7531 54.7863 65.7409 54.9212V62.2117C65.7531 62.3466 65.8153 62.4721 65.9154 62.5635C66.0155 62.6549 66.1462 62.7056 66.2818 62.7056C66.4174 62.7056 66.548 62.6549 66.6481 62.5635C66.7482 62.4721 66.8105 62.3466 66.8226 62.2117Z" fill="#FAC7B7"/>
<path d="M57.0392 66.8022V56.0721C57.027 55.9371 56.9647 55.8116 56.8647 55.7202C56.7646 55.6288 56.6339 55.5781 56.4983 55.5781C56.3627 55.5781 56.232 55.6288 56.1319 55.7202C56.0319 55.8116 55.9696 55.9371 55.9574 56.0721V66.8022C55.9696 66.9371 56.0319 67.0626 56.1319 67.154C56.232 67.2455 56.3627 67.2961 56.4983 67.2961C56.6339 67.2961 56.7646 67.2455 56.8647 67.154C56.9647 67.0626 57.027 66.9371 57.0392 66.8022Z" fill="#FAC7B7"/>
<path d="M63.2009 64.9993C63.3352 61.6006 63.36 58.1974 63.2754 54.79C63.2754 54.646 63.2182 54.508 63.1163 54.4062C63.0145 54.3045 62.8763 54.2473 62.7323 54.2473C62.5883 54.2473 62.4501 54.3045 62.3483 54.4062C62.2465 54.508 62.1893 54.646 62.1893 54.79C62.2768 58.1945 62.252 61.5976 62.1148 64.9993C62.0885 65.6951 63.1746 65.6951 63.2009 64.9993Z" fill="#FAC7B7"/>
<path d="M70.2823 64.5441V54.1335C70.2823 53.9895 70.2251 53.8515 70.1233 53.7498C70.0215 53.648 69.8833 53.5908 69.7393 53.5908C69.5953 53.5908 69.4571 53.648 69.3553 53.7498C69.2534 53.8515 69.1962 53.9895 69.1962 54.1335V64.5441C69.1962 64.688 69.2534 64.826 69.3553 64.9278C69.4571 65.0296 69.5953 65.0867 69.7393 65.0867C69.8833 65.0867 70.0215 65.0296 70.1233 64.9278C70.2251 64.826 70.2823 64.688 70.2823 64.5441Z" fill="#FAC7B7"/>
<path d="M72.2574 65.3451V54.9345C72.2574 54.7906 72.2002 54.6525 72.0983 54.5508C71.9965 54.449 71.8584 54.3918 71.7144 54.3918C71.5704 54.3918 71.4322 54.449 71.3304 54.5508C71.2285 54.6525 71.1713 54.7906 71.1713 54.9345V65.3451C71.1713 65.489 71.2285 65.6271 71.3304 65.7288C71.4322 65.8306 71.5704 65.8878 71.7144 65.8878C71.8584 65.8878 71.9965 65.8306 72.0983 65.7288C72.2002 65.6271 72.2574 65.489 72.2574 65.3451Z" fill="#FAC7B7"/>
<path d="M69.2838 49.228C69.2838 49.228 56.9384 50.0551 51.5212 49.3724L68.5393 53.5034L69.2838 49.228Z" fill="#EFB086"/>
</svg>
