<svg width="154" height="329" viewBox="0 0 154 329" fill="none" xmlns="http://www.w3.org/2000/svg">
<path d="M17.7396 39.36C20.2577 35.706 21.7379 31.4525 23.205 27.2646C23.4769 26.328 23.8984 25.4414 24.4531 24.639C24.736 24.2399 25.109 23.913 25.542 23.6849C25.9749 23.4568 26.4556 23.3339 26.945 23.3262C27.2881 23.3355 27.6227 23.4345 27.9155 23.6134C28.2082 23.7923 28.4489 24.0449 28.6135 24.3458C28.7755 24.749 28.8559 25.1804 28.85 25.6148C29.0748 29.8684 29.1799 34.1234 29.1653 38.3798C29.1653 38.9487 29.0996 39.6226 28.6048 39.9027C28.2789 40.0429 27.9167 40.0751 27.5712 39.9946L17.6826 38.7124" fill="#39B55D"/>
<path d="M23.0912 36.0823C23.4448 33.7746 24.1338 31.5308 25.1363 29.422C25.2355 29.2439 25.2622 29.0345 25.2108 28.8372C25.1594 28.64 25.0339 28.4701 24.8604 28.363C24.6824 28.2608 24.4713 28.233 24.2729 28.2854C24.0745 28.3378 23.9048 28.4664 23.8006 28.643C22.7312 30.8663 21.9934 33.234 21.6109 35.671C21.5629 35.8692 21.5923 36.0783 21.6932 36.2555C21.7941 36.4328 21.9589 36.5649 22.154 36.625C22.352 36.6786 22.5632 36.6516 22.7414 36.5499C22.9195 36.4482 23.05 36.28 23.1043 36.0823H23.0912Z" fill="#153A23"/>
<path d="M26.1698 36.8439C26.4209 34.44 26.7771 32.0521 27.2384 29.6803C27.2889 29.4826 27.2611 29.273 27.1607 29.0953C27.0604 28.9176 26.8952 28.7854 26.6998 28.7263C26.5012 28.6738 26.29 28.7012 26.1114 28.8026C25.9329 28.9041 25.8013 29.0716 25.7451 29.269C25.2604 31.775 24.8852 34.3 24.6195 36.8439C24.6207 37.049 24.7027 37.2453 24.8478 37.3903C24.993 37.5353 25.1895 37.6173 25.3947 37.6185C25.5989 37.614 25.7935 37.531 25.9379 37.3867C26.0823 37.2424 26.1654 37.0479 26.1698 36.8439Z" fill="#153A23"/>
<path d="M29.1084 35.7542V26.0394C29.0937 25.8446 29.0059 25.6625 28.8626 25.5297C28.7192 25.3968 28.5309 25.323 28.3354 25.323C28.1399 25.323 27.9516 25.3968 27.8083 25.5297C27.665 25.6625 27.5772 25.8446 27.5625 26.0394V35.7542C27.5772 35.949 27.665 36.1311 27.8083 36.2639C27.9516 36.3968 28.1399 36.4706 28.3354 36.4706C28.5309 36.4706 28.7192 36.3968 28.8626 36.2639C29.0059 36.1311 29.0937 35.949 29.1084 35.7542Z" fill="#153A23"/>
<path d="M69.6349 310.439C69.7996 314.789 70.9639 319.043 73.0377 322.871L66.5168 324.351C65.7461 322.46 65.0571 320.538 64.4498 318.583C64.0922 320.273 63.3783 321.868 62.3556 323.261C61.333 324.654 60.025 325.814 58.5188 326.662C57.0126 327.51 55.3427 328.028 53.6205 328.181C51.8983 328.334 50.1632 328.119 48.5308 327.549C48.0928 327.426 47.6944 327.191 47.3747 326.867C46.6871 326.057 47.1207 322.254 47.9615 321.616C48.8024 320.977 49.8972 320.788 50.9307 320.53C57.1976 318.981 61.5594 313.905 63.0528 303.591L69.6349 310.439Z" fill="#32142A"/>
<path d="M120.624 127.831C120.498 126.061 120.518 124.284 120.685 122.518C120.695 122.099 120.803 121.689 121 121.319C121.911 119.884 125.533 120.085 126.961 119.941C129.702 119.649 132.45 119.486 135.203 119.451C139.445 119.38 143.688 119.588 147.903 120.072C149.558 120.265 151.844 120.138 153.04 121.547C154.03 122.737 154.012 123.494 152.291 124.011C148.674 125.1 144.408 124.614 140.651 124.553C137.795 124.505 131.695 122.842 129.978 125.866L128.025 129.319" fill="#B26D55"/>
<path d="M41.2129 101.518V95.9731C41.2129 92.1528 18.0549 94.6122 15.2346 94.9185C13.9208 95.0629 10.7238 95.6712 10.9822 97.8286C11.2713 100.253 18.0155 99.4477 20.065 99.3558C23.6736 99.1983 28.9113 98.6688 32.1783 100.402C33.3826 101.041 34.241 101.951 33.6585 103.189" fill="#B26D55"/>
<path d="M56.5012 160.892C45.1149 157.168 36.6321 147.282 31.7754 136.36C26.9187 125.437 25.2064 113.416 23.5554 101.574C30.4049 101.664 37.2465 101.078 43.9807 99.824C49.0082 118.326 54.64 123.757 66.9154 126.465C74.461 128.133 82.3 126.767 90.0252 126.763C97.7504 126.759 106.229 128.566 110.897 134.732C110.97 132.561 111.048 130.388 111.129 128.211C119.576 126.951 128.115 126.418 136.652 126.619C138.465 137.198 139.043 147.952 138.373 158.664C138.093 163.128 137.524 167.784 134.988 171.469C132.746 174.729 129.177 176.864 125.467 178.256C120.769 179.981 115.753 180.669 110.764 180.274C105.775 179.878 100.93 178.407 96.5636 175.963L57.0049 169.259L56.5012 160.892Z" fill="#F7BC28"/>
<path d="M45.6667 241.744L51.1321 312.194H76.112V247.214L45.6667 241.744Z" fill="#153A23"/>
<path d="M66.5869 259.532C60.0617 253.108 52.4066 247.945 45.6667 241.744C40.3502 236.856 35.638 231.359 30.9433 225.876L12.7865 204.696C7.01015 197.953 0.940364 190.509 0.524325 181.643C-0.0274737 170.392 9.41006 160.34 20.3059 157.474C31.2017 154.608 42.9121 157.671 52.8883 162.918C62.8645 168.165 71.5619 175.473 80.8286 181.884C81.6125 182.422 82.4796 182.982 83.4255 182.908C84.3715 182.833 85.1072 182.172 85.7948 181.547C89.8632 177.827 102.607 174.107 106.676 170.392C106.921 172.322 107.525 175.521 107.687 176.304C108.36 179.298 108.779 182.342 108.94 185.406C109.378 196.185 109.224 211.225 100.4 218.923C96.3271 222.485 91.5011 223.627 86.2809 224.27C83.3292 224.633 78.109 224.607 74.9647 222.747L87.1918 242.116L66.5869 259.532Z" fill="#153A23"/>
<path d="M58.5245 118.286C58.2037 112.044 58.4529 105.785 59.269 99.5876C60.2675 91.9645 62.6981 84.5821 68.216 79.0201C73.572 73.6245 83.1321 70.9157 89.7581 75.8956C94.5754 79.5146 96.2264 86.7351 96.5154 92.4109C96.8432 98.8019 96.7525 105.208 96.2439 111.587C96.2143 112.59 96.022 113.581 95.6746 114.523C94.4965 117.284 91.1595 118.295 88.2297 118.899C81.167 120.359 74.021 121.382 66.8322 121.962L58.5245 118.286Z" fill="#B26D55"/>
<path d="M95.4162 109.574L99.1956 108.729C99.8512 108.587 100.437 108.223 100.855 107.698C101.272 107.173 101.495 106.52 101.486 105.85C101.46 104.629 101.166 102.878 100.479 101.889C99.6291 100.669 96.0206 101.242 95.298 101.824L95.4162 109.574Z" fill="#B26D55"/>
<path d="M60.1449 111.263C58.1216 112.055 55.3627 112.637 54.1759 110.825C53.8912 110.345 53.7121 109.809 53.6503 109.254C53.4007 107.679 53.5233 105.942 54.5262 104.686C55.5291 103.43 59.3435 102.962 60.5171 104.034L60.1449 111.263Z" fill="#B26D55"/>
<path d="M83.1453 106.152C97.2599 105.714 98.2453 109.04 98.2453 109.04C96.2439 111.543 97.3037 115.433 99.5591 117.731C101.814 120.028 104.884 121.232 107.692 122.768C108.497 123.205 109.399 123.901 109.268 124.807C109.167 125.525 108.462 125.975 107.827 126.325L97.9869 131.743C97.3757 132.063 96.849 132.524 96.4498 133.086C95.46 134.544 96.1257 135.467 96.8877 136.15C100.163 139.108 106.207 139.524 107.17 143.834C107.932 147.247 104.679 150.096 101.871 152.188C99.0642 154.28 96.0249 157.54 97.33 160.787C98.3767 163.412 101.648 164.244 103.636 166.248C107.84 170.488 104.565 178.68 98.9985 180.737C97.5274 181.259 96.287 182.281 95.495 183.625C93.7433 186.662 96.3315 188.071 97.1592 190.189C98.0876 192.583 96.6819 195.187 95.3287 197.362L92.8324 201.375C92.5553 201.807 92.1573 202.149 91.6877 202.358C91.2181 202.567 90.6974 202.634 90.1903 202.55C89.6831 202.466 89.2117 202.235 88.8344 201.886C88.4571 201.538 88.1905 201.086 88.0677 200.587C87.8362 199.649 87.5089 198.737 87.0911 197.865C85.3394 194.229 81.1483 191.371 77.1018 193.318C76.5136 193.619 75.8595 193.769 75.1988 193.754C74.5381 193.739 73.8916 193.559 73.318 193.231C70.8174 191.69 72.6962 189.025 72.3064 186.772C71.8685 184.286 68.9255 183.166 66.4074 182.943C63.4469 182.676 60.0749 182.86 58.2968 180.046C57.4383 178.578 57.1958 176.83 57.6224 175.184C58.726 170.278 63.2411 167.268 64.1126 162.227C64.385 160.845 64.1764 159.412 63.5214 158.166C60.5653 152.84 52.665 157.198 49.7133 151.492C49.065 150.196 48.8618 148.723 49.1352 147.3C49.8184 143.466 52.6387 140.845 55.3977 138.364L62.8426 131.612C63.4001 131.175 63.8596 130.626 64.1914 130.001C65.0191 128.124 63.355 126.063 61.5638 125.065C59.2647 123.8 56.3918 123.201 55.586 120.212C55.1481 118.602 58.2968 111.35 59.164 109.928C59.1508 109.937 64.9622 106.721 83.1453 106.152Z" fill="#32142A"/>
<path d="M66.2103 98.2749C65.9448 98.4136 65.6437 98.4696 65.346 98.4356C65.0483 98.4016 64.7676 98.2791 64.5403 98.084C64.313 97.8889 64.1495 97.6302 64.0709 97.3412C63.9923 97.0523 64.0023 96.7464 64.0995 96.4632C64.1476 96.3319 64.2046 96.205 64.2615 96.0825C64.8387 95.0035 65.6125 94.0418 66.5431 93.2468C67.9026 91.9699 69.3958 90.8431 70.997 89.886C71.333 89.6577 71.722 89.5191 72.1268 89.4834C72.4351 89.496 72.7355 89.5845 73.0014 89.741C73.2672 89.8975 73.4903 90.1172 73.6508 90.3805C73.9682 90.9117 74.1919 91.4934 74.3121 92.1003C74.5 92.5933 74.5216 93.1342 74.3734 93.6406C73.826 94.9535 72.2932 95.4523 71.0933 95.9337C69.4029 96.6164 67.8219 97.4434 66.2103 98.2749Z" fill="#32142A"/>
<path d="M86.7407 89.0852C86.5837 89.0262 86.4154 89.0038 86.2484 89.0196C86.0815 89.0353 85.9204 89.0889 85.7773 89.1762C85.6341 89.2636 85.5128 89.3823 85.4225 89.5235C85.3322 89.6647 85.2753 89.8246 85.2561 89.991C84.9145 91.9996 84.2707 92.9842 86.0093 94.2664C87.9056 95.6624 90.8485 96.5245 93.2046 96.6514C93.4186 96.6884 93.6386 96.6447 93.8222 96.5288C93.9664 96.3896 94.0603 96.2064 94.0893 96.0081C94.4353 94.6953 92.6441 92.5335 91.1639 91.632C88.9479 90.2404 89.1493 90.0829 86.7407 89.0852Z" fill="#32142A"/>
<path d="M81.8095 100.712C83.0664 102.629 84.9802 104.673 84.3978 106.887C83.9598 108.515 81.9978 109.097 80.3381 109.403C78.9761 109.653 77.1762 109.653 76.7864 108.34C76.6799 107.86 76.701 107.361 76.8477 106.891C77.2594 105.077 77.7367 103.275 78.2797 101.487C78.2797 101.487 79.76 97.5967 81.8095 100.712Z" fill="#C05929"/>
<path d="M72.5954 113.805C70.9926 114.379 73.7472 117.079 75.2887 117.796C76.8303 118.514 78.6258 118.505 80.2987 118.181C83.627 117.543 87.0079 115.249 87.4108 111.884C87.4108 111.884 82.1599 110.375 72.5954 113.805Z" fill="#B26D55"/>
<path d="M77.7806 115.687C78.7332 115.896 79.7231 115.862 80.6591 115.588C81.595 115.315 82.447 114.81 83.1365 114.121C83.627 113.622 82.8606 112.856 82.3701 113.355C81.8176 113.911 81.1347 114.32 80.3836 114.544C79.6324 114.769 78.8369 114.802 78.0696 114.641C77.9304 114.607 77.7833 114.628 77.6587 114.698C77.5341 114.769 77.4413 114.885 77.3996 115.022C77.3632 115.161 77.3827 115.308 77.454 115.432C77.5252 115.557 77.6425 115.648 77.7806 115.687Z" fill="#32142A"/>
<path d="M95.9066 145.562L96.2833 143.751C96.3082 143.66 96.296 143.562 96.2491 143.48C96.2023 143.398 96.1248 143.338 96.0337 143.313C95.9425 143.288 95.8451 143.3 95.763 143.347C95.6809 143.394 95.6207 143.472 95.5957 143.563L95.2191 145.374C95.1941 145.465 95.2064 145.563 95.2532 145.645C95.3 145.727 95.3775 145.787 95.4687 145.812C95.5599 145.837 95.6573 145.825 95.7394 145.778C95.8215 145.731 95.8817 145.654 95.9066 145.562Z" fill="#BA6542"/>
<path d="M79.5629 139.922C79.3824 141.153 79.6597 142.408 80.3424 143.449C80.3923 143.529 80.471 143.587 80.5623 143.61C80.6536 143.634 80.7505 143.621 80.8329 143.576C80.9126 143.527 80.9703 143.449 80.9939 143.358C81.0176 143.268 81.0054 143.172 80.9599 143.09C80.3719 142.214 80.1199 141.156 80.2504 140.11C80.2628 140.065 80.2662 140.018 80.2603 139.971C80.2545 139.925 80.2395 139.88 80.2163 139.839C80.1932 139.799 80.1622 139.763 80.1252 139.734C80.0882 139.706 80.046 139.685 80.0008 139.672C79.9557 139.66 79.9086 139.657 79.8621 139.662C79.8157 139.668 79.7708 139.683 79.7301 139.706C79.6895 139.73 79.6538 139.761 79.6251 139.797C79.5964 139.834 79.5753 139.877 79.5629 139.922Z" fill="#BA6542"/>
<path d="M71.9166 160.708V163.25C71.9177 163.345 71.9553 163.435 72.0215 163.501C72.0876 163.568 72.1772 163.607 72.2713 163.609C72.3659 163.607 72.4559 163.569 72.5228 163.502C72.5897 163.435 72.6282 163.345 72.6304 163.25V160.708C72.6282 160.614 72.5895 160.524 72.5225 160.458C72.4555 160.392 72.3655 160.355 72.2713 160.354C72.1776 160.355 72.088 160.392 72.0217 160.459C71.9555 160.525 71.9177 160.614 71.9166 160.708Z" fill="#BA6542"/>
<path d="M61.7302 175.499C61.5641 174.451 61.8003 173.379 62.3915 172.497C62.4152 172.457 62.4307 172.412 62.4371 172.366C62.4435 172.32 62.4407 172.273 62.4289 172.228C62.4171 172.183 62.3966 172.14 62.3683 172.103C62.3401 172.066 62.3049 172.035 62.2645 172.011C62.183 171.965 62.0864 171.952 61.9956 171.976C61.9047 171.999 61.8267 172.058 61.7784 172.138C61.0888 173.184 60.8255 174.454 61.0427 175.687C61.0548 175.733 61.0758 175.775 61.1045 175.812C61.1331 175.849 61.1689 175.88 61.2096 175.903C61.2503 175.926 61.2952 175.941 61.3417 175.947C61.3883 175.953 61.4355 175.949 61.4806 175.937C61.5702 175.909 61.6458 175.849 61.6922 175.767C61.7386 175.686 61.7522 175.59 61.7302 175.499Z" fill="#BA6542"/>
<path d="M74.4566 181.42V182.873C74.4511 182.923 74.4561 182.974 74.4715 183.022C74.4869 183.07 74.5123 183.114 74.546 183.152C74.5797 183.189 74.6209 183.219 74.667 183.24C74.7131 183.26 74.763 183.271 74.8135 183.271C74.864 183.271 74.914 183.26 74.9601 183.24C75.0062 183.219 75.0474 183.189 75.0811 183.152C75.1148 183.114 75.1401 183.07 75.1555 183.022C75.1709 182.974 75.176 182.923 75.1704 182.873V181.42C75.1693 181.326 75.1316 181.237 75.0653 181.171C74.999 181.104 74.9095 181.067 74.8157 181.065C74.7219 181.068 74.6325 181.106 74.5657 181.171C74.499 181.237 74.46 181.326 74.4566 181.42Z" fill="#BA6542"/>
<path d="M94.0148 194.548C94.1725 193.882 94.192 193.191 94.0723 192.518C93.9525 191.844 93.696 191.202 93.3185 190.631C93.0689 190.251 92.4426 190.605 92.7054 190.99C93.0333 191.48 93.2577 192.031 93.3646 192.611C93.4716 193.19 93.4589 193.786 93.3273 194.36C93.2222 194.797 93.9097 194.994 94.0148 194.548Z" fill="#BA6542"/>
<path d="M94.4528 173.91C94.587 174.529 94.9133 175.089 95.3852 175.511C95.8571 175.933 96.4504 176.195 97.0804 176.26C97.1745 176.26 97.2647 176.223 97.3312 176.157C97.3977 176.09 97.4351 176 97.4351 175.906C97.4329 175.812 97.395 175.723 97.3291 175.656C97.2631 175.589 97.1742 175.55 97.0804 175.547C97.0585 175.547 96.9797 175.547 97.0454 175.547H96.949L96.7607 175.503L96.5724 175.442L96.4848 175.407C96.5505 175.433 96.4848 175.407 96.4498 175.407C96.3304 175.353 96.216 175.289 96.1082 175.215L96.0293 175.162C96.0293 175.162 95.9505 175.101 95.9987 175.14C95.9417 175.096 95.8892 175.048 95.8366 175C95.7409 174.912 95.6517 174.817 95.5695 174.716L95.5432 174.676L95.4863 174.598L95.3812 174.431C95.3505 174.374 95.3199 174.317 95.2936 174.261C95.2673 174.204 95.2498 174.164 95.2629 174.199C95.2761 174.234 95.263 174.147 95.2411 174.138C95.1933 174.01 95.1567 173.878 95.1316 173.744C95.105 173.654 95.0446 173.578 94.9629 173.531C94.8813 173.485 94.7847 173.472 94.6936 173.495C94.6041 173.522 94.5284 173.583 94.482 173.664C94.4356 173.745 94.422 173.841 94.444 173.932L94.4528 173.91Z" fill="#BA6542"/>
<path d="M84.2664 169.526C84.0612 170.14 84.0179 170.797 84.1406 171.434C84.2633 172.07 84.548 172.664 84.9671 173.158C85.0339 173.225 85.1244 173.262 85.2189 173.262C85.3133 173.262 85.4039 173.225 85.4707 173.158C85.5375 173.091 85.575 173.001 85.575 172.906C85.575 172.812 85.5375 172.721 85.4707 172.655C85.1407 172.249 84.92 171.766 84.8295 171.251C84.739 170.737 84.7819 170.207 84.954 169.714C84.9666 169.669 84.9701 169.622 84.9643 169.575C84.9586 169.529 84.9437 169.484 84.9205 169.443C84.8972 169.402 84.8662 169.367 84.8291 169.338C84.792 169.31 84.7496 169.289 84.7043 169.276C84.6133 169.254 84.5173 169.268 84.4359 169.314C84.3545 169.361 84.2939 169.436 84.2664 169.526Z" fill="#BA6542"/>
<path d="M88.2603 162.423C88.1652 161.979 88.17 161.52 88.2746 161.078C88.3791 160.636 88.5807 160.222 88.8647 159.868C88.9297 159.8 88.9661 159.71 88.9661 159.616C88.9661 159.522 88.9297 159.432 88.8647 159.365C88.8317 159.331 88.7925 159.305 88.7493 159.287C88.7061 159.269 88.6597 159.26 88.6129 159.26C88.5661 159.26 88.5197 159.269 88.4765 159.287C88.4333 159.305 88.394 159.331 88.3611 159.365C87.9917 159.811 87.7289 160.336 87.5923 160.9C87.4557 161.463 87.4491 162.05 87.5728 162.616C87.5811 162.666 87.5998 162.713 87.6276 162.755C87.6554 162.797 87.6918 162.833 87.7344 162.86C87.7769 162.887 87.8247 162.905 87.8746 162.912C87.9245 162.919 87.9753 162.916 88.0239 162.902C88.0724 162.889 88.1176 162.865 88.1564 162.833C88.1952 162.801 88.2267 162.761 88.249 162.716C88.2713 162.67 88.2839 162.621 88.2858 162.571C88.2878 162.52 88.2791 162.47 88.2603 162.423Z" fill="#BA6542"/>
<path d="M86.0094 189.481L86.4736 186.225C86.4945 186.134 86.4804 186.038 86.4342 185.957C86.3879 185.876 86.3129 185.816 86.224 185.787C86.1328 185.763 86.0358 185.776 85.9538 185.822C85.8719 185.869 85.8116 185.946 85.786 186.037L85.3218 189.297C85.2998 189.388 85.3134 189.484 85.3598 189.565C85.4062 189.646 85.4819 189.707 85.5714 189.734C85.6626 189.759 85.7596 189.746 85.8416 189.699C85.9235 189.653 85.9838 189.576 86.0094 189.485V189.481Z" fill="#BA6542"/>
<path d="M58.7391 144.455L59.1069 142.267C59.1289 142.176 59.1153 142.08 59.0689 141.999C59.0225 141.918 58.9468 141.857 58.8573 141.83C58.7662 141.807 58.6697 141.82 58.588 141.866C58.5064 141.913 58.4459 141.989 58.4194 142.079L58.0515 144.267C58.0284 144.358 58.0415 144.455 58.0881 144.536C58.1346 144.618 58.211 144.678 58.3011 144.705C58.3923 144.729 58.4893 144.716 58.5713 144.67C58.6532 144.623 58.7135 144.546 58.7391 144.455Z" fill="#BA6542"/>
<path d="M71.8903 145.567L72.6129 143.751C72.6255 143.706 72.6291 143.659 72.6233 143.612C72.6176 143.566 72.6027 143.521 72.5795 143.48C72.5563 143.439 72.5252 143.404 72.4881 143.375C72.451 143.346 72.4086 143.325 72.3633 143.313C72.2728 143.29 72.1768 143.302 72.0952 143.348C72.0137 143.394 71.9528 143.469 71.9254 143.558L71.2027 145.379C71.1901 145.424 71.1866 145.471 71.1923 145.517C71.1981 145.564 71.213 145.609 71.2362 145.65C71.2594 145.69 71.2905 145.726 71.3276 145.755C71.3647 145.783 71.4071 145.804 71.4524 145.816C71.5434 145.837 71.6389 145.823 71.72 145.777C71.8011 145.731 71.8619 145.656 71.8903 145.567Z" fill="#BA6542"/>
<path d="M72.267 132.027V129.126C72.2572 129.038 72.2154 128.957 72.1496 128.898C72.0837 128.839 71.9984 128.807 71.91 128.807C71.8216 128.807 71.7364 128.839 71.6705 128.898C71.6046 128.957 71.5628 129.038 71.5531 129.126V132.027C71.5628 132.115 71.6046 132.196 71.6705 132.255C71.7364 132.314 71.8216 132.346 71.91 132.346C71.9984 132.346 72.0837 132.314 72.1496 132.255C72.2154 132.196 72.2572 132.115 72.267 132.027Z" fill="#BA6542"/>
<path d="M95.46 128.133C95.4119 128.255 95.46 128.133 95.4863 128.089C95.5085 128.046 95.5334 128.006 95.5608 127.966C95.5608 127.936 95.6221 127.852 95.6527 127.839L95.6265 127.874L95.6527 127.835L95.7009 127.782C95.8587 127.598 96.0315 127.427 96.2177 127.27L96.3534 127.157C96.2834 127.214 96.3534 127.157 96.3797 127.157L96.4542 127.104C96.5471 127.036 96.6436 126.974 96.7432 126.916L96.879 126.846C96.879 126.846 96.949 126.824 96.9622 126.807C96.8921 126.833 96.9753 126.789 96.9622 126.807L97.0936 126.763H97.1461C97.0804 126.763 97.2381 126.737 97.1461 126.763C97.2406 126.761 97.3307 126.722 97.3976 126.655C97.4644 126.588 97.503 126.498 97.5052 126.404C97.5041 126.31 97.4657 126.219 97.3985 126.153C97.3313 126.087 97.2406 126.05 97.1461 126.05C96.6192 126.149 96.1333 126.402 95.7491 126.776C95.3356 127.09 95.0049 127.5 94.7856 127.971C94.773 128.016 94.7695 128.063 94.7752 128.109C94.781 128.156 94.7959 128.201 94.8191 128.241C94.8423 128.282 94.8734 128.318 94.9105 128.346C94.9476 128.375 94.99 128.396 95.0352 128.408C95.1263 128.43 95.2223 128.417 95.3037 128.37C95.3851 128.324 95.4457 128.248 95.4732 128.159L95.46 128.133Z" fill="#BA6542"/>
<path d="M60.7755 114.182C60.267 115.64 60.1895 117.214 60.5522 118.715C60.6573 119.153 61.3492 118.974 61.2397 118.527C60.9118 117.15 60.9894 115.708 61.463 114.374C61.6163 113.937 60.9244 113.753 60.7755 114.182Z" fill="#BA6542"/>
<path d="M67.5416 121.499V118.234C67.5318 118.146 67.49 118.065 67.4242 118.006C67.3583 117.947 67.2731 117.915 67.1847 117.915C67.0963 117.915 67.011 117.947 66.9452 118.006C66.8793 118.065 66.8375 118.146 66.8278 118.234V121.499C66.8375 121.586 66.8793 121.667 66.9452 121.726C67.011 121.785 67.0963 121.818 67.1847 121.818C67.2731 121.818 67.3583 121.785 67.4242 121.726C67.49 121.667 67.5318 121.586 67.5416 121.499Z" fill="#BA6542"/>
<path d="M69.0175 110.038C68.9931 110.381 69.0615 110.725 69.2156 111.033C69.3697 111.341 69.6038 111.601 69.8933 111.788C69.9336 111.812 69.9781 111.827 70.0243 111.834C70.0705 111.84 70.1176 111.837 70.1627 111.825C70.2079 111.814 70.2503 111.793 70.2875 111.765C70.3247 111.737 70.3559 111.701 70.3794 111.661C70.4249 111.579 70.4371 111.483 70.4134 111.393C70.3898 111.302 70.3321 111.224 70.2524 111.175L70.1648 111.114C70.1211 111.084 70.1648 111.114 70.1648 111.114C70.1648 111.114 70.1342 111.088 70.1254 111.079C70.1167 111.07 70.0291 110.992 69.9853 110.943L69.9503 110.904C69.9021 110.843 69.9503 110.904 69.9503 110.904C69.9503 110.904 69.9984 110.965 69.9503 110.904L69.9196 110.86C69.8804 110.803 69.8453 110.743 69.8145 110.681V110.642C69.7882 110.593 69.8145 110.642 69.8145 110.642C69.8048 110.61 69.7931 110.58 69.7795 110.55C69.7573 110.485 69.7398 110.42 69.7269 110.353C69.729 110.34 69.729 110.326 69.7269 110.313C69.7269 110.23 69.7269 110.313 69.7269 110.313C69.7269 110.313 69.7269 110.396 69.7269 110.313V110.27C69.7225 110.198 69.7225 110.127 69.7269 110.055C69.7269 109.961 69.6895 109.871 69.623 109.805C69.5565 109.738 69.4663 109.701 69.3722 109.701C69.2785 109.702 69.1889 109.74 69.1226 109.806C69.0564 109.872 69.0186 109.961 69.0175 110.055V110.038Z" fill="#BA6542"/>
<path d="M84.6693 126.404C85.2632 127.465 85.63 128.638 85.7466 129.848C85.7564 129.936 85.7982 130.017 85.864 130.076C85.9299 130.135 86.0152 130.167 86.1036 130.167C86.1919 130.167 86.2772 130.135 86.3431 130.076C86.4089 130.017 86.4507 129.936 86.4605 129.848C86.3403 128.511 85.9404 127.214 85.2868 126.041C85.0634 125.643 84.4459 126.002 84.6693 126.404Z" fill="#BA6542"/>
<path d="M89.0486 116.781V120.046C89.0584 120.133 89.1002 120.215 89.166 120.274C89.2319 120.332 89.3172 120.365 89.4055 120.365C89.4939 120.365 89.5792 120.332 89.6451 120.274C89.7109 120.215 89.7527 120.133 89.7625 120.046V116.781C89.7527 116.693 89.7109 116.612 89.6451 116.553C89.5792 116.494 89.4939 116.462 89.4055 116.462C89.3172 116.462 89.2319 116.494 89.166 116.553C89.1002 116.612 89.0584 116.693 89.0486 116.781Z" fill="#BA6542"/>
<path d="M86.964 108.852C87.0311 108.847 87.0984 108.847 87.1655 108.852H87.1305C87.1305 108.852 87.1699 108.852 87.183 108.852L87.2794 108.874C87.3451 108.874 87.402 108.913 87.4633 108.935C87.3582 108.9 87.4633 108.935 87.4896 108.935L87.5772 108.983L87.656 109.031L87.6998 109.062C87.6998 109.062 87.7567 109.105 87.6998 109.062C87.6428 109.018 87.6998 109.062 87.6998 109.062L87.7392 109.092L87.8049 109.158L87.875 109.232C87.8827 109.246 87.8932 109.258 87.9056 109.267C87.8531 109.193 87.9319 109.302 87.9056 109.267C87.9448 109.322 87.9799 109.379 88.0107 109.438C88.0591 109.52 88.1378 109.579 88.2297 109.603C88.3216 109.626 88.4193 109.613 88.5012 109.565C88.5809 109.516 88.6386 109.438 88.6622 109.348C88.6859 109.257 88.6737 109.161 88.6282 109.079C88.4639 108.781 88.2213 108.533 87.9265 108.363C87.6316 108.193 87.2958 108.106 86.9553 108.112C86.8616 108.113 86.772 108.151 86.7057 108.217C86.6394 108.283 86.6017 108.373 86.6006 108.467C86.6027 108.56 86.6407 108.65 86.7066 108.716C86.7726 108.783 86.8615 108.822 86.9553 108.825L86.964 108.852Z" fill="#BA6542"/>
<path d="M95.5433 112.077L95.517 111.95C95.5188 111.93 95.5188 111.909 95.517 111.889C95.517 111.933 95.517 111.933 95.517 111.889V111.666C95.5126 111.583 95.5126 111.499 95.517 111.416C95.5148 111.386 95.5148 111.355 95.517 111.324C95.517 111.407 95.517 111.276 95.517 111.263C95.5503 111.114 95.5942 110.968 95.6484 110.825V110.795C95.6484 110.76 95.6878 110.72 95.7053 110.685C95.7228 110.65 95.7885 110.537 95.8323 110.467C95.8559 110.426 95.8714 110.382 95.8778 110.336C95.8842 110.29 95.8815 110.243 95.8697 110.197C95.8579 110.152 95.8373 110.11 95.8091 110.073C95.7809 110.036 95.7456 110.004 95.7053 109.981C95.6237 109.934 95.5272 109.922 95.4363 109.945C95.3454 109.969 95.2675 110.027 95.2192 110.108C95.0106 110.428 94.869 110.786 94.8027 111.162C94.7365 111.538 94.7471 111.924 94.8338 112.296C94.8594 112.387 94.9197 112.464 95.0016 112.51C95.0836 112.557 95.1806 112.569 95.2717 112.545C95.3619 112.519 95.4383 112.458 95.4848 112.377C95.5313 112.295 95.5444 112.199 95.5214 112.108L95.5433 112.077Z" fill="#BA6542"/>
<path d="M76.6025 124.295C76.6705 125.135 76.8276 125.965 77.0711 126.772C77.0835 126.817 77.1046 126.859 77.1333 126.896C77.162 126.933 77.1977 126.964 77.2384 126.987C77.279 127.01 77.3239 127.025 77.3703 127.031C77.4168 127.037 77.4639 127.034 77.5091 127.021C77.5542 127.009 77.5965 126.988 77.6334 126.959C77.6704 126.93 77.7014 126.895 77.7246 126.854C77.7477 126.813 77.7627 126.769 77.7685 126.722C77.7744 126.676 77.771 126.629 77.7587 126.584C77.5305 125.839 77.3836 125.071 77.3207 124.295C77.3174 124.201 77.2784 124.112 77.2116 124.046C77.1449 123.981 77.0554 123.943 76.9616 123.94C76.8679 123.942 76.7783 123.979 76.712 124.046C76.6458 124.112 76.608 124.201 76.6069 124.295H76.6025Z" fill="#BA6542"/>
<path d="M66.6395 138.688C66.752 139.554 66.5483 140.432 66.0657 141.16C66.0191 141.242 66.0063 141.338 66.0301 141.429C66.0538 141.52 66.1122 141.598 66.1927 141.646C66.233 141.67 66.2775 141.685 66.3237 141.691C66.37 141.698 66.417 141.695 66.4622 141.683C66.5073 141.671 66.5497 141.651 66.5869 141.623C66.6241 141.595 66.6553 141.559 66.6789 141.519C67.232 140.685 67.471 139.681 67.3533 138.688C67.3511 138.594 67.313 138.506 67.247 138.44C67.1809 138.374 67.092 138.335 66.9986 138.333C66.9041 138.333 66.8134 138.37 66.7462 138.437C66.6789 138.503 66.6406 138.593 66.6395 138.688Z" fill="#BA6542"/>
<path d="M83.3248 151.663C83.3497 151.56 83.3819 151.459 83.4212 151.361C83.3949 151.413 83.4475 151.282 83.4212 151.361L83.4562 151.286L83.5307 151.151C83.5569 151.103 83.5876 151.059 83.6139 151.015L83.662 150.95C83.6226 150.998 83.7058 150.884 83.662 150.95C83.7319 150.864 83.8064 150.782 83.8854 150.704L84.0036 150.599L84.0343 150.578L84.1 150.534C84.1856 150.471 84.2764 150.415 84.3715 150.368L84.4415 150.332H84.481H84.5248L84.5992 150.306C84.7049 150.271 84.8133 150.245 84.9233 150.227C84.9682 150.215 85.0101 150.194 85.0467 150.165C85.0833 150.136 85.1139 150.1 85.1367 150.059C85.1594 150.019 85.174 149.974 85.1794 149.928C85.1849 149.882 85.1812 149.835 85.1685 149.79C85.142 149.7 85.0815 149.623 84.9999 149.577C84.9182 149.53 84.8217 149.517 84.7306 149.54C84.2308 149.637 83.7688 149.874 83.3989 150.224C83.0289 150.573 82.7663 151.021 82.6416 151.514C82.6229 151.561 82.6142 151.611 82.6162 151.661C82.6181 151.712 82.6306 151.761 82.653 151.806C82.6753 151.851 82.7068 151.891 82.7456 151.924C82.7844 151.956 82.8295 151.979 82.8781 151.993C82.9266 152.007 82.9775 152.01 83.0274 152.002C83.0773 151.995 83.125 151.977 83.1676 151.95C83.2102 151.923 83.2465 151.888 83.2744 151.846C83.3022 151.804 83.3209 151.756 83.3292 151.707L83.3248 151.663Z" fill="#BA6542"/>
<path d="M78.4593 163.478L78.4856 163.548L78.525 163.653L78.6039 163.898C78.6491 164.053 78.6857 164.211 78.7134 164.371C78.7158 164.407 78.7158 164.444 78.7134 164.48V164.55C78.7134 164.629 78.7134 164.708 78.7134 164.791C78.7221 164.963 78.7221 165.135 78.7134 165.307C78.7134 165.402 78.7506 165.492 78.817 165.559C78.8834 165.627 78.9736 165.665 79.0681 165.666C79.1626 165.664 79.2527 165.625 79.3195 165.558C79.3864 165.492 79.425 165.402 79.4272 165.307C79.454 164.556 79.3118 163.808 79.0112 163.119C78.9628 163.038 78.884 162.978 78.7921 162.955C78.7002 162.931 78.6026 162.944 78.5207 162.992C78.441 163.041 78.3833 163.119 78.3596 163.21C78.336 163.3 78.3482 163.396 78.3936 163.478H78.4593Z" fill="#BA6542"/>
<path d="M70.6072 172.847C70.0053 173.508 69.6069 174.329 69.4598 175.21C69.4389 175.301 69.453 175.397 69.4992 175.478C69.5454 175.559 69.6205 175.619 69.7094 175.648C69.8005 175.67 69.8965 175.656 69.9779 175.61C70.0592 175.563 70.1199 175.488 70.1474 175.398C70.1781 175.2 70.222 175.004 70.2787 174.812C70.3311 174.638 70.397 174.468 70.4758 174.304C70.5595 174.129 70.6545 173.96 70.7605 173.797C70.7907 173.758 70.8185 173.717 70.8437 173.674L70.8962 173.604L70.9269 173.565L71.1065 173.35C71.1732 173.284 71.2108 173.193 71.2108 173.099C71.2108 173.004 71.1732 172.914 71.1065 172.847C71.0397 172.78 70.9491 172.743 70.8546 172.743C70.7602 172.743 70.6696 172.78 70.6028 172.847H70.6072Z" fill="#BA6542"/>
<path d="M77.5484 190.535L78.074 188.899C78.0866 188.854 78.0904 188.807 78.0849 188.761C78.0794 188.714 78.0649 188.67 78.0421 188.629C78.0193 188.588 77.9888 188.553 77.9522 188.524C77.9155 188.495 77.8736 188.474 77.8287 188.461C77.7377 188.439 77.6416 188.453 77.5603 188.499C77.4789 188.545 77.4183 188.621 77.3908 188.71L76.8652 190.343C76.8421 190.434 76.8553 190.53 76.9018 190.612C76.9483 190.693 77.0247 190.754 77.1149 190.78C77.2059 190.802 77.3019 190.789 77.3833 190.742C77.4647 190.696 77.5253 190.62 77.5528 190.531L77.5484 190.535Z" fill="#BA6542"/>
<path d="M94.5623 164.161C94.5623 164.27 94.5622 164.261 94.5929 164.375C94.6235 164.489 94.5929 164.559 94.5929 164.651C94.6037 164.82 94.6037 164.989 94.5929 165.158C94.589 165.223 94.5803 165.287 94.5666 165.351C94.5666 165.434 94.536 165.517 94.5185 165.6C94.4778 165.779 94.4236 165.955 94.3564 166.125C94.3322 166.217 94.3448 166.314 94.3915 166.395C94.4382 166.477 94.5153 166.538 94.606 166.563C94.697 166.584 94.7926 166.57 94.8737 166.524C94.9548 166.477 95.0156 166.403 95.044 166.314C95.3171 165.565 95.3881 164.757 95.2498 163.972C95.2376 163.927 95.2166 163.885 95.188 163.848C95.1593 163.811 95.1236 163.78 95.0829 163.756C95.0422 163.733 94.9973 163.718 94.9507 163.713C94.9042 163.707 94.857 163.71 94.8119 163.723C94.7229 163.751 94.6479 163.812 94.6017 163.893C94.5554 163.974 94.5414 164.07 94.5623 164.161Z" fill="#BA6542"/>
<path d="M89.6443 178.151C89.5891 178.775 89.6334 179.405 89.7756 180.015C89.8012 180.106 89.8615 180.183 89.9434 180.23C90.0254 180.276 90.1224 180.289 90.2135 180.265C90.3037 180.238 90.38 180.178 90.4266 180.096C90.4731 180.015 90.4862 179.918 90.4631 179.827C90.4325 179.683 90.4062 179.543 90.3843 179.389C90.3624 179.236 90.3843 179.429 90.3843 179.35V179.232C90.3843 179.162 90.3843 179.088 90.3843 179.018C90.3624 178.726 90.3624 178.434 90.3843 178.142C90.3843 178.048 90.3469 177.958 90.2804 177.892C90.2139 177.825 90.1237 177.788 90.0296 177.788C89.9358 177.79 89.8464 177.828 89.7796 177.894C89.7129 177.96 89.6738 178.049 89.6705 178.142L89.6443 178.151Z" fill="#BA6542"/>
<path d="M89.7931 140.189C89.7866 140.081 89.7866 139.973 89.7931 139.865C89.7931 139.839 89.7931 139.817 89.7931 139.79C89.7931 139.764 89.7931 139.716 89.7931 139.742V139.677V139.602C89.8165 139.497 89.8428 139.392 89.8719 139.287L89.9245 139.143L89.9508 139.073C89.977 139.007 89.9157 139.147 89.9508 139.038C90.0362 138.846 90.1404 138.662 90.2617 138.491L90.288 138.456L90.3318 138.399L90.4325 138.281C90.5113 138.198 90.5945 138.119 90.6777 138.044C90.7161 138.013 90.7475 137.973 90.7698 137.929C90.7922 137.884 90.805 137.835 90.8074 137.786C90.8098 137.736 90.8019 137.686 90.7841 137.64C90.7662 137.593 90.7389 137.551 90.7038 137.515C90.6687 137.48 90.6266 137.452 90.5801 137.434C90.5337 137.416 90.4841 137.407 90.4342 137.409C90.3844 137.411 90.3355 137.424 90.2907 137.446C90.246 137.468 90.2063 137.499 90.1741 137.537C89.8027 137.871 89.5069 138.28 89.3068 138.737C89.1066 139.195 89.0066 139.69 89.0136 140.189C89.0158 140.283 89.0545 140.372 89.1215 140.438C89.1885 140.504 89.2786 140.542 89.3727 140.543C89.4664 140.542 89.556 140.504 89.6223 140.438C89.6885 140.372 89.7263 140.282 89.7274 140.189H89.7931Z" fill="#BA6542"/>
<path d="M75.223 152.674C75.2624 152.748 75.3018 152.827 75.3369 152.905L75.3631 152.971C75.3631 153.01 75.3631 153.015 75.3631 152.971L75.4026 153.072C75.4639 153.229 75.5208 153.391 75.569 153.553C75.6171 153.715 75.6566 153.881 75.6916 154.052C75.6916 154.135 75.7222 154.218 75.7354 154.301C75.7354 154.301 75.7354 154.415 75.7354 154.35C75.7354 154.398 75.7354 154.446 75.7354 154.498C75.7376 154.592 75.7757 154.681 75.8418 154.747C75.9078 154.813 75.9967 154.851 76.0901 154.853C76.2697 154.853 76.4711 154.695 76.4492 154.498C76.3685 153.736 76.1505 152.995 75.8055 152.31C75.7819 152.27 75.7507 152.235 75.7135 152.207C75.6763 152.178 75.6339 152.158 75.5888 152.146C75.5436 152.134 75.4966 152.131 75.4503 152.138C75.4041 152.144 75.3596 152.16 75.3194 152.183C75.2398 152.232 75.1819 152.31 75.1575 152.4C75.1331 152.491 75.1439 152.587 75.188 152.669L75.223 152.674Z" fill="#BA6542"/>
<path d="M53.3482 149.667C53.3311 150.097 53.4371 150.522 53.6535 150.893C53.8699 151.265 54.1879 151.566 54.57 151.763C54.6523 151.808 54.7489 151.82 54.8395 151.796C54.9301 151.771 55.0077 151.713 55.0561 151.632C55.0797 151.592 55.0952 151.547 55.1016 151.501C55.1081 151.455 55.1053 151.408 55.0935 151.363C55.0817 151.318 55.0611 151.275 55.0329 151.238C55.0047 151.201 54.9694 151.17 54.9291 151.146C54.8517 151.108 54.7771 151.064 54.7058 151.015L54.6532 150.98C54.6138 150.954 54.7014 151.024 54.6532 150.98L54.5525 150.893C54.4902 150.832 54.4317 150.768 54.3773 150.7L54.3379 150.648L54.2678 150.538C54.2459 150.499 54.2284 150.459 54.2065 150.424C54.2001 150.408 54.1928 150.392 54.1846 150.376C54.187 150.365 54.187 150.353 54.1846 150.341C54.1846 150.315 54.1846 150.341 54.1846 150.341C54.1725 150.3 54.1579 150.259 54.1408 150.219C54.1272 150.183 54.1155 150.146 54.1058 150.109C54.1058 150.066 54.0839 150.022 54.0795 149.982C54.0775 149.961 54.0775 149.939 54.0795 149.917C54.0795 149.947 54.0795 150 54.0795 149.917C54.073 149.825 54.073 149.733 54.0795 149.641C54.0698 149.553 54.028 149.472 53.9621 149.413C53.8963 149.354 53.811 149.322 53.7226 149.322C53.6342 149.322 53.549 149.354 53.4831 149.413C53.4173 149.472 53.3755 149.553 53.3657 149.641L53.3482 149.667Z" fill="#BA6542"/>
<path d="M63.3287 149.475C63.3287 149.343 63.3287 149.212 63.3287 149.081C63.3287 149.011 63.3287 148.941 63.3287 148.871C63.3287 148.801 63.3287 148.809 63.3287 148.779C63.3287 148.748 63.3287 148.656 63.3287 148.704C63.3268 148.681 63.3268 148.658 63.3287 148.634V148.543L63.3681 148.35C63.3994 148.218 63.4374 148.088 63.482 147.961C63.5007 147.914 63.5094 147.864 63.5075 147.813C63.5055 147.763 63.493 147.714 63.4707 147.668C63.4484 147.623 63.4168 147.583 63.378 147.551C63.3392 147.519 63.2941 147.495 63.2455 147.482C63.197 147.468 63.1461 147.465 63.0962 147.472C63.0464 147.479 62.9986 147.497 62.956 147.524C62.9135 147.551 62.8771 147.587 62.8492 147.629C62.8214 147.671 62.8027 147.718 62.7944 147.768C62.611 148.317 62.5308 148.896 62.5579 149.475C62.5677 149.562 62.6094 149.644 62.6753 149.702C62.7412 149.761 62.8264 149.794 62.9148 149.794C63.0032 149.794 63.0885 149.761 63.1544 149.702C63.2202 149.644 63.262 149.562 63.2718 149.475H63.3287Z" fill="#BA6542"/>
<path d="M66.6701 155.032C66.7138 155.101 66.7533 155.173 66.7884 155.247L66.8409 155.347L66.8672 155.409C66.8672 155.374 66.8672 155.374 66.8672 155.409C66.9234 155.552 66.9716 155.698 67.0117 155.846C67.0117 155.921 67.0424 155.995 67.0599 156.069C67.0774 156.144 67.0599 156.157 67.0599 156.201C67.0599 156.135 67.0599 156.201 67.0599 156.236C67.0709 156.399 67.0709 156.563 67.0599 156.726C67.061 156.819 67.0988 156.909 67.165 156.975C67.2313 157.041 67.3209 157.079 67.4146 157.08C67.5084 157.078 67.5979 157.04 67.6646 156.974C67.7314 156.908 67.7704 156.819 67.7737 156.726C67.803 156.004 67.622 155.29 67.2526 154.669C67.2035 154.589 67.1255 154.532 67.035 154.508C66.9444 154.484 66.8483 154.497 66.7665 154.542C66.6857 154.591 66.627 154.67 66.6026 154.761C66.5781 154.852 66.5898 154.949 66.6351 155.032H66.6701Z" fill="#BA6542"/>
<path d="M79.2651 176.698C79.1452 177.438 79.2634 178.197 79.6026 178.865C79.9418 179.534 80.4845 180.077 81.1527 180.418C81.2345 180.463 81.3307 180.475 81.4212 180.452C81.5118 180.428 81.5897 180.37 81.6388 180.291C81.6624 180.251 81.6779 180.206 81.6843 180.16C81.6908 180.114 81.688 180.067 81.6762 180.022C81.6644 179.977 81.6438 179.934 81.6156 179.897C81.5874 179.86 81.5521 179.829 81.5118 179.805C80.9789 179.543 80.5418 179.12 80.2621 178.596C79.9824 178.073 79.8741 177.475 79.9527 176.886C79.9651 176.841 79.9684 176.794 79.9626 176.748C79.9567 176.701 79.9418 176.656 79.9186 176.616C79.8954 176.575 79.8644 176.54 79.8275 176.511C79.7905 176.482 79.7482 176.461 79.7031 176.449C79.6579 176.436 79.6108 176.433 79.5643 176.439C79.5179 176.445 79.4731 176.46 79.4324 176.483C79.3917 176.506 79.356 176.537 79.3273 176.574C79.2986 176.611 79.2775 176.653 79.2651 176.698Z" fill="#BA6542"/>
<path d="M96.0556 152.17C96.7494 152.138 97.4164 151.893 97.9652 151.468C98.514 151.042 98.9177 150.458 99.1211 149.794C99.1335 149.749 99.1368 149.702 99.131 149.655C99.1251 149.609 99.1102 149.564 99.087 149.524C99.0638 149.483 99.0329 149.447 98.9959 149.419C98.9589 149.39 98.9166 149.369 98.8715 149.356C98.8264 149.344 98.7792 149.341 98.7328 149.347C98.6863 149.352 98.6415 149.367 98.6008 149.39C98.5602 149.414 98.5245 149.445 98.4958 149.482C98.4671 149.518 98.4459 149.561 98.4336 149.606C98.2749 150.122 97.9611 150.576 97.5348 150.907C97.1086 151.238 96.5905 151.43 96.0512 151.457C95.9575 151.458 95.8679 151.496 95.8016 151.562C95.7353 151.628 95.6976 151.718 95.6965 151.811C95.6976 151.905 95.7352 151.995 95.8013 152.062C95.8675 152.129 95.9571 152.168 96.0512 152.17H96.0556Z" fill="#BA6542"/>
<path d="M102.962 143.856L103.19 145.011C103.202 145.056 103.223 145.099 103.251 145.136C103.28 145.173 103.316 145.204 103.356 145.227C103.397 145.25 103.442 145.265 103.489 145.271C103.535 145.277 103.582 145.273 103.628 145.26C103.718 145.234 103.794 145.174 103.841 145.092C103.887 145.01 103.9 144.914 103.877 144.823L103.649 143.668C103.624 143.577 103.564 143.499 103.482 143.452C103.4 143.405 103.303 143.393 103.211 143.418C103.12 143.443 103.043 143.503 102.996 143.585C102.949 143.667 102.937 143.765 102.962 143.856Z" fill="#BA6542"/>
<path d="M100.527 121.555C100.708 122.265 101.117 122.895 101.692 123.35C101.76 123.413 101.848 123.45 101.941 123.455C102.037 123.454 102.128 123.416 102.195 123.35C102.262 123.282 102.299 123.192 102.299 123.098C102.299 123.004 102.262 122.913 102.195 122.846C102.069 122.748 101.95 122.639 101.841 122.522C101.781 122.468 101.728 122.406 101.683 122.339C101.683 122.374 101.709 122.374 101.683 122.339C101.671 122.325 101.661 122.31 101.652 122.295L101.578 122.19C101.49 122.05 101.412 121.904 101.346 121.752C101.348 121.736 101.348 121.72 101.346 121.704C101.346 121.735 101.385 121.757 101.346 121.704L101.306 121.595C101.277 121.515 101.252 121.433 101.232 121.35C101.205 121.26 101.145 121.183 101.063 121.137C100.982 121.09 100.885 121.077 100.794 121.1C100.703 121.126 100.626 121.186 100.58 121.268C100.533 121.35 100.52 121.447 100.544 121.538L100.527 121.555Z" fill="#BA6542"/>
<path d="M75.9632 135.471C74.1282 136.154 72.4596 137.519 72.1005 138.81C71.4305 141.34 74.6143 142.057 76.4799 141.436C77.6071 141.015 78.6313 140.359 79.4842 139.51C80.3163 138.745 81.5031 137.322 80.6973 136.158C79.725 134.784 77.7718 134.789 75.9632 135.471Z" fill="#FAC7B7"/>
<path d="M76.839 136.154C75.639 136.784 74.1325 137.305 73.4932 138.613C73.338 138.867 73.2847 139.17 73.344 139.462C73.4033 139.753 73.5708 140.011 73.8129 140.184C74.3982 140.534 75.0921 140.656 75.7617 140.526C76.4769 140.436 77.1659 140.2 77.786 139.832C78.406 139.465 78.9438 138.974 79.3659 138.39C79.6418 137.952 79.8257 137.327 79.3921 136.937C79.2218 136.826 79.0239 136.764 78.8206 136.759C78.6172 136.754 78.4164 136.805 78.2404 136.907C77.7195 137.131 77.2317 137.425 76.7908 137.782C76.4295 138.029 76.1026 138.324 75.8186 138.657C75.7793 138.745 75.7738 138.844 75.8033 138.936C75.8328 139.027 75.8952 139.104 75.9783 139.153C76.0615 139.201 76.1597 139.217 76.2539 139.197C76.3481 139.178 76.4317 139.124 76.4886 139.046C76.4054 139.16 76.5149 139.025 76.5368 139.003C76.574 138.961 76.6135 138.922 76.6551 138.885C76.7864 138.762 76.9178 138.648 77.0579 138.534C77.3537 138.29 77.667 138.068 77.9951 137.869C78.1545 137.769 78.3214 137.681 78.4944 137.607L78.652 137.55L78.7703 137.515C78.7703 137.515 78.8929 137.493 78.8097 137.515H78.906C78.8009 137.515 78.906 137.515 78.906 137.515C78.906 137.515 78.8272 137.471 78.8447 137.467C78.8622 137.462 78.871 137.515 78.8447 137.559C78.8329 137.648 78.8031 137.735 78.7571 137.812C78.2535 138.766 77.1455 139.357 76.1295 139.628C75.6188 139.789 75.074 139.809 74.553 139.685C74.3822 139.637 74.115 139.55 74.0537 139.366C74.0372 139.291 74.036 139.214 74.0503 139.139C74.0646 139.063 74.0941 138.992 74.1369 138.928C74.7413 137.786 76.0945 137.37 77.1762 136.797C77.6141 136.565 77.2287 135.896 76.7864 136.132L76.839 136.154Z" fill="white"/>
<path d="M67.7474 156.914C65.9957 156.039 63.8411 155.759 62.663 156.397C60.3639 157.645 62.0236 160.45 63.7447 161.377C64.825 161.909 66.0054 162.207 67.2088 162.253C68.3387 162.331 70.1999 162.209 70.4845 160.835C70.8217 159.176 69.4773 157.763 67.7474 156.914Z" fill="#F1673C"/>
<path d="M67.8394 158.021C66.5562 157.584 65.238 156.905 63.8498 157.255C63.5805 157.295 63.3324 157.424 63.1457 157.621C62.9589 157.819 62.8444 158.074 62.8206 158.345C62.7943 159.102 63.368 159.802 63.933 160.249C64.4899 160.701 65.1331 161.036 65.8235 161.232C66.5139 161.428 67.237 161.482 67.9489 161.391C68.4306 161.308 69.0262 161.014 69.0262 160.445C69.0262 160.008 68.6408 159.732 68.2861 159.57C67.7694 159.353 67.2259 159.206 66.6701 159.133C66.2511 159.036 65.8208 158.998 65.3913 159.019C65.2893 159.023 65.1927 159.066 65.1205 159.138C65.0483 159.21 65.0059 159.306 65.0016 159.408C65.0027 159.511 65.0443 159.609 65.1172 159.681C65.1902 159.753 65.2887 159.793 65.3913 159.793C66.0535 159.763 66.7157 159.855 67.3445 160.065C67.5268 160.111 67.7053 160.171 67.8788 160.244C67.9433 160.271 68.0062 160.302 68.0671 160.336L68.1372 160.38C68.216 160.428 68.1635 160.38 68.2029 160.428C68.227 160.449 68.249 160.473 68.2686 160.498C68.1941 160.428 68.2686 160.498 68.2686 160.498C68.2686 160.498 68.2686 160.424 68.2686 160.419C68.2686 160.415 68.2686 160.463 68.2204 160.489C68.1479 160.539 68.0682 160.578 67.9839 160.603C66.9767 160.892 65.7942 160.511 64.9183 159.995C64.375 159.718 63.9345 159.275 63.6615 158.73C63.495 158.319 63.622 158.122 64.0249 158.017C65.2555 157.689 66.4687 158.376 67.6292 158.774C68.1022 158.936 68.3036 158.187 67.835 158.03L67.8394 158.021Z" fill="white"/>
<path d="M96.0556 154.166C94.1199 154.446 92.1843 155.422 91.5711 156.612C90.38 158.944 93.3229 160.319 95.2848 160.113C96.475 159.938 97.615 159.514 98.6306 158.87C99.6029 158.297 101.07 157.12 100.527 155.851C99.8612 154.288 97.9518 153.895 96.0556 154.166Z" fill="#FAC7B7"/>
<path d="M96.7694 155.019C95.4556 155.387 93.8834 155.579 92.9638 156.721C92.7573 156.935 92.6394 157.219 92.6337 157.516C92.628 157.813 92.735 158.101 92.9331 158.323C93.4278 158.788 94.0763 159.054 94.7549 159.071C95.4747 159.141 96.201 159.06 96.8878 158.834C97.5746 158.608 98.2069 158.242 98.7445 157.758C99.1036 157.404 99.4321 156.804 99.0686 156.336C98.9194 156.194 98.7342 156.094 98.5329 156.049C98.3316 156.003 98.1216 156.014 97.9256 156.078C97.37 156.194 96.8324 156.384 96.3271 156.643C95.9332 156.806 95.5634 157.023 95.2279 157.286C94.8513 157.614 95.4031 158.161 95.7753 157.833C95.841 157.776 95.7272 157.863 95.8191 157.802L95.968 157.706C96.1125 157.618 96.2658 157.535 96.4059 157.456C96.7383 157.287 97.0822 157.14 97.4351 157.019C97.7414 156.885 98.0729 156.818 98.4073 156.822C98.3329 156.822 98.5343 156.822 98.4424 156.822C98.4424 156.853 98.4905 156.822 98.4424 156.822C98.4424 156.857 98.473 156.8 98.4424 156.822C98.4117 156.844 98.4686 156.734 98.4424 156.822C98.4161 156.909 98.4905 156.748 98.4424 156.879C98.4088 156.957 98.3646 157.031 98.311 157.098C98.0082 157.434 97.6362 157.701 97.2205 157.881C96.6419 158.15 96.0147 158.299 95.3768 158.319C94.8383 158.371 94.2957 158.275 93.809 158.039C93.4455 157.842 93.2747 157.601 93.5506 157.233C94.3345 156.227 95.841 156.096 96.9753 155.78C97.0668 155.747 97.1423 155.68 97.1868 155.593C97.2314 155.506 97.2417 155.406 97.2159 155.312C97.19 155.218 97.1298 155.137 97.0472 155.085C96.9645 155.033 96.8654 155.015 96.7694 155.032V155.019Z" fill="white"/>
<path d="M97.0059 115.451C95.0659 115.727 93.1346 116.707 92.5215 117.897C91.3303 120.225 94.2732 121.599 96.2351 121.398C97.4253 121.223 98.5653 120.799 99.581 120.155C100.553 119.582 102.02 118.427 101.477 117.136C100.825 115.582 98.9153 115.175 97.0059 115.451Z" fill="#F1673C"/>
<path d="M97.7285 116.304C96.4147 116.667 94.8425 116.86 93.9272 118.006C93.7201 118.219 93.6017 118.502 93.596 118.799C93.5903 119.096 93.6978 119.383 93.8966 119.604C94.3908 120.07 95.0392 120.337 95.7184 120.356C96.4381 120.426 97.1644 120.345 97.8512 120.119C98.5379 119.893 99.1703 119.527 99.708 119.044C100.067 118.689 100.396 118.09 100.032 117.626C99.8833 117.482 99.6984 117.382 99.497 117.336C99.2957 117.29 99.0855 117.299 98.889 117.363C98.3341 117.482 97.7968 117.671 97.2906 117.928C96.8975 118.093 96.5279 118.309 96.1914 118.571C95.8147 118.899 96.3665 119.446 96.7388 119.118C96.8045 119.061 96.6906 119.149 96.7826 119.092L96.9315 118.995C97.076 118.904 97.2293 118.82 97.3694 118.742C97.7017 118.572 98.0456 118.426 98.3986 118.304C98.7048 118.17 99.0364 118.103 99.3708 118.107C99.292 118.107 99.4978 118.107 99.4058 118.107C99.4058 118.142 99.454 118.107 99.4058 118.107C99.4058 118.147 99.4365 118.107 99.4058 118.107C99.3752 118.107 99.4321 118.02 99.4058 118.107C99.3796 118.195 99.454 118.033 99.4058 118.164C99.3722 118.243 99.328 118.316 99.2744 118.383C98.972 118.72 98.5999 118.987 98.184 119.166C97.6052 119.435 96.9781 119.584 96.3403 119.604C95.8023 119.656 95.2603 119.561 94.7725 119.328C94.409 119.127 94.2382 118.89 94.5141 118.518C95.298 117.512 96.8045 117.381 97.9387 117.066C98.0375 117.038 98.1211 116.972 98.1712 116.882C98.2213 116.793 98.2337 116.687 98.2059 116.589C98.178 116.49 98.112 116.406 98.0225 116.356C97.933 116.306 97.8273 116.294 97.7285 116.322V116.304Z" fill="white"/>
<path d="M68.1985 178.654C66.3723 177.95 64.2045 177.853 63.0878 178.593C60.8981 180.041 62.8119 182.689 64.6074 183.459C65.732 183.889 66.9349 184.077 68.1372 184.01C69.2671 184.01 71.1108 183.704 71.2685 182.308C71.4612 180.636 69.9941 179.35 68.1985 178.654Z" fill="#F1673C"/>
<path d="M68.4219 179.757C67.108 179.433 65.6672 178.842 64.3184 179.35C64.0589 179.422 63.8313 179.58 63.6724 179.798C63.5135 180.015 63.4326 180.28 63.4425 180.549C63.5082 181.315 64.1476 181.958 64.7563 182.352C65.3466 182.742 66.0097 183.009 66.7058 183.137C67.4019 183.265 68.1167 183.251 68.8072 183.096C69.289 182.965 69.8627 182.61 69.7882 182.028C69.7313 181.59 69.3065 181.367 68.9123 181.236C68.3754 181.062 67.8167 180.963 67.2525 180.943C66.8167 180.882 66.3745 180.882 65.9387 180.943C65.4483 181.043 65.6541 181.787 66.1446 181.687C66.219 181.687 66.0658 181.687 66.2059 181.687H66.3767C66.5475 181.687 66.7183 181.687 66.8891 181.687C67.2753 181.7 67.6601 181.739 68.0409 181.805C68.3677 181.855 68.6833 181.962 68.9736 182.12C68.9342 182.098 69.0087 182.151 68.9736 182.12C68.9386 182.089 68.9736 182.12 68.9736 182.12C68.9955 182.063 68.9342 182.094 68.9736 182.098C68.9386 182.098 69.013 182.028 68.9736 182.076C68.8729 182.207 69.0043 182.076 68.9386 182.129C68.8771 182.187 68.804 182.232 68.724 182.26C67.7868 182.649 66.5344 182.369 65.6585 181.958C65.079 181.73 64.5869 181.324 64.2527 180.798C64.06 180.435 64.1257 180.199 64.5023 180.054C65.6891 179.591 67.0205 180.186 68.1678 180.466C68.6496 180.588 68.8554 179.84 68.3737 179.722L68.4219 179.757Z" fill="white"/>
<path d="M68.7547 100.642C68.7746 101.44 68.9721 102.223 69.3327 102.935C69.6875 103.67 70.3488 104.414 71.2422 104.353C72.9326 104.235 73.3004 102.016 73.4668 100.699C73.5588 99.977 73.5851 99.2506 73.6114 98.511C73.6377 97.7715 72.556 97.8152 72.5297 98.511C72.5444 99.7156 72.3971 100.917 72.0918 102.082C72.0918 102.152 72.0479 102.222 72.0217 102.288C71.9954 102.353 71.9297 102.528 71.9647 102.449C71.9049 102.584 71.8361 102.714 71.7589 102.839C71.7274 102.88 71.6982 102.922 71.6713 102.966C71.702 102.926 71.5925 103.049 71.5706 103.075C71.5487 103.102 71.4217 103.189 71.5224 103.123L71.4349 103.176C71.4349 103.176 71.2991 103.25 71.3779 103.215C71.4567 103.18 71.2772 103.242 71.2509 103.25C71.1458 103.25 71.2246 103.259 71.2509 103.25H71.0495C71.1633 103.25 71.0494 103.25 71.0276 103.25L70.9137 103.215C70.9137 103.215 70.9882 103.246 70.9137 103.215C70.9137 103.215 70.8436 103.176 70.813 103.15C70.7823 103.123 70.883 103.215 70.813 103.15C70.7591 103.106 70.7093 103.058 70.6641 103.005C70.5552 102.889 70.4637 102.758 70.3926 102.616C70.2105 102.292 70.0749 101.944 69.9896 101.583C69.8957 101.284 69.8499 100.973 69.8539 100.66C69.8539 100.516 69.7967 100.378 69.6948 100.276C69.593 100.174 69.4549 100.117 69.3109 100.117C69.1668 100.117 69.0287 100.174 68.9269 100.276C68.825 100.378 68.7678 100.516 68.7678 100.66L68.7547 100.642Z" fill="#32142A"/>
<path d="M88.5144 100.069C88.5195 100.335 88.4841 100.601 88.4092 100.857C88.338 101.179 88.2338 101.493 88.0983 101.793C88.0286 101.945 87.9481 102.091 87.8574 102.231C87.7713 102.355 87.6698 102.469 87.5553 102.568C87.4721 102.629 87.5553 102.568 87.5553 102.568L87.4721 102.62L87.3888 102.668C87.4808 102.62 87.3888 102.668 87.3626 102.668L87.2443 102.699C87.2706 102.699 87.3494 102.699 87.2443 102.699H87.148C87.0034 102.699 87.2312 102.725 87.1173 102.699L86.964 102.651C87.0954 102.703 86.9115 102.612 86.8808 102.594C86.8502 102.577 86.929 102.651 86.8283 102.55C86.7275 102.45 86.7275 102.45 86.6837 102.393C86.7626 102.489 86.6356 102.327 86.6224 102.305C86.6093 102.283 86.548 102.183 86.513 102.121C86.4779 102.06 86.4516 102.003 86.4254 101.942C86.3553 101.798 86.4254 101.999 86.4254 101.907L86.3684 101.763C86.2569 101.446 86.169 101.121 86.1057 100.791C86.0312 100.406 86.0006 100.178 85.9611 99.8196C85.8998 99.2026 85.8736 98.5812 85.8517 97.9598C85.8254 97.264 84.7393 97.2596 84.7655 97.9598C84.8181 99.3689 84.8488 100.87 85.3787 102.196C85.6502 102.87 86.0794 103.544 86.8283 103.741C87.7042 103.972 88.4618 103.377 88.8954 102.655C89.3592 101.873 89.6098 100.983 89.6223 100.073C89.6102 99.9385 89.5479 99.8129 89.4479 99.7215C89.3478 99.6301 89.2171 99.5795 89.0815 99.5795C88.9459 99.5795 88.8152 99.6301 88.7151 99.7215C88.615 99.8129 88.5528 99.9385 88.5406 100.073L88.5144 100.069Z" fill="#32142A"/>
<path d="M60.2675 93.1067C59.3985 90.8405 59.0339 88.4124 59.1989 85.9912C59.1937 85.5269 59.323 85.071 59.5712 84.6784C59.8336 84.3817 60.1621 84.1509 60.5303 84.0045C70.3969 79.1558 80.5439 78.0574 91.1857 75.283C92.3769 74.9723 93.7082 74.6791 94.7856 75.283C95.8629 75.8869 96.3052 77.121 96.5373 78.2981C97.1548 81.3614 97.3475 82.8755 96.0381 85.698L60.2675 93.1067Z" fill="#153A23"/>
<path d="M63.7929 82.661C64.5357 79.786 66.0687 77.176 68.2186 75.1262C70.3685 73.0764 73.0496 71.6687 75.9585 71.0622C78.8674 70.4558 81.8881 70.6747 84.6789 71.6944C87.4698 72.7141 89.9194 74.4937 91.7507 76.8321" fill="#153A23"/>
<path d="M35.4628 92.0434C35.9046 91.5452 36.3017 91.0093 36.6496 90.4418C40.4816 84.1927 37.4686 75.4275 30.2295 73.5589C22.2328 71.4934 14.1091 80.123 15.6156 87.9737C16.8199 94.2314 22.5525 95.6974 28.0968 95.6055C29.5044 95.5534 30.8859 95.21 32.1539 94.5968C33.4218 93.9836 34.5486 93.1142 35.4628 92.0434Z" fill="#FAC7B7"/>
<path d="M8.63491 79.0684C21.6328 75.0424 34.6526 71.0894 47.6944 67.2093L46.1309 59.1836C27.6369 64.1898 25.4034 65.2532 6.48901 70.4213L8.63491 79.0684Z" fill="#F7BC28"/>
<path d="M16.5265 34.8834C12.9529 37.8985 8.0787 44.3356 7.19407 46.7381C3.62928 56.4179 5.29343 66.2816 17.2666 66.8679C35.7343 67.7432 34.0614 46.7162 30.6061 34.0913L16.5265 34.8834Z" fill="#153A23"/>
<path d="M29.8047 28.5511C28.7712 29.3038 27.6851 30.0784 26.4239 30.3016C25.1626 30.5247 23.6693 30.0302 23.1788 28.8443C23.0678 28.405 22.9015 27.9815 22.6839 27.584C21.9744 26.6651 20.5468 27.2121 19.4519 27.584C16.925 28.4592 13.7588 27.7109 12.3267 25.4529C10.8947 23.1948 11.9457 19.6109 14.5164 18.9151C13.2137 19.4963 11.7505 19.6112 10.3729 19.2406C8.9954 18.87 7.78771 18.0364 6.95322 16.8802C6.18472 15.6762 5.85568 14.244 6.02164 12.8257C6.18761 11.4073 6.83841 10.0896 7.86413 9.09521C8.94382 8.16004 10.3134 7.62584 11.7416 7.58278C13.1698 7.53973 14.5691 7.99047 15.7032 8.8589C16.4333 7.59802 17.5242 6.58426 18.8356 5.94803C20.147 5.31181 21.6189 5.08223 23.062 5.28884C24.5051 5.49544 25.8533 6.12877 26.9331 7.10735C28.013 8.08593 28.7752 9.365 29.1215 10.78C28.8603 8.08528 29.4878 5.37911 30.9083 3.07376C31.3186 2.28812 31.9821 1.6637 32.7914 1.30146C34.0264 0.86385 35.384 1.52901 36.4132 2.34296C38.8144 4.26765 40.3952 7.0312 40.8363 10.0754C41.4144 8.23312 44.3398 8.05371 45.5354 9.55032C46.731 11.0469 46.4375 13.3531 45.3339 14.9329C44.2303 16.5126 42.5093 17.5585 40.8407 18.5081C43.6198 19.0134 46.3262 19.8585 48.8987 21.0243C49.4856 21.2913 50.1293 21.6589 50.252 22.289C50.2907 22.7816 50.1456 23.2711 49.8447 23.6631C48.8155 25.3566 47.5236 26.9539 45.7938 27.9297C44.0639 28.9056 41.8523 29.1594 40.1006 28.2054C41.0641 31.1461 38.1387 34.5069 35.0556 34.2094C31.9725 33.9118 29.739 30.4066 30.5054 27.409" fill="#E48929"/>
<path d="M54.4955 195.205C59.5449 202.701 65.0935 209.86 70.3707 217.194C71.5969 218.901 72.8187 220.612 73.9924 222.354C74.5442 223.176 75.8887 222.402 75.3062 221.57C70.2612 214.074 64.7082 206.915 59.4354 199.581C58.2092 197.878 56.9874 196.167 55.8137 194.426C55.2575 193.603 53.9174 194.377 54.4736 195.205H54.4955Z" fill="#122D1C"/>
<path d="M45.6667 241.744L66.5869 259.532L76.112 251.476V261.747L67.6774 270.227L45.6667 241.744Z" fill="#122D1C"/>
<path d="M110.227 128.977C109.873 138.097 110.087 147.23 110.867 156.323C110.954 157.308 112.504 157.316 112.417 156.323C111.637 147.23 111.423 138.097 111.777 128.977C111.817 127.979 110.267 127.984 110.227 128.977Z" fill="#E48929"/>
<path d="M116.135 133.677C121.636 133.003 127.169 132.614 132.711 132.513C133.705 132.513 133.709 130.955 132.711 130.964C127.169 131.065 121.636 131.454 116.135 132.128C115.154 132.237 115.145 133.791 116.135 133.677Z" fill="#E48929"/>
<path d="M28.3683 107.373C32.625 107.587 37.127 107.373 41.0114 105.452C41.8873 105.014 41.1209 103.675 40.2319 104.113C36.6058 105.898 32.3491 106.025 28.3683 105.824C27.3742 105.775 27.3742 107.325 28.3683 107.373Z" fill="#E48929"/>
<path d="M82.7248 245.879C84.4284 249.844 85.7904 252.119 90.6996 253.318C91.0544 253.406 91.4572 253.511 91.6193 253.839C91.6712 254.012 91.6847 254.194 91.659 254.372C91.6333 254.55 91.5689 254.721 91.4704 254.872C90.3872 257.156 89.307 259.441 88.2297 261.725C86.7428 260.411 85.0327 259.374 83.1803 258.662C83.6182 261.812 83.824 263.655 83.1803 266.775C82.5365 269.895 78.8797 275.737 76.1733 277.417C74.8858 278.214 73.0158 276.323 72.0129 274.757C70.8524 272.954 69.9897 272.079 71.102 270.249C73.0902 266.985 75.9193 265.698 75.8755 259.808C75.8492 256.145 76.3134 254.994 74.9996 252.417L82.7248 245.879Z" fill="#32142A"/>
<path d="M18.4841 63.2402C20.4154 63.3277 22.4561 63.5903 24.1772 62.6845C24.9658 62.2333 25.6637 61.6397 26.2355 60.934C28.5223 58.2748 29.7916 54.8916 29.8178 51.3855C29.8156 51.3252 29.796 51.2668 29.7615 51.2173C29.727 51.1678 29.679 51.1292 29.6232 51.1062C29.5674 51.0831 29.5061 51.0766 29.4467 51.0873C29.3872 51.098 29.3321 51.1256 29.2879 51.1667C27.9741 52.4576 27.0983 54.1993 26.1742 55.8184C25.1232 57.6389 23.7875 59.4768 21.7949 60.1726C21.1231 60.3736 20.4363 60.5199 19.7409 60.6102C18.4285 60.839 17.1389 61.1832 15.8871 61.6386C15.8871 61.6386 15.5674 63.1089 18.4841 63.2402Z" fill="#39B55D"/>
<path d="M32.3579 14.8278C31.6055 14.5191 30.9866 13.9544 30.6107 13.2336C30.2349 12.5129 30.1262 11.6825 30.3039 10.8894C30.5436 10.1089 31.053 9.43884 31.7413 8.99881C32.4295 8.55877 33.2518 8.37736 34.0614 8.48694V6.9772C32.5024 7.49358 30.7725 6.31204 30.4266 4.74979C30.0806 3.18754 31.3988 2.12416 32.787 1.93599C33.4432 1.83672 34.1134 1.9682 34.6833 2.30795C35.3446 2.74556 35.6643 3.49824 35.9621 4.19403C36.2451 4.99422 36.6482 5.74675 37.1576 6.42582C37.8364 7.21789 38.6948 7.40606 39.6714 7.61611C40.1935 7.69523 40.6694 7.96025 41.0114 8.36233C41.3535 8.76441 41.5386 9.27646 41.5326 9.80414C41.4956 10.3152 41.2802 10.7971 40.9241 11.1657C40.5679 11.5344 40.0936 11.7665 39.5838 11.8215C38.6028 11.9747 39.0188 13.4669 39.9954 13.3137C40.7538 13.1874 41.4528 12.825 41.9927 12.2781C42.5326 11.7312 42.8858 11.0278 43.0019 10.2684C43.1179 9.50898 42.9909 8.73234 42.639 8.04934C42.287 7.36635 41.7282 6.81192 41.0421 6.46521C40.3852 6.14138 39.6582 6.16763 38.9926 5.90507C37.9678 5.50685 37.635 4.18091 37.2408 3.27944C36.8822 2.28466 36.1947 1.44183 35.292 0.890113C34.3974 0.428241 33.3752 0.274412 32.3841 0.452508C30.3171 0.798216 28.5872 2.56177 28.8807 4.74542C29.2091 7.28353 31.99 9.30964 34.495 8.47819C35.1519 8.25939 35.3052 7.11724 34.495 6.98596C32.0688 6.58336 29.4894 8.03183 28.8325 10.4868C28.1756 12.9418 29.6645 15.4799 31.9681 16.3507C32.9009 16.7008 33.2819 15.2042 32.3797 14.8541L32.3579 14.8278Z" fill="#FAC7B7"/>
<path d="M34.3067 17.6374C35.3577 20.2018 38.5984 20.3331 40.902 19.6416C43.5296 18.8539 45.7718 16.8322 46.3893 14.0972C46.7513 12.5531 46.5575 10.931 45.8419 9.51545C45.404 8.64024 44.0508 9.41042 44.5018 10.2988C45.7762 12.7887 44.6069 15.8257 42.3515 17.3004C41.2313 18.0308 39.9311 18.4381 38.5941 18.4776C37.6306 18.4776 36.2204 18.2588 35.8 17.2392C35.74 17.0443 35.6077 16.8796 35.4303 16.7788C35.2529 16.6779 35.0437 16.6485 34.8453 16.6966C34.6515 16.7537 34.4872 16.8835 34.3868 17.0588C34.2865 17.2342 34.2577 17.4414 34.3067 17.6374Z" fill="#FAC7B7"/>
<path d="M36.838 22.0483C36.1741 22.0433 35.5197 22.2059 34.9356 22.5211C34.3514 22.8363 33.8564 23.2938 33.4965 23.8512C33.1194 24.4595 32.8791 25.1424 32.7921 25.8526C32.7052 26.5629 32.7737 27.2835 32.9928 27.9647C33.3563 29.2206 34.1709 30.7347 35.5504 31.0717C36.9299 31.4086 38.0949 30.4197 38.3927 29.1418C38.7605 27.5621 37.7357 26.1661 36.5621 25.2297C36.4136 25.0909 36.2179 25.0137 36.0146 25.0137C35.8114 25.0137 35.6157 25.0909 35.4672 25.2297C35.3233 25.3754 35.2427 25.5719 35.2427 25.7767C35.2427 25.9814 35.3233 26.1779 35.4672 26.3237C36.2248 26.9319 37.2452 27.9209 36.8292 28.9493C36.7796 29.1077 36.6877 29.2497 36.5635 29.3599C36.4393 29.4702 36.2874 29.5445 36.1241 29.5751C35.6862 29.5751 35.2964 29.1637 35.0643 28.8093C34.7023 28.2921 34.4643 27.6988 34.3686 27.075C34.273 26.4512 34.3222 25.8139 34.5125 25.2122C34.6836 24.7332 34.9992 24.3191 35.4156 24.0268C35.8321 23.7344 36.329 23.5783 36.838 23.5799C37.8365 23.6193 37.8321 22.0701 36.838 22.0308V22.0483Z" fill="#FAC7B7"/>
<path d="M20.3584 22.1929C20.2752 22.3067 20.3234 22.1929 20.4373 22.2585C20.5511 22.3242 20.6343 22.3461 20.7 22.4686C20.9496 22.9324 20.3803 23.6764 20.1351 24.0265C19.7409 24.591 20.3935 25.3393 21.011 25.1642C21.6285 24.9892 21.8211 25.7813 21.6372 26.1926C21.4733 26.4803 21.2448 26.7261 20.9697 26.9106C20.6946 27.0951 20.3804 27.2134 20.0519 27.256C18.9614 27.4617 17.5644 26.9934 17.1878 25.8644C17.15 25.7328 17.0786 25.6132 16.9804 25.5176C16.8823 25.422 16.761 25.3535 16.6284 25.3191C16.4957 25.2846 16.3564 25.2853 16.2241 25.3211C16.0918 25.3569 15.9711 25.4265 15.874 25.5231C15.4498 25.8731 15.0084 26.2018 14.5514 26.5077C14.3587 26.6346 13.5529 27.2604 13.369 27.1903C13.185 27.1203 13.0843 26.7527 13.0142 26.6127C12.9088 26.4121 12.8137 26.2061 12.7296 25.9957C12.537 25.5191 12.4188 25.0159 12.3792 24.5034C12.336 24.075 12.3886 23.6423 12.5333 23.2366C12.6779 22.8309 12.911 22.4625 13.2157 22.1579C13.482 21.8814 13.8204 21.6849 14.1927 21.5905C14.5649 21.4962 14.9562 21.5078 15.3222 21.624C15.4373 21.6539 15.5576 21.6572 15.6742 21.6337C15.7908 21.6103 15.9004 21.5606 15.995 21.4885C16.0895 21.4164 16.1663 21.3238 16.2197 21.2176C16.2731 21.1114 16.3017 20.9945 16.3032 20.8757C16.3032 20.1624 16.5265 19.2522 17.2272 18.8933C17.6651 18.6614 18.4534 18.7621 18.6286 19.331C18.9264 20.2762 20.4197 19.8736 20.1219 18.8933C20.0089 18.5789 19.8348 18.2899 19.6097 18.0428C19.3846 17.7957 19.1129 17.5955 18.8102 17.4536C18.5075 17.3117 18.1797 17.231 17.8457 17.2159C17.5117 17.2009 17.1779 17.252 16.8637 17.3661C15.4185 17.8694 14.766 19.4491 14.7528 20.8669L15.7338 20.123C15.116 19.9401 14.4606 19.9247 13.8349 20.0785C13.2092 20.2323 12.6358 20.5497 12.1734 20.9982C11.6652 21.4877 11.281 22.0911 11.0525 22.7585C10.824 23.4259 10.7579 24.138 10.8596 24.836C10.9502 25.5804 11.1586 26.3057 11.4771 26.9847C11.7574 27.5973 12.1077 28.2975 12.7471 28.6082C13.5179 28.967 14.2711 28.4944 14.9368 28.0962C15.6564 27.6426 16.3468 27.1442 17.0038 26.604L15.69 26.2626C16.4477 28.5338 19.2373 29.3915 21.3306 28.4507C22.4474 27.943 23.424 26.8184 23.2357 25.5187C23.0517 24.289 21.8386 23.3 20.608 23.6632L21.4839 24.801C22.1802 23.8077 22.7627 22.2804 21.7467 21.3002C21.5738 21.1057 21.3597 20.9523 21.12 20.8509C20.8803 20.7495 20.621 20.7027 20.361 20.7141C20.1009 20.7254 19.8467 20.7945 19.6167 20.9163C19.3867 21.0381 19.1868 21.2096 19.0315 21.4183C18.4578 22.2367 19.7979 23.0112 20.3716 22.2016L20.3584 22.1929Z" fill="#FAC7B7"/>
<path d="M22.3948 11.2789C22.4693 11.2789 22.5437 11.3227 22.6401 11.4715C22.7081 11.5749 22.7535 11.6915 22.7731 11.8137C22.7927 11.9359 22.7862 12.0609 22.7539 12.1804C22.535 12.8149 21.5496 12.9769 20.9496 12.99C20.1778 13.0583 19.4056 12.8623 18.7599 12.4342C18.0899 11.9091 18.3658 11.1477 18.7599 10.5394C19.2118 9.89837 19.8415 9.4035 20.5715 9.11579C21.3014 8.82808 22.0997 8.76011 22.8678 8.92025C23.6468 9.1287 24.334 9.591 24.8202 10.2339C25.3065 10.8768 25.5642 11.6634 25.5523 12.4692C25.4823 14.2678 23.6999 15.6287 21.9656 15.4318C21.7608 15.4341 21.5649 15.5164 21.42 15.6612C21.2752 15.806 21.1928 16.0017 21.1905 16.2064C21.195 16.4104 21.2781 16.6048 21.4225 16.7491C21.5669 16.8934 21.7615 16.9765 21.9656 16.9809C24.4268 17.2566 26.7829 15.2524 27.072 12.8368C27.1774 11.603 26.8337 10.3725 26.104 9.37162C25.3743 8.37072 24.3075 7.66659 23.0999 7.38863C21.8632 7.14886 20.5816 7.33776 19.4669 7.92414C18.3522 8.51053 17.4709 9.45931 16.9688 10.6138C16.7281 11.1982 16.7088 11.8501 16.9143 12.4478C17.1198 13.0454 17.5362 13.5477 18.0855 13.8608C19.1228 14.4522 20.3306 14.6729 21.5102 14.4866C22.824 14.3159 24.2517 13.4976 24.2823 12.0054C24.313 10.6926 23.2751 9.52415 21.935 9.78671C20.954 9.97488 21.37 11.4671 22.3466 11.2789H22.3948Z" fill="#FAC7B7"/>
<path d="M26.9757 23.3307C27.1158 21.9303 26.4195 19.7204 27.799 18.7577C27.8928 18.6814 28.0039 18.6293 28.1226 18.6062C28.2413 18.583 28.3639 18.5895 28.4795 18.625C28.5951 18.6605 28.7002 18.7239 28.7855 18.8096C28.8707 18.8953 28.9335 19.0008 28.9682 19.1165C29.1554 19.7106 29.1975 20.3408 29.0909 20.9545C29.0428 21.2924 29.0967 21.637 29.2457 21.9441C29.3947 22.2513 29.6321 22.507 29.9273 22.6786C30.4003 22.9631 30.72 23.1162 30.7681 23.7464C30.8776 25.1467 29.2004 25.4968 28.1887 24.9761C28.0552 24.9026 27.9031 24.8697 27.7511 24.8813C27.5991 24.893 27.4538 24.9486 27.3329 25.0415C27.2121 25.1344 27.121 25.2604 27.0707 25.4043C27.0205 25.5481 27.0133 25.7034 27.0501 25.8513C27.1517 26.2179 27.1762 26.6017 27.1219 26.9783C27.0676 27.3549 26.9358 27.7162 26.7348 28.0393C26.5262 28.3837 26.2489 28.6817 25.9202 28.9145C25.6794 29.0852 25.1407 29.4178 24.8429 29.2952C24.5451 29.1727 24.405 28.42 24.3437 28.1618C24.1967 27.5235 24.2097 26.8588 24.3816 26.2267C24.5535 25.5946 24.8789 25.0147 25.329 24.5385C26.021 23.8208 24.9261 22.7224 24.2342 23.4444C23.2774 24.4453 22.7292 25.7672 22.697 27.151C22.6664 28.3325 23.0605 30.398 24.3918 30.7918C25.7232 31.1857 27.1245 30.1311 27.8471 29.1377C28.2358 28.6091 28.5005 28 28.6218 27.3554C28.7431 26.7108 28.7178 26.0472 28.5478 25.4137L27.4092 26.2889C28.723 26.9803 30.5273 26.9278 31.5915 25.7638C32.0492 25.2432 32.3064 24.5767 32.3169 23.8838C32.3273 23.1909 32.0903 22.5169 31.6484 21.9828C31.4179 21.7406 31.1466 21.5406 30.847 21.3921C30.5141 21.1995 30.6455 20.9545 30.6762 20.6044C30.7447 19.9071 30.6518 19.2033 30.4047 18.5476C30.2755 18.1949 30.0617 17.8792 29.7821 17.6282C29.5024 17.3771 29.1655 17.1985 28.8007 17.1078C28.4359 17.0171 28.0545 17.0171 27.6897 17.1079C27.325 17.1988 26.9881 17.3776 26.7085 17.6287C24.9568 19.0903 25.6224 21.3308 25.4254 23.3175C25.3246 24.3065 26.8749 24.3021 26.9757 23.3175V23.3307Z" fill="#FAC7B7"/>
<path d="M35.1825 10.4476C33.7505 10.3207 33.0191 12.5787 34.1052 13.5108C35.1913 14.4429 37.0876 13.7996 37.6656 12.4912C37.8385 12.1336 37.9106 11.7357 37.8744 11.3402C37.8381 10.9447 37.6948 10.5666 37.4598 10.2463C37.2086 9.93921 36.847 9.74257 36.4526 9.69841C36.0581 9.65425 35.662 9.76607 35.349 10.01" fill="#FAC7B7"/>
<path d="M39.9998 24.0177C40.3195 25.7681 42.0537 26.849 43.7573 26.8796C44.6776 26.9296 45.592 26.7057 46.3849 26.2364C47.0418 25.7725 47.5849 24.871 47.0199 24.1183L46.1441 25.2561C47.4194 25.5875 48.7738 25.4085 49.9191 24.7572C50.4766 24.4649 50.9466 24.03 51.2811 23.4969C51.4406 23.1904 51.4841 22.8367 51.4037 22.5007C51.3232 22.1647 51.1242 21.8689 50.8431 21.6678C48.7848 19.9567 45.9645 20.053 43.4507 20.2674C42.461 20.3506 42.4522 21.8997 43.4507 21.8165C45.2025 21.6678 47.2258 21.4752 48.8899 22.2541C49.0933 22.3474 49.2894 22.4557 49.4768 22.578C49.56 22.6305 49.6432 22.6874 49.722 22.7486C49.8008 22.8099 49.9716 23.0156 49.9147 22.8449C49.8578 22.6742 49.9585 22.8012 49.8534 22.8449C49.7483 22.8887 49.6738 23.0331 49.5862 23.1031C49.4267 23.2376 49.2535 23.3549 49.0695 23.4532C48.302 23.8821 47.3988 23.9997 46.547 23.7814C45.9514 23.6326 45.2331 24.3459 45.6711 24.9192C45.8506 25.1598 45.6711 24.7879 45.7017 24.7835C45.7324 24.7791 45.5835 24.9192 45.5353 24.9542C45.3291 25.0866 45.0982 25.176 44.8565 25.2167C44.3408 25.3613 43.7997 25.3912 43.2712 25.3043C42.8373 25.2422 42.4334 25.0473 42.115 24.7464C41.7965 24.4454 41.5793 24.0533 41.4931 23.6239C41.318 22.6436 39.8246 23.0593 39.9998 24.0352V24.0177Z" fill="#FAC7B7"/>
<path d="M63.6046 90.258V85.0067C63.6046 84.8013 63.5229 84.6043 63.3775 84.459C63.2322 84.3138 63.035 84.2322 62.8294 84.2322C62.6239 84.2322 62.4267 84.3138 62.2813 84.459C62.136 84.6043 62.0543 84.8013 62.0543 85.0067V90.258C62.0543 90.4634 62.136 90.6605 62.2813 90.8057C62.4267 90.951 62.6239 91.0326 62.8294 91.0326C63.035 91.0326 63.2322 90.951 63.3775 90.8057C63.5229 90.6605 63.6046 90.4634 63.6046 90.258Z" fill="#122D1C"/>
<path d="M69.3678 89.8027V81.6676C69.3678 81.4622 69.2861 81.2652 69.1408 81.1199C68.9954 80.9747 68.7982 80.8931 68.5926 80.8931C68.3871 80.8931 68.1899 80.9747 68.0445 81.1199C67.8992 81.2652 67.8175 81.4622 67.8175 81.6676V89.8027C67.8175 90.0081 67.8992 90.2051 68.0445 90.3504C68.1899 90.4957 68.3871 90.5773 68.5926 90.5773C68.7982 90.5773 68.9954 90.4957 69.1408 90.3504C69.2861 90.2051 69.3678 90.0081 69.3678 89.8027Z" fill="#122D1C"/>
<path d="M75.3019 87.3784V79.5846C75.3019 79.3792 75.2202 79.1822 75.0748 79.0369C74.9295 78.8917 74.7323 78.8101 74.5267 78.8101C74.3211 78.8101 74.124 78.8917 73.9786 79.0369C73.8332 79.1822 73.7516 79.3792 73.7516 79.5846V87.3784C73.7516 87.5838 73.8332 87.7808 73.9786 87.9261C74.124 88.0713 74.3211 88.1529 74.5267 88.1529C74.7323 88.1529 74.9295 88.0713 75.0748 87.9261C75.2202 87.7808 75.3019 87.5838 75.3019 87.3784Z" fill="#122D1C"/>
<path d="M81.0651 87.1509V78.3419C81.0651 78.1365 80.9834 77.9395 80.838 77.7943C80.6927 77.649 80.4955 77.5674 80.2899 77.5674C80.0844 77.5674 79.8872 77.649 79.7418 77.7943C79.5965 77.9395 79.5148 78.1365 79.5148 78.3419V87.1509C79.5148 87.3564 79.5965 87.5534 79.7418 87.6986C79.8872 87.8439 80.0844 87.9255 80.2899 87.9255C80.4955 87.9255 80.6927 87.8439 80.838 87.6986C80.9834 87.5534 81.0651 87.3564 81.0651 87.1509Z" fill="#122D1C"/>
<path d="M86.491 84.9497V79.0202C86.491 78.8147 86.4094 78.6177 86.264 78.4725C86.1187 78.3272 85.9215 78.2456 85.7159 78.2456C85.5104 78.2456 85.3132 78.3272 85.1678 78.4725C85.0225 78.6177 84.9408 78.8147 84.9408 79.0202V84.9497C84.9408 85.1551 85.0225 85.3522 85.1678 85.4974C85.3132 85.6427 85.5104 85.7243 85.7159 85.7243C85.9215 85.7243 86.1187 85.6427 86.264 85.4974C86.4094 85.3522 86.491 85.1551 86.491 84.9497Z" fill="#122D1C"/>
<path d="M91.4091 84.3809V77.9437C91.4091 77.7383 91.3274 77.5413 91.182 77.3961C91.0367 77.2508 90.8395 77.1692 90.6339 77.1692C90.4284 77.1692 90.2312 77.2508 90.0858 77.3961C89.9405 77.5413 89.8588 77.7383 89.8588 77.9437V84.3809C89.8588 84.5863 89.9405 84.7834 90.0858 84.9286C90.2312 85.0739 90.4284 85.1555 90.6339 85.1555C90.8395 85.1555 91.0367 85.0739 91.182 84.9286C91.3274 84.7834 91.4091 84.5863 91.4091 84.3809Z" fill="#122D1C"/>
<path d="M95.3636 82.2935V78.0619C95.3636 77.8565 95.282 77.6595 95.1366 77.5142C94.9912 77.369 94.7941 77.2874 94.5885 77.2874C94.3829 77.2874 94.1858 77.369 94.0404 77.5142C93.895 77.6595 93.8134 77.8565 93.8134 78.0619V82.2935C93.8134 82.499 93.895 82.696 94.0404 82.8412C94.1858 82.9865 94.3829 83.0681 94.5885 83.0681C94.7941 83.0681 94.9912 82.9865 95.1366 82.8412C95.282 82.696 95.3636 82.499 95.3636 82.2935Z" fill="#122D1C"/>
<path d="M97.746 103.5L97.838 103.478C97.7811 103.478 97.9212 103.478 97.9343 103.478C97.9475 103.478 98.0745 103.478 98.0263 103.478C97.9781 103.478 98.1051 103.478 98.1183 103.478C98.2447 103.519 98.3632 103.581 98.4686 103.662C98.7195 103.905 98.8748 104.229 98.9066 104.576C98.9066 104.52 98.9066 104.576 98.9066 104.611C98.9109 104.673 98.9109 104.734 98.9066 104.795C98.9066 104.887 98.9066 104.979 98.9066 105.071V105.185C98.9066 105.084 98.9066 105.259 98.9066 105.259C98.8893 105.341 98.8674 105.421 98.8409 105.5C98.8296 105.545 98.8149 105.589 98.7971 105.631C98.8233 105.561 98.7971 105.666 98.7971 105.679C98.7578 105.763 98.7124 105.843 98.6613 105.92C98.6613 105.942 98.5869 106.016 98.635 105.964L98.5431 106.064L98.4467 106.156C98.3723 106.231 98.473 106.156 98.381 106.209C98.2604 106.284 98.1731 106.403 98.1373 106.54C98.1014 106.678 98.1197 106.824 98.1883 106.948C98.2614 107.071 98.3798 107.161 98.5182 107.198C98.6565 107.234 98.8038 107.216 98.9284 107.145C99.3671 106.812 99.6999 106.359 99.8864 105.841C100.073 105.323 100.105 104.762 99.9795 104.226C99.7561 103.08 98.6963 102.122 97.4833 102.428C97.3454 102.467 97.2284 102.558 97.1579 102.683C97.0874 102.808 97.0689 102.955 97.1067 103.093C97.1466 103.23 97.2383 103.347 97.3625 103.418C97.4866 103.489 97.6336 103.509 97.7723 103.474L97.746 103.5Z" fill="#32142A"/>
<path d="M58.034 109.898C57.4784 109.987 56.9094 109.868 56.4356 109.565C56.3499 109.505 56.2707 109.436 56.1991 109.359C56.156 109.316 56.115 109.271 56.0765 109.224C56.002 109.141 56.0765 109.224 56.002 109.127C55.9276 109.031 55.8706 108.922 55.8137 108.812C55.763 108.724 55.7233 108.63 55.6955 108.532C55.6553 108.409 55.6216 108.283 55.5947 108.156C55.5947 108.095 55.5728 108.038 55.5641 107.977C55.5641 108.073 55.5641 107.902 55.5641 107.863C55.5575 107.745 55.5575 107.626 55.5641 107.508V107.338C55.5619 107.304 55.5619 107.271 55.5641 107.237C55.5641 107.149 55.5378 107.364 55.5641 107.215C55.5801 107.107 55.605 107 55.6386 106.896C55.6386 106.843 55.6692 106.795 55.6867 106.743C55.7042 106.69 55.6604 106.778 55.7174 106.672C55.8477 106.424 56.0281 106.205 56.2473 106.029C56.9326 105.543 57.7652 105.31 58.6034 105.368C59.304 105.395 59.304 104.309 58.6034 104.283C56.9655 104.222 54.9729 104.992 54.5568 106.743C54.3995 107.368 54.4115 108.025 54.5915 108.645C54.7716 109.264 55.1133 109.825 55.5816 110.27C55.9193 110.549 56.3107 110.757 56.7317 110.88C57.1527 111.002 57.5945 111.037 58.0297 110.983C58.172 110.977 58.307 110.919 58.4076 110.818C58.5083 110.717 58.5673 110.582 58.5727 110.44C58.5716 110.297 58.514 110.159 58.4124 110.058C58.3108 109.956 58.1733 109.899 58.0297 109.898H58.034Z" fill="#32142A"/>
<path d="M58.1873 106.191C57.7644 106.233 57.3753 106.441 57.1056 106.769C56.8378 107.063 56.652 107.422 56.567 107.81C56.5149 108.012 56.5115 108.223 56.5572 108.426C56.6029 108.629 56.6963 108.819 56.8297 108.979C57.0459 109.205 57.3277 109.358 57.6355 109.416C57.9508 109.482 58.2705 109.495 58.5902 109.534C58.6618 109.535 58.7327 109.522 58.7989 109.495C58.8651 109.468 58.9252 109.428 58.9756 109.377C59.0753 109.273 59.1317 109.136 59.1333 108.992C59.1315 108.849 59.075 108.713 58.9756 108.611C58.8691 108.516 58.733 108.46 58.5902 108.454C58.4895 108.454 58.3888 108.427 58.2837 108.419H58.1348H58.0603C57.9465 108.419 58.2005 108.44 58.0866 108.419C57.9828 108.405 57.8802 108.383 57.78 108.353H57.7056C57.6049 108.322 57.8107 108.405 57.745 108.353L57.6136 108.279C57.5479 108.239 57.71 108.37 57.6618 108.314L57.6093 108.261C57.5436 108.195 57.6662 108.362 57.6399 108.3L57.6005 108.235C57.5698 108.182 57.6487 108.362 57.6311 108.305C57.6136 108.248 57.6311 108.305 57.6311 108.27C57.6331 108.248 57.6331 108.226 57.6311 108.204C57.6793 108.34 57.6311 108.3 57.6311 108.235C57.629 108.197 57.629 108.159 57.6311 108.121C57.6288 108.108 57.6288 108.095 57.6311 108.082C57.6311 108.082 57.6049 108.217 57.6311 108.16C57.6291 108.13 57.6291 108.099 57.6311 108.068C57.6455 108.004 57.6645 107.942 57.6881 107.88C57.6311 108.003 57.7187 107.793 57.6881 107.88L57.7275 107.802C57.7626 107.732 57.8021 107.665 57.8457 107.6L57.8764 107.565C57.9114 107.508 57.8019 107.648 57.8457 107.6C57.8711 107.568 57.899 107.537 57.9289 107.508C57.9544 107.477 57.9822 107.448 58.0121 107.421L58.0472 107.39C58.0997 107.342 58.0209 107.412 58.0078 107.421L58.1041 107.355C58.1376 107.34 58.1698 107.323 58.2005 107.303C58.2005 107.303 58.0866 107.342 58.1391 107.329H58.1917C58.2355 107.329 58.3756 107.303 58.1917 107.329C58.3354 107.327 58.4729 107.27 58.5771 107.171C58.6758 107.069 58.7321 106.933 58.7348 106.791C58.7336 106.647 58.676 106.51 58.5744 106.408C58.4728 106.307 58.3354 106.249 58.1917 106.248L58.1873 106.191Z" fill="#32142A"/>
<path d="M97.1242 105.062L96.9972 105.115C97.0473 105.093 97.1005 105.08 97.1548 105.075H97.0103H97.1767H97.0322C97.0941 105.082 97.1546 105.099 97.2117 105.123L97.0804 105.066C97.1367 105.09 97.1897 105.121 97.238 105.158L97.1285 105.071C97.1722 105.106 97.2119 105.145 97.2468 105.189L97.1592 105.08C97.1867 105.116 97.2102 105.156 97.2293 105.198L97.1767 105.066C97.1959 105.119 97.2105 105.173 97.2205 105.228L97.1986 105.084C97.2073 105.143 97.2073 105.204 97.1986 105.263V105.119C97.1893 105.179 97.1731 105.238 97.1504 105.294L97.2074 105.167C97.1821 105.222 97.1497 105.274 97.111 105.32L97.1986 105.211C97.1666 105.252 97.1299 105.288 97.0891 105.32L97.203 105.233L97.1242 105.285C97.0022 105.357 96.9127 105.473 96.8745 105.609C96.8471 105.713 96.8511 105.822 96.8858 105.924C96.9206 106.025 96.9847 106.114 97.07 106.179C97.1552 106.244 97.2579 106.282 97.3649 106.289C97.472 106.296 97.5787 106.271 97.6716 106.217C97.8593 106.106 98.0112 105.944 98.1095 105.749C98.2162 105.548 98.2648 105.32 98.2497 105.093C98.2367 104.941 98.1967 104.793 98.1314 104.655C98.0564 104.505 97.9493 104.373 97.8176 104.268C97.6859 104.164 97.5329 104.09 97.3694 104.051C97.2512 104.018 97.1284 104.005 97.0059 104.012C96.8404 104.021 96.6783 104.063 96.5286 104.134C96.4086 104.208 96.3199 104.323 96.2789 104.458C96.2583 104.531 96.2527 104.608 96.2625 104.683C96.2722 104.758 96.2972 104.83 96.3359 104.896C96.4076 105.018 96.5237 105.107 96.6599 105.145H96.8045C96.9 105.145 96.9937 105.119 97.076 105.071L97.1242 105.062Z" fill="#32142A"/>
</svg>
