<svg width="26" height="24" viewBox="0 0 26 24" fill="none" xmlns="http://www.w3.org/2000/svg">
<path d="M12.2728 0.936975C12.5716 0.014513 13.8767 0.0145164 14.1755 0.936978L16.4181 7.86035C16.5517 8.27281 16.9359 8.55219 17.3694 8.55219H24.6332C25.6011 8.55219 26.0044 9.79023 25.2221 10.3603L19.3403 14.647C18.9909 14.9016 18.8447 15.352 18.978 15.7633L21.2234 22.6953C21.522 23.6171 20.4662 24.3823 19.683 23.8116L13.8131 19.5336C13.4621 19.2778 12.9862 19.2778 12.6352 19.5336L6.76523 23.8116C5.98213 24.3823 4.92632 23.6171 5.22493 22.6953L7.47032 15.7633C7.60355 15.352 7.45736 14.9016 7.10796 14.647L1.22615 10.3603C0.443875 9.79023 0.847148 8.55219 1.81512 8.55219H9.07887C9.51243 8.55219 9.89661 8.27281 10.0302 7.86035L12.2728 0.936975Z" fill="#FAB437"/>
</svg>
