<svg width="114" height="80" viewBox="0 0 114 80" fill="none" xmlns="http://www.w3.org/2000/svg">
<path fill-rule="evenodd" clip-rule="evenodd" d="M34.3514 0.5H42.6241L45.8626 1.03976L49.0754 2.11069L52.3129 3.72943L55.0553 5.92334L57.7036 9.10128L59.8505 12.3216L61.1959 16.0888L61.9613 19.6608L62.4638 21.6708L62.9703 24.2032L63.8187 24.7431L66.9074 26.8022L70.449 29.8379L74.9453 33.335L81.4593 38.8468L86.989 43.3711L95.0435 50.9222L100.636 56.5147L103.71 60.614L105.11 62.5732L105.027 62.3236L104.51 57.6763L104 53.5934V50.6459L105.2 48.2457L106.334 46.5444L106.939 45.9393L109.061 48.0607L108.666 48.4556L107.8 49.7543L107 51.3541V53.4066L107.49 57.3241L107.973 61.6764L109.43 66.0472L110.89 70.9135L113.861 76.2606L113.143 76.9778L113.302 77.2558L112.283 77.8382L111.092 79.0293L110.729 78.7265L110.698 78.7442L110.65 78.6609L107.069 75.677L103.182 72.7615L94.3386 67.8485L87.4664 64.9033L84.6539 63.9658L81.3933 63.5H78.9999V60.5H81.6066L85.346 61.0342L88.5335 62.0967L95.6613 65.1515L104.818 70.2385L106.617 71.5875L103.711 65.7761L101.289 62.3859L98.3639 58.4853L92.9563 53.0777L85.011 45.6289L79.5405 41.1531L73.0547 35.6651L68.5509 32.1621L65.0925 29.1978L62.262 27.3108L60.9581 29.3971L59.0411 31.5881L56.4187 33.6859L54.338 35.2464L51.6844 36.8386L48.0125 38.4123L42.7201 40H37.3758L34.1373 39.4602L30.8694 38.371L28.1417 36.7343L25.4328 34.5672L23.314 31.9187L21.4999 29.5V26.1459L23.2188 22.7082L24.9762 20.3649L30.451 17.0801L35.8514 16H44.2434L45.8626 16.5398L48.9065 17.0471L51.574 18.1141L55.1313 19.6386L58.24 21.193L59.4435 21.9588L59.0386 20.3391L58.304 16.9112L57.1494 13.6784L55.2963 10.8987L52.9446 8.07666L50.687 6.27058L47.9245 4.88931L45.1373 3.96024L42.3758 3.5H34.6485L32.3098 3.96774L27.9138 4.94463L19.5681 7.89017L12.1904 11.3331L1.74415 17.3024L0.255737 14.6976L10.8095 8.66691L18.4318 5.10983L27.0861 2.05537L31.6901 1.03226L34.3514 0.5ZM59.6649 25.6556L56.7599 23.807L53.8685 22.3613L50.4259 20.8859L48.0934 19.9529L45.1373 19.4602L43.7565 19H36.1485L31.5489 19.9199L27.0236 22.6351L25.7811 24.2918L24.4999 26.8541V28.5L25.6859 30.0813L27.5671 32.4328L29.8582 34.2657L32.1305 35.629L34.8626 36.5398L37.6241 37H42.2798L46.9874 35.5877L50.3155 34.1614L52.6618 32.7536L54.5813 31.314L56.9588 29.4119L58.5418 27.6029L59.6023 25.9061L59.6649 25.6556Z" fill="#BACEE2"/>
</svg>
