<svg width="982" height="930" viewBox="0 0 982 930" fill="none" xmlns="http://www.w3.org/2000/svg">
<circle cx="741.61" cy="105.564" r="94.6975" fill="#D3B3A7"/>
<circle cx="740.131" cy="105.069" r="84.34" fill="#EDC9BC"/>
<circle cx="740.835" cy="104.369" r="64.3635" fill="white" stroke="#6F5773" stroke-width="2"/>
<circle cx="742.935" cy="100.936" r="17.7558" fill="#F8DAD0" fill-opacity="0.76"/>
<rect x="738.381" y="45.6104" width="4.217" height="8.43399" fill="#E95850" fill-opacity="0.72"/>
<rect x="713.078" y="52.5847" width="4.217" height="8.43399" transform="rotate(-40.6917 713.078 52.5847)" fill="#46274C" fill-opacity="0.78"/>
<rect x="693.4" y="69.4475" width="4.217" height="8.43399" transform="rotate(-40.6917 693.4 69.4475)" fill="#46274C" fill-opacity="0.78"/>
<rect x="682.364" y="100.846" width="4.217" height="8.43399" transform="rotate(-92.8831 682.364 100.846)" fill="#E95850" fill-opacity="0.72"/>
<rect x="691.416" y="132.377" width="4.217" height="8.43399" transform="rotate(-122.01 691.416 132.377)" fill="#46274C" fill-opacity="0.78"/>
<rect x="714.184" y="156.214" width="4.217" height="8.43399" transform="rotate(-158.306 714.184 156.214)" fill="#46274C" fill-opacity="0.78"/>
<rect x="745.373" y="162.781" width="4.217" height="8.43399" transform="rotate(-179.467 745.373 162.781)" fill="#E95850" fill-opacity="0.72"/>
<rect x="777.746" y="150.748" width="4.217" height="8.43399" transform="rotate(143.022 777.746 150.748)" fill="#46274C" fill-opacity="0.78"/>
<rect x="796.214" y="124.504" width="4.217" height="8.43399" transform="rotate(96.0975 796.214 124.504)" fill="#46274C" fill-opacity="0.78"/>
<rect x="799.222" y="101.328" width="4.217" height="8.43399" transform="rotate(96.0975 799.222 101.328)" fill="#E95850" fill-opacity="0.72"/>
<rect x="789.029" y="72.3196" width="4.217" height="8.43399" transform="rotate(56.9694 789.029 72.3196)" fill="#46274C" fill-opacity="0.78"/>
<rect x="762.604" y="52.6431" width="4.217" height="8.43399" transform="rotate(21.862 762.604 52.6431)" fill="#46274C" fill-opacity="0.78"/>
<path d="M741.893 102.539L705.345 77.2368C717.996 83.5623 743.579 97.3378 744.704 101.836C745.828 106.334 744.235 127.138 743.298 136.978L741.893 102.539Z" fill="#6F5773"/>
<path d="M391.922 80.6422C445.247 110.204 499.561 202.337 520.052 244.709C592.387 393.749 733.058 699.663 717.06 730.998C697.063 770.167 520.051 782.731 437.099 782.731C370.738 782.731 155.441 782.731 115.664 721.39C-6.54058 532.935 100.927 229.351 160.918 151.012C243.564 43.09 325.264 43.6902 391.922 80.6422Z" fill="#F2CD87"/>
<path d="M153.01 625.206C122.57 612.346 103.86 579.274 107.549 563.33H524.215L554.259 660.973C450.818 652.54 206.925 647.983 153.01 625.206Z" fill="#E4B061" fill-opacity="0.74"/>
<path d="M183.884 281.697C246.586 207.193 325.271 155.679 356.775 139.235C422.427 551.96 268.869 522.669 183.884 456.432C147.462 437.53 105.507 374.828 183.884 281.697Z" fill="#E4B061" fill-opacity="0.77"/>
<path d="M241.442 239.95C280.014 193.604 333.76 153.861 355.812 139.782C375.372 145.389 404.924 152.939 412.998 145.762C423.089 136.792 466.445 169.683 504.195 215.656C522.812 238.328 547.925 271.844 560.633 284.054C571.846 261.628 575.784 343.975 592.604 317.438L643.995 266.046C622.317 418.54 600.625 423.092 550.541 423.092C510.474 423.092 480.773 382.726 470.93 362.543L470.93 423.092L310.214 423.092C170.054 441.407 159.215 381.979 168.559 352.825C177.903 323.672 193.227 297.883 241.442 239.95Z" fill="white"/>
<path d="M402.352 162.125L393.661 147.105L381.06 162.125C373.412 225.385 366.865 340.742 364.547 390.513H384.102C383.059 369.662 395.834 229.567 402.352 162.125Z" fill="#8697FB"/>
<path d="M366.72 125.674C391.405 122.992 424.975 123.771 430.819 125.674L393.79 145.947L366.72 125.674Z" fill="#46274C"/>
<rect x="24.5358" y="689.721" width="222.141" height="65.6766" rx="6" fill="#5E75FF"/>
<rect x="0.390839" y="755.398" width="287.818" height="62.7791" rx="10" fill="#90AEAD"/>
<rect x="79.5898" y="689.721" width="10.6242" height="65.6766" fill="#FBF1DC"/>
<rect x="96.9745" y="689.721" width="10.6242" height="65.6766" fill="#FBF1DC"/>
<rect x="35.1603" y="772.781" width="221.176" height="28.0091" fill="white" fill-opacity="0.71"/>
<path d="M35.1885 755.888H212.902" stroke="#46274C" stroke-opacity="0.81" stroke-width="2" stroke-linecap="round"/>
<path d="M427.317 780.086C418.265 784.974 411.795 796.222 410.258 802.677C422.86 802.677 455.072 790.782 462.817 783.774C470.563 776.766 466.044 743.049 462.817 727.066C438.382 749.657 450.369 767.638 427.317 780.086Z" fill="#E95850"/>
<path d="M440.892 47.3796C442.359 40.3598 440.281 33.3401 439.058 30.7077C426.833 24.8579 400.55 14.9132 393.215 21.933C385.88 28.9527 388.936 50.012 391.381 59.6641C378.545 30.7077 352.873 45.6246 352.873 63.174C352.873 77.2135 368.765 80.7234 376.711 80.7234V139.514C396.515 155.659 413.691 146.241 419.804 139.514L421.638 113.19C450.977 104.415 448.227 77.2135 444.559 68.4388C440.892 59.6641 439.058 56.1543 440.892 47.3796Z" fill="#EAA296"/>
<ellipse cx="4.69052" cy="9.54323" rx="4.69052" ry="9.54323" transform="matrix(0.987054 -0.160386 0.136365 0.990659 435.245 64.2327)" fill="#E9746E" fill-opacity="0.78"/>
<ellipse cx="7.98517" cy="11.5086" rx="7.98517" ry="11.5086" transform="matrix(0.984571 0.174985 -0.117907 0.993025 397.493 60.9585)" fill="#E9746E" fill-opacity="0.78"/>
<path d="M390.464 107.048C402.2 115.472 416.747 114.653 422.554 113.191L420.603 131.2C404.467 128.392 393.826 113.483 390.464 107.048Z" fill="#46274C"/>
<path d="M369.379 43.8726C382.582 41.7667 389.353 55.8529 391.492 62.2877C391.187 53.5129 392.3 33.8692 395.968 32.4653C400.552 30.7103 428.058 32.4653 439.06 30.7103C450.062 28.9554 457.398 25.4455 458.315 15.7934C459.048 8.07164 455.564 2.62992 449.146 1.75358C424.639 -1.59276 384.049 -0.0013553 376.714 5.26346C370.846 9.47531 369.379 17.548 369.379 21.0579V43.8726Z" fill="#46274C"/>
<path d="M362.958 55.2817L378.888 60.9659L368.459 66.6888" stroke="#46274C" stroke-width="2" stroke-linecap="round"/>
<path d="M419.304 53.0127C418.658 57.7248 415.233 67.1489 406.702 67.1489C396.04 67.1489 394.101 56.7824 394.101 53.0127" stroke="white" stroke-width="2"/>
<path d="M450.59 53.0127C449.62 57.0539 445.937 65.5093 438.957 67.0014C431.978 68.4935 427.002 58.2973 425.387 53.0127" stroke="white" stroke-width="2"/>
<path d="M450.59 53.0127H388.016" stroke="white" stroke-width="2" stroke-linecap="round"/>
<path d="M354.869 140.633L367.968 124.727L393.533 146.597L431.08 125.025L438.422 153.731C377.877 147.268 360.992 146.935 354.869 140.633Z" fill="white"/>
<path d="M381.497 162.566C372.682 236.287 364.55 357.823 364.55 392.721" stroke="#46274C" stroke-width="2"/>
<path d="M401.687 160.539L384.102 380.795" stroke="#46274C" stroke-width="2"/>
<path d="M436.679 153.732L410.889 175.669L393.269 147.246L373.117 172.96L354.455 138.663" stroke="#46274C" stroke-width="2"/>
<ellipse cx="4.24628" cy="4.19376" rx="4.24628" ry="4.19376" transform="matrix(-0.924625 -0.380878 -0.370247 0.928933 396.498 169.739)" fill="white"/>
<ellipse cx="4.24628" cy="4.19376" rx="4.24628" ry="4.19376" transform="matrix(-0.924625 -0.380878 -0.370247 0.928933 393.266 212.249)" fill="white"/>
<path d="M460.156 1.39068C466.671 8.38403 466.807 31.4071 437.651 28.592" stroke="#46274C" stroke-width="2" stroke-linecap="round"/>
<path d="M558.354 287.586C556.326 300.986 552.27 330.083 552.27 339.272" stroke="#46274C" stroke-width="2" stroke-linecap="round"/>
<ellipse cx="5.43558" cy="3.13356" rx="5.43558" ry="3.13356" transform="matrix(-0.970601 -0.240693 -0.233321 0.9724 393.476 402.822)" fill="white" fill-opacity="0.63"/>
<path d="M806.368 731.941L792.01 683.973L694.788 724.215L712.62 773.502L806.368 731.941Z" fill="#EAA296"/>
<path d="M805.501 731.615L814.062 762.551C824.552 828.236 761.82 831.067 729.143 824.272L711.754 773.176L805.501 731.615Z" fill="white"/>
<path d="M770.769 816.435L717.25 784.597C678.173 830.735 687.553 883.583 697.128 904.24L979.723 813.072C976.578 803.022 969.169 777.793 956.053 767.254C936.094 751.216 838.259 774.059 820.835 783.005C806.896 790.162 790.083 806.903 770.769 816.435Z" fill="#E95850"/>
<path d="M974.178 796.332L693.817 884.453C689.193 885.906 694.111 898.263 697.148 904.26L979.048 812.797L974.178 796.332Z" fill="#46274C"/>
<path d="M840.491 778.47L805.886 816.956" stroke="#46274C" stroke-width="3" stroke-linecap="round"/>
<path d="M820.101 782.415L779.087 814.958" stroke="#46274C" stroke-width="3" stroke-linecap="round"/>
<path d="M972.555 797.431L692.537 884.256" stroke="white" stroke-width="4" stroke-linecap="round"/>
<path d="M528.566 496.916L479.942 491.78L503.102 571.525L547.541 564.911L528.566 496.916Z" fill="#E97E77"/>
<path d="M528.957 498.891L562.56 495.729C621.18 494.81 607.801 539.3 595.828 558.825L570.861 565.216L548.501 565.216L528.957 498.891Z" fill="white"/>
<path d="M596.852 532.561L561.77 564.12C594.259 592.04 639.209 589.397 658.818 585.249L633.032 403.764C623.775 404.852 600.627 407.283 589.082 414.463C571.516 425.387 572.922 487.483 577.38 498.953C580.946 508.128 592.242 519.879 596.852 532.561Z" fill="#ECE9E8"/>
<path d="M617.556 405.763L641.131 585.617C641.52 588.584 653.099 586.6 658.84 585.237L632.668 404.155L617.556 405.763Z" fill="#46274C"/>
<path d="M577.144 486.483L603.869 511.008" stroke="#46274C" stroke-width="3" stroke-linecap="round"/>
<path d="M618.198 406.856L640.721 586.389" stroke="white" stroke-width="4" stroke-linecap="round"/>
<path d="M258.264 346.102L315.449 284.805C306.062 305.666 291.656 346.862 306.995 349.84H310.964C309.464 350.071 308.145 350.063 306.995 349.84H283.472L258.264 346.102Z" fill="#ECE9E8"/>
<path d="M249.665 346.474C263.185 346.474 272.867 350.959 311.709 350.959" stroke="#46274C" stroke-width="2"/>
<path d="M162.893 467.663C213.194 439.93 307.088 423.959 332.485 417.567C515.122 467.661 644.332 381.572 682.797 417.565C721.263 453.559 764.173 555.027 840.469 667.298L667.263 748.734L584.303 500.473H492.589C498.914 518.658 511.423 610.682 515.122 633.3C371.226 623.417 197.66 612.344 187.008 611.164C173.692 609.688 110.991 600.483 104.333 560.654C97.676 520.825 100.017 502.329 162.893 467.663Z" fill="#9872EF"/>
<path d="M503.366 251.077H631.343C634.317 251.077 636.633 253.658 636.314 256.615L615.996 444.652H458.858L498.472 255.055C498.956 252.738 500.999 251.077 503.366 251.077Z" fill="white" stroke="#46274C" stroke-width="2" stroke-linecap="round"/>
<path d="M374.71 425.904L472.435 427.181L470.042 445.99H420.07L369.645 441.395V430.904C369.645 428.117 371.923 425.868 374.71 425.904Z" fill="#46274C"/>
<path d="M512.889 249.842H660.349C663.525 249.842 665.896 252.764 665.242 255.871L625.066 446.836L468.533 444.582L507.993 253.829C508.473 251.507 510.518 249.842 512.889 249.842Z" fill="#46274C"/>
<ellipse cx="13.9444" cy="22.1932" rx="13.9444" ry="22.1932" transform="matrix(-0.989131 -0.147039 -0.147039 0.989131 588.616 325.374)" fill="white" fill-opacity="0.47"/>
<path d="M490.478 501.153C460.203 504.227 385.084 508.53 326.808 501.153" stroke="#46274C" stroke-opacity="0.73" stroke-width="2"/>
<path d="M637.01 406.379L613.356 391.008C609.422 384.889 617.078 373.334 621.312 371.508L624.574 368.594C628.926 360.992 632.622 353.383 631.578 346.191C630.65 339.791 621.427 314.699 627.293 311.487C631.985 308.917 639.594 320.307 641.664 323.535C640.186 312.757 641.452 300.725 647.843 302.334C652.955 303.62 653.337 309.802 653.61 315.093C661.88 293.265 668.182 285.882 669.182 295.32C672.416 325.859 679.431 347.939 637.01 406.379Z" fill="#EAA296"/>
<path d="M655.004 317.975C655.655 322.56 656.987 332.836 657.105 337.257" stroke="#46274C" stroke-width="2" stroke-linecap="round"/>
<path d="M640.432 321.966C643.263 328.929 648.641 344.158 647.51 349.362C646.379 354.566 645.056 356.52 644.536 356.847" stroke="#46274C" stroke-width="2" stroke-linecap="round"/>
<ellipse cx="6.01369" cy="2.60929" rx="6.01369" ry="2.60929" transform="matrix(-0.173872 -0.984768 0.999845 -0.0176019 648.765 315.284)" fill="white" fill-opacity="0.63"/>
<ellipse cx="4.63937" cy="2.60929" rx="4.63937" ry="2.60929" transform="matrix(0.150272 -0.988645 0.952941 0.303155 663.395 301.035)" fill="white" fill-opacity="0.63"/>
<ellipse cx="5.42061" cy="2.77846" rx="5.42061" ry="2.77846" transform="matrix(-0.676262 -0.736661 0.813002 -0.582261 634.21 323.068)" fill="white" fill-opacity="0.63"/>
<path d="M626.208 622.626C575.924 609.975 552.811 579.404 547.54 565.7H564.934C581.063 578.666 604.861 585.07 614.744 586.652L626.208 622.626Z" fill="#E4B061"/>
<path d="M315.683 381L317.632 408.444C321.363 414.681 336.536 413.557 340.564 410.795L345.108 409.373C354.721 409.22 363.988 409.631 370.302 413.9C375.92 417.698 394.941 437.363 401.173 433.855C406.159 431.049 399.369 419.195 397.399 415.91C406.907 422.233 419.093 426.798 420.999 420.578C422.524 415.602 416.82 412.374 411.908 409.657C437.235 412.831 447.689 410.908 439.205 405.623C411.749 388.521 394.419 372.157 315.683 381Z" fill="#EAA296"/>
<path d="M409.902 407.112C405.868 404.402 396.761 398.439 392.598 396.263" stroke="#46274C" stroke-width="2" stroke-linecap="round"/>
<path d="M398.23 417.701C393.097 412.012 381.436 400.264 375.851 398.788C370.265 397.312 367.684 397.526 367.091 397.818" stroke="#46274C" stroke-width="2" stroke-linecap="round"/>
<ellipse cx="6.32936" cy="2.62519" rx="6.32936" ry="2.62519" transform="matrix(0.805556 0.580489 0.55228 -0.841631 409.11 413.71)" fill="white" fill-opacity="0.63"/>
<ellipse cx="5.03059" cy="2.55765" rx="5.03059" ry="2.55765" transform="matrix(0.94642 0.309487 0.228209 -0.976547 430.615 407.89)" fill="white" fill-opacity="0.63"/>
<path d="M329.619 531.142C345.229 523.15 359.619 517.343 373.384 508.265" stroke="#46274C" stroke-opacity="0.73" stroke-width="2"/>
<ellipse cx="5.36553" cy="2.98584" rx="5.36553" ry="2.98584" transform="matrix(0.343377 0.9336 0.925733 -0.392613 393.824 422.506)" fill="white" fill-opacity="0.63"/>
<path d="M324.352 422.348C348.174 426.193 347.549 406.276 375.802 418.594C369.529 410.224 353.577 405.264 342.868 408.319C334.3 410.762 325.38 410.247 324.352 410.014L324.352 422.348Z" fill="#E97E77"/>
<path d="M328.904 421.974L334.571 353.583L315.136 351.714L309.842 421.974L328.904 421.974Z" fill="#8697FB"/>
<path d="M696.105 431.075C778.631 600.278 796.612 673.583 796.612 686.954L845.943 667.129C811.642 630.614 742.209 495.621 696.105 431.075Z" fill="#B88CF6"/>
<path d="M459.445 784.952L462.214 726.729C515.008 734.061 548.071 777.85 559.593 799.395L363.349 923.464C357.066 914.003 341.077 890.58 338.882 874.034C335.543 848.856 396.811 799.535 411.455 794.314C423.171 790.138 443.506 791.02 459.445 784.952Z" fill="#DD3728"/>
<path d="M353.02 907.504L545.932 782.716C549.114 780.658 556.368 793 559.598 799.429L363.439 922.813L353.02 907.504Z" fill="#46274C"/>
<path d="M399.19 804.269L444.128 809.03" stroke="#46274C" stroke-width="3" stroke-linecap="round"/>
<path d="M411.333 793.392L454.593 789.488" stroke="#46274C" stroke-width="3" stroke-linecap="round"/>
<path d="M625.103 398.804C610.254 388.006 621.722 374.83 625.103 368.836C619.11 371.602 613.761 376.674 611.733 386.817C608.966 400.648 623.258 412.635 632.94 410.33C640.685 408.486 648.154 391.581 651.381 384.512C647.232 390.505 635.246 406.181 625.103 398.804Z" fill="#E97E77"/>
<path d="M354.588 907.205L546.355 781.703" stroke="white" stroke-width="4" stroke-linecap="round"/>
</svg>
