<svg width="113" height="79" viewBox="0 0 113 79" fill="none" xmlns="http://www.w3.org/2000/svg">
<path d="M104.384 64.0502L107.096 62.9076C107.055 62.7126 107.016 62.5174 106.978 62.322C107.016 62.5178 107.056 62.7135 107.096 62.909C108.215 68.3289 110.04 73.5866 111.126 76.3483L110.65 76.7067C109.548 75.8452 108.244 74.8772 106.789 73.8609L108.987 71.9544C107.564 69.1402 106.078 66.5597 104.384 64.0502ZM58.862 23.0821L61.1788 24.4234L61.1897 24.5098L60.2174 23.9037C59.7625 23.62 59.3107 23.3463 58.862 23.0821ZM60.7919 25.7918L61.3243 24.6081L61.3945 24.6546L60.6209 26.1447C60.5213 26.3366 60.4109 26.5294 60.2921 26.7219C60.5012 26.3832 60.6653 26.0731 60.7919 25.7918ZM32.4966 17.6836C36.8549 16.4668 42.5057 16.4272 49.1754 18.6197C42.5024 16.4284 36.8457 16.4696 32.4966 17.6836ZM58.7976 14.5018C57.2391 10.6522 55.0849 7.79324 52.5029 5.75336C55.0871 7.795 57.2401 10.6536 58.7976 14.5018Z" fill="#BACEE2" fill-opacity="0.3" stroke="black" stroke-width="3"/>
</svg>
