<svg width="21.000000" height="20.874023" viewBox="0 0 21 20.874" fill="none" xmlns="http://www.w3.org/2000/svg" xmlns:xlink="http://www.w3.org/1999/xlink">
	<desc>
			Created with Pixso.
	</desc>
	<defs/>
	<path id="Vector" d="M21 10.5C21 4.70166 16.2984 0 10.5 0C4.70157 0 0 4.70166 0 10.5C0 15.7407 3.83905 20.0845 8.85938 20.873L8.85938 13.5361L6.19266 13.5361L6.19266 10.5L8.85938 10.5L8.85938 8.18677C8.85938 5.55566 10.4273 4.10107 12.8255 4.10107C13.9744 4.10107 15.1762 4.3064 15.1762 4.3064L15.1762 6.89062L13.8516 6.89062C12.548 6.89062 12.1402 7.69971 12.1402 8.53125L12.1402 10.5L15.052 10.5L14.587 13.5361L12.1406 13.5361L12.1406 20.874C17.1609 20.0859 21 15.7419 21 10.5Z" fill="#818698" fill-opacity="1.000000" fill-rule="evenodd"/>
</svg>
