<svg width="19.737305" height="19.737305" viewBox="0 0 19.7373 19.7373" fill="none" xmlns="http://www.w3.org/2000/svg" xmlns:xlink="http://www.w3.org/1999/xlink">
	<desc>
			Created with Pixso.
	</desc>
	<defs/>
	<path id="Vector" d="M9.86618 6.74438C8.14584 6.74438 6.74194 8.14844 6.74194 9.86865C6.74194 11.5889 8.14584 12.9929 9.86618 12.9929C11.5865 12.9929 12.9904 11.5889 12.9904 9.86865C12.9904 8.14844 11.5865 6.74438 9.86618 6.74438ZM19.2365 9.86865C19.2365 8.57495 19.2482 7.29297 19.1755 6.00146C19.1029 4.50146 18.7607 3.17017 17.6638 2.07324C16.5646 0.974121 15.2357 0.634277 13.7357 0.561523C12.442 0.489014 11.1599 0.500732 9.8685 0.500732C8.57477 0.500732 7.29272 0.489014 6.00131 0.561523C4.50131 0.634277 3.17007 0.976562 2.07321 2.07324C0.973969 3.17261 0.634125 4.50146 0.561493 6.00146C0.488831 7.29517 0.500549 8.57715 0.500549 9.86865C0.500549 11.1602 0.488831 12.4443 0.561493 13.7358C0.634125 15.2358 0.976318 16.5671 2.07321 17.6641C3.17242 18.7632 4.50131 19.103 6.00131 19.1758C7.29507 19.2483 8.57712 19.2366 9.8685 19.2366C11.1623 19.2366 12.4443 19.2483 13.7357 19.1758C15.2357 19.103 16.567 18.7607 17.6638 17.6641C18.763 16.5647 19.1029 15.2358 19.1755 13.7358C19.2505 12.4443 19.2365 11.1624 19.2365 9.86865ZM9.86618 14.6758C7.20602 14.6758 5.05914 12.5288 5.05914 9.86865C5.05914 7.2085 7.20602 5.06152 9.86618 5.06152C12.5263 5.06152 14.6732 7.2085 14.6732 9.86865C14.6732 12.5288 12.5263 14.6758 9.86618 14.6758ZM14.8701 5.9873C14.249 5.9873 13.7474 5.48584 13.7474 4.86475C13.7474 4.24365 14.249 3.74219 14.8701 3.74219C15.4912 3.74219 15.9927 4.24365 15.9927 4.86475C15.9929 5.01221 15.964 5.1582 15.9077 5.29468C15.8513 5.43091 15.7686 5.55469 15.6643 5.65894C15.56 5.76318 15.4362 5.84595 15.2999 5.90234C15.1636 5.95874 15.0175 5.98755 14.8701 5.9873Z" fill="#818698" fill-opacity="1.000000" fill-rule="nonzero"/>
	<path id="Vector" d="M6.74194 9.86865C6.74194 11.5889 8.14584 12.9929 9.86618 12.9929C11.5865 12.9929 12.9904 11.5889 12.9904 9.86865C12.9904 8.14844 11.5865 6.74438 9.86618 6.74438C8.14584 6.74438 6.74194 8.14844 6.74194 9.86865ZM19.1755 6.00146C19.1029 4.50146 18.7607 3.17017 17.6638 2.07324C16.5646 0.974121 15.2357 0.634277 13.7357 0.561523C12.442 0.489014 11.1599 0.500732 9.8685 0.500732C8.57477 0.500732 7.29272 0.489014 6.00131 0.561523C4.50131 0.634277 3.17007 0.976562 2.07321 2.07324C0.973969 3.17261 0.634125 4.50146 0.561493 6.00146C0.488831 7.29517 0.500549 8.57715 0.500549 9.86865C0.500549 11.1602 0.488831 12.4443 0.561493 13.7358C0.634125 15.2358 0.976318 16.5671 2.07321 17.6641C3.17242 18.7632 4.50131 19.103 6.00131 19.1758C7.29507 19.2483 8.57712 19.2366 9.8685 19.2366C11.1623 19.2366 12.4443 19.2483 13.7357 19.1758C15.2357 19.103 16.567 18.7607 17.6638 17.6641C18.763 16.5647 19.1029 15.2358 19.1755 13.7358C19.2505 12.4443 19.2365 11.1624 19.2365 9.86865C19.2365 8.57495 19.2482 7.29297 19.1755 6.00146ZM5.05914 9.86865C5.05914 7.2085 7.20602 5.06152 9.86618 5.06152C12.5263 5.06152 14.6732 7.2085 14.6732 9.86865C14.6732 12.5288 12.5263 14.6758 9.86618 14.6758C7.20602 14.6758 5.05914 12.5288 5.05914 9.86865ZM13.7474 4.86475C13.7474 4.24365 14.249 3.74219 14.8701 3.74219C15.4912 3.74219 15.9927 4.24365 15.9927 4.86475C15.9929 5.01221 15.964 5.1582 15.9077 5.29468C15.8513 5.43091 15.7686 5.55469 15.6643 5.65894C15.56 5.76318 15.4362 5.84595 15.2999 5.90234C15.1636 5.95874 15.0175 5.98755 14.8701 5.9873C14.249 5.9873 13.7474 5.48584 13.7474 4.86475Z" stroke="#000000" stroke-opacity="1.000000" stroke-width="1.000000"/>
</svg>
