<svg width="20.000000" height="20.000000" viewBox="0 0 20 20" fill="none" xmlns="http://www.w3.org/2000/svg" xmlns:xlink="http://www.w3.org/1999/xlink">
	<desc>
			Created with Pixso.
	</desc>
	<defs/>
	<path id="Vector" d="M7.42899 6.96899L11.143 6.96899L11.143 8.81909C11.678 7.75488 13.05 6.79907 15.111 6.79907C19.062 6.79907 20 8.91699 20 12.803L20 20L16 20L16 13.688C16 11.4751 15.465 10.2271 14.103 10.2271C12.214 10.2271 11.429 11.572 11.429 13.687L11.429 20L7.42899 20L7.42899 6.96899ZM0.570007 19.8301L4.57001 19.8301L4.57001 6.79907L0.570007 6.79907L0.570007 19.8301ZM5.14301 2.55005C5.14316 2.88525 5.07666 3.21729 4.94739 3.52661C4.81812 3.83594 4.62866 4.11646 4.39001 4.35205C3.9064 4.83252 3.2518 5.10156 2.57001 5.1001C1.8894 5.09961 1.2363 4.8313 0.752014 4.35303C0.514221 4.1167 0.325378 3.83594 0.19635 3.52637C0.0672913 3.21704 0.000579834 2.88525 0 2.55005C0 1.87305 0.269989 1.2251 0.752991 0.74707C1.23688 0.268066 1.89023 -0.000244141 2.57101 0C3.25299 0 3.90701 0.269043 4.39001 0.74707C4.87201 1.2251 5.14301 1.87305 5.14301 2.55005Z" fill="#818698" fill-opacity="1.000000" fill-rule="evenodd"/>
</svg>
