<svg width="21.000000" height="14.718750" viewBox="0 0 21 14.7188" fill="none" xmlns="http://www.w3.org/2000/svg" xmlns:xlink="http://www.w3.org/1999/xlink">
	<desc>
			Created with Pixso.
	</desc>
	<defs/>
	<path id="Vector" d="M20.5617 2.29932C20.4422 1.854 20.2078 1.448 19.882 1.12183C19.5563 0.795654 19.1505 0.560791 18.7055 0.440674C17.0672 0 10.5 0 10.5 0C10.5 0 3.9328 0 2.29453 0.438232C1.84927 0.558105 1.44333 0.792725 1.11752 1.1189C0.791687 1.44531 0.557434 1.85156 0.438293 2.29688C0 3.9375 0 7.35938 0 7.35938C0 7.35938 0 10.7812 0.438293 12.4194C0.679688 13.3242 1.39218 14.0366 2.29453 14.2781C3.9328 14.7188 10.5 14.7188 10.5 14.7188C10.5 14.7188 17.0672 14.7188 18.7055 14.2781C19.6102 14.0366 20.3203 13.3242 20.5617 12.4194C21 10.7812 21 7.35938 21 7.35938C21 7.35938 21 3.9375 20.5617 2.29932ZM8.41406 10.5L8.41406 4.21875L13.8516 7.33594L8.41406 10.5Z" fill="#818698" fill-opacity="1.000000" fill-rule="nonzero"/>
</svg>
