<svg xmlns="http://www.w3.org/2000/svg" width="512" height="512"><path d="M280.53 64.872c-9.132 2.307-17.222 9.058-21.451 17.901-2.36 4.936-2.652 6.393-2.652 13.227 0 6.661.331 8.416 2.499 13.227 2.326 5.162 6.283 9.342 57.146 60.373l54.646 54.827-156.559.028c-148.003.026-156.8.111-160.966 1.55-19.896 6.876-27.527 32.362-14.695 49.078 3.624 4.72 8.93 8.747 14.576 11.062L57.6 288l156.117.229 156.116.229-54.204 54.384c-50.437 50.605-54.377 54.77-56.703 59.931-2.168 4.811-2.499 6.566-2.499 13.227 0 6.834.292 8.291 2.652 13.227 3.358 7.022 8.619 12.278 15.694 15.679 4.947 2.379 6.377 2.667 13.227 2.667 6.911 0 8.278-.281 13.653-2.814 5.703-2.687 9.754-6.598 89.277-86.187 90.184-90.258 86.795-86.522 88.616-97.709.486-2.989.486-6.737 0-9.726-1.821-11.187 1.568-7.451-88.616-97.709-78.562-78.628-83.629-83.524-89.026-86.037-6.307-2.936-15.455-4.014-21.374-2.519" fill-rule="evenodd"/></svg>