<svg width="12" height="8" fill="none" xmlns="http://www.w3.org/2000/svg"><path d="M.795.7a.857.857 0 0 0-.541.455C.195 1.28.19 1.305.19 1.5c0 .37-.121.223 1.725 2.081.881.886 2.068 2.07 2.638 2.631 1.008.991 1.04 1.021 1.157 1.059.162.053.418.053.58 0 .117-.038.149-.068 1.172-1.074.579-.57 1.766-1.754 2.638-2.631 1.778-1.789 1.693-1.69 1.714-2.001a.797.797 0 0 0-.485-.819c-.106-.05-.141-.056-.319-.055a.766.766 0 0 0-.32.048c-.143.056-.171.084-2.895 2.8L6 5.33 4.215 3.549C1.471.812 1.453.794 1.31.741A1.131 1.131 0 0 0 .795.7"/></svg>