<svg width="20" height="20" fill="none" xmlns="http://www.w3.org/2000/svg"><path d="M4.283.032C2.592.056 2.441.068 1.984.213 1.176.47.452 1.2.204 2.008a5.799 5.799 0 0 0-.128.6C.02 2.96.017 3.424.017 9.967c0 5.518.009 7.06.043 7.35.17 1.441 1.174 2.451 2.608 2.624.504.061 14.358.055 14.749-.006.577-.09 1.022-.277 1.428-.599a2.906 2.906 0 0 0 1.091-1.969c.061-.486.064-14.179.004-14.682-.101-.839-.419-1.448-1.03-1.969-.441-.376-.923-.567-1.643-.65C16.89.022 6.825-.004 4.283.032m12.88 2.02c.117.01.252.038.3.063.16.082.429.399.47.552.026.095.041.583.045 1.446.005 1.289.004 1.306-.072 1.519a1.877 1.877 0 0 1-.454.729 1.988 1.988 0 0 1-.812.545c-.323.11-.957.11-1.28 0a2.072 2.072 0 0 1-.791-.515c-.355-.366-.504-.697-.57-1.268-.067-.572-.199-.801-.572-.987A.771.771 0 0 0 13 4.033c-.404 0-.797.271-.915.63a3.387 3.387 0 0 0-.087.47c-.069.597-.235.937-.646 1.327-.416.396-.882.563-1.469.529-.541-.032-.94-.213-1.314-.598-.355-.366-.504-.697-.57-1.268-.067-.572-.199-.801-.572-.987A.771.771 0 0 0 7 4.033c-.404 0-.797.271-.915.63a3.243 3.243 0 0 0-.087.47c-.069.583-.235.933-.621 1.304-.253.243-.437.361-.73.468-.297.108-.974.109-1.287.001a2.142 2.142 0 0 1-1.265-1.262c-.059-.164-.072-.294-.085-.844-.008-.358-.002-.996.014-1.418.027-.73.033-.774.108-.884.129-.188.243-.3.385-.376.131-.071.161-.072 2.283-.09 2.488-.021 12.047-.005 12.363.02M7.336 7.954c.579.529 1.286.857 2.142.996.231.038.934.02 1.222-.031a3.82 3.82 0 0 0 2.001-1.007c.141-.135.274-.245.295-.245.021 0 .156.11.3.244.606.567 1.297.896 2.182 1.039.232.038.934.02 1.222-.031.314-.056.626-.155.995-.317.134-.059.254-.097.266-.085.035.034.045 4.443.015 6.766l-.026 2.1-.112.156c-.125.174-.32.342-.461.399-.063.025-.639.043-1.731.054l-1.638.017-.017-2.646c-.019-2.91-.011-2.796-.23-3.258-.148-.311-.497-.664-.825-.835-.46-.239-.415-.236-2.936-.236-2.498 0-2.467-.002-2.908.22-.32.161-.703.542-.849.846-.224.465-.215.346-.234 3.263l-.017 2.646-1.637-.017c-1.093-.011-1.669-.029-1.732-.054-.141-.057-.336-.225-.461-.399l-.112-.156-.026-2c-.029-2.23-.019-6.832.015-6.866.012-.012.132.026.266.085.614.27 1.051.365 1.678.365 1.086 0 2.078-.4 2.808-1.13.22-.221.162-.234.545.117M12 15.5V18H8v-5h4v2.5"/></svg>