<svg width="15" height="13" fill="none" xmlns="http://www.w3.org/2000/svg"><path d="M13.513.326a.71.71 0 0 0-.426.198C12.829.746 11.42 2.093 8.513 4.9 5.536 7.774 4.622 8.65 4.602 8.65c-.026 0-.462-.45-1.333-1.378C2.203 6.136 2.122 6.07 1.75 6.031a1.212 1.212 0 0 0-.692.104 1.152 1.152 0 0 0-.635.812c-.04.19.001.419.112.632.123.238 1.9 3.14 2.548 4.162.123.194.247.354.342.443.514.475 1.361.486 1.876.023.071-.064.277-.297.457-.518.429-.525 4.269-5.129 5.694-6.826 3.143-3.745 2.933-3.469 2.934-3.851.001-.147-.011-.223-.045-.287a.902.902 0 0 0-.322-.327 1.038 1.038 0 0 0-.506-.072" fill="#0086C9" fill-rule="evenodd"/></svg>