<svg xmlns="http://www.w3.org/2000/svg" width="768" height="768"><path d="M342.4 67.239c-66.992 8.749-129.783 39.073-179.119 86.502C94.087 220.26 57.801 314.013 65.245 407.04c4.593 57.398 20.808 106.513 49.653 150.4 13.673 20.804 23.003 32.233 41.562 50.913 36.103 36.34 75.614 61.771 120.647 77.653 13.945 4.919 40.325 11.75 41.816 10.829.592-.366 1.077-49.304 1.077-108.751V480h-62.72v-96H320l.028-46.4c.024-41.002.314-47.695 2.489-57.53 8.847-40.009 41.055-73.444 81.323-84.421 9.47-2.581 13.874-2.832 58.56-3.337l48.32-.546v96.086l-35.52.394c-33.803.375-35.776.531-40.812 3.225-7.164 3.831-13.138 10.042-16.348 16.995-2.455 5.316-2.701 8.541-3.1 40.654l-.434 34.88h96.214v96h-96v221.44h4.32c2.375 0 11.373-1.198 19.995-2.662 114.215-19.399 210.051-100.977 247.516-210.692C698.336 453.575 703.138 423.4 703.117 384c-.028-52.082-9.814-94.464-32.364-140.16-47.912-97.088-140.705-163.476-247.024-176.731-18.163-2.264-63.549-2.191-81.329.13" fill-rule="evenodd"/></svg>