<svg xmlns="http://www.w3.org/2000/svg" width="384" height="448"><path d="M176.038 32.726c-59.609 4.891-114.25 38.081-146.477 88.973C5.019 160.455-4.744 207.772 2.312 253.76c10.338 67.379 57.465 125.458 121.501 149.738 8.438 3.199 12.07 3.612 15.662 1.781 1.206-.615 2.79-1.932 3.52-2.925 1.261-1.717 1.334-2.754 1.52-21.334l.195-19.529-4.355.534c-2.395.294-9.971.506-16.835.471-14.226-.073-18.841-.949-27.483-5.214-5.554-2.741-11.713-8.504-13.895-13.002-.758-1.562-2.802-5.881-4.543-9.599-5.744-12.267-10.403-18.233-18.523-23.72-5.171-3.494-7.876-6.603-7.876-9.052 0-4.907 13.813-3.592 23.56 2.244 5.633 3.372 9.487 7.264 14.029 14.166 7.402 11.249 13.531 16.583 22.189 19.309 6.333 1.995 11.495 2.458 17.431 1.562 4.821-.728 13.73-3.24 15.452-4.359.452-.293 1.383-2.883 2.069-5.756 1.443-6.041 4.551-12.563 8.165-17.135l2.53-3.201-5.794-.789c-35.481-4.832-58.066-18.386-70.366-42.229-7.402-14.349-10.691-29.737-10.697-50.041-.006-19.614 4.527-33.858 15.258-47.944l4.102-5.385-1.003-3.255c-1.72-5.58-2.365-10.579-2.365-18.33 0-8.636 1.223-16.529 3.699-23.864 1.547-4.585 1.955-5.218 3.661-5.692 7.539-2.093 26.145 4.833 46.552 17.327l4.313 2.64 6.567-1.551c14.447-3.412 23.878-4.418 41.448-4.418s27.001 1.006 41.448 4.418l6.567 1.551 4.313-2.64c20.407-12.494 39.013-19.42 46.552-17.327 1.706.474 2.114 1.107 3.661 5.692 4.458 13.208 4.999 30.305 1.334 42.194l-1.003 3.255 4.102 5.385c7.606 9.984 12.308 20.857 14.34 33.158 1.478 8.95 1.009 27.816-.954 38.344-5.172 27.741-18.439 46.506-40.788 57.693-9.793 4.901-27.66 9.893-40.372 11.278-2.2.24-4 .562-4 .716 0 .154 1.018 1.341 2.263 2.638 1.244 1.296 3.401 4.661 4.793 7.477 4.774 9.657 4.684 8.82 5.074 47.154.341 33.455.385 34.402 1.675 36.16 1.821 2.48 5.154 4.044 8.622 4.045 5.738.002 26.006-8.739 40.933-17.653 59.72-35.665 95.464-101.161 93.227-170.826-1.293-40.277-15.213-79.337-39.457-110.72-40.06-51.855-103.234-79.811-168.292-74.474M67.84 305.792c0 1.583 1.245 2.688 3.028 2.688 1.968 0 2.658-1.843 1.114-2.973-1.751-1.28-4.142-1.116-4.142.285m7.978 5.924c-1.507 2.437 2.602 6.298 4.588 4.312.831-.831.865-1.253.201-2.513-1.271-2.411-3.819-3.368-4.789-1.799m7.748 9.93c-1.23 1.23-1.23 1.185-.034 3.497 1.109 2.144 3.963 3.219 4.847 1.824.969-1.531.637-3.13-.99-4.756-1.837-1.838-2.459-1.93-3.823-.565m8.95 11.114c-1.186 1.311-1.013 1.979 1.131 4.36 1.68 1.867 4.668 1.94 5.243.129.531-1.673-1.162-4.31-3.285-5.118-2.028-.771-1.776-.822-3.089.629m12.521 8.857c-.868 1.622.175 3.116 2.777 3.974 3.92 1.294 6.457-1.517 3.656-4.052-1.6-1.447-5.643-1.399-6.433.078m31.977-.109c-1.479.622-1.974 1.243-1.974 2.477 0 3.068 5.348 3.653 7.344.803 1.943-2.774-1.53-4.895-5.37-3.28m-15.897 2.271c-2.02 2.02-.365 4.381 3.072 4.381 2.893 0 5.097-2.029 4.039-3.717-.842-1.343-5.955-1.82-7.111-.664" fill-rule="evenodd"/></svg>