<svg xmlns="http://www.w3.org/2000/svg" width="768" height="768"><path d="M115.504 33.383C86.598 38.364 60.29 57.451 46.839 83.2c-13.168 25.206-13.965 46.909-3.809 103.68 26.633 148.876 110.451 293.667 226.099 390.571 100.16 83.927 214.768 135.252 342.711 153.477 31.931 4.549 51.517 2.435 71.689-7.736 23.097-11.647 41.709-34.545 49.413-60.792 1.98-6.748 2.311-15.125 2.725-69.03.407-52.897.184-62.774-1.613-71.68-6.703-33.217-29.271-59.794-60.774-71.572-4.576-1.71-17.258-4.628-28.182-6.484-25.133-4.269-39.896-8-67.178-16.977-20.048-6.597-22.918-7.209-36.48-7.79-17.897-.765-30.959 1.576-44.472 7.971-13.609 6.441-19.775 11.069-36.507 27.402l-15.059 14.699-12.824-8.758c-45.967-31.393-91.706-77.195-123.91-124.081l-9.411-13.702 14.601-14.959c19.481-19.958 25.77-29.462 31.758-47.997 6.649-20.582 5.527-39.78-3.968-67.899-7.366-21.811-14.1-48.897-17.229-69.303-1.187-7.744-3.3-17.824-4.695-22.4-7.657-25.117-26.41-46.85-50.246-58.232-18.47-8.818-17.823-8.75-85.798-9.084-33.792-.166-64.471.22-68.176.859m122.899 64.443c2.641.943 6.804 3.241 9.251 5.107 7.775 5.931 10.461 12.314 14.052 33.394 4.286 25.163 9.701 46.885 17.44 69.966 7.146 21.314 7.861 28.841 3.63 38.187-1.809 3.996-10.188 13.404-27.364 30.723-23.619 23.816-24.859 25.316-26.995 32.64-3.987 13.674-.385 22.791 22.664 57.371 42.233 63.36 96.936 117.289 158.708 156.464 30.413 19.287 37.269 21.706 50.564 17.841 7.071-2.056 8.847-3.527 32.444-26.865 14.536-14.377 27.214-25.819 30.352-27.392 8.729-4.377 17.345-3.652 37.491 3.153 22.648 7.651 47.405 13.868 70.611 17.734 20.81 3.467 26.998 5.939 32.982 13.174 7.431 8.985 7.768 12.022 7.76 70.029-.005 32.264-.519 54.41-1.331 57.336-3.34 12.023-17.192 22.773-29.292 22.732-23.03-.079-88.749-13.864-128.09-26.867-106.081-35.064-206.318-103.309-276.611-188.328-46.756-56.55-86.731-128.576-109.951-198.108-12.835-38.432-24.534-92.936-26.353-122.778-.721-11.832-.594-12.687 2.88-19.355 4.026-7.727 10.346-13.42 17.878-16.105 7.11-2.534 110.195-2.581 117.28-.053" fill-rule="evenodd"/></svg>