<svg xmlns="http://www.w3.org/2000/svg" width="512" height="512"><path d="M239.36.523C174.592 5.702 118.656 31.34 74.407 76.13 61.392 89.304 54.058 98.149 44.49 112.213c-22.402 32.93-35.675 67.178-42.161 108.79-2.607 16.724-2.607 53.27 0 69.994 8.5 54.535 30.153 100.031 66.049 138.777 40.392 43.599 91.545 70.377 152.625 79.897 16.724 2.607 53.27 2.607 69.994 0 61.459-9.579 112.341-36.337 153.311-80.624 35.178-38.026 56.935-83.977 65.363-138.05 2.607-16.724 2.607-53.27 0-69.994-8.431-54.094-30.181-100.02-65.397-138.087C402.631 37.901 349.095 10.228 288 2.136 278.09.824 248.059-.172 239.36.523m34.133 37.911c34.679 2.943 67.697 13.688 96.323 31.344 11.475 7.078 13.814 8.777 29.754 21.602 1.633 1.314 1.487 1.587-4.947 9.256-16.782 20.001-45.084 41.272-75.05 56.404-12.626 6.376-32.623 15.057-33.158 14.394-.152-.187-3.286-5.717-6.966-12.287C261.257 126.66 230.972 79.404 210.27 51.2l-5.324-7.253 3.98-1.035c16.128-4.19 44.654-6.169 64.567-4.478M173.813 73.6c24.133 34.552 51.847 78.196 67.138 105.725l3.15 5.672-14.317 3.484c-49.169 11.968-101.204 19.484-154.264 22.282-8.917.47-20.111.857-24.876.859l-8.662.005 1.289-5.76c4.13-18.463 15.292-45.437 26.219-63.36 16.036-26.302 39.514-50.683 65.337-67.849 10.401-6.914 25.963-15.742 27.792-15.766.502-.007 5.54 6.612 11.194 14.708m257.83 52.907c25.405 34.422 40.261 75.492 42.523 117.56.537 9.996.493 10.408-1.069 9.951-5.236-1.532-35.303-5.702-53.684-7.445-25.019-2.373-69.454-2.386-89.6-.028-3.754.44-7.063.539-7.353.221-.289-.319-2.556-5.379-5.038-11.246-2.481-5.867-6.564-15.043-9.073-20.392-2.509-5.349-4.562-9.998-4.562-10.332 0-.333 3.744-2.235 8.32-4.226 41.169-17.917 82.014-46.368 106.037-73.862 3.89-4.452 7.208-8.095 7.373-8.095.165 0 2.921 3.552 6.126 7.894m-162.015 107.52c4.141 8.565 8.098 16.95 8.794 18.632l1.267 3.059-6.511 1.896c-24.01 6.991-57.653 23.942-82.664 41.651-33.486 23.708-66.552 57.567-89.61 91.759-8.362 12.4-7.043 12.181-14.968 2.482-14.123-17.283-29.284-44.462-36.367-65.193-7.396-21.647-10.908-40.602-11.743-63.39l-.533-14.544 27.22-1.05c67.299-2.595 131.099-11.955 183.807-26.967a6850.316 6850.316 0 0 1 13.503-3.838c.152-.039 3.664 6.937 7.805 15.503M403.2 279.046c13.232.936 27.986 2.766 38.4 4.764 9.673 1.856 27.964 6.258 29.205 7.029.805.499.559 2.996-1.069 10.851-9.318 44.977-33.817 87.004-68.878 118.16-8.253 7.334-21.755 17.57-22.36 16.952-.174-.177-1.875-8.002-3.781-17.389-7.745-38.138-20.442-84.41-33.513-122.124-2.847-8.214-4.984-15.127-4.749-15.361.471-.472 18.816-2.662 26.212-3.129 10.49-.663 29.281-.548 40.533.247m-104.156 24.101c11.52 31.346 22.582 67.473 30.711 100.296 4.689 18.931 12.054 53.81 11.462 54.281-1.501 1.196-22 8.03-31.026 10.344-60.337 15.464-123.63 4.641-175.364-29.987-4.459-2.984-9.227-6.327-10.595-7.429l-2.489-2.003 2.84-5.044c1.561-2.775 5.711-9.269 9.222-14.432 29.649-43.603 76.56-81.387 131.058-105.559 7.265-3.221 28.55-11.676 29.568-11.744.252-.016 2.327 5.058 4.613 11.277" fill-rule="evenodd"/></svg>