<svg width="18" height="24" fill="none" xmlns="http://www.w3.org/2000/svg"><path d="M5.535.032a1.784 1.784 0 0 0-1.172.552c-.269.269-.402.494-.54.916-.076.232-.085.304-.096.797-.01.449-.002.603.049.905.19 1.117.783 3.086 1.768 5.865.179.508.315.923.301.923-.014 0-.123-.027-.242-.06-.371-.103-.678-.128-.926-.076-.907.189-1.776 1.141-1.968 2.157a1.095 1.095 0 0 0 0 .503c.025.145.11.462.189.702.164.497.174.455-.138.557-.683.223-1.29.682-1.608 1.216-.833 1.4-.583 3.69.6 5.486 1.105 1.678 2.723 2.804 4.743 3.302.658.163.996.197 1.935.197.907 0 1.183-.023 1.83-.153 1.789-.36 3.217-1.109 4.41-2.312 1.346-1.357 2.191-3.098 2.533-5.219.169-1.044.183-2.578.031-3.42a6.286 6.286 0 0 0-.343-1.123c-.329-.734-.911-1.237-1.786-1.545a2.386 2.386 0 0 1-.293-.118c-.012-.012.158-.542.38-1.176.94-2.702 1.556-4.826 1.67-5.77.154-1.263-.404-2.292-1.412-2.603-.32-.099-.784-.097-1.02.004-.708.304-1.39 1.131-2.127 2.579-.51 1.003-.919 1.995-1.652 4.007-.169.462-.317.858-.329.881-.026.045-.017.068-.485-1.271-.945-2.702-1.807-4.592-2.593-5.684a4.947 4.947 0 0 0-.479-.536c-.46-.442-.698-.536-1.23-.483m.317 1.583c.393.25.867 1.135 1.378 2.572.724 2.034 1.717 4.936 1.696 4.957a8.71 8.71 0 0 1-.698.009c-.536-.005-.71.003-.807.038l-.125.044-.09-.245-.395-1.069c-.526-1.42-1.116-3.215-1.362-4.141-.182-.688-.239-1.021-.241-1.425-.003-.363.002-.401.074-.54.085-.166.234-.285.357-.285.043 0 .139.038.213.085m9.229.514c.055.034.13.123.173.209.066.129.076.189.076.437 0 .158-.021.387-.046.509-.134.648-.839 2.839-1.616 5.022-.44 1.237-.514 1.414-.59 1.414-.066 0-1.162-.2-1.341-.245-.089-.023-.127-.048-.127-.085 0-.029.141-.456.312-.949a414.475 414.475 0 0 1 1.477-4.188c.442-1.194.874-1.931 1.256-2.147.096-.055.319-.043.426.023m-4.611 8.594c1.443.157 2.657.385 3.456.649.349.116.914.383 1.106.524.281.207.458.566.603 1.229.056.257.067.418.078 1.125.008.489-.001.978-.022 1.2-.134 1.466-.761 3.121-1.611 4.25a7.125 7.125 0 0 1-2.695 2.162 7.235 7.235 0 0 1-1.74.508c-.465.077-1.625.077-2.115 0-1.945-.304-3.457-1.316-4.465-2.99-.326-.54-.604-1.163-.725-1.623-.083-.317-.118-1.095-.061-1.384.157-.806.871-1.433 1.361-1.195.166.08.72.647 1.059 1.083.49.632 1.008 1.445 1.202 1.889.13.298.134.471.012.592-.186.187-.561.216-.863.068-.255-.126-.524-.422-1.295-1.425-.433-.564-.64-.81-.68-.81-.078 0-.261.267-.333.486-.085.259-.078.732.014 1.029.165.53.427.935.933 1.44.561.56 1.131.885 1.766 1.008.437.084.797.037 1.205-.159.297-.142.667-.505.805-.789.138-.285.196-.545.173-.772l-.02-.188h.542v.154c0 .374.145 1.057.314 1.474.231.573.632.957 1.184 1.134.361.116.424.11.479-.047.098-.28.049-.624-.207-1.442-.179-.574-.22-.831-.201-1.258.023-.54.16-.983.471-1.527.372-.65 1.069-1.379 1.725-1.805.25-.162.485-.272 1.12-.526.209-.083.507-.217.661-.299.277-.145.6-.376.603-.431 0-.015-.027-.133-.062-.261-.077-.287-.194-.477-.361-.587l-.127-.084-1.052-.02c-1.121-.021-1.61-.052-2.282-.148-1.049-.148-1.747-.415-2.157-.825-.209-.209-.315-.384-.367-.608-.1-.422-.015-.713.244-.834.121-.057 1.707-.034 2.325.033m-5.048.825c.222.105.645.499.898.835.676.899 1.708 3.086 1.844 3.908.042.254.009.398-.128.554-.249.283-.625.171-1.247-.371-1.128-.983-2.742-3.447-2.671-4.076.029-.26.378-.707.668-.858.208-.108.395-.105.636.008m4.163 2.837c.182.039.435.087.563.107.129.02.241.049.25.064.01.015-.048.083-.128.152-.08.068-.281.257-.447.419l-.303.294-.207-.545a257.33 257.33 0 0 1-.219-.575c-.007-.018.022-.021.075-.007.047.012.234.053.416.091" fill="#7CD4FD" fill-rule="evenodd"/></svg>