<svg xmlns="http://www.w3.org/2000/svg" width="512" height="512"><path d="M37.547 1.337C21.78 4.751 7.848 17.349 2.399 33.117l-1.972 5.71v434.346l1.949 5.64c4.924 14.245 16.544 25.882 30.741 30.788l5.71 1.972h434.346l5.71-1.972c15.925-5.503 28.249-19.216 31.81-35.397 1.221-5.543 1.331-27.412 1.117-221.191l-.237-215.04-2.218-5.699c-3.093-7.944-6.827-13.44-13.152-19.357-6.357-5.947-13.839-9.869-22.176-11.628-8.766-1.848-427.935-1.803-436.48.048m136.724 98.321c15.531 7.652 21.944 26.663 14.312 42.429-5.956 12.304-20.541 19.834-33.735 17.417-24.785-4.541-35.059-33.543-18.666-52.694 6.214-7.26 14.01-10.471 24.694-10.172 6.74.188 8.414.566 13.395 3.02M192 304.213v112.214h-64V192h64v112.213m95.771-92.413.229 19.8 4.615-5.933c11.143-14.329 25.495-26.198 37.317-30.862 5.121-2.02 7.031-2.309 15.241-2.298 11.224.015 19.505 2.056 29.559 7.287 13.647 7.1 24.288 18.299 31.919 33.593 9.021 18.082 8.438 11.197 8.724 103.04l.249 80h-63.197v-64.27c0-42.6-.313-65.977-.928-69.334-1.228-6.702-5.32-14.222-9.965-18.31-19.097-16.81-48.457-6.673-53.033 18.31-.615 3.357-.928 26.734-.928 69.334v64.27h-63.146V192H287.542l.229 19.8" fill-rule="evenodd"/></svg>