<svg xmlns="http://www.w3.org/2000/svg" width="1024" height="1024"><path d="M54.613 96.531c0 .663 317.867 417.407 345.164 452.533 1.148 1.477-44.877 55.252-159.217 186.027C152.102 836.263 77.773 921.152 75.384 923.733l-4.343 4.694 70.72-.008 70.719-.008 127.055-145.089c69.881-79.799 127.599-144.884 128.263-144.632.664.251 50.957 65.545 111.763 145.097l110.556 144.64h141.342c77.737 0 141.341-.444 141.341-.986 0-.541-81.059-108.166-180.131-239.166S612.381 449.556 612.189 448.9c-.192-.657 68.579-79.984 152.824-176.284C849.259 176.317 918.187 97.087 918.187 96.55c0-.537-31.401-.977-69.779-.977H778.63L662.209 228.805c-64.032 73.278-116.602 132.99-116.823 132.693-.222-.296-45.516-60.25-100.655-133.231L344.479 95.573H199.546c-79.713 0-144.933.431-144.933.958M554.089 509.1c138.302 182.854 251.458 332.82 251.458 333.259 0 .439-17.459.592-38.797.34l-38.797-.459-231.749-302.933C368.742 372.693 254.062 222.728 241.359 206.05l-23.096-30.323 42.185.456 42.184.457L554.089 509.1" fill-rule="evenodd"/></svg>