<svg width="22" height="21" fill="none" xmlns="http://www.w3.org/2000/svg"><path d="M13.15.09a.949.949 0 0 0-.518.479l-.11.214v.974c0 .946.002.98.085 1.148.13.264.404.491.654.543.428.089.81-.053 1.038-.385.176-.256.195-.405.177-1.404-.014-.811-.023-.925-.09-1.072-.084-.189-.288-.382-.505-.481-.179-.081-.527-.089-.731-.016m-9.043.975c-.987.037-1.542.17-2.122.509A3.805 3.805 0 0 0 .2 3.907C.026 4.592.018 4.92.02 11.11c.002 4.295.014 5.894.047 6.238.107 1.096.487 1.894 1.233 2.592.609.569 1.303.88 2.229.996.383.048 11.505.049 12.568.001.858-.038 1.088-.087 1.644-.35 1.077-.509 1.866-1.5 2.099-2.634.115-.56.151-1.604.137-3.983l-.012-2.218-.085-.174c-.094-.19-.23-.32-.461-.44-.217-.114-.639-.111-.862.005a1.003 1.003 0 0 0-.454.48c-.073.16-.076.253-.106 2.822-.016 1.461-.046 2.789-.067 2.951-.064.514-.362.977-.831 1.288-.319.211-.565.271-1.294.314-.867.051-11.871.017-12.23-.038-.652-.099-1.297-.69-1.466-1.342-.078-.301-.128-1.432-.128-2.915l-.001-1.228 1.036-.001c1.046-.001 1.397-.027 2.264-.168 2.688-.437 5.382-1.769 7.288-3.604.207-.199.389-.351.404-.336.014.015.035.45.047.968.022 1.058.033 1.108.288 1.356.229.221.379.282.7.281.192-.001.311-.021.396-.067.171-.091.405-.31.473-.441.086-.168.116-.905.119-2.899.002-1.74.001-1.759-.079-1.925-.115-.237-.389-.5-.584-.559-.126-.038-.633-.047-2.384-.042-2.483.007-2.308-.012-2.619.275a.96.96 0 0 0-.027 1.378c.256.255.323.271 1.27.304.461.016.845.036.854.045.025.026-.509.516-.917.842a12.366 12.366 0 0 1-2.386 1.477c-1.378.653-2.55.974-4.071 1.116-.446.042-1.715.051-1.94.014l-.144-.024.026-3.174c.014-1.746.042-3.339.061-3.541.028-.299.059-.417.163-.637.151-.318.513-.7.815-.861.368-.196.509-.208 2.852-.245 2.847-.045 3.347-.06 3.508-.109.189-.056.484-.386.539-.602.124-.493-.077-.946-.523-1.176l-.18-.093-2.222.006c-1.222.004-2.527.018-2.9.032m13.951.572c-.227.117-1.402 1.285-1.498 1.491a1.018 1.018 0 0 0 .41 1.3c.15.088.208.1.465.098.208-.002.331-.022.422-.07.209-.109 1.45-1.367 1.537-1.56.082-.181.099-.484.039-.7-.053-.189-.312-.468-.53-.569a.999.999 0 0 0-.845.01m.33 4.921a.908.908 0 0 0-.681.401c-.267.421-.233.845.098 1.213.262.292.326.306 1.428.326l.955.018.186-.094c.267-.136.397-.258.505-.473.107-.215.126-.519.049-.776-.062-.209-.368-.518-.56-.567-.178-.044-1.673-.081-1.98-.048"/></svg>