<svg width="24" height="24" fill="none" xmlns="http://www.w3.org/2000/svg"><path d="M12.04 2.026a9.475 9.475 0 0 0-8.061 5.312c-.675 1.391-.959 2.623-.954 4.142.004 1.123.109 1.823.43 2.872l.171.559-.716 1.315C1.551 18.72 1.399 19.04 1.4 19.417c.001.196.081.513.178.699.111.215.442.519.693.636.207.097.271.107.669.103.242-.003 1.673-.134 3.18-.292l2.74-.288.54.182c1.104.372 1.952.512 3.1.512 1.413 0 2.605-.253 3.907-.83 2.735-1.213 4.798-3.817 5.387-6.799.196-.989.217-2.426.051-3.4-.661-3.869-3.589-6.922-7.401-7.716a10.266 10.266 0 0 0-2.404-.198m1.941 2.109a7.55 7.55 0 0 1 3.827 2.073c1.937 1.937 2.656 4.767 1.887 7.426-.647 2.239-2.486 4.175-4.694 4.944a6.911 6.911 0 0 1-2.486.421c-.973-.001-1.65-.122-2.68-.479-.527-.182-.605-.199-.935-.197-.198.001-1.435.113-2.75.25s-2.39.243-2.39.236c0-.008.369-.693.82-1.524.452-.831.86-1.617.907-1.748.065-.178.087-.332.089-.617.001-.345-.016-.437-.191-.997-.341-1.094-.456-1.998-.382-2.984.265-3.498 2.884-6.314 6.397-6.875.282-.046.601-.057 1.24-.046.73.013.933.031 1.341.117m-3.933 2.908c-1.141.148-2.244 1.01-2.74 2.14-.198.452-.282.899-.281 1.497.001.469.016.587.109.897.137.455.332.844.613 1.223.438.59 3.103 3.145 3.684 3.531.295.196.547.274.971.298.541.032.914-.101 1.411-.499.579-.466 2.285-2.08 2.919-2.763.897-.966 1.227-1.691 1.229-2.702.001-.494-.054-.862-.184-1.237-.54-1.544-2.127-2.576-3.671-2.385a3.272 3.272 0 0 0-1.222.364l-.414.204-.146-.088A3.627 3.627 0 0 0 11 7.058c-.413-.063-.568-.065-.952-.015m1.077 2.085c.124.056.355.223.515.369.348.319.462.383.743.412.351.036.54-.042.897-.369.172-.158.418-.338.546-.401.205-.1.281-.114.614-.116.342-.003.404.009.62.114.307.151.651.496.799.803.104.216.116.282.118.66.003.395-.005.436-.128.687a3.388 3.388 0 0 1-.463.64c-.429.482-1.604 1.603-2.811 2.681-.084.075-.086.074-.739-.516a58.685 58.685 0 0 1-1.236-1.154c-1.461-1.415-1.638-1.685-1.59-2.433.029-.452.154-.717.499-1.062.359-.358.579-.448 1.051-.431.263.009.391.036.565.116" fill-rule="evenodd" fill="#000"/></svg>