<svg width="21" height="19" fill="none" xmlns="http://www.w3.org/2000/svg"><path d="M10.64.055c-.048.008-.229.032-.402.053-1.602.192-3.372.954-4.692 2.017A9.613 9.613 0 0 0 2.383 6.9c-.266.924-.336 1.484-.334 2.655.003 1.224.069 1.659.451 2.952l.122.415-.861 1.597a99.671 99.671 0 0 0-1.092 2.068l-.231.47v.388c.001.345.011.409.093.586.174.373.522.669.922.784.305.087.731.06 3.765-.246 2.882-.29 2.644-.284 3.2-.089a9.536 9.536 0 0 0 1.907.439c.671.085 2.108.058 2.73-.053 1.65-.293 3.242-1.012 4.428-2a13.655 13.655 0 0 0 1.366-1.366c1.013-1.214 1.725-2.795 2.014-4.477.095-.555.133-1.984.068-2.55a9.566 9.566 0 0 0-3.696-6.521c-.857-.651-2.048-1.256-3.042-1.544-.889-.258-1.491-.34-2.59-.356a16.75 16.75 0 0 0-.963.003m1.975 2.031c1.725.252 3.394 1.166 4.52 2.474 1.092 1.268 1.713 2.747 1.838 4.377a7.347 7.347 0 0 1-.733 3.856c-1.081 2.2-3.055 3.684-5.482 4.122-.354.063-.554.076-1.26.076-1.102.001-1.541-.075-2.66-.46l-.49-.168-.543.002c-.358.002-.965.047-1.785.132-2.814.292-3.203.331-3.216.318-.016-.015.086-.213.742-1.432.269-.501.603-1.141.743-1.423.228-.461.255-.539.277-.787.033-.375-.021-.748-.191-1.308-.727-2.41-.398-4.634.99-6.682.277-.407 1.017-1.195 1.46-1.553 1.113-.899 2.626-1.498 4.043-1.601a9.987 9.987 0 0 1 1.747.057m-4.18 3.477c-.337.062-.608.237-.858.553-.41.52-.391 1.347.042 1.829.315.35.689.525 1.124.525.449 0 .805-.161 1.124-.511.254-.278.332-.503.332-.959 0-.488-.077-.692-.377-.995-.296-.301-.577-.436-.949-.456a2.424 2.424 0 0 0-.438.014m5.493 0c-.346.063-.752.35-.932.657-.43.735-.209 1.623.514 2.064.352.215.958.247 1.34.072.279-.128.594-.438.733-.72.095-.193.114-.274.126-.55.01-.243-.001-.371-.047-.511a1.451 1.451 0 0 0-1.298-1.026 2.323 2.323 0 0 0-.436.014m-6.2 5.509c-.467.131-.718.509-.685 1.028.015.234.031.281.156.459.406.576 1.592 1.345 2.569 1.664a5.756 5.756 0 0 0 3.783-.118c1.01-.4 2.08-1.165 2.322-1.66.175-.358.103-.828-.168-1.102-.227-.23-.381-.297-.69-.298-.329-.001-.479.068-.84.384-.713.625-1.47.97-2.342 1.066-1.023.112-2.099-.265-2.995-1.051a3.534 3.534 0 0 0-.388-.299c-.179-.106-.494-.137-.722-.073"/></svg>