<svg width="23" height="22" fill="none" xmlns="http://www.w3.org/2000/svg"><path d="M11.998.078c-1.594.192-3.069.79-4.42 1.791-.504.373-1.384 1.257-1.776 1.782a8.856 8.856 0 0 0-1.777 5.371v.553l-.374.213c-1.474.838-2.487 2.048-3.001 3.585-.462 1.384-.481 2.697-.059 4.144l.095.325-.301 1.381c-.41 1.884-.404 1.844-.308 2.102.095.254.378.537.598.598.277.077.648.045 2.568-.224l1.049-.147.408.13c.719.228.97.261 1.951.26.991 0 1.347-.053 2.022-.3.97-.354 1.586-.738 2.304-1.437.607-.59 1.125-1.312 1.422-1.982l.104-.234.773-.021c1.064-.029 1.803-.161 2.801-.498l.38-.129 1.518.222c2.345.342 2.472.356 2.722.301a1.533 1.533 0 0 0 1.065-.834c.178-.383.17-.546-.144-3.082l-.188-1.519.116-.34c.172-.506.331-1.126.422-1.643.104-.595.139-1.676.076-2.302a9.03 9.03 0 0 0-4.334-6.829A9.29 9.29 0 0 0 14.482.132c-.418-.073-2.033-.108-2.484-.054m1.879 1.972a6.894 6.894 0 0 1 4.057 1.914c1.849 1.786 2.571 4.275 1.956 6.75-.042.169-.148.522-.235.786-.155.467-.159.492-.157.977.002.326.051.885.141 1.61.166 1.336.209 1.745.183 1.745-.01 0-.684-.097-1.497-.214-1.337-.194-1.523-.213-1.957-.197-.412.015-.527.035-.824.139a8.494 8.494 0 0 1-2.15.45l-.387.024-.025-.356a11.418 11.418 0 0 1-.026-.571c0-.573-.222-1.515-.524-2.224-.317-.744-.674-1.271-1.295-1.915a6.331 6.331 0 0 0-3.042-1.764c-.451-.113-.882-.157-1.527-.157H5.98v-.144c0-.266.115-1.131.197-1.483.47-2.015 1.873-3.763 3.77-4.698a6.972 6.972 0 0 1 3.93-.672m-6.768 8.991c.518.05.882.155 1.382.399 1.266.618 2.114 1.732 2.424 3.182.098.457.088 1.419-.019 1.883-.379 1.651-1.605 2.94-3.21 3.374-.338.092-.456.105-.997.108-.661.003-.784-.015-1.533-.232-.59-.171-.934-.177-2.025-.034-.439.058-.806.097-.816.087-.01-.01.06-.406.156-.88s.174-.965.174-1.092c0-.139-.058-.459-.149-.82-.188-.742-.252-1.237-.223-1.736.137-2.398 1.96-4.208 4.301-4.272.084-.002.325.012.535.033"/></svg>