<svg width="20" height="22" fill="none" xmlns="http://www.w3.org/2000/svg"><path d="M10.657.084c-.275.101.05-.275-5.025 5.816C1.374 11.01.874 11.625.7 11.967c-.037.072-.08.222-.095.332a1.481 1.481 0 0 0 1.149 1.635c.108.025 1.314.045 3.619.061 1.901.012 3.465.031 3.475.042.01.01-.132 1.232-.316 2.716-.396 3.194-.499 4.076-.499 4.282 0 .371.273.759.615.876.305.104.682.058.921-.113.054-.038.373-.395.708-.792 1.201-1.421 7.007-8.402 8.517-10.239.449-.547.58-.805.6-1.185a1.381 1.381 0 0 0-.152-.772c-.172-.353-.623-.673-1.041-.741-.12-.019-1.542-.041-3.395-.052a203.004 203.004 0 0 1-3.433-.038l-.243-.018.019-.139c.108-.78.761-6.185.791-6.542.035-.424.034-.485-.018-.62a.996.996 0 0 0-.495-.524.74.74 0 0 0-.424-.1 1.307 1.307 0 0 0-.346.048M9.352 6.186c-.371 2.998-.369 2.967-.233 3.239.102.206.295.387.526.495l.172.079 3.016.005c1.659.003 3.24.014 3.513.025l.496.021-3.196 3.833c-2.32 2.783-3.199 3.815-3.206 3.766-.005-.038.089-.87.21-1.849.371-3.015.366-2.954.231-3.225-.094-.189-.229-.322-.471-.464l-.16-.094-3.542-.012c-1.948-.007-3.541-.023-3.541-.036 0-.013 1.263-1.539 2.808-3.39 3.763-4.51 3.573-4.286 3.585-4.217.005.033-.088.854-.208 1.824"/></svg>