<svg width="20" height="20" fill="none" xmlns="http://www.w3.org/2000/svg"><path d="M3.383.068C2.12.263.979 1.115.416 2.283c-.304.63-.401 1.123-.374 1.9.022.627.115 1.011.372 1.535a3.965 3.965 0 0 0 2.292 2.044c.53.186.731.208 2.069.229L6 8.01V12l-.592.002c-.325 0-.929.015-1.341.031-.645.026-.795.042-1.067.117-.73.2-1.298.535-1.833 1.081A3.937 3.937 0 0 0 .129 15.05c-.07.268-.078.37-.077.967.002.613.009.692.09.993.178.657.579 1.34 1.083 1.843 1.177 1.172 3.075 1.455 4.598.685 1.075-.544 1.856-1.592 2.094-2.811.042-.211.059-.571.074-1.502L8.01 14h3.98l.021 1.242c.015.905.035 1.309.071 1.491.389 1.919 1.982 3.234 3.918 3.234 1.521 0 2.881-.829 3.551-2.164.273-.545.382-.98.406-1.624.021-.58-.032-.996-.188-1.454-.407-1.203-1.44-2.193-2.652-2.541-.45-.13-.629-.145-1.925-.171L14 11.99V8.01l1.242-.021c1.342-.023 1.478-.037 2.029-.222a3.833 3.833 0 0 0 1.52-.935c.335-.329.547-.622.759-1.049.3-.604.416-1.098.416-1.769.001-1.114-.377-2.029-1.163-2.818a3.945 3.945 0 0 0-2.02-1.1c-.301-.059-1.293-.06-1.566-.001a4.065 4.065 0 0 0-2.08 1.155c-.42.438-.698.887-.898 1.456-.186.526-.208.73-.23 2.069L11.99 6H8.01l-.02-1.208c-.021-1.329-.048-1.572-.227-2.079a3.772 3.772 0 0 0-.96-1.517A3.922 3.922 0 0 0 4.976.145c-.27-.071-.418-.088-.859-.097a6.198 6.198 0 0 0-.734.02m1 1.965c.622.102 1.272.66 1.513 1.3.08.213.082.242.096 1.445l.016 1.227-1.229-.013c-1.172-.012-1.239-.016-1.433-.087-.578-.211-1.098-.754-1.268-1.322-.084-.283-.083-.93.002-1.183.184-.547.681-1.076 1.2-1.276.3-.115.734-.151 1.103-.091m12 0c.622.102 1.271.66 1.513 1.3.07.187.082.275.084.634.003.637-.122.962-.537 1.402a1.905 1.905 0 0 1-.77.526c-.222.086-.227.086-1.448.098L14 6.005l.002-1.011c.003-1.347.018-1.488.195-1.846a2.115 2.115 0 0 1 1.07-1.013c.297-.125.731-.165 1.116-.102M12 10v2H8V8h4v2m-6.008 5.225c-.014 1.135-.021 1.239-.085 1.415-.1.276-.227.476-.455.721a1.976 1.976 0 0 1-.812.544c-.318.109-.921.111-1.257.005-.572-.181-1.112-.716-1.285-1.274-.274-.88.06-1.814.83-2.325.415-.276.565-.298 2.067-.306L6.007 14l-.015 1.225m10.675-1.121c.486.183.921.585 1.14 1.054.157.334.206.598.18.975-.034.516-.177.844-.533 1.226a1.986 1.986 0 0 1-.814.547c-.321.11-.957.11-1.276.001-.562-.193-1.059-.687-1.271-1.263-.067-.182-.072-.269-.085-1.423l-.014-1.229 1.228.015c1.203.015 1.232.017 1.445.097"/></svg>