<svg width="24" height="24" fill="none" xmlns="http://www.w3.org/2000/svg"><path d="M3.98 3.042c-.846.053-1.349.225-1.858.633a2.797 2.797 0 0 0-.966 1.479c-.138.536-.161 1.439-.147 5.986.013 4.283.014 4.323.099 4.626a3.018 3.018 0 0 0 1.099 1.618c.213.166.758.456.854.456.024 0 .068.095.097.21.284 1.11 1.239 2.195 2.313 2.628 1.23.495 2.633.364 3.699-.345.757-.503 1.364-1.294 1.614-2.103l.071-.23h3.691l.068.31c.229 1.044 1.078 2.027 2.097 2.426a3.637 3.637 0 0 0 2.529.02c.61-.225 1.255-.732 1.627-1.276.264-.388.506-.981.557-1.363.026-.193.027-.195.231-.254.404-.118.86-.495 1.072-.886.248-.459.253-.513.253-2.797 0-1.935-.005-2.095-.076-2.3-.183-.535-.157-.505-2.718-3.068-2.396-2.398-2.452-2.451-2.758-2.596-.381-.179-.629-.211-1.69-.214L14.976 6l-.047-.37c-.087-.693-.323-1.207-.772-1.687-.416-.444-.929-.722-1.565-.848-.291-.057-.811-.066-4.212-.076-2.134-.006-4.114.005-4.4.023m8.294 2c.236.051.489.253.617.492l.089.166.011 5.15.011 5.15h-2.149l-.05-.17a3.993 3.993 0 0 0-.955-1.599C8.69 13.04 6.944 12.7 5.387 13.363c-.851.362-1.697 1.214-2.034 2.047-.051.126-.111.225-.133.218-.022-.007-.081-.091-.13-.188L3 15.263v-4.67c0-3.132.014-4.734.042-4.866a.871.871 0 0 1 .634-.672c.244-.066 8.295-.077 8.598-.013m6.537 5.149 2.19 2.19-.011 1.657-.01 1.656-.117-.177c-.27-.411-.838-.903-1.323-1.147-.652-.328-1.633-.429-2.396-.246-.744.178-1.542.721-1.967 1.337a1.698 1.698 0 0 1-.164.219c-.007 0-.013-1.728-.013-3.84V8h1.62l2.191 2.191M7.644 15.095c.426.15.831.47 1.069.845.382.602.386 1.534.01 2.098-.293.438-.746.785-1.178.902-.351.095-.953.068-1.275-.056-.484-.188-.965-.67-1.154-1.154-.123-.318-.151-.947-.057-1.275a2.081 2.081 0 0 1 1.341-1.38c.336-.108.909-.099 1.244.02m10.776.957c.919.29 1.351 1.298.921 2.147-.117.229-.461.556-.721.683-.174.085-.255.098-.62.098-.377 0-.443-.011-.643-.109a1.519 1.519 0 0 1-.143-2.66 1.63 1.63 0 0 1 .326-.155c.209-.066.678-.068.88-.004" fill-rule="evenodd" fill="#000"/></svg>