<svg xmlns="http://www.w3.org/2000/svg" width="512" height="512"><path d="M180.907 76.871C128.174 78 82.745 80.208 67.191 82.396c-17.545 2.469-28.925 7.972-40.311 19.495-5.291 5.355-7.625 8.541-10.375 14.162-3.823 7.816-7.987 20.453-10.122 30.72-1.751 8.42-4.354 36.617-5.592 60.587-1.144 22.132-.601 96.503.831 113.92 3.525 42.874 6.509 57.685 15.048 74.706 7.365 14.678 20.414 25.027 37.975 30.115 20.064 5.814 66.585 8.337 177.462 9.624 71.758.833 178.803-2.079 209.92-5.71 27.509-3.211 47.054-17.188 56.287-40.253 5.912-14.768 8.575-27.298 10.653-50.135 2.7-29.664 3.225-47.305 2.796-94.002-.409-44.616-1.107-59.262-4.076-85.581-1.802-15.964-6.15-31.634-12.177-43.878-8.882-18.043-27.256-30.411-50.07-33.702-33.688-4.859-167.086-7.68-264.533-5.593m159.562 173.906c-.009.447-29.75 15.98-123.047 64.265l-14.329 7.416v-143.89l68.694 35.84c37.781 19.712 68.688 36.078 68.682 36.369" fill-rule="evenodd"/></svg>