<svg width="44" height="44" viewBox="0 0 44 44" fill="none" xmlns="http://www.w3.org/2000/svg">
<path opacity="0.8" d="M36.3066 9.16314C35.8743 8.73092 35.4421 8.2987 35.0099 7.86648C33.7132 6.48337 32.3301 5.10027 30.6012 4.23583C28.613 3.1985 26.4519 3.45783 24.2908 3.45783C21.006 3.45783 12.7938 3.45783 7.95291 3.45783L11.2378 7.86648C17.2024 7.86648 26.5384 7.86648 30.8606 7.86648C32.6759 7.86648 34.2319 8.21226 35.7014 9.16314C35.9608 9.24958 36.2201 9.24958 36.3066 9.16314Z" fill="white"/>
<path opacity="0.9" d="M39.9372 16.2516C39.505 15.8194 39.0727 15.3872 38.6405 14.955C37.3439 13.5719 35.9608 12.1888 34.2319 11.3243C32.2437 10.287 30.0826 10.5463 27.9215 10.5463C25.0688 10.5463 18.2397 10.5463 13.3989 10.5463L16.6837 14.955C22.5619 14.955 30.6012 14.955 34.5777 14.955C36.393 14.955 37.949 15.3007 39.4185 16.2516C39.5914 16.3381 39.7643 16.3381 39.9372 16.2516Z" fill="white"/>
<path d="M44 23.1669C43.5678 22.7347 43.1356 22.3025 42.7034 21.8703C41.4067 20.4872 40.0236 19.104 38.2947 18.2396C36.3065 17.2023 34.1454 17.4616 31.9843 17.4616C29.3045 17.4616 23.4264 17.4616 18.6719 17.4616L21.9568 21.8703C27.6621 21.8703 34.9234 21.8703 38.5541 21.8703C40.3694 21.8703 41.9254 22.216 43.3949 23.1669C43.6542 23.2534 43.8271 23.3398 44 23.1669Z" fill="white"/>
<path opacity="0.8" d="M7.60715 34.8369C8.03937 35.2691 8.47159 35.7013 8.90381 36.1335C10.2005 37.5166 11.5836 38.8997 13.3124 39.7642C15.3007 40.8015 17.4618 40.5422 19.6229 40.5422H35.9608L32.6759 36.1335C26.7113 36.1335 17.3753 36.1335 13.0531 36.1335C11.2378 36.1335 9.6818 35.7878 8.21225 34.8369C7.95292 34.7504 7.78004 34.7504 7.60715 34.8369Z" fill="white"/>
<path opacity="0.9" d="M3.97646 27.7487C4.40868 28.1809 4.8409 28.6131 5.27312 29.0454C6.56978 30.4285 7.95287 31.8116 9.68175 32.676C11.67 33.7133 13.8311 33.454 15.9922 33.454H30.5148L27.2299 29.0454C21.3517 29.0454 13.3124 29.0454 9.33598 29.0454C7.52066 29.0454 5.96466 28.6996 4.49511 27.7487C4.32222 27.6623 4.14934 27.6623 3.97646 27.7487Z" fill="white"/>
<path d="M0 20.7465C0.43222 21.1787 0.86444 21.6109 1.29666 22.0431C2.59332 23.4262 3.97643 24.8094 5.70531 25.6738C7.69352 26.7111 9.85461 26.4518 12.0157 26.4518H25.3281L22.0432 22.0431C16.3379 22.0431 9.07662 22.0431 5.44598 22.0431C3.63065 22.0431 2.07465 21.6974 0.605106 20.7465C0.345773 20.66 0.172888 20.66 0 20.7465Z" fill="white"/>
</svg>
