<svg width="718" height="233" viewBox="0 0 718 233" fill="none" xmlns="http://www.w3.org/2000/svg">
<path fill-rule="evenodd" clip-rule="evenodd" d="M714.098 20.6079C715.736 12.8587 713.973 3.34998 706.189 0.0670475L706.153 0H15C6.71573 0 0 6.71572 0 15V218C0 226.284 6.71572 233 15 233H715C715.268 233 715.534 232.993 715.799 232.979C715.792 232.514 715.786 232.048 715.78 231.583C715.698 225.154 715.617 218.74 713.874 212.571C712.895 209.057 711.384 205.654 709.877 202.261C707.382 196.643 704.897 191.049 704.855 185.014C704.829 178.91 707.328 173.081 709.823 167.262C712.461 161.108 715.095 154.965 714.732 148.52C714.448 143.28 712.218 138.449 709.983 133.608C708.07 129.465 706.154 125.315 705.454 120.898C704.033 112.048 707.556 103.38 711.084 94.7025C714.582 86.0987 718.083 77.4861 716.77 68.6783C716.182 64.6912 714.607 60.9016 713.034 57.1188C711.216 52.7434 709.401 48.3772 709.121 43.725C708.798 38.529 710.364 33.4828 711.935 28.4188C712.739 25.8273 713.544 23.2312 714.098 20.6079Z" fill="white"/>
</svg>
