<svg width="420" height="536" viewBox="0 0 420 536" fill="none" xmlns="http://www.w3.org/2000/svg">
<path fill-rule="evenodd" clip-rule="evenodd" d="M400 0C411.046 0 420 8.95429 420 20V520C420 521.064 419.917 522.108 419.757 523.127C416.721 521.88 413.551 520.998 410.357 520.474C393.942 517.784 377.149 522.268 361.299 526.951C360.766 527.109 360.231 527.267 359.697 527.425C344.344 531.969 328.475 536.666 312.43 535.221C298.49 534.005 285.392 528.284 272.426 522.62C255.644 515.289 239.083 508.055 221.2 510.809C210.851 512.393 201.694 517.251 192.592 522.08C190.244 523.326 187.899 524.57 185.538 525.755C174.029 531.535 160.443 536.118 147.896 532.631C140 530.444 133.75 525.403 127.491 520.354C121.486 515.511 115.472 510.66 107.989 508.318C96.5798 504.718 84.506 507.566 72.4225 510.416C60.4248 513.246 48.4176 516.078 37.0427 512.603C26.2876 509.314 18.4572 500.944 12.1362 492.375C10.9488 490.808 9.784 489.216 8.61789 487.623C5.85828 483.852 3.09137 480.071 0 476.574V20C0 8.95431 8.95432 0 20 0H400Z" fill="white"/>
</svg>
