<svg version="1.2" xmlns="http://www.w3.org/2000/svg" viewBox="0 0 656 689" width="656" height="689">
	<title>sound-image-svg</title>
	<defs>
		<clipPath clipPathUnits="userSpaceOnUse" id="cp1">
			<path d="m300.13-93l526.61 357.53-396.14 583.46-526.6-357.53z"/>
		</clipPath>
		<linearGradient id="g1" x2="1" gradientUnits="userSpaceOnUse" gradientTransform="matrix(526.511,357.465,-396.181,583.535,102.066,198.735)">
			<stop offset="0" stop-color="#1a7f72"/>
			<stop offset="1" stop-color="#7adbae"/>
		</linearGradient>
		<clipPath clipPathUnits="userSpaceOnUse" id="cp2">
			<path d="m257.09-85l557.29 307.53-340.74 617.46-557.28-307.53z"/>
		</clipPath>
		<linearGradient id="g2" x2="1" gradientUnits="userSpaceOnUse" gradientTransform="matrix(557.185,307.474,-340.775,617.532,86.727,223.735)">
			<stop offset="0" stop-color="#1a7f72"/>
			<stop offset="1" stop-color="#7adbae"/>
		</linearGradient>
	</defs>
	<style>
		.s0 { fill: url(#g1) } 
		.s1 { fill: url(#g2) } 
		.s2 { fill: #ff706e } 
		.s3 { fill: #477e7f } 
		.s4 { fill: #325f62 } 
		.s5 { fill: #82bab0 } 
		.s6 { fill: #e75b5a } 
		.s7 { fill: #fca7a7 } 
		.s8 { opacity: .1;fill: #1a7f72 } 
		.s9 { opacity: .1;fill: #7adbae } 
		.s10 { fill: #2c2858 } 
		.s11 { fill: #f4a082 } 
		.s12 { fill: #e62552 } 
		.s13 { fill: #c4204a } 
		.s14 { fill: #db8c70 } 
		.s15 { fill: #07095b } 
		.s16 { opacity: .5;fill: #db8c70 } 
		.s17 { fill: #1f5148 } 
		.s18 { opacity: .3;fill: #f79691 } 
		.s19 { fill: #ffffff } 
		.s20 { fill: #333333 } 
		.s21 { fill: #f5a3b7 } 
		.s22 { opacity: .5;fill: #f79691 } 
		.s23 { fill: #f79691 } 
		.s24 { fill: #1a7f72 } 
		.s25 { fill: #fdbeb9 } 
		.s26 { fill: #f57191 } 
		.s27 { opacity: .1;fill: #000000 } 
	</style>
	<g id="Clip-Path" clip-path="url(#cp1)">
		<g style="opacity: .1">
			<path class="s0" d="m601 138.7c-6.4-37.4-36.6-63.7-85-60.4-41.8 2.5-73.8 17.1-117.8-12.2-168.1-112.4-231.5 5.4-235.7 97.4-5.8 132.1-48 150-92.6 211.9-31.2 43.3-52.6 81.3-45 139.1 11.1 86.5 85 129 157.9 121.7 36-3.6 74.5-13.1 98.5-17.1 64.2-10.9 88.5-5 171 5.7 161.1 17.7 231.6-97 159.8-204.6-61.4-92.1-66.5-97.6-35.1-176.5 13.7-33.1 31.5-62.3 24-105z"/>
		</g>
	</g>
	<g id="Clip-Path" clip-path="url(#cp2)">
		<g style="opacity: .1">
			<path class="s1" d="m578 118c-9.8-36.6-42.3-60.1-90.2-52.3-41.4 6.4-71.9 23.8-118.4-1.3-177.7-96.4-230 26.7-225.7 118.7 6.4 132.1-34 153.8-72.8 219.5-27 46-44.8 85.8-32 142.7 19 85 96.5 120.6 168.5 106.6 35.5-6.9 73-19.9 96.5-26.1 62.9-16.8 87.6-13.1 170.8-10.1 162 2.8 221.7-117.9 140.3-218.4-69.6-86.1-75.2-91.1-51.2-172.5 10.6-34.2 25.6-64.9 14.2-106.8z"/>
		</g>
	</g>
	<g style="opacity: .5">
		<path class="s2" d="m634 390c-11.6 0.6-28.3-0.4-48.6-3.5-20.7-3.1-45.1-8.4-71.4-16.6-6.6-2.1-13.2-4.4-20-7-3.4-1.3-6.8-2.7-10.1-4.1-3.4-1.5-6.8-3-10.3-4.5-13.8-5.9-29.2-10.2-45.3-11.2-7.9-0.6-15.9-0.4-23.7 0.5q-1.5 0.1-3 0.3c-0.9 0.1-1.9 0.2-2.9 0.4-1.9 0.4-3.7 0.7-5.7 1-1.8 0.4-3.7 0.9-5.6 1.3-1.8 0.4-3.6 1-5.5 1.5-0.8 0.2-1.8 0.5-2.6 0.7-0.9 0.4-1.9 0.7-2.7 0.9-0.9 0.3-1.9 0.6-2.7 0.9l-1.3 0.4-1.3 0.5c-3.4 1.3-6.9 2.7-10.2 4-1.7 0.6-3.4 1.3-5.1 1.9-1.7 0.7-3.3 1.3-4.9 2.1-3.3 1.4-6.5 2.6-9.7 4-12.8 5.4-24.8 10.6-36.4 14.6-11.4 4.7-22.6 7.1-32.9 8.2-5.2 0.4-10.1 0.5-14.9 0.2-4.6-0.3-9-1.1-13-2.2-8-2.1-14.2-5.9-18.5-9.7-4.3-3.9-6.8-7.7-8.4-10.4-0.9-1.3-1.3-2.4-1.6-3.1-0.3-0.8-0.6-1.1-0.6-1.1 0 0 0.1 0.4 0.5 1.1 0.3 0.7 0.7 1.8 1.5 3.2 1.4 2.7 3.8 6.6 8.2 10.7 2.1 1.9 4.8 4 7.9 5.8 3.1 1.7 6.8 3.3 10.8 4.5 4 1.2 8.5 1.9 13.2 2.4 4.8 0.4 9.8 0.3 15-0.1 5.2-0.5 10.6-1.3 16.2-2.6 2.8-0.7 5.6-1.4 8.5-2.4 2.8-0.9 5.6-2 8.5-3.1 11.7-4.1 23.8-9.2 36.5-14.5 3.2-1.2 6.5-2.6 9.7-4 1.6-0.8 3.3-1.3 5-2 1.6-0.6 3.3-1.3 5-1.9 3.3-1.3 6.8-2.6 10.2-3.9l1.3-0.5 1.3-0.4c0.9-0.3 1.7-0.6 2.6-0.9 0.9-0.3 1.7-0.5 2.7-0.8 0.9-0.4 1.8-0.6 2.7-0.8 1.8-0.4 3.5-1.1 5.5-1.5q2.7-0.6 5.5-1.3c1.8-0.3 3.7-0.6 5.6-0.9 0.9-0.3 1.9-0.4 2.8-0.5l2.9-0.3c7.6-0.9 15.5-1.1 23.4-0.5 15.8 0.9 31 5.2 44.8 11 3.4 1.5 6.9 3 10.2 4.5 3.5 1.5 6.8 2.8 10.2 4.1 6.8 2.6 13.5 4.9 20.2 7 26.4 8.2 51 13.3 71.6 16.3 20.4 3 37.2 3.6 48.9 2.9z"/>
		<path class="s2" d="m634 376.7h-0.1c-11.5 0.6-28.2-1-48.5-4.8-20.4-3.7-44.3-9.6-70.3-17.9-6.5-2-13.2-4.3-19.8-6.8-1.7-0.6-3.4-1.1-5.1-1.8-1.7-0.6-3.3-1.3-5-1.9-3.5-1.3-6.8-2.8-10.3-4.1-13.8-5.6-29.1-9.2-45.1-10-7.9-0.4-15.8 0-23.4 1-7.7 1-15.1 2.7-22.3 4.7-14.4 4-27.7 10.1-39.7 16.4-12.2 6.4-23.5 12.7-34.7 17.3-2.8 1.2-5.6 2.1-8.3 3.2-2.6 1.1-5.4 1.9-8.1 2.7-5.4 1.6-10.7 2.8-15.7 3.6-10.2 1.7-19.6 1.7-27.6 0-8-1.6-14.4-4.9-18.9-8.3-4.6-3.5-7.6-6.9-9.4-9.4-1-1.1-1.6-2.1-2-2.7-0.5-0.7-0.8-1-0.8-1 0 0 0.2 0.3 0.5 1.1 0.5 0.6 1 1.7 2 2.9 1.7 2.4 4.6 6 9.2 9.6 4.7 3.6 11.1 7 19.2 8.8 8.1 1.8 17.6 1.8 28 0.3 5.1-0.7 10.4-2 15.9-3.5 2.7-0.8 5.5-1.6 8.3-2.7 2.8-1.1 5.6-2 8.4-3.2 11.3-4.6 22.7-11 34.7-17.2 12.1-6.3 25.2-12.2 39.4-16.2 7.1-2 14.6-3.6 22.1-4.6 7.5-0.9 15.3-1.3 23.1-0.9 15.7 0.7 30.8 4.3 44.5 9.7 3.4 1.3 6.9 2.8 10.2 4.1 1.7 0.6 3.5 1.3 5.1 1.9 1.7 0.7 3.3 1.3 5 1.8 6.8 2.5 13.5 4.7 19.9 6.7 26.2 8.1 50.2 13.9 70.5 17.6 20.4 3.5 37.3 4.9 48.8 4.2h0.1v-0.6z"/>
		<path class="s2" d="m634 363.9q-0.3 0-0.6 0c-5.8 0.2-12.7 0-20.8-0.9-8.1-0.9-17.2-2.4-27.2-4.5-10.1-2.1-21-4.7-32.5-8-11.7-3.3-23.9-7.1-36.7-11.5-6.4-2.3-12.9-4.7-19.4-7.5-6.6-2.8-13.5-5.3-20.6-7.4-7.1-2.2-14.4-4-21.9-5.4-7.6-1.4-15.3-2.4-23.2-2.7-7.8-0.3-15.7 0.1-23.2 1.3-7.7 1.2-15 3.3-21.9 5.8q-2.5 0.8-5.1 1.9c-1.7 0.7-3.5 1.3-5.1 2.1-3.3 1.4-6.7 2.8-9.9 4.3q-2.4 1.1-4.8 2.2c-1.6 0.8-3.1 1.6-4.8 2.4-3.1 1.5-6.1 3.1-9.1 4.7-6 3.1-11.7 6.4-17.4 9.4-5.7 3-11.3 5.7-16.8 8.2-11 4.8-21.7 8.5-31.7 10.7-10 2.3-19.2 2.9-27.3 2-4-0.4-7.8-1.2-11-2.2-1.6-0.6-3.2-1.1-4.6-1.8-0.8-0.3-1.4-0.7-2.2-1-0.6-0.3-1.3-0.7-1.9-1.1-5-2.8-8.2-5.9-10.3-8-1.1-1.1-1.8-2-2.3-2.6-0.5-0.5-0.8-0.8-0.9-0.8q0 0 0.7 0.9c0.4 0.7 1.2 1.5 2.1 2.7 2.1 2.3 5.3 5.5 10.3 8.5 0.6 0.3 1.3 0.7 1.9 1.1 0.6 0.3 1.4 0.6 2.2 0.9 1.4 0.8 3 1.3 4.7 1.9 3.3 1.1 7.1 2 11.2 2.5 8.2 0.9 17.6 0.3 27.6-1.8 10.2-2.2 20.9-5.8 32-10.5 5.6-2.4 11.2-5.2 16.9-8.2 5.7-3 11.4-6.2 17.4-9.4 3-1.5 6.1-3.2 9.2-4.7 1.5-0.8 3.1-1.5 4.7-2.4q2.4-1.1 4.9-2.2c3.2-1.5 6.4-2.9 9.8-4.3 1.6-0.8 3.3-1.3 5-2 1.7-0.6 3.5-1.3 5.2-1.8 6.9-2.5 14.1-4.5 21.6-5.7 7.4-1.2 15.2-1.6 22.9-1.3 7.8 0.4 15.4 1.3 23 2.6 7.4 1.3 14.7 3.1 21.7 5.3 7 2.1 13.9 4.5 20.3 7.3 6.6 2.7 13.2 5.2 19.5 7.5 12.8 4.5 25.2 8.1 36.8 11.3 11.6 3.3 22.6 5.8 32.7 7.9q15.2 3 27.5 4.2c8.2 0.8 15.2 0.9 21 0.5q0.3 0 0.6 0v-0.4z"/>
		<path class="s2" d="m634 350.1q-0.2 0-0.3 0c-0.7 0-1.4 0.1-2.1 0.1-11.3 0.8-27.8-1.2-47.6-5.8-20-4.4-43.2-11.3-68.7-20-6.4-2.3-12.9-4.4-19.5-6.9-6.7-2.4-13.3-4.9-20.2-7.4-13.9-5.1-29.2-7.9-44.9-7.8-7.9 0-15.6 0.7-23 1.9-3.8 0.7-7.5 1.4-11.1 2.2-1.8 0.4-3.7 0.8-5.5 1.4-1.8 0.4-3.6 1-5.3 1.6-7.1 2.1-13.6 5-20.2 7.9-6.4 3-12.6 6.2-18.4 9.7-1.5 0.8-2.9 1.7-4.4 2.4q-2.1 1.3-4.2 2.6c-2.8 1.7-5.5 3.4-8.2 5.3-2.7 1.7-5.3 3.4-8 5-2.5 1.6-5.2 3.2-7.8 4.6-10.5 5.9-20.6 10.5-30.3 13.6-9.6 3.1-18.8 4.8-26.8 4.6-3.9-0.1-7.7-0.5-11-1.2-3.4-0.9-6.3-2-8.9-3.2q-1.9-0.9-3.5-1.9c-1.1-0.7-2.1-1.3-2.9-1.9-0.9-0.7-1.6-1.3-2.4-1.8-0.6-0.7-1.3-1.2-1.8-1.8-0.6-0.5-1-0.9-1.4-1.3-0.5-0.5-0.8-0.8-1-1.1-0.5-0.6-0.9-0.9-0.9-0.9 0 0 0.3 0.3 0.8 1 0.2 0.3 0.5 0.6 1 1.1 0.3 0.4 0.7 0.9 1.3 1.5 0.5 0.5 1.1 1 1.8 1.8 0.7 0.6 1.5 1.3 2.4 1.9 0.8 0.8 1.8 1.3 2.9 2.1 1 0.6 2.2 1.3 3.5 2 2.6 1.3 5.6 2.5 8.9 3.3 3.5 0.9 7.3 1.4 11.3 1.5 8.2 0.2 17.5-1.3 27.3-4.4 9.8-3.1 20-7.7 30.5-13.5 2.6-1.5 5.3-3 8-4.6 2.7-1.6 5.3-3.3 8-5 2.7-1.8 5.3-3.5 8.1-5.2q2.1-1.3 4.2-2.6c1.4-0.8 2.9-1.6 4.4-2.4 5.8-3.4 11.9-6.5 18.2-9.5 6.5-2.8 13.1-5.7 20.1-7.8 1.7-0.5 3.4-1.2 5.2-1.6 1.9-0.4 3.6-1 5.4-1.3 3.7-0.9 7.3-1.5 11-2.1 7.4-1.2 15.1-1.9 22.8-1.9 15.5-0.1 30.6 2.7 44.2 7.7q10.4 3.8 20.4 7.5c6.7 2.3 13.2 4.6 19.6 6.7 25.6 8.6 48.9 15.5 68.8 19.7 20 4.3 36.6 6.3 48 5.3 0.8 0 1.4-0.1 2.1-0.1q0.2 0 0.3 0v-1z"/>
		<path class="s2" d="m634 336.9c-0.9 0.1-1.6 0.3-2.6 0.4-5.6 0.4-12.6 0.3-20.5-0.8-8-1-17-2.7-26.8-5-19.7-4.8-42.8-12.3-67.9-21.2-6.4-2.2-12.9-4.5-19.4-6.8-3.4-1.2-6.7-2.4-10.1-3.5-3.5-1-6.9-2.2-10.6-3-14.3-3.2-29.5-5.2-45-5.1-15.5 0.1-30.7 2.3-44.6 7.2-13.9 4.8-26.5 11.3-38 18.1-2.9 1.7-5.7 3.4-8.5 5.1-2.8 1.8-5.5 3.5-8.2 5.2-5.4 3.4-10.4 6.9-15.6 9.9-10.1 6.1-20 11.3-29.4 15.1-9.4 3.7-18.3 6-26.2 6.5-4 0.2-7.8 0.1-11.1-0.4-3.4-0.5-6.4-1.4-9-2.5-1.3-0.5-2.4-1.1-3.5-1.7-1.1-0.6-2.2-1.2-3-1.8-0.9-0.6-1.8-1.2-2.5-1.7q-1-1-1.9-1.6c-0.6-0.5-1.1-1-1.4-1.3q-0.7-0.7-1-1c-0.5-0.5-0.9-0.7-0.9-0.7 0 0 0.2 0.3 0.8 0.8 0.2 0.3 0.5 0.7 1 1.1 0.4 0.4 0.8 1 1.4 1.4 0.5 0.5 1.1 1.1 1.8 1.7 0.7 0.5 1.5 1.2 2.3 1.8 0.9 0.7 2 1.2 3.1 2 1 0.6 2.3 1.1 3.6 1.8 2.6 1.2 5.7 2 9.2 2.7 3.4 0.5 7.2 0.7 11.3 0.5 8.1-0.4 17.2-2.7 26.7-6.4 9.4-3.8 19.4-8.8 29.7-15 5.1-3.1 10.3-6.5 15.6-9.9 2.7-1.7 5.3-3.4 8.1-5.2 2.8-1.7 5.6-3.4 8.5-5 11.6-6.8 24.2-13.2 37.8-17.9 13.7-4.7 28.8-6.9 44.1-7 15.4-0.1 30.5 1.8 44.7 5 3.6 0.8 7 1.9 10.3 2.9 3.5 1.1 6.8 2.3 10.1 3.5 6.6 2.3 13.1 4.6 19.4 6.8 25.3 8.9 48.5 16.2 68.3 20.9 9.9 2.2 18.9 3.9 27 4.8 8 0.8 15 0.9 20.7 0.4 0.9-0.1 1.8-0.2 2.5-0.3v-0.8z"/>
		<path class="s3" d="m400.4 315.3c-0.2-0.1-0.3 0-0.5 0-0.1 0-0.2 0.1-0.4 0.1-0.1 0-0.3 0.1-0.5 0.1-0.8 0.2-1.7 0.1-2.8-0.3-2-0.7-4-1.8-5.2 0.6-0.4 1-0.5 1.7-0.7 3.1 0 1.9 0.2 4.3 0.5 6.2 0.1 0.9 0.2 1.8 0.2 2.7 0 0.2 0.1 2.2 0 2.7-0.3-0.3-1.7-0.6-2.5-0.5-1.4 0.1-2.6 0.7-3 0.9-0.9 0.6-1.4 1.6-1.1 2.8 0.3 1.1 1.2 1.7 2.4 1.7 0.2 0 0.3 0 0.5 0 0.9-0.1 1.9-0.3 2.7-0.6 2.9-1.4 2.6-5.3 2.3-7.9-0.1-1.7-0.3-3.3-0.6-4.9-0.1-1.4 0.2-1.9 1.6-1.9 1 0 2.1 0.2 3.2 0.1 0.8-0.1 1.8-0.4 2.5-1 0.6-0.5 0.9-1.3 1-1.9 0.5-0.9 0.4-2 0.4-2z"/>
		<path class="s4" d="m317.9 369.8c0.9 1.6 3.2 1.5 4.8 0.5 0.7-0.4 1.8-1.1 2.2-1.7 0.8-1.1 0.3-2.3 0.2-3.5-0.2-1.6-0.7-3.5-1.2-5.1-0.6-2.4-1.1-4.5-1.6-6-0.2-0.8-0.3-1.4-0.3-1.8-0.1-0.5 0-0.6 0-0.7 0 0-0.1 0-0.2 0.1-0.1 0.1-0.2 0.4-0.2 0.6q-0.2 0.8 0 1.9c0.1 1.6 0.6 3.9 1.3 6.2 0.3 1.5 1.2 3.3 1.2 4.8-1.3 0.2-2.8 0.4-4 0.8-1.2 0.4-2.3 1.5-2.2 2.8-0.2 0.4-0.1 0.7 0 1.1z"/>
		<path class="s3" d="m341.5 339c-1.1-1.4-3.5-0.8-4.8 0.3-0.6 0.5-1.5 1.4-1.8 2.1-0.5 1.3 0.1 2.3 0.6 3.5 0.5 1.5 1.5 3.3 2.1 4.8 1.1 2.3 2.1 4.2 2.8 5.6 0.3 0.7 0.5 1.3 0.8 1.7 0.1 0.4 0.1 0.5 0.2 0.6 0 0 0.1 0 0.2-0.1 0.1-0.1 0.1-0.3 0.1-0.5q0-0.8-0.3-1.9c-0.5-1.6-1.4-3.7-2.5-5.8-0.6-1.4-1.8-3-2-4.5 1.1-0.4 2.6-0.9 3.7-1.5 1.1-0.8 2-1.9 1.6-3.3-0.4-0.5-0.5-0.8-0.7-1z"/>
		<path class="s4" d="m260.8 356.2c-1.2-3-3.4-5.5-6.1-7-2.6-1.5-5.7-2.1-8.5-1.9-1.4 0.1-2.7 0.5-3.9 0.9-1.2 0.5-2.4 1.2-3.4 2-1.1 1-1.8 2.2-2.2 3.4v0.1 0.1c-0.1 0.3-0.4 0.6-0.4 1.2-0.1 0.4-0.2 1-0.2 1.6 0 1.1 0.3 2.8 1.3 4 0.2 0.4 0.6 0.7 0.9 1 0.3 0.2 0.7 0.5 1.2 0.8 0.8 0.4 1.7 0.6 2.8 0.6 0.9 0 2-0.4 2.8-1 0.7-0.5 1.2-1.4 1.4-2.2 0.2-1 0-1.8-0.4-2.5-0.4-0.6-0.9-1.2-1.5-1.5-1.2-0.6-4.1-0.3-4.7-0.2-0.7 0.1-0.1-2.1 0.4-3 1.6-2.3 4-3.3 6.6-3.6 4.9-0.6 11.2 3 12.3 8.1 1 4.8-0.9 10.3-5.4 13.7-1.6 1.3-3.7 2.2-5.4 2.9-1.7 0.9-3.5 1.5-5.1 2-2.3 0.6-4.7 1.2-7 1.9-1.3 0.3-2.1 0.4-2.2 1.9 0 0.6 0 1 0.1 1.4 0.1 0.8 0.3 1.3 0.5 1.7 0 0.1 0.1 0.4 0.3 0.5 0 0 0.2 0 0.2 0.1h0.1c0.1 0.1 0.2 0.1 0.4 0.1 0.4 0.1 1 0 1.5 0 2.3-0.1 5.6-0.8 9.5-2.3 1.9-0.7 4-1.7 6-3 2-1.3 4.2-2.9 5.9-5 3.4-4 4.6-10.7 2.2-16.8z"/>
		<path class="s4" d="m270.2 356.6c-1.3-0.5-2.9 0.1-3.2 2-0.3 3.3 3.1 3.5 4.2 1.8 1.1-1.8 0.3-3.4-1-3.8z"/>
		<path class="s4" d="m270.5 365.5c-1.3-0.5-3 0.1-3.3 2-0.4 3.3 3.1 3.5 4.2 1.8 1.1-1.8 0.3-3.4-0.9-3.8z"/>
		<path class="s4" d="m370.6 302.2c-0.3 0.1-1 0.5-2.1 0.9-0.8 0.4-1.6 0.6-2.7 0.9-1.1 0.2-2.3 0.5-3.4 0.9-2.4 0.7-4.6 1.6-6.1 2.5-0.5 0.4-2.5 1.3-2.5 2 0 0.5 0.3 1.4 0.5 2.1 0.4 1.6 1.4 3.7 2.4 5.9 0.8 1.7 1.6 3.3 2.1 4.7-0.8-0.1-1.7 0.1-2.6 0.6-1.3 0.6-2.1 1.6-2.4 2-0.7 0.8-0.7 2 0 2.9 0.6 0.9 1.7 1.2 2.8 0.8 0.1-0.2 0.3-0.2 0.4-0.3 0.7-0.4 3.2-1.8 3.3-3.9 0.1-1.2-0.5-2.3-0.9-3.4-0.6-1.3-1.1-2.6-1.8-3.9-0.2-0.6-1.2-2.9-1.4-3.3 0.5-0.3 1-0.5 1.8-0.9 1.4-0.8 3.4-1.7 5.8-2.5 1.1-0.3 2.3-0.6 3.4-0.9 1.1-0.4 2.1-0.8 2.8-1.2 0.6-0.4 1.2-0.8 1.5-1.1 0.5 1.1 1.8 4.2 2.4 5.4 1.2 2.4 2.3 4.7 3.1 6.4-0.9 0-1.6 0.1-2.5 0.5-1.3 0.7-2.1 1.7-2.5 2.1-0.6 0.7-0.6 2 0 3 0.7 0.8 1.8 1.2 2.8 0.7 0.2-0.1 0.4-0.1 0.6-0.2 0.7-0.4 1.6-0.9 2.1-1.6 2-2.1 1.3-3.2-0.5-7.3-0.6-1.4-1.2-2.8-1.9-4.2q-2-4-3.3-6.7c-0.4-0.9-0.9-2.2-1.2-2.9 0.3-0.1 0.2-0.1 0 0z"/>
		<path class="s3" d="m302.3 343.4c-0.3 0.1-1.1 0.5-2.1 0.8-0.8 0.2-1.7 0.5-2.7 0.7-1.1 0.2-2.3 0.4-3.5 0.7-2.5 0.7-4.6 1.4-6.1 2.3-0.5 0.3-2.6 1.2-2.7 1.8 0 0.5 0.2 1.4 0.4 2.3 0.5 1.6 1.2 3.7 2.1 6q1.1 2.7 1.9 4.8c-0.9-0.1-1.7 0-2.6 0.4-1.3 0.6-2.2 1.5-2.6 1.8-0.7 0.8-0.7 2.1-0.1 2.9 0.7 1 1.8 1.3 2.8 0.9 0.1-0.1 0.4-0.1 0.6-0.2 0.7-0.3 3.2-1.6 3.5-3.8 0.1-1.2-0.4-2.2-0.7-3.3-0.5-1.4-1-2.7-1.5-4.1-0.3-0.5-0.5-0.9-0.7-1.5 0.4-0.1 1-0.4 1.7-0.7 1.5-0.7 3.6-1.6 6-2.2 1.1-0.3 2.3-0.5 3.4-0.8 1.1-0.2 2-0.7 2.8-1 0.8-0.3 1.2-0.7 1.6-1.1 0.4 1.1 1 2.4 1.5 3.7 1.1 2.6 2.1 4.8 2.8 6.5-0.8-0.1-1.6 0.1-2.6 0.5-1.3 0.5-2.2 1.5-2.5 1.8-0.8 0.7-0.8 2-0.2 3 0.7 0.9 1.8 1.3 2.8 0.8 0.2-0.1 0.4-0.1 0.6-0.2 0.8-0.3 1.6-0.8 2.2-1.5 2.1-2 1.6-3.1-0.2-7.3-0.5-1.4-1-2.8-1.7-4.2-1.2-2.7-2-5.1-2.8-6.8-0.4-0.9-0.9-2.3-1.1-3q-0.3-0.2-0.3 0z"/>
		<path class="s4" d="m428.4 312.5c-0.3-1.7-2.8-2.3-4.4-1.8-0.8 0.2-2 0.5-2.7 1-1 0.9-0.9 2.1-1 3.4-0.3 1.6-0.3 3.6-0.4 5.2-0.1 2.5 0 4.6-0.1 6.2 0 0.8-0.1 1.4-0.1 1.9-0.1 0.4-0.2 0.5-0.1 0.6 0 0 0.1 0 0.2 0 0.1-0.1 0.4-0.2 0.5-0.4 0.2-0.5 0.4-1.1 0.5-2 0.3-1.6 0.4-3.8 0.5-6.3 0-1.5-0.2-3.5 0.3-4.9 1.2 0.2 2.6 0.4 3.9 0.3 1.3-0.1 2.6-0.8 2.9-2.1 0-0.5 0-0.8 0-1.1z"/>
		<path class="s3" d="m449.9 302.1c-0.4-1.7-2.8-2.3-4.5-1.8-0.8 0.2-2 0.5-2.6 1-1.1 0.9-1 2.1-1.1 3.3-0.2 1.7-0.2 3.7-0.3 5.3-0.1 2.5 0 4.6-0.1 6.2 0 0.8-0.2 1.4-0.2 1.8-0.1 0.5-0.2 0.6-0.1 0.7 0 0 0.1 0 0.3 0 0.1-0.1 0.3-0.2 0.4-0.4 0.2-0.5 0.4-1.1 0.5-2 0.3-1.6 0.4-3.8 0.6-6.3 0-1.5-0.3-3.5 0.2-4.9 1.3 0.2 2.7 0.4 4 0.3 1.2-0.1 2.5-0.8 2.9-2.2 0.1-0.4 0.1-0.7 0-1z"/>
		<path class="s4" d="m474.2 317.9c-0.1-0.1-0.2 0.1-0.4 0.1-0.2 0-0.3 0.1-0.5 0.1-0.1 0-0.3 0.1-0.5 0.1-0.8 0.2-1.6 0.1-2.8-0.4-2-0.6-4-1.7-5.2 0.7-0.4 1-0.5 1.7-0.6 3.1 0 1.9 0.1 4.3 0.4 6.2 0.1 0.9 0.2 1.7 0.2 2.7 0 0.2 0.1 2.1 0 2.7-0.3-0.3-1.7-0.7-2.5-0.6-1.4 0.2-2.5 0.8-3 1-0.8 0.5-1.4 1.6-1 2.8 0.3 1.1 1.1 1.7 2.3 1.7 0.1 0 0.3 0 0.6 0 0.8-0.1 1.8-0.3 2.7-0.6 2.9-1.4 2.5-5.3 2.2-8-0.1-1.6-0.3-3.2-0.5-4.8-0.1-1.4 0.1-1.9 1.5-1.9 1.1 0 2.1 0.2 3.2 0.1 0.9-0.1 1.8-0.4 2.5-1 0.6-0.5 1-1.3 1.1-1.9 0.4-0.8 0.4-1.9 0.3-2z"/>
		<path class="s3" d="m511.6 331.8c-0.1-1.1-0.9-1.9-2.1-2.1-0.1 0-0.3 0-0.6 0-0.8 0-3.6 0-4.8 1.9-0.6 0.9-0.6 2.2-0.8 3.3-0.2 1.4-0.4 8.7-0.5 10.1 0 0.5-0.1 3.5-0.1 4.1-0.4-0.1-1.1-0.1-1.8-0.1-1.6 0-3.9-0.2-6.3-0.7-1.2-0.2-2.3-0.5-3.4-0.7-1.1-0.3-2.2-0.4-3-0.4-0.7 0-1.2 0.1-1.6 0.2 0.1-2.2 0.2-6.8 0.4-8.3 0.6 0.4 1.5 0.6 2.5 0.7 1.4 0.1 2.7-0.3 3.1-0.5 1-0.3 1.6-1.5 1.4-2.6-0.1-1.1-1-1.9-2.2-2-0.1 0-0.3 0-0.5 0-0.9 0-1.8 0-2.7 0.3-2.7 0.9-2.7 2.2-3 6.7q-0.2 2.2-0.3 4.5c-0.5 3.2-0.8 5.6-0.8 5.9 0.1 0.1 0 0.1 0.6 0.2 0.4 0.1 0.8 0 1.9 0.2 0.7 0.1 1.6 0.2 2.7 0.3 1.1 0.1 2.1 0.4 3.4 0.8 2.5 0.5 4.8 0.7 6.5 0.6 0.5 0 3.4 0.1 3.7-0.4 0.3-0.5 0.3-1.1 0.4-2 0.2-1.6 0.3-4 0.5-6.4 0.1-1.9 0.3-9.5 0.5-10.9 0.8 0.4 1.7 0.7 2.5 0.7 1.4 0.1 2.7-0.3 3.1-0.5 0.9-0.7 1.4-1.7 1.3-2.9z"/>
		<path class="s4" d="m480.5 312.9c0.2 1.7 2.5 2.6 4.2 2.3 0.9-0.1 2.1-0.4 2.8-0.8 1.1-0.7 1.2-1.9 1.4-3.1 0.3-1.6 0.7-3.5 0.9-5.3 0.3-2.4 0.5-4.6 0.7-6.2 0.1-0.7 0.3-1.4 0.4-1.8 0.1-0.4 0.2-0.5 0.2-0.6 0 0-0.1-0.2-0.2 0-0.1 0.1-0.4 0.2-0.5 0.4-0.3 0.4-0.5 1.1-0.7 1.8-0.5 1.6-0.9 3.8-1.2 6.2-0.2 1.5-0.1 3.6-0.8 5-1.1-0.4-2.6-0.8-3.9-0.8-1.3 0-2.6 0.5-3.2 1.8-0.1 0.5-0.2 0.8-0.1 1.1z"/>
		<path class="s3" d="m540.9 325.9c-0.1-0.1-0.2 0-0.4 0-0.1 0-0.2 0.1-0.5 0.1-0.1 0-0.3 0.1-0.5 0.1-0.7 0.2-1.6 0.1-2.8-0.3-1.9-0.7-4-1.7-5.2 0.6-0.4 1-0.5 1.7-0.6 3.1 0 2 0.1 4.3 0.4 6.3 0.1 0.8 0.2 1.7 0.2 2.6 0 0.3 0.2 2.2 0 2.7-0.3-0.3-1.7-0.6-2.4-0.5-1.4 0.1-2.6 0.7-3 0.9-0.9 0.6-1.4 1.7-1.1 2.8 0.3 1.1 1.2 1.8 2.3 1.8 0.2 0 0.4 0 0.6 0 0.8-0.2 1.8-0.4 2.7-0.7 2.9-1.4 2.6-5.2 2.2-7.9-0.1-1.6-0.3-3.2-0.5-4.9-0.1-1.3 0.1-1.9 1.5-1.9 1.1 0 2.2 0.2 3.2 0.1 0.9-0.1 1.9-0.4 2.5-0.9 0.7-0.6 1-1.3 1.1-2 0.4-0.8 0.3-2 0.3-2z"/>
		<path class="s5" d="m508.8 189.1c-0.2 0.3-0.5 0.8-0.8 1.3-0.3 0.5-0.7 1.1-1.2 1.8-1.8 2.8-4.9 6.5-9.5 10.7-1.2 1.1-2.5 2-3.7 3.1-0.8 0.6-1.4 1.1-2.2 1.5-0.3 0.2-0.8 0.6-1.1 0.8-0.4 0.2-0.7 0.5-1.2 0.7-3.1 2.2-6.8 4.1-10.8 5.9-8.1 3.7-17.9 6.7-28.9 8.5-11.1 1.8-23.3 2.5-36.5 1.4-6.5-0.5-13.3-1.5-20.1-3.1q-2.6-0.7-5.1-1.3c-1.8-0.5-3.5-1-5.2-1.5-3.5-1.1-6.9-2.4-10.3-3.7-14-4.9-28.8-10.1-44.5-14.3-15.7-4.2-32.2-7.3-49.3-9.4-17.1-1.8-34-1.5-50.1-0.2-16.2 1.3-31.7 4.1-46.1 8.1-14.4 3.8-27.8 8.3-40.1 13.2-12.4 4.8-23.6 9.8-33.6 15-4.5 2.4-8.6 4.7-12.5 7.1v1.4c4.1-2.4 8.4-4.8 13-7.1 10-5.1 21.2-10.1 33.6-14.8 12.4-4.7 25.7-9.1 40-13 14.3-4 29.6-6.5 45.8-7.8 16-1.3 32.8-1.6 49.8 0.2 17 2 33.5 5 49 9.2 15.6 4.2 30.2 9.3 44.3 14.3 3.6 1.2 6.9 2.4 10.4 3.6 1.8 0.7 3.5 1.1 5.2 1.5q2.6 0.7 5.2 1.3c6.9 1.5 13.8 2.5 20.3 3 13.3 1.1 25.7 0.3 36.8-1.6 11.1-1.9 21-5 29.1-8.8 4.1-1.9 7.7-4 10.9-6.1 0.4-0.2 0.7-0.5 1.1-0.8 0.5-0.3 0.8-0.5 1.1-0.8 0.8-0.6 1.5-1.1 2.2-1.6 1.3-1.2 2.7-2.2 3.7-3.2 4.7-4.3 7.7-8.3 9.4-11.1 0.4-0.6 0.9-1.3 1.1-1.9 0.3-0.6 0.5-1 0.7-1.4 0.5-0.8 0.6-1.2 0.6-1.2 0.3 0 0 0.3-0.5 1.1z"/>
		<path class="s5" d="m508.9 196.7c-0.2 0.3-0.5 0.8-0.8 1.3-0.3 0.5-0.7 1.2-1.2 1.8-1.8 2.8-4.8 6.5-9.5 10.7-1.2 1.1-2.4 2.1-3.7 3.1-0.8 0.6-1.4 1.1-2.2 1.6-0.3 0.3-0.7 0.6-1.1 0.9-0.4 0.2-0.7 0.5-1.2 0.8-3.1 2.1-6.7 4-10.8 5.9-8.1 3.6-17.8 6.7-28.9 8.5-10.9 1.9-23.3 2.5-36.4 1.4-6.6-0.5-13.3-1.5-20.2-3.1-3.4-0.8-6.8-1.7-10.2-2.9-3.4-1-6.9-2.3-10.4-3.5-7-2.4-14.2-4.8-21.8-7.1-3.6-1.2-7.5-2.2-11.3-3.3-3.8-1.1-7.6-2.2-11.6-3.1-7.9-2.1-15.9-3.8-24.1-5.2-8.3-1.5-16.7-2.4-25.3-3.1-8.6-0.6-17.1-0.7-25.5-0.4-8.4 0.2-16.7 1.4-24.6 2.7-16 2.8-31.3 6.3-45.4 11.3-13.8 5.1-26.9 10.5-38.9 16-12.1 5.6-22.9 11.3-32.7 16.9-5.4 3.1-10.5 6.2-15.1 9.3v1.4q7.3-4.8 15.8-9.7c9.8-5.4 20.7-11.1 32.7-16.6 12.1-5.5 25.1-10.8 39.1-15.7 14-4.9 29.2-8.3 45.1-11.1 8-1.3 16-2.5 24.3-2.7 8.3-0.3 16.8-0.2 25.3 0.4 8.5 0.7 16.9 1.6 25.1 3.1 8.2 1.4 16.2 3.2 24 5.1 3.9 1 7.7 2 11.6 3 3.8 1.1 7.5 2.1 11.3 3.3 7.4 2.3 14.6 4.6 21.6 7 3.6 1.2 6.9 2.5 10.5 3.5 3.4 1.2 7 2.1 10.4 2.9 6.9 1.5 13.8 2.5 20.4 3 13.2 1.1 25.7 0.3 36.8-1.6 11.1-1.9 20.8-5 29-8.9 4-1.9 7.8-4 10.9-6.1 0.4-0.2 0.7-0.5 1.2-0.8 0.4-0.3 0.7-0.5 1.1-0.8 0.7-0.5 1.5-1.1 2.1-1.6 1.3-1.2 2.7-2.2 3.8-3.2 4.6-4.3 7.5-8.3 9.2-11.1 0.5-0.6 0.9-1.3 1.1-1.9 0.3-0.6 0.5-1 0.8-1.4 0.4-0.8 0.5-1.2 0.5-1.2 0 0.1-0.3 0.5-0.8 1.2z"/>
		<path class="s5" d="m509.1 204.3c-0.3 0.3-0.6 0.8-0.9 1.3-0.3 0.5-0.7 1.2-1.2 1.8-1.8 2.7-4.7 6.6-9.4 10.6-4.5 4.2-10.8 8.4-18.7 12.2-7.9 3.6-17.5 6.7-28.4 8.5-10.9 1.9-23 2.6-35.9 1.6-6.5-0.5-13.2-1.3-19.8-2.8-3.4-0.8-6.8-1.7-10.2-2.7-3.3-1.1-6.7-2.3-10.3-3.4-3.4-1.1-7-2.2-10.5-3.4-3.7-1-7.4-2-11-3-1.8-0.5-3.7-1.1-5.6-1.5-1.9-0.4-3.8-0.9-5.7-1.3q-2.9-0.6-5.8-1.3c-2-0.4-3.9-0.8-5.8-1.1-4-0.7-8-1.4-12-2.1-2-0.4-4-0.5-6-0.8-2.1-0.3-4.1-0.5-6.1-0.8-2.1-0.2-4.1-0.4-6.2-0.7-2-0.2-4.2-0.3-6.2-0.5-2.1-0.1-4.2-0.2-6.3-0.4-2.1-0.1-4.2-0.3-6.3-0.2-4.2 0-8.5-0.1-12.6-0.1-2.1-0.1-4.2 0.1-6.2 0.2-2.1 0.1-4.2 0.2-6.3 0.3-8.3 0.2-16.3 1.1-24.3 2.5-7.9 1.4-15.6 3.2-22.9 5.6-7.4 2.4-14.3 5.1-21.1 7.8-27.4 10.8-51.3 22.4-70.1 34-8.1 5-15.2 10-21.3 14.9v1.4c6.2-4.9 13.7-10 22-15.1 18.9-11.5 42.7-22.9 69.9-33.6 6.8-2.7 13.9-5.4 21.1-7.7 7.2-2.4 14.9-4.2 22.6-5.5 7.9-1.3 15.8-2.3 24.1-2.5 2.1-0.1 4.1-0.2 6.1-0.2 2.1-0.1 4.1-0.2 6.3-0.2 4.2 0 8.4 0.1 12.6 0.1 2.1 0 4.2 0.1 6.2 0.2 2.1 0.1 4.2 0.2 6.3 0.5 2 0.1 4.2 0.2 6.2 0.4 2 0.2 4.1 0.4 6.1 0.7 2.1 0.2 4.1 0.5 6.2 0.8 2 0.2 4.1 0.4 6 0.8 4 0.7 8 1.4 11.8 2.1 2 0.3 3.9 0.7 5.8 1.2 2 0.4 3.9 0.8 5.8 1.2 1.9 0.5 3.7 0.9 5.7 1.3 1.8 0.5 3.7 1 5.6 1.5 3.6 1 7.3 2.1 10.9 3 3.6 1.2 7.1 2.3 10.6 3.5 3.4 1.2 6.9 2.2 10.3 3.3 3.5 1 6.9 1.9 10.3 2.7 6.8 1.5 13.6 2.3 20.2 2.8 13 0.9 25.3 0.1 36.2-1.9 11-1.9 20.7-5.1 28.7-8.9 7.9-3.8 14.3-8.2 18.8-12.5 4.5-4.3 7.4-8.2 9.1-10.9 0.5-0.7 0.9-1.3 1.1-1.9 0.3-0.5 0.6-0.9 0.8-1.4 0.4-0.7 0.5-1 0.5-1.1-0.2-0.4-0.4 0.1-0.8 0.7z"/>
		<path class="s5" d="m509.7 212.2c-0.2 0.4-0.4 0.8-0.8 1.3-0.3 0.6-0.6 1.2-1.1 1.9-1.9 2.6-4.8 6.4-9.2 10.5-1.1 1-2.4 2-3.6 3.1-0.7 0.5-1.4 0.9-2.1 1.5-0.7 0.5-1.4 1.1-2.3 1.6-3.1 2-6.5 4.1-10.4 6q-5.8 2.7-12.9 5.1c-4.6 1.5-9.7 2.8-15.1 3.9-10.6 2-22.7 3-35.5 2.4-6.3-0.4-13-1.1-19.7-2.4-3.3-0.6-6.7-1.4-10.1-2.4-1.7-0.4-3.3-0.9-5.1-1.5-1.7-0.5-3.4-1.1-5-1.7-6.9-2.3-14-4.5-21.3-6.5-7.3-1.9-14.9-3.8-22.7-5.2-7.8-1.4-15.7-2.5-23.9-3.3-8.2-0.6-16.5-1.2-24.8-1-2 0-4.2 0.2-6.2 0.3-2.1 0.1-4.2 0.1-6.3 0.3-2 0.2-4.1 0.3-6.1 0.4q-3.1 0.3-6.1 0.7c-2.1 0.2-4.1 0.5-6.1 0.8-2 0.3-3.9 0.5-6 1-4 0.7-7.8 1.7-11.7 2.7-15.3 4-29.7 9-43.2 14.3-26.9 10.7-50.2 22.9-68.2 35.4-8.9 6.4-16.6 12.8-22.7 19q-3.1 3.1-5.5 6.1v1.4c1.8-2.2 4-4.5 6.2-6.7 6.2-6.1 13.8-12.5 22.8-18.7 17.9-12.4 41.2-24.5 68.1-35 13.4-5.2 27.8-10.2 43-14.1 3.8-1 7.7-2 11.5-2.7 2-0.4 4-0.7 6-1 2-0.3 3.9-0.6 6-0.8 2-0.2 4.1-0.5 6-0.7 2.1-0.2 4.1-0.3 6.1-0.4 2.1-0.2 4.1-0.2 6.2-0.3 2 0 4.1-0.2 6.2-0.2 8.3-0.1 16.6 0.3 24.7 0.9 8 0.7 15.9 2 23.6 3.2 7.8 1.4 15.3 3.3 22.5 5.1 7.4 2 14.5 4.1 21.2 6.4 3.5 1.1 6.9 2.4 10.3 3.2 3.4 1 6.9 1.8 10.2 2.4 6.8 1.3 13.4 1.9 19.9 2.3 12.9 0.5 25.1-0.5 35.8-2.7 5.4-1.1 10.5-2.5 15.2-4 4.7-1.6 9-3.4 12.9-5.3 3.9-1.9 7.5-4 10.6-6.1q1.1-0.8 2.2-1.6c0.8-0.5 1.4-1.1 2.1-1.6 1.3-1.1 2.6-2.1 3.6-3.2 4.4-4.2 7.4-8.2 9.1-10.8 0.4-0.7 0.7-1.3 1.1-1.9 0.3-0.5 0.5-0.9 0.7-1.4 0.4-0.7 0.5-1 0.5-1 0 0-0.2 0.3-0.6 1z"/>
		<path class="s5" d="m509.8 222.4c-0.4 0.7-1 1.7-1.9 3.1-1.8 2.7-4.7 6.5-9.2 10.6-2.2 2-4.8 4-7.8 6.2-3.2 2-6.6 4.1-10.4 5.9-3.8 1.8-8.1 3.6-12.8 5.1-4.6 1.5-9.7 2.8-14.9 3.9-10.7 2.1-22.5 3.1-35.3 2.5-12.7-0.7-26.3-2.8-39.7-7.7-1.8-0.5-3.5-1.1-5.2-1.7-1.7-0.5-3.6-1.1-5.3-1.6-3.5-1.1-7.1-2-10.7-3-7.4-1.8-14.9-3.4-22.6-4.7-15.5-2.5-31.9-3.5-48.5-2.9-8.3 0.3-16.6 1.1-24.5 2.1-2.1 0.3-4 0.7-6 0.9-2 0.3-4 0.5-6 1-3.9 0.7-7.7 1.8-11.5 2.9-7.5 2.2-14.7 4.9-21.8 7.7-7 2.8-13.8 5.7-20.4 8.8-26 12.3-48.2 26-65.1 39.9-8.4 6.8-15.5 13.8-21.2 20.4-2.8 3.2-5.3 6.5-7.4 9.5-1 1.5-2 3-2.9 4.4-0.9 1.5-1.6 2.9-2.4 4.2q-0.1 0.3-0.3 0.6v1.5c0.3-0.5 0.5-1.1 1-1.7 0.7-1.3 1.6-2.7 2.3-4.1 1-1.3 2-2.9 3-4.4q3.3-4.5 7.5-9.3c5.7-6.4 12.8-13.2 21.2-20 16.9-13.8 39-27.4 65.1-39.6 6.4-3 13.2-5.9 20.2-8.7 7-2.8 14.2-5.4 21.7-7.6 3.7-1.1 7.5-2.2 11.4-2.9 1.9-0.5 3.8-0.7 5.9-1 1.9-0.3 4-0.6 5.9-0.9 8-1 16.1-1.7 24.4-2.1 16.6-0.6 32.7 0.4 48.1 2.9 7.8 1.2 15.2 2.9 22.5 4.6 3.7 1 7.2 1.8 10.8 3 1.7 0.6 3.5 1.1 5.3 1.6 1.7 0.6 3.4 1.2 5.1 1.7 13.7 5 27.4 7.1 40.3 7.7 12.8 0.5 24.8-0.6 35.5-2.8 5.4-1.1 10.4-2.5 15.1-4.1 4.6-1.6 8.9-3.4 12.8-5.4 3.8-1.9 7.3-4 10.4-6.1 3-2.1 5.7-4.3 7.9-6.4 4.4-4.2 7.3-8.1 8.9-10.9 0.9-1.2 1.4-2.4 1.8-3.2 0.5-0.7 0.6-1 0.6-1-0.1 0.1-0.5 0.4-0.9 1.1z"/>
		<path fill-rule="evenodd" class="s6" d="m196.2 242.5c0.1 0.2 0.1 0.3 0.2 0.5 1.2 3.1 0.7 6.4-0.7 9.3-0.4 0.7-0.8 1.6-1.4 2.4 0.6 1 1.3 1.8 1.8 2.8 0.5 1.1 1.1 2.2 1.4 3.3 0.6 2.3 0.4 4.6-0.8 6.7-0.6 1.2-1.6 2.1-2.9 2.7-1 0.5-2.6 0.4-3.4-0.6-0.9-0.9-1.1-2.3-0.4-3.4 0-0.1 0.1-0.2 0.1-0.3q0.1-0.3 0.3-0.7c0.1-0.2 0.3-0.5 0.5-0.7 0.2-0.2 0.6-0.6 0.9-0.8 0.3-0.3 0.7-0.5 1.3-0.7 0.5-0.3 1.2-0.6 1.7-0.7 0.2-0.1 0.4-0.2 0.5-0.3l0.1-0.1v-0.1c0.2 0 0-0.1 0-0.2 0-0.1 0-0.2-0.1-0.3-0.3-1-0.9-2-1.6-3-0.4-0.6-0.7-1.1-1.2-1.6-0.9 0.8-2.1 1.6-3.2 2.1-4.4 2.1-10.9 2.3-14.6-1.2-2.1-1.6-3.7-3.8-4.5-6.4-0.9-2.6-1-5.3-0.8-7.7 0.2-2.6 0.6-5 1.1-7.1 0.1-0.5 0.2-1 0.3-1.4-0.2-0.2-0.5-0.6-0.8-0.9-0.7-0.9-1.6-1.9-2.4-3-1.6-2-3.4-4.3-4.7-6.8-0.6-1.2-1.1-2.6-1.6-4.1-0.3-1.4-0.5-3.1 0.1-4.8 0.4-0.9 0.9-1.5 1.4-2.2 0.6-0.6 1.3-1.3 2.3-1.6 1-0.3 2-0.2 2.9 0.1 0.9 0.3 1.6 0.9 2.3 1.4 1.3 1.1 2.2 2.5 2.9 4 0.6 1.5 1 3.1 1.3 4.7 0.4 3.2 0.1 6.2-0.3 9.2-0.2 1.4-0.3 2.7-0.5 4.1 0.2 0.2 0.3 0.3 0.5 0.5 1.9 1.7 3.7 3.4 5.4 4.9 0.5 0.3 1 0.7 1.4 1.1 0.5-1 1-1.9 1.9-2.8 0.8-0.8 2-1.6 3.4-2 1.4-0.4 3-0.3 4.4 0.3 1.8 0.9 3.5 2.3 4.6 3.9 0.5 0.6 0.8 1.2 0.9 1.5zm-26.9-12.8c0.7 0.9 1.4 1.7 2.1 2.6 0.2-0.7 0.3-1.5 0.4-2.1 0.2-1 0.2-2 0.2-2.8q0-0.7 0-1.3c0-0.4-0.1-0.9-0.1-1.3-0.2-3.3-0.9-6-1.6-7.7-0.7-1.5-1.4-2.2-1.5-2.4-2-1.6-4.4-1-5.2 1.4-0.3 1.1-0.3 2.4 0 3.5 0.3 1.3 0.7 2.5 1.4 3.7 1.2 2.4 2.8 4.5 4.3 6.4zm19.5 25.6c0.8-0.5 1.4-0.8 1.8-1.1q-0.2-0.2-0.3-0.3c-0.5-0.6-1-1.1-1.4-1.6-0.5-0.6-1-1.1-1.4-1.7-0.6-0.4-1.1-0.9-1.5-1.4-1-0.8-1.9-1.8-2.8-2.6-0.3-0.4-0.7-0.7-1-0.9 0 1 0.2 1.9 0.7 2.8 0.2 0.4 1.4 2 0.1 1.4-0.4-0.2-0.8-0.4-1-0.8-0.8-0.8-1.4-2.2-1.5-4.1 0-0.4 0-0.6 0-0.9-0.8-0.7-1.5-1.5-2.3-2-1.7-1.4-3-2.5-3.7-3.3-0.3 2.5-0.5 4.9-0.3 7.2 0.3 2.7 0.9 5.2 2.4 7 0.7 0.9 1.6 1.7 2.6 2.3 1 0.5 2.1 0.8 3.2 0.9 2.3 0.3 4.3 0 6.4-0.9zm4.6-12.6c-1-1.4-2.2-2.5-3.4-3.1-1.3-0.5-2.7-0.6-3.9-0.2-1.2 0.4-2.1 1.2-2.6 2q-0.2 0.3-0.3 0.7c-0.1 0.2-0.3 0.4-0.3 0.6-0.2 0.1-0.2 0.1-0.2 0.2 2.4 2.1 4.7 4.2 6.7 6.2 1.2 1.2 2.1 2.2 3 3.4 1.2-1.2 2.2-3 2.3-4.9 0.1-1.8-0.5-3.5-1.3-4.9z"/>
		<path class="s7" d="m461.1 213.3c-0.2-0.1-0.3-0.1-0.5 0-0.1 0-0.2 0.1-0.4 0.1-0.1 0-0.3 0.1-0.5 0.1q-1.2 0.4-3-0.3c-1.9-0.7-3.9-1.8-5.2 0.5-0.5 1-0.7 1.9-0.7 3.2-0.1 2 0.1 4.4 0.4 6.4 0.1 0.8 0.1 1.8 0.2 2.7 0 0.2 0.1 2.1 0 2.8-0.4-0.4-1.8-0.7-2.5-0.7-1.4 0.1-2.7 0.7-3.1 1-1 0.5-1.4 1.6-1.2 2.8 0.2 1 1.2 1.8 2.4 1.8 0.2 0 0.3 0 0.5 0 0.9-0.1 1.9-0.2 2.7-0.6 2.9-1.4 2.7-5.3 2.5-8.1-0.2-1.6-0.4-3.3-0.5-4.9-0.1-1.4 0.1-2 1.6-2 1.1 0 2.3 0.3 3.4 0.1 0.9-0.1 1.9-0.3 2.6-0.9 0.7-0.6 0.9-1.4 1.1-1.9 0.3-0.9 0.2-2.1 0.2-2.1z"/>
		<path class="s6" d="m240.5 206c0.4 1.7 2.8 2.4 4.6 1.8 0.8-0.2 2-0.5 2.6-1 1.1-0.9 1-2.1 1.1-3.4 0.2-1.7 0.2-3.7 0.2-5.3 0-2.5 0-4.7 0-6.3 0-0.9 0.1-1.5 0.1-1.9 0.2-0.4 0.3-0.5 0.2-0.6 0 0-0.2 0-0.3 0-0.1 0.1-0.3 0.2-0.4 0.4-0.2 0.4-0.4 1.1-0.5 1.9-0.4 1.7-0.5 4-0.5 6.5 0 1.5 0.4 3.5-0.1 5-1.3-0.2-2.8-0.4-4.1-0.3-1.3 0.1-2.5 0.9-2.9 2.1-0.1 0.4-0.1 0.8 0 1.1z"/>
		<path class="s7" d="m242.8 228.9c-0.4-1.5-2.9-2-4.5-1.5-0.9 0.2-2.1 0.5-2.7 1-1.1 0.8-1 1.9-1.1 2.9-0.1 1.4-0.1 3.3-0.1 4.6 0 2.2 0.1 4.1 0.1 5.5 0 0.7 0 1.3-0.1 1.6 0 0.4-0.2 0.6-0.1 0.6 0 0 0.1 0 0.2 0 0.1-0.1 0.3-0.2 0.4-0.5 0.3-0.4 0.5-0.9 0.6-1.7 0.2-1.4 0.3-3.3 0.3-5.5 0-1.2-0.3-3 0-4.2 1.3 0.2 2.8 0.3 4.1 0.1 1.3-0.1 2.6-0.8 2.9-2q0.2-0.6 0-0.9z"/>
		<path class="s6" d="m221.1 198.3c-0.5 0-1.2 0.2-2.4 0.2-0.9 0-1.7 0-2.8-0.1-1.1-0.1-2.3-0.2-3.7-0.3-2.6-0.1-4.9 0.1-6.5 0.4-0.6 0.1-2.9 0.4-3.2 1.1-0.2 0.5-0.2 1.5-0.2 2.2-0.1 1.8 0.1 4 0.4 6.5 0.2 1.9 0.4 3.7 0.5 5.2-0.8-0.3-1.7-0.4-2.7-0.3-1.4 0.2-2.6 0.9-3 1.1-0.9 0.5-1.3 1.7-1 2.9 0.3 1 1.3 1.7 2.5 1.6 0.2 0 0.3 0 0.5-0.1 0.9-0.1 3.7-0.7 4.6-2.7 0.4-1.1 0.2-2.4 0.2-3.5 0-1.5-0.1-2.9-0.4-4.4-0.1-0.6-0.2-3.2-0.3-3.7 0.5 0 1.1-0.1 1.9-0.2 1.6-0.2 3.8-0.5 6.3-0.4 1.3 0 2.5 0.1 3.6 0.2 1 0 2.1 0 3-0.2 0.7-0.1 1.4-0.4 1.8-0.6 0.1 1.2 0.3 4.6 0.5 6 0.4 2.8 0.7 5.4 0.9 7.2q-1.1-0.5-2.6-0.3c-1.4 0.2-2.6 0.9-3 1.1-0.9 0.5-1.3 1.7-1 2.9 0.4 1 1.3 1.7 2.5 1.6 0.2 0 0.3 0 0.5-0.1 0.9-0.1 1.9-0.3 2.7-0.9 2.6-1.4 2.4-2.7 1.9-7.2-0.1-1.5-0.3-3.1-0.5-4.6-0.3-3-0.5-5.6-0.8-7.5-0.1-1-0.2-2.5-0.1-3.2 0.1 0.1 0 0.1-0.1 0.1z"/>
		<path class="s7" d="m347.5 200.9c-0.1-0.1-0.2 0-0.4 0-0.1 0-0.2 0.1-0.4 0.2-0.2 0-0.4 0.1-0.6 0.2-0.7 0.2-1.7 0.2-2.9-0.2-2-0.7-4.1-1.6-5.2 0.8-0.4 1-0.5 1.9-0.5 3.2 0 2 0.3 4.4 0.5 6.3 0.1 0.8 0.3 1.8 0.4 2.7 0 0.2 0.2 2.1 0.1 2.8-0.4-0.4-1.8-0.7-2.6-0.6-1.4 0.2-2.6 0.9-3 1.1-0.9 0.5-1.3 1.7-1 2.9 0.3 1.1 1.3 1.7 2.5 1.7 0.2 0 0.3 0 0.5 0 0.9-0.1 1.8-0.3 2.7-0.7 2.9-1.5 2.5-5.5 2.2-8.2-0.3-1.6-0.5-3.3-0.7-4.9-0.2-1.4 0-2 1.5-2 1.1 0 2.3 0.1 3.4 0 0.9-0.1 1.8-0.4 2.5-1 0.7-0.7 1-1.4 1.1-2.1 0-1 0-2.2-0.1-2.2z"/>
		<path class="s7" d="m293.1 203.7c-0.3-1.2-1.1-2-2.3-2.1-0.1 0-0.3 0-0.5 0-0.9 0-3.8 0.1-5 2.1-0.6 0.9-0.5 2.3-0.7 3.4-0.3 1.5-0.3 8.9-0.4 10.4 0 0.5 0 3.6 0 4.2q-0.6 0-1.9 0c-1.7 0-4 0-6.5-0.4-1.1-0.3-2.3-0.6-3.5-0.8-1.1-0.2-2.2-0.3-3-0.2-0.7 0-1.2 0.1-1.6 0.2 0.1-2.4 0.1-7 0.2-8.6q1.1 0.7 2.6 0.7c1.4 0 2.6-0.5 3.2-0.7 1-0.4 1.5-1.5 1.4-2.7-0.2-1-1.1-1.9-2.3-2-0.2 0-0.3 0-0.5 0-0.9 0-2 0.1-2.8 0.4-2.7 1-2.7 2.3-2.9 6.9-0.1 1.5-0.1 3.1-0.2 4.6-0.4 3.3-0.7 5.8-0.6 6 0.1 0.1 0 0.1 0.6 0.2 0.4 0 0.8 0 2 0.1 0.8 0.1 1.6 0.1 2.8 0.3 1.1 0.1 2.3 0.4 3.6 0.6 2.5 0.4 4.8 0.6 6.5 0.5 0.6 0 3.6 0 3.9-0.5 0.2-0.4 0.1-1.1 0.2-2 0.1-1.8 0.2-4.2 0.3-6.7 0.1-1.9 0.1-9.8 0.3-11.3 0.7 0.5 1.6 0.7 2.5 0.8 1.4 0 2.7-0.4 3.3-0.6 0.8-0.5 1.4-1.7 1.3-2.8z"/>
		<path class="s6" d="m367.2 230.6c-0.1-0.1-0.2 0-0.4 0-0.1 0-0.2 0.1-0.5 0.2-0.1 0-0.3 0.1-0.5 0.2-0.7 0.2-1.7 0.2-2.9-0.2-2-0.6-4.1-1.6-5.2 0.9-0.4 0.9-0.5 1.8-0.5 3.1 0 2 0.3 4.4 0.5 6.3 0.1 0.9 0.3 1.8 0.4 2.7 0 0.2 0.2 2.1 0.1 2.8-0.4-0.4-1.8-0.7-2.6-0.6-1.4 0.2-2.6 0.9-3 1.1-0.9 0.5-1.3 1.7-1 2.9 0.3 1.1 1.3 1.7 2.5 1.7 0.2 0 0.3 0 0.5 0 0.9-0.1 1.8-0.3 2.7-0.7 2.9-1.5 2.5-5.5 2.2-8.2-0.3-1.6-0.5-3.3-0.7-4.9-0.2-1.4 0-2 1.5-2 1.1 0 2.3 0.2 3.4 0 0.9-0.1 1.8-0.4 2.5-1 0.7-0.7 1-1.4 1.1-2.1 0-0.9-0.1-2.1-0.1-2.2z"/>
		<path class="s6" d="m315.3 214.6c-0.4-1.7-2.9-2.2-4.5-1.7-0.8 0.2-2 0.5-2.7 1.2-1.1 0.9-0.8 2-0.9 3.3-0.2 1.7-0.2 3.7-0.2 5.4 0 2.4 0.2 4.7 0.2 6.3 0 0.7 0 1.5-0.2 1.8 0 0.4-0.2 0.5-0.1 0.7 0 0 0.1 0 0.3 0 0.1-0.2 0.3-0.3 0.4-0.5 0.2-0.4 0.4-1.2 0.5-1.9 0.2-1.7 0.3-4 0.3-6.4 0-1.5-0.3-3.6 0-5.1 1.3 0.2 2.8 0.4 4.1 0.2 1.3-0.2 2.6-0.8 2.9-2.2-0.1-0.5-0.1-0.8-0.1-1.1z"/>
		<path class="s6" d="m438 236.6c-0.4-1.7-2.9-2.3-4.5-1.7-0.9 0.2-2 0.6-2.7 1.2-1.1 0.9-0.8 2-1 3.3-0.1 1.7-0.1 3.7-0.1 5.3 0 2.5 0.1 4.8 0.1 6.4 0 0.7 0 1.5-0.1 1.8 0 0.4-0.2 0.5-0.1 0.6 0 0 0.1 0 0.2 0 0.2-0.1 0.4-0.2 0.5-0.4 0.2-0.4 0.4-1.2 0.5-1.9 0.2-1.7 0.3-4 0.3-6.5 0-1.5-0.3-3.5 0-5 1.3 0.2 2.8 0.4 4.1 0.2 1.3-0.2 2.6-0.8 2.9-2.2 0-0.4 0-0.7-0.1-1.1z"/>
		<path class="s6" d="m401.8 208.7c-0.5 0-1.2 0.2-2.4 0.2-0.9 0-1.7 0-2.8-0.1-1.1-0.1-2.3-0.2-3.7-0.3-2.6-0.1-4.9 0.1-6.5 0.4-0.6 0.1-2.9 0.4-3.2 1.1-0.2 0.5-0.2 1.5-0.2 2.2-0.1 1.8 0.1 4 0.3 6.5 0.3 1.9 0.5 3.7 0.6 5.2-0.8-0.3-1.7-0.4-2.7-0.3-1.4 0.2-2.6 0.9-3 1.1-0.9 0.5-1.3 1.7-1 2.9 0.3 1.1 1.3 1.7 2.5 1.6 0.2 0 0.3 0 0.5-0.1 0.9-0.1 3.7-0.7 4.5-2.7 0.5-1.1 0.3-2.4 0.3-3.5 0-1.5-0.1-2.9-0.4-4.4-0.1-0.6-0.2-3.1-0.3-3.7 0.4 0 1.1-0.1 2-0.2 1.6-0.2 3.8-0.5 6.4-0.4 1.3 0 2.5 0.1 3.6 0.2 1 0 2.1 0 3-0.2 0.7-0.1 1.4-0.3 1.8-0.6 0.1 1.2 0.3 4.7 0.5 6 0.4 2.8 0.7 5.4 0.9 7.2q-1.1-0.5-2.6-0.3c-1.4 0.2-2.6 0.9-3 1.1-0.9 0.5-1.3 1.7-1 2.9 0.4 1.1 1.3 1.7 2.5 1.6 0.2 0 0.3 0 0.6-0.1 0.8-0.1 1.8-0.3 2.6-0.9 2.6-1.4 2.4-2.7 1.9-7.2-0.1-1.5-0.2-3.1-0.5-4.6-0.3-3-0.5-5.6-0.8-7.5-0.1-1-0.2-2.5-0.1-3.2-0.1 0.1-0.2 0.1-0.3 0.1z"/>
		<path class="s7" d="m401.6 251.4c0.5 1.7 3 2.2 4.6 1.7 0.8-0.2 2-0.6 2.7-1.2 0.9-0.9 0.8-2 0.9-3.3 0.1-1.7 0.1-3.6 0.1-5.4 0-2.4-0.1-4.7-0.1-6.3 0-0.7 0-1.4 0.1-1.8 0-0.4 0.1-0.5 0.1-0.7 0 0-0.1 0-0.2 0-0.1 0.2-0.3 0.3-0.4 0.5-0.2 0.4-0.4 1-0.5 1.9-0.3 1.6-0.4 3.9-0.3 6.4 0 1.5 0.5 3.6 0 5.1-1.3-0.2-2.8-0.3-4-0.2-1.3 0.2-2.6 0.8-2.8 2.2-0.3 0.5-0.3 0.8-0.2 1.1z"/>
	</g>
	<path class="s8" d="m115.5 173.8c0.1-1.2 1.2-2 2.4-1.9 0.8 0.1 1.5 0.7 1.7 1.5l9.9 28.2c1.2-0.2 2.4-0.2 3.6 0 3.7 0.7 6.3 3.1 5.8 5.3-0.5 2.2-3.7 3.4-7.4 2.6-3.7-0.8-6.3-3.1-5.8-5.3l-7.8-22.5c-0.7 1.6-4.8 11.7-3.5 15.2 0.2 1.1-0.4 2.3-1.5 2.6-1.1 0.3-2.3-0.3-2.6-1.5-1.6-4.6 4.7-20.5 5.2-24.2z"/>
	<path class="s8" d="m226.1 139.4c3.7 0.6 6.9-0.7 7.3-3 0.4-2.2-2.3-4.5-6-5-1.2-0.2-2.5-0.1-3.7 0.2l-7.9-19.8 13.6-10.2 7.9 19.8c-0.4 2.3 2.3 4.4 6 5.1 3.8 0.6 6.9-0.7 7.3-3 0.5-2.3-2.3-4.5-6-5-1.2-0.2-2.4-0.1-3.6 0.2l-11.1-27.8c-0.1-0.1-0.1-0.2-0.1-0.3q-0.1-0.1-0.1-0.2c-0.1-0.1-0.2-0.3-0.3-0.3l-0.3-0.2-0.5-0.1h-0.3l-0.4 0.2-0.2 0.1-0.3 0.2-0.5 0.2-17.1 12.8c-0.8 0.5-1 1.6-0.7 2.5l11.5 28.7c-0.4 2.2 1.8 4.2 5.5 4.9z"/>
	<path class="s9" d="m287.1 183c1.1 2.6 3.3 4 4.8 3.3 1.6-0.7 1.8-3.3 0.6-5.8q-0.6-1.2-1.7-2.2l8.9-13.2 11.9 4.1-8.8 13.2c-1.6 0.7-1.8 3.3-0.6 5.8 1.2 2.6 3.3 3.9 4.9 3.3 1.5-0.7 1.8-3.4 0.5-5.8q-0.6-1.3-1.6-2.2l12.5-18.5q0-0.1 0.1-0.2c0-0.1 0.1-0.1 0.1-0.2 0.1-0.1 0.1-0.2 0.1-0.3v-0.2l-0.1-0.4-0.2-0.1-0.3-0.2-0.2-0.2-0.1-0.1-0.4-0.1-15.1-5.2c-0.7-0.2-1.4 0.1-1.8 0.6l-12.9 19.2c-1.5 0.7-1.8 2.8-0.6 5.4z"/>
	<path class="s9" d="m523.4 146.8c-0.9-0.7-2.3-0.5-3 0.4-0.5 0.6-0.6 1.5-0.2 2.3l12.7 27c-1.1 0.7-2 1.6-2.7 2.6-2.1 3-2.3 6.6-0.4 7.8 1.9 1.2 5-0.2 7.1-3.4 2.1-3.1 2.4-6.5 0.5-7.8l-10.1-21.5c1.6 0.7 11.6 5 13.1 8.4 0.6 1 1.8 1.4 2.8 0.8 1.1-0.5 1.4-1.8 0.9-2.9-2.1-4.4-17.8-11.3-20.7-13.7z"/>
	<path class="s8" d="m617.5 273.3c0-1.2-1-2.1-2.1-2.1-0.9 0-1.6 0.5-1.9 1.2l-12.9 27c-1.2-0.3-2.4-0.5-3.7-0.4-3.7 0.3-6.6 2.3-6.3 4.6 0.3 2.3 3.4 3.8 7.2 3.4 3.7-0.4 6.6-2.3 6.3-4.6l10.2-21.5c0.5 1.7 3.5 12.2 1.8 15.5-0.4 1.1 0.2 2.3 1.2 2.8 1.1 0.4 2.3-0.1 2.7-1.2 2.1-4.4-2.4-21-2.5-24.7z"/>
	<path class="s8" d="m582.5 220.5l-15.2-27c-0.4-0.8-1.4-1.2-2.3-1l-20.7 5.3-0.5 0.2-0.2 0.2-0.3 0.1-0.4 0.3-0.2 0.1-0.2 0.4v0.4q0 0.2 0 0.4 0 0.2 0.1 0.3 0.1 0.1 0.1 0.2l14.7 26.1c-1 0.7-1.8 1.7-2.5 2.7-1.9 3.3-1.9 6.8 0.2 7.9 2 1.1 5-0.5 6.8-3.9 1.9-3.3 1.9-6.7-0.1-7.8l-10.4-18.6 16.4-4.2 10.4 18.6c-1 0.7-1.8 1.7-2.4 2.7-1.9 3.3-1.9 6.8 0.1 7.9 2 1.1 5-0.5 6.9-3.9 1.9-3.3 1.6-6.2-0.3-7.4z"/>
	<path class="s9" d="m581.6 109l4.2-30.6c0.1-1-0.4-1.9-1.2-2.3l-19.7-8.3-0.5-0.1h-0.3l-0.3-0.1h-0.5l-0.3-0.1-0.4 0.3-0.2 0.2q-0.2 0.2-0.3 0.4c0 0.1 0 0.2 0 0.3 0 0.1 0 0.1 0 0.2l-4.1 29.7q-1.9 0-3.6 0.7c-3.5 1.4-5.6 4.3-4.7 6.3 1 2.1 4.4 2.6 7.8 1.1 3.5-1.5 5.6-4.3 4.7-6.3l2.9-21.1 15.6 6.6-2.9 21.1q-1.9 0-3.6 0.7c-3.5 1.5-5.6 4.3-4.7 6.4 1 2.1 4.4 2.5 7.9 1 3.5-1.5 5.1-4 4.2-6.1z"/>
	<path class="s10" d="m450.4 72.7c-6.3-9-8.8-4.2-14.2-9.4-4.3-4.1-7.5-5.4-10.6-5.3-3.1-0.1-6.3 1.2-10.6 5.3-5.4 5.2-8 0.4-14.2 9.4-6.4 8.9 9.1 18.3 9.1 18.3l14.9 2.6c0 0 0.4-1.4 0.8-3.8 0.5 2.4 0.8 3.8 0.8 3.8l15-2.6c-0.1 0 15.3-9.4 9-18.3z"/>
	<path class="s10" d="m426.6 158c19.7 0 35.7-17.2 35.7-38.4 0-21.2-16-38.4-35.7-38.4-19.7 0-35.7 17.2-35.7 38.4 0 21.2 16 38.4 35.7 38.4z"/>
	<path class="s11" d="m395.9 180.5l65.7 1.6-31.1 28.4z"/>
	<path class="s11" d="m461.7 307h-70.3c-9.2 11.4-12.3 24.2-13.4 32.4-0.7 5.8-3.4 11.2-7.6 15.2-21 20-80 78.7-69.4 98 9.8 17.8 63.6 6.5 88.8 0.1 3.2-0.9 6-1.6 8.1-2.2 5.6-0.8 9.6 0.1 11.4 1.3 4.1 2.7 10.2 18.1 13.5 27.2 1.5 4 6.2 6.5 10.5 6.4 0 0-0.2-35.1-1.1-53.9-1-18.8-13.7-11.6-24.9-7.3-1.8 0.7-4 1.4-6.5 2.1l-39.8 1.4c0 0 37.5-38.6 50.9-46.1 13.4-7.5 19.3 3 19.3 3l5 237.2c0.1 7.1 0.2 17.4-0.2 18.6-0.5 1.8-10.4 17.7-3.6 17.7 6.7 0 13.8 0 13.8 0 0 0 7 0 13.8 0 6.7 0-3.2-15.9-3.7-17.7-0.3-1.2-0.3-10.7-0.1-17.7 0 0 8.7-57.4 9.8-99.7 1.1-42.4 7-69.4 15.6-129.2 8.5-59.8-19.9-86.8-19.9-86.8z"/>
	<path class="s11" d="m457.5 295.8l3.9-14.5-7.5-7.9-27.4 6-27.3-6-7.5 7.9 3.8 14.4-4.1 11.3h29.1 12.1 29z"/>
	<path class="s12" d="m444.1 185.3c-13.2 5.7-25.3 3.5-34.8-1.2-15.6-7.7-34.4-4-46 8.8-11.4 12.6-22.2 25.1-22.2 25.1 0 0 22.2 19.7 39.6 21.8 0 0 8.5 39 10.2 41.5 0 0 8.7 4.2 21.4 6.3 4.7 0.9 9.2 1.3 13.5 1.3 0.3 0 0.6 0 0.9 0 0.2 0 0.5 0 0.8 0 4.3 0 8.9-0.4 13.5-1.3 12.7-2.1 21.4-6.3 21.4-6.3 1.7-2.5 10.2-41.5 10.2-41.5 17.4-2.1 35.6-18.8 35.6-18.8 0 0-8.3-11.4-17.5-23.7-10.9-14.4-30.1-19.1-46.6-12z"/>
	<path class="s13" d="m393.3 206.2q-2.9 3.7-5.5 7.5-2.5 4-4.3 8.2c-1.3 2.9-2.2 5.8-2.7 8.8q-0.8 4.6-0.2 9.3c-1-3-1.3-6.2-0.9-9.4 0.3-3.2 1.2-6.3 2.4-9.2q2-4.4 4.8-8.3c1.9-2.5 4-4.9 6.4-6.9z"/>
	<path class="s13" d="m459.8 206.2q3 3.7 5.5 7.5 2.5 4 4.4 8.2c1.2 2.9 2.2 5.8 2.7 8.8q0.8 4.6 0.2 9.3c1-3 1.2-6.2 0.9-9.4-0.3-3.2-1.2-6.3-2.5-9.2q-1.9-4.4-4.7-8.3c-1.9-2.5-4-4.9-6.5-6.9z"/>
	<path class="s11" d="m438.4 161.2h-20.6v20.6h20.6z"/>
	<path class="s14" d="m438.4 173.6v-12.4h-20.6v10.5c4.4 2.4 11 3.8 20.6 1.9z"/>
	<path class="s11" d="m467.8 124.3c-2-1-4.3-0.8-6.4 0.3 0.7-19-14.8-35-34.2-34.3-19.5-0.7-34.9 15.2-34.2 34.3-2.1-1.1-4.4-1.3-6.5-0.3-3.8 1.9-5 7.4-2.6 12.2 2.3 4.8 7.4 7.2 11.2 5.3 0.6-0.3 1.1-0.6 1.5-1 2.2 15.7 15.3 27.4 30.6 27.2 15.4 0.2 28.4-11.5 30.7-27.2q0.6 0.6 1.4 1c3.9 1.9 8.9-0.5 11.3-5.3 2.2-4.8 1-10.3-2.8-12.2z"/>
	<path class="s15" d="m421.7 125.4c-1.5-0.5-2.8-0.9-4.2-1.1q-2-0.4-4-0.2c-1.3 0.2-2.6 0.5-3.9 1l-0.5 0.2c-0.1 0-0.3 0.2-0.4 0.2l-1 0.5c-0.7 0.3-1.3 0.7-2 1.1 0.4-0.7 0.8-1.3 1.3-1.9 0.6-0.6 1.1-1.2 1.8-1.5 1.3-1 2.9-1.5 4.5-1.7 1.6-0.2 3.2 0.1 4.6 0.7 1.5 0.6 2.8 1.5 3.8 2.7z"/>
	<path class="s15" d="m433.3 125.4c0.9-1.3 2.2-2.1 3.7-2.8 1.4-0.6 3.1-0.8 4.7-0.7 1.5 0.2 3.1 0.7 4.4 1.6 0.7 0.4 1.2 1 1.8 1.5 0.5 0.6 0.9 1.2 1.3 1.8-0.7-0.3-1.3-0.7-2-1l-0.9-0.5c-0.2-0.1-0.3-0.1-0.5-0.2l-0.4-0.2c-1.3-0.5-2.6-0.8-4-0.9q-1.9-0.2-4 0.2c-1.3 0.3-2.7 0.7-4.1 1.2z"/>
	<path class="s14" d="m427.7 127.4q-0.2 2.2 0.3 4.5 0.1 1.1 0.6 2.2c0.3 0.7 0.7 1.5 1.3 2.1l0.3 0.2 0.3 0.2c0.1 0.1 0.2 0.2 0.3 0.3 0.2 0.1 0.4 0.4 0.5 0.6 0.2 0.5 0.1 1.1-0.1 1.6-0.6 1.2-1.8 2.1-3.2 2.7 1.5-0.1 3.2-0.6 4.1-2.1 0.5-0.7 0.8-1.7 0.4-2.6 0-0.2-0.1-0.5-0.3-0.7-0.1-0.2-0.3-0.4-0.4-0.5q-0.2-0.3-0.5-0.5c-0.1 0-0.1 0-0.2-0.1l-0.1-0.2c-0.5-0.3-0.8-0.9-1.1-1.5-0.3-0.7-0.6-1.3-0.8-2-0.5-1.4-0.9-2.8-1.4-4.2z"/>
	<path class="s11" d="m530 260.2c-6.3-10.9-17.4-23.1-28.6-33.9-14.3 10.5-23.1 12.4-26.9 13.2 22 15.2 23.5 21.5 23.5 21.5-11.5 3.2-60.4 2.3-60.4 2.3 0 0-1.7-4.3-3.6-7-2-2.7-2.9-19.6-4.5-24.1q-0.4-1.1-0.9-1.8c-1.6-1.6-2.6-1.3-3.2-0.9l-0.7 0.9q-0.3 0.6-0.7 1.5c-1.6 4.5-2.5 21.4-4.5 24.1-1.9 2.7-3.6 7-3.6 7 0 0-48.9 0.9-60.4-2.3 0 0 1.2-6.1 23.2-21.4-3.7-0.4-13-3.2-26.9-13-11.2 10.8-22.1 22.8-28.4 33.7-15.8 27.7 83.5 22.3 101.1 15.4 0 0 1 0.1 2.1-1.1 1.1 1.4 2.3 1.4 2.3 1.4 17.6 6.9 116.9 12.3 101.1-15.5z"/>
	<path class="s16" d="m432.3 650.4c0 0 3.2-2.5 5.1 0 0 0 4.3-1.5 6.3-0.5 2 0.9 3.4-0.3 7.6 0.5 4.2 0.9 5.2-0.6 7.6 0l-3.4-7.8c-0.4-1.1-1.6-1.8-2.8-1.8l-12.6-0.6c-1.2 0-2.3 0.6-2.9 1.7z"/>
	<path class="s17" d="m392.7 396.9c7.5-6.8 14.7-12.8 19.2-15.3 13.4-7.5 19.3 3 19.3 3l0.5 27.2c11.4 2.8 26.8 5 46.5 4.4 1-7 2.2-14.4 3.3-22.4 8.6-59.9-19.8-86.8-19.8-86.8h-70.3c-9.2 11.4-12.3 24.2-13.4 32.4-0.7 5.8-3.4 11.2-7.6 15.2-3 2.8-6.7 6.4-10.8 10.5 5.9 9.9 16.6 23.5 33.1 31.8z"/>
	<g style="opacity: .5">
		<path class="s16" d="m432.1 428c0.3 4.7 0.5 9.6 0.8 14.3 0 2.4 0.1 4.8 0.2 7.2l0.2 7.2 0.1 7.2c0 2.4 0.1 4.8 0.1 7.2 0 4.7 0 9.6-0.2 14.3-0.4-4.7-0.6-9.6-0.8-14.3-0.1-2.4-0.2-4.8-0.3-7.2l-0.1-7.2-0.2-7.2c0-2.4 0-4.8 0-7.2 0-4.7 0-9.6 0.2-14.3z"/>
	</g>
	<path class="s14" d="m361 427.7c-2.6 1.9-5.3 3.5-8.1 5-2.9 1.5-5.7 2.9-8.8 4.1-1.5 0.6-3 1.1-4.5 1.7q-1.1 0.3-2.2 0.6l-1.2 0.4c-0.4 0.1-0.8 0.2-1.2 0.3l-2.3 0.6-2.3 0.4-1.2 0.2-1.2 0.2c-0.8 0.1-1.6 0.2-2.4 0.3q1.2-0.4 2.4-0.6l1.1-0.3 1.2-0.4 2.2-0.6 2.3-0.8c3-0.9 6-2 9-3.2 0.7-0.3 1.4-0.5 2.2-0.9q1-0.4 2.1-0.9l2.2-1c0.8-0.3 1.5-0.6 2.2-1 2.8-1.2 5.7-2.6 8.5-4.1z"/>
	<path class="s14" d="m426.5 229.2c0.3 3.7 0.4 7.5 0.5 11.3 0.1 1.9 0.1 3.7 0.1 5.6l0.1 5.6-0.1 5.7c0 1.9 0 3.7 0 5.6-0.1 3.8-0.3 7.5-0.5 11.3-0.3-3.8-0.4-7.5-0.5-11.3 0-1.9-0.1-3.7-0.1-5.6v-5.7-5.6c0.1-1.9 0.1-3.7 0.1-5.6 0-3.8 0.2-7.6 0.4-11.3z"/>
	<path class="s14" d="m355.5 260.7c-3.1-0.1-6.2 0-9.3 0.3-1.6 0.2-3.1 0.4-4.6 0.7-1.6 0.3-3 0.7-4.6 1.1q0.5-0.3 1.1-0.5l0.5-0.3 0.6-0.2 1.1-0.4 1.1-0.3c0.2-0.1 0.4-0.2 0.6-0.2l0.6-0.1q0.5-0.2 1.1-0.3 1.2-0.2 2.4-0.3c1.6-0.2 3.1-0.2 4.7-0.2 1.6 0.2 3.1 0.3 4.7 0.7z"/>
	<path class="s14" d="m497.8 260.9c3.2 0 6.3 0.1 9.4 0.4 1.5 0.1 3 0.4 4.6 0.7 1.5 0.2 3 0.7 4.5 1.1q-0.5-0.3-1.1-0.6l-0.5-0.2-0.6-0.2-1.1-0.4-1.1-0.4c-0.2 0-0.4-0.1-0.6-0.1l-0.5-0.1q-0.6-0.2-1.2-0.3-1.1-0.2-2.4-0.3c-1.5-0.2-3.1-0.2-4.7-0.2-1.5 0.1-3.1 0.3-4.7 0.6z"/>
	<path class="s10" d="m393 124.5c0 0 11.1-22.7 21.6-25.5 10.5-2.7 7.9 8.4 23.8 12.8 15.9 4.3 10 15.9 23 12.7l0.9-7.3c0 0-5.1-12.9-5.1-13.4 0-0.5-8.7-9.4-9.6-9.7-1-0.4-9.4-3.7-10.5-3.9-1.1-0.2-12.1-2.2-12.6-2.2-0.5 0-8.5-0.5-10.8 0.8-2.2 1.3-10.1 1-12.9 4.2-2.7 3.2-4.5 11.1-5 12.1-0.4 1.1-5 8.6-4.9 10 0.1 1.5 2.1 9.4 2.1 9.4z"/>
	<path class="s18" d="m420.7 147.9c0 0 4.4-2 8.8 0.4 0 0 4.3-3.3 8.2-0.9 0 0-1.1 7-8.6 7.2-7.5 0.2-8.4-6.7-8.4-6.7z"/>
	<path class="s19" d="m416.6 145.8q1.4 0.9 2.8 1.6c1 0.5 2 0.9 3 1.3 2 0.6 4.2 1.1 6.3 1.1 2.1 0 4.2-0.5 6.2-1.3 2-0.8 3.8-2 5.5-3.4q-1.1 1.2-2.4 2.3c-0.9 0.7-1.9 1.2-2.9 1.7-1 0.5-2 0.8-3.1 1.1-1.1 0.3-2.2 0.3-3.3 0.4-2.3 0-4.5-0.5-6.5-1.3-2.1-0.9-4-2-5.6-3.5z"/>
	<path class="s20" d="m407.4 131.7c0.4 0.6 0.8 1.1 1.3 1.6-0.2 0-0.5 0.1-0.7 0.1q-0.5 0.1-1.1-0.1c-0.1 0-0.3 0-0.5 0q-0.2-0.1-0.5-0.2c0.2 0.1 0.3 0.2 0.5 0.2 0.2 0 0.3 0.1 0.5 0.2 0.3 0.1 0.7 0.1 1.1 0.2 0.3 0 0.7 0 1-0.1-0.2 0.2-0.3 0.3-0.5 0.4q-0.4 0.2-1 0.4-0.2 0-0.5 0.1-0.2 0-0.5 0c0.2 0 0.4 0 0.5 0q0.3 0.1 0.5 0c0.4 0 0.8-0.1 1.1-0.2 0.3-0.1 0.6-0.3 0.9-0.4 3.9 2.6 9.8 1.2 12.2-2.2-5.5 2.1-10 1.9-14.3 0z"/>
	<path class="s20" d="m449.1 131.7c-0.4 0.6-0.8 1.1-1.3 1.6 0.3 0 0.5 0.1 0.7 0.1q0.5 0.1 1.1-0.1c0.1 0 0.3 0 0.5 0q0.2-0.1 0.5-0.2c-0.2 0.1-0.3 0.2-0.5 0.2-0.2 0-0.3 0.1-0.5 0.2-0.3 0.1-0.7 0.1-1.1 0.2-0.3 0-0.7 0-1-0.1 0.2 0.2 0.3 0.3 0.5 0.4q0.5 0.2 1 0.4 0.2 0 0.5 0.1 0.2 0 0.5 0c-0.2 0-0.4 0-0.5 0q-0.3 0.1-0.5 0c-0.4 0-0.8-0.1-1.1-0.2-0.3-0.1-0.6-0.3-0.9-0.4-3.9 2.6-9.8 1.2-12.2-2.2 5.5 2.1 10 1.9 14.3 0z"/>
	<path class="s10" d="m236.7 241.8c0 0 0.7-18.5-19.1-22.9-19.8-4.5-23.6 18.2-38.1 16 0 0 15.2 17.6 32.1 12.4 12.9-4 17.9-2.4 19.7-1.5 1 0.6 2.2 0.8 3.3 0.4 1.3-0.4 2.5-1.5 2.1-4.4z"/>
	<path class="s15" d="m223 245.4c-0.4-0.5-0.3-1.2 0.2-1.6 2.2-1.4 7.7-4.6 14.3-4.9 0.6-0.1 1.1 0.4 1.1 1 0 0.6-0.4 1.1-1 1.1-6 0.3-11.2 3.3-13.2 4.6-0.5 0.3-1.1 0.2-1.4-0.2z"/>
	<path class="s10" d="m213.5 279c0 0-5.7-23.3 7.8-32 13.6-8.8 27.9-7.8 37.6-2.6 9.8 5.3 15.6 23.5 11.2 33.9l-32.4-9.9z"/>
	<path class="s11" d="m220.6 318l46.8 1.1-22.2 20.3z"/>
	<path class="s21" d="m268.8 317.8c-4.8-0.3-6.8 0.5-11.3 2.7-4 2-8.7 3.4-13.7 3.3-5.1 0.1-9.7-1.3-13.7-3.3-4.5-2.2-9.3-3.1-14-2.7 2.5 35.6-6.3 40.8-6.3 40.8l7.6 49.5c0 0 10.6 6.7 26.4 6.2 15.8 0.5 26.5-6.2 26.5-6.2l7-50.4c0-0.1-11.1-4.4-8.5-39.9z"/>
	<path class="s11" d="m247.2 535.1l-0.8-38.4c-0.7-13.4-9.8-8.2-17.7-5.2-0.5 0.2-1 0.4-1.6 0.6-0.3 5.3-0.7 12.6-1 18 1.9 0.1 3.2 0.5 4 1.1 3 1.9 7.3 12.9 9.7 19.3 1 2.9 4.3 4.7 7.4 4.6z"/>
	<path class="s11" d="m263.5 632.8c0 0 0.1-1.2 0.4-3.3l-14.9-4.1 0.2 6.8c0.1 5 0.1 12.4-0.1 13.2-0.4 1.3-7.4 12.6-2.6 12.6 4.8 0 9.8 0 9.8 0 0 0 5.1 0 9.9 0 4.8 0-2.3-11.3-2.6-12.6-0.3-0.8-0.2-7.6-0.1-12.6z"/>
	<path class="s11" d="m251.5 304.2h-15.9v16h15.9z"/>
	<path class="s14" d="m251.5 313.8v-9.6h-15.9v8.2c3.4 1.8 8.5 2.9 15.9 1.4z"/>
	<path class="s11" d="m274.3 275.7c-1.6-0.8-3.4-0.6-5 0.2 0.5-14.7-11.4-27-26.5-26.5-15.1-0.5-27 11.8-26.4 26.5-1.7-0.8-3.5-0.9-5-0.2-3 1.5-3.9 5.7-2.1 9.4 1.9 3.8 5.7 5.6 8.7 4.1 0.5-0.2 0.8-0.5 1.1-0.8 1.8 12.2 11.9 21.3 23.7 21.1 11.9 0.2 22-8.9 23.7-21.1 0.3 0.3 0.7 0.6 1.1 0.8 3 1.5 6.9-0.3 8.7-4.1 1.9-3.7 0.9-7.9-2-9.4z"/>
	<path class="s10" d="m238.6 276.6q-1.7-0.6-3.2-0.9c-1.1-0.2-2.1-0.3-3.1-0.1-1 0.1-2 0.3-3 0.7l-0.4 0.2c-0.1 0-0.3 0.1-0.3 0.1l-0.8 0.4c-0.5 0.2-0.9 0.6-1.5 0.8q0.5-0.8 1.1-1.5c0.4-0.3 0.8-0.8 1.3-1.1 1-0.7 2.3-1.1 3.5-1.3 1.2-0.1 2.5 0.1 3.6 0.6 1 0.4 2.1 1.1 2.8 2.1z"/>
	<path class="s10" d="m247.5 276.5c0.8-0.9 1.8-1.6 2.9-2.1 1.1-0.5 2.4-0.7 3.6-0.5 1.2 0.1 2.4 0.5 3.5 1.2 0.5 0.3 0.9 0.8 1.3 1.2 0.4 0.4 0.8 0.9 1.1 1.4-0.6-0.3-1.1-0.6-1.5-0.8l-0.8-0.4c-0.1 0-0.2-0.1-0.3-0.2l-0.4-0.1c-1-0.4-2-0.6-3-0.7q-1.5-0.2-3.1 0.2-1.6 0.2-3.3 0.8z"/>
	<path class="s14" d="m243.2 279.4c-0.1 1.2 0 2.4 0.2 3.5 0.1 0.6 0.3 1.2 0.5 1.8 0.2 0.5 0.5 1.1 1 1.6l0.2 0.2 0.2 0.1c0.1 0.1 0.2 0.1 0.3 0.2 0.1 0.1 0.2 0.3 0.3 0.5 0.2 0.3 0.1 0.8-0.1 1.2-0.4 0.9-1.4 1.6-2.4 2.1 1.2-0.1 2.4-0.5 3.2-1.6 0.4-0.6 0.6-1.4 0.3-2.1q0-0.3-0.2-0.5-0.2-0.3-0.4-0.5c-0.1-0.1-0.2-0.2-0.4-0.3-0.1 0-0.1-0.1-0.1-0.1l-0.1-0.1c-0.4-0.3-0.7-0.8-0.9-1.3-0.2-0.4-0.4-1-0.6-1.5-0.3-1-0.6-2-1-3.2z"/>
	<path class="s16" d="m246.5 652.6c0 0 2.2-1.8 3.6 0 0 0 3.1-1 4.5-0.4 1.4 0.7 2.3-0.2 5.4 0.4 3 0.7 3.6-0.4 5.4 0l-2.4-5.5c-0.4-0.8-1.2-1.4-2-1.4l-9-0.4c-0.9 0-1.7 0.4-2.1 1.2z"/>
	<g style="opacity: .5">
		<path class="s22" d="m246.3 494.2c0.3 3.4 0.5 6.9 0.6 10.3 0.1 1.7 0.1 3.4 0.2 5.1l0.1 5.1 0.1 5.1c0 1.7 0 3.4 0 5.1 0 3.4 0 6.9-0.1 10.3-0.3-3.4-0.4-6.9-0.6-10.3 0-1.7-0.1-3.4-0.1-5.1l-0.2-5.1v-5.1c0-1.7-0.1-3.4-0.1-5.1 0-3.5 0-6.9 0.1-10.3z"/>
	</g>
	<path class="s23" d="m195.7 494c-1.8 1.4-3.8 2.5-5.8 3.6q-3 1.6-6.2 2.9-1.6 0.6-3.2 1.2c-0.6 0.1-1.1 0.3-1.6 0.5l-0.9 0.2c-0.2 0.1-0.5 0.2-0.8 0.2l-1.7 0.5-1.6 0.3-0.9 0.2-0.8 0.1c-0.6 0.1-1.2 0.2-1.7 0.2 0.5-0.1 1.1-0.3 1.6-0.4l0.8-0.2 0.8-0.3 1.7-0.4 1.6-0.6c2.2-0.6 4.3-1.4 6.4-2.2q0.7-0.4 1.6-0.7 0.7-0.3 1.5-0.6l1.5-0.7q0.8-0.4 1.6-0.7c2.1-1 4.1-2 6.1-3.1z"/>
	<path class="s20" d="m259.7 281.6c-0.3 0.4-1 1.2-1.6 1.6-3 2-7.4 0.9-9.2-1.6 4.1 1.6 7.5 1.5 10.8 0z"/>
	<path class="s20" d="m227.1 281.6c0.3 0.4 0.9 1.2 1.5 1.6 3 2 7.4 0.9 9.2-1.6-4.1 1.6-7.5 1.5-10.7 0z"/>
	<path class="s24" d="m270.2 408.1h-52.8c-108.6 130.9-64.5 114.6 10.7 102.3 0.2-6.1-0.1-13.2-0.4-18.5-1.6 1.8-29.6 1.8-32 2.1 4.3-2.9 51.6-58.6 50.2-18.9 0 0 0.4 21.6 0.5 21.6q0-0.5-0.1-0.9l0.7 39.3q0.1 0 0.2 0c0 3.6 0 70.3 0.5 96.8h16.7c3-26.5 12.6-76.8 15.7-104.6 5.6-56.2 15-90.5-9.9-119.2z"/>
	<path class="s11" d="m315.8 374.6c-4.4-7.8-47-56.9-47-56.9 0 0 2.4 25.2 10.1 34.9l-1.6 5c12.3 13.4 15.8 17.4 15.8 17.4-8.2 2.4-43.1 1.7-43.1 1.7 0 0-1.1-3.1-2.5-5-1.5-1.9-2.1-14-3.3-17.2q-0.2-0.6-0.4-1.1l-0.5-0.5c-0.2-0.2-0.5-0.3-0.9-0.2-0.4-0.1-0.7 0.1-0.8 0.2l-0.5 0.5c-0.1 0.3-0.3 0.7-0.4 1.1-1.2 3.2-1.8 15.3-3.3 17.2-1.4 2-2.5 5-2.5 5 0 0-34.9 0.7-43.1-1.7 0 0 0.9-4.3 16.6-15.1l3.1-2.8c7.8-9.7 4.6-39.4 4.6-39.4 0 0-42.6 49-47 56.8-11.3 19.8 59.4 15.9 72 11 0 0 0.6 0.1 1.4-0.7v-0.1c0.7 0.9 1.4 0.8 1.4 0.8 5.3 2.1 21 4 36.5 4 21 0 41.9-3.5 35.4-14.9z"/>
	<path class="s25" d="m288.6 389.5h-8.3-8.6c5.6 0.3 11.4 0.3 16.9 0z"/>
	<path class="s14" d="m242.4 352.7c0.2 2.6 0.2 5.3 0.3 8 0.1 1.3 0.1 2.7 0.1 4l0.1 4v4c-0.1 1.4-0.1 2.7-0.1 4-0.1 2.7-0.2 5.4-0.4 8.1-0.1-2.7-0.2-5.4-0.3-8.1-0.1-1.3-0.1-2.6-0.1-4v-4-4c0-1.3 0-2.7 0-4 0.1-2.7 0.2-5.4 0.4-8z"/>
	<path class="s14" d="m191.8 375.1c-2.2-0.1-4.4 0-6.6 0.2-1.1 0.1-2.2 0.3-3.3 0.5-1.1 0.2-2.1 0.5-3.2 0.8q0.4-0.2 0.8-0.4l0.3-0.1 0.4-0.2 0.8-0.3 0.8-0.2q0.2 0 0.4-0.1l0.4-0.1c0.3 0 0.6-0.1 0.9-0.2q0.8-0.1 1.6-0.2 1.7-0.2 3.4-0.1c1.1 0 2.2 0.1 3.3 0.4z"/>
	<path class="s14" d="m293.2 375.3c2.2 0 4.4 0 6.6 0.3 1.1 0 2.2 0.3 3.2 0.4 1.1 0.2 2.2 0.5 3.3 0.8q-0.4-0.2-0.8-0.3l-0.4-0.2-0.4-0.2-0.8-0.3-0.8-0.2q-0.2-0.1-0.4-0.1l-0.4-0.1c-0.2-0.1-0.5-0.1-0.8-0.2q-0.8-0.1-1.7-0.2-1.7-0.2-3.3-0.2c-1.1 0.1-2.3 0.2-3.3 0.5z"/>
	<path class="s26" d="m216.1 317.8c0 0-10.3 5.1-16.4 9.5-6.2 4.4-6 25.1 10 31.3 16.1 6.3 12.9-20.4 12.9-20.4z"/>
	<path class="s26" d="m268.7 317.8c0 0 10.2 5.1 16.4 9.5 6.1 4.4 6 25.1-10.1 31.3-16 6.3-12.9-20.4-12.9-20.4z"/>
	<path class="s19" d="m235.5 293.1c0.8 3 4.3 5.1 8.5 5.1 5.3 0 7.7-2.3 8.4-5.3z"/>
	<path class="s10" d="m217.3 277.2c0 0 18-7.3 27.7-18.5 0 0-0.3 6.1-2.3 8.3 0.7 0.4 13.2-4.6 16.1-14.2 2.8-9.6-14.3-5.9-14.3-5.9 0 0-9.7-1.6-10.1-1.4-0.5 0.3-7.4 4.4-7.7 4.8-0.3 0.3-9.5 13.3-9.5 13.3l-2.3 4.8-0.5 6.6z"/>
	<path class="s27" d="m517 661.5c0 1.9-75.6 3.5-169 3.5-93.4 0-169-1.5-169-3.5 0-1.9 75.6-3.5 169-3.5 93.4 0 169 1.6 169 3.5z"/>
</svg>