<svg width="420" height="506" viewBox="0 0 420 506" fill="none" xmlns="http://www.w3.org/2000/svg">
<path fill-rule="evenodd" clip-rule="evenodd" d="M0 20C0 8.95429 8.95431 0 20 0H400C411.046 0 420 8.95431 420 20V476.574C419.102 477.59 418.231 478.63 417.38 479.686C405.615 476.588 393.058 476.515 381.291 479.648C372.453 482.047 364.194 486.134 355.932 490.223C350.629 492.847 345.325 495.471 339.866 497.651C309.604 509.776 274.766 507.812 244.892 494.862C243.263 494.163 241.619 493.428 239.963 492.687C229.332 487.931 218.204 482.952 207.189 485.962C202.031 487.342 197.485 490.379 192.951 493.408C187.861 496.809 182.786 500.2 176.879 501.222C167.251 502.897 158.563 498.133 149.732 493.291C143.442 489.842 137.078 486.353 130.252 485.123C118.237 482.949 106.818 487.855 95.2937 492.806C85.5533 496.991 75.7372 501.209 65.4217 501.211C53.9476 501.247 43.227 495.987 32.8487 490.895L32.7091 490.826C22.4078 485.823 11.5 480.706 0 481.148V20Z" fill="white"/>
</svg>
