<!DOCTYPE svg PUBLIC "-//W3C//DTD SVG 1.1//EN" "http://www.w3.org/Graphics/SVG/1.1/DTD/svg11.dtd">
<!-- Uploaded to: SVG Repo, www.svgrepo.com, Transformed by: SVG Repo Mixer Tools -->
<svg height="64px" width="64px" version="1.1" id="Capa_1" xmlns="http://www.w3.org/2000/svg" xmlns:xlink="http://www.w3.org/1999/xlink" viewBox="0 0 314.86 314.86" xml:space="preserve" fill="#8c00ff">
<g id="SVGRepo_bgCarrier" stroke-width="0"/>
<g id="SVGRepo_tracerCarrier" stroke-linecap="round" stroke-linejoin="round"/>
<g id="SVGRepo_iconCarrier"> <g> <path style="fill:#8c00ff;" d="M309.585,83.148c0-26.97-6.844-53.594-19.804-76.996L286.374,0h-37.687H66.179H28.492l-3.407,6.152 c-12.96,23.402-19.81,50.026-19.81,76.996c0,81.967,61.888,149.333,140.221,155.604v52.24H73.894v23.867h171.052v-23.867h-75.582 v-52.24C247.697,232.481,309.585,165.109,309.585,83.148z M285.718,83.148c0,41.35-18.509,78.315-47.425,102.588 c16.504-27.466,26.541-63.344,26.541-102.588c0-20.377-2.763-40.563-7.996-59.287h15.257 C281.028,42.192,285.718,62.545,285.718,83.148z M231.956,23.862c5.907,18.36,9.01,38.683,9.01,59.287 c0,72.927-37.472,132.268-83.536,132.268S73.894,156.081,73.894,83.148c0-20.598,3.103-40.915,9.01-59.287 C82.904,23.862,231.956,23.862,231.956,23.862z M29.142,83.148c0-20.604,4.696-40.951,13.622-59.287h15.257 c-5.233,18.73-7.996,38.91-7.996,59.287c0,39.244,10.036,75.123,26.541,102.582C47.651,161.458,29.142,124.493,29.142,83.148z"/> </g> </g>
</svg>