<!-- Generated by IcoMoon.io -->
<svg version="1.1" xmlns="http://www.w3.org/2000/svg" width="768" height="768" viewBox="0 0 768 768">
<g id="icomoon-ignore">
</g>
<path fill="#000" d="M736 384c0-97.184-39.424-185.248-103.104-248.896s-151.712-103.104-248.896-103.104-185.248 39.424-248.896 103.104-103.104 151.712-103.104 248.896 39.424 185.248 103.104 248.896 151.712 103.104 248.896 103.104 185.248-39.424 248.896-103.104 103.104-151.712 103.104-248.896zM672 384c0 79.552-32.192 151.488-84.352 203.648s-124.096 84.352-203.648 84.352-151.488-32.192-203.648-84.352-84.352-124.096-84.352-203.648 32.192-151.488 84.352-203.648 124.096-84.352 203.648-84.352 151.488 32.192 203.648 84.352 84.352 124.096 84.352 203.648zM416 512v-178.752l73.376 73.376c12.512 12.512 32.768 12.512 45.248 0s12.512-32.768 0-45.248l-128-128c-3.072-3.072-6.592-5.376-10.368-6.944-3.904-1.632-8.096-2.432-12.256-2.432-8.192 0-16.384 3.136-22.624 9.376l-128 128c-12.512 12.512-12.512 32.768 0 45.248s32.768 12.512 45.248 0l73.376-73.376v178.752c0 17.664 14.336 32 32 32s32-14.336 32-32z"></path>
</svg>
